<?xml version="1.0" encoding="UTF-8"?>
<svg id="Layer_1" data-name="Layer 1" xmlns="http://www.w3.org/2000/svg" width="331.77" height="114.08" viewBox="0 0 331.77 114.08">
  <g>
    <g>
      <path d="M34.3,22.47h18.08c.5,0,1.43.94,1.43,1.43v12.96c.28-.13.54-.3.84-.39,4.55-1.41,9.62-2.08,14.21-3.43.62.04,1.31.36,1.57.94l17.45,71.76c.27,2.1-1.51,2.12-3.05,2.52-4.14,1.07-8.33,1.96-12.48,3-.63-.01-1.2-.36-1.52-.89l-17.03-69.86v69.54c0,.38-.74,1.32-1.2,1.36-15.57.16-31.17.02-46.75.07-1-.06-1.51-.81-1.61-1.74l-.02-104.38c.07-.96.31-1.66,1.3-1.95,9.19-.1,18.45-.15,27.63.03.4.03,1.13.78,1.13,1.14v17.89ZM33.32,4.43H5.32s0,105.97,0,105.97h28s0-105.97,0-105.97ZM34.2,23.56v86.94s18.53,0,18.53,0V23.56s-18.53,0-18.53,0ZM73.71,51.94l-4.39-17.73c-.35-.23-1.1.05-1.52.14-4.33.93-8.6,2.21-12.93,3.13-.36.08-.57.4-.53.77l4.29,17.64,15.07-3.95ZM74.8,56.48c-.03-.44-.63-3.4-.78-3.5-.07-.05-.17-.05-.25-.05l-14.83,3.86c.02.43.63,3.39.77,3.5.07.05.16.05.25.05l14.83-3.85ZM60.02,61.31c-.08.08.37,1.88.44,2.17,3.59,15.47,7.62,30.85,11.24,46.32.19.26.4.49.75.38l14.11-3.44c.23-.16.4-.41.34-.7l-11.81-48.67-15.08,3.95Z" fill="#271f23"/>
      <g>
        <path d="M34.2,23.56h18.53s0,86.94,0,86.94h-18.53s0-86.94,0-86.94ZM49.08,26.52c.02.6.2,1.18.37,1.75.14.48.68,2.67,1.33,1.47s1.14-4.09.01-5.08c-1-.89-4.65-.92-5.93-.64-.62.14-2.24.64-1.84,1.51.62,1.35,4.81.91,6.06.99ZM50.13,32.05c-.17.05-.37.4-.42.57-.25.95.91,2.64,1.44,1.44.36-.83.07-2.35-1.02-2.01ZM41.37,33.14c-.62.11-.81.63-.87,1.2v70.97c.05.52.32,1,.86,1.11.64.13,3.4.1,4.12.02.57-.07,1.03-.43,1.04-1.03V34.05c-.02-.41-.46-.87-.85-.93-.66-.1-3.66-.1-4.31.02ZM35.55,103.21c-.64.21-.29,3.25-.26,3.88.05.92-.27,1.8.65,2.4.84.55,1.89.29,2.79.06.49-.12,2.66-.62,1.55-1.35-.42-.28-2.7-.83-2.79-.96-.06-.49-.1-.98-.21-1.47-.15-.66-.78-2.88-1.74-2.57ZM42.75,107.86c-.62.13-1.15.79-.62,1.36s1.66.42,2.34.26c.78-.18,1.79-.66.6-1.23-.56-.27-1.72-.52-2.32-.39Z" fill="#ec568a"/>
        <path d="M49.08,26.52c-1.25-.08-5.44.36-6.06-.99-.4-.87,1.22-1.37,1.84-1.51,1.29-.28,4.93-.25,5.93.64,1.12.99.63,3.89-.01,5.08s-1.19-.99-1.33-1.47c-.17-.57-.35-1.15-.37-1.75Z" fill="#fffdfe"/>
        <path d="M35.55,103.21c.97-.32,1.59,1.9,1.74,2.57.11.48.14.98.21,1.47.09.13,2.36.68,2.79.96,1.11.73-1.06,1.23-1.55,1.35-.9.22-1.95.48-2.79-.06-.92-.6-.6-1.48-.65-2.4-.03-.63-.38-3.67.26-3.88Z" fill="#fffcfd"/>
        <path d="M42.75,107.86c.6-.12,1.76.12,2.32.39,1.19.57.19,1.05-.6,1.23-.68.16-1.82.31-2.34-.26s0-1.23.62-1.36Z" fill="#fefafc"/>
        <path d="M50.13,32.05c1.09-.34,1.39,1.18,1.02,2.01-.53,1.21-1.68-.49-1.44-1.44.04-.17.25-.52.42-.57Z" fill="#fef9fc"/>
        <g>
          <path d="M41.37,33.14c.65-.12,3.65-.12,4.31-.02.39.06.83.51.85.93v71.37c0,.6-.47.96-1.04,1.03-.72.08-3.47.11-4.12-.02-.54-.11-.81-.59-.86-1.11V34.35c.05-.57.24-1.09.86-1.2ZM41.49,34.11v71.36h4.05V34.11h-4.05Z" fill="#272022"/>
          <path d="M41.49,34.11h4.05v71.36h-4.05V34.11ZM43.75,62.2s-.26-.02-.28,0c-.36.23-.36,4.13-.4,4.78-.23,4.76-.41,9.5-.2,14.28.02.57-.06,3.08.39,3.36.9.55,1.1-1.77,1.17-2.28.61-4.51.06-9.72-.19-14.27-.08-1.49,0-3.15-.19-4.64-.02-.18-.23-1.18-.3-1.23Z" fill="#f197b9"/>
          <path d="M43.75,62.2c.07.05.28,1.04.3,1.23.19,1.48.11,3.14.19,4.64.25,4.56.79,9.77.19,14.27-.07.51-.27,2.83-1.17,2.28-.45-.27-.36-2.79-.39-3.36-.21-4.78-.04-9.52.2-14.28.03-.65.04-4.55.4-4.78.03-.02.25-.02.28,0Z" fill="#fffefe"/>
        </g>
      </g>
      <g>
        <g>
          <path d="M60.02,61.31l15.08-3.95,11.81,48.67c.06.29-.1.54-.34.7l-14.11,3.44c-.35.11-.56-.12-.75-.38-3.63-15.47-7.65-30.84-11.24-46.32-.07-.28-.52-2.09-.44-2.17ZM71.21,100.15c-.76,1.62.03,4.21.63,5.86.5,1.35.99,2.53,2.7,2.31.56-.07,2.98-1.18,2.32-1.91-.3-.33-1.83-.51-2.08-.78-.13-.14-.6-1.72-.76-2.09-.56-1.27-1.47-2.89-2.82-3.38ZM79.81,104.8c-1.24.18-1.65,1.48-.52,1.56,1.2.08,3.32-1.96.52-1.56Z" fill="#596cb3"/>
          <path d="M71.21,100.15c1.35.49,2.26,2.11,2.82,3.38.17.38.64,1.95.76,2.09.24.27,1.78.45,2.08.78.66.74-1.76,1.84-2.32,1.91-1.72.22-2.21-.96-2.7-2.31-.61-1.65-1.4-4.24-.63-5.86Z" fill="#fcfeff"/>
          <path d="M79.81,104.8c2.8-.41.68,1.64-.52,1.56-1.13-.08-.72-1.38.52-1.56Z" fill="#f7f9fd"/>
        </g>
        <g>
          <path d="M73.71,51.94l-15.07,3.95-4.29-17.64c-.04-.36.17-.69.53-.77,4.34-.92,8.6-2.21,12.93-3.13.42-.09,1.17-.36,1.52-.14l4.39,17.73ZM65.82,35.71c-1.33.12-3.97.8-4.73,1.97-.25.39-.42.78.03,1.11,1.07.77,4.09-.3,5.26-.73.28.46,1.54,2.93,1.9,3.03.31.08.54-.17.6-.45.22-1,.23-3.06-.22-3.97-.59-1.19-1.65-1.06-2.83-.95ZM68.62,42.61c-1.12,1.05,1.83,3.36,1.43.93-.1-.58-.89-1.44-1.43-.93Z" fill="#596cb3"/>
          <path d="M65.82,35.71c1.18-.1,2.24-.24,2.83.95.45.92.44,2.97.22,3.97-.06.28-.29.53-.6.45-.36-.1-1.62-2.57-1.9-3.03-1.18.43-4.19,1.5-5.26.73-.45-.32-.28-.72-.03-1.11.76-1.17,3.4-1.85,4.73-1.97Z" fill="#fcfdff"/>
          <path d="M68.62,42.61c.54-.51,1.33.35,1.43.93.4,2.42-2.55.12-1.43-.93Z" fill="#f8f9fd"/>
        </g>
        <g>
          <path d="M74.8,56.48l-14.83,3.85c-.08,0-.18,0-.25-.05-.15-.1-.76-3.07-.77-3.5l14.83-3.86c.08,0,.18,0,.25.05.14.11.75,3.06.78,3.5ZM61.7,58.06c2.25.31,4.23-.03,6.33-.81.46-.17,3.39-1.4,3.53-1.6.57-.77-.88-.57-1.23-.54-2.25.22-4.99.91-7.06,1.81-.31.14-1.31.57-1.52.73-.12.1-.05.27-.06.4Z" fill="#56c7ec"/>
          <path d="M61.7,58.06c.02-.13-.06-.31.06-.4.21-.16,1.21-.59,1.52-.73,2.07-.9,4.81-1.59,7.06-1.81.35-.03,1.8-.24,1.23.54-.14.19-3.07,1.42-3.53,1.6-2.1.78-4.08,1.12-6.33.81Z" fill="#fafdff"/>
        </g>
      </g>
    </g>
    <g>
      <path d="M33.32,4.43v105.97s-28,0-28,0V4.43s28,0,28,0ZM24.21,13.53c-.15-.17-.39-.21-.6-.23-2.77-.26-5.96.2-8.77.01-.57.09-.71.68-.82,1.15l-.03,38.91c.08.56.18,1.38.86,1.5l8.84.02c.43-.07.7-.48.82-.86.21-13.26.21-26.61,0-39.86-.04-.14-.21-.55-.3-.64ZM11.72,44.17c-.32-.18-.46.37-.53.58-.95,3.04,0,7.93-.33,11.18.16,1.31,1.17,1.77,2.39,1.63.54-.06,2.69-.6,1.59-1.27-.61-.37-1.47-.67-2.13-.95l-.09-7.18c-.04-.61-.45-3.73-.9-3.98ZM16.83,55.91c-.66.07-1.43.82-.54,1.28.59.31,1.36.16,1.91-.2.97-.65-.83-1.14-1.37-1.08ZM24.62,82.24c-1.24.07-4.66.41-5.59,1.11-.22.17-.42.32-.21.59.57.75,5.66.7,6.76.73l3.23.21.15.15c.01.58.13,1.15.26,1.71.11.45.55,2.65,1.23,2.02.18-.17.68-2.22.75-2.6.19-1.12.13-2.82-1.04-3.41-1.26-.63-4.12-.59-5.54-.51ZM11.41,85.38c-.52.16-.89.56-.96,1.11.05,6.35-.09,12.72.07,19.06.19.55.68.89,1.26.91,4.84-.33,10.22.42,14.99,0,.86-.08,1.38-.56,1.43-1.43-.05-6.25.09-12.52-.07-18.76-.19-.52-.59-.9-1.16-.91l-15.55.03ZM30.23,91.09c-1.45.29-.6,4.08.92,2.9,1.05-.82.34-3.15-.92-2.9Z" fill="#5db146"/>
      <path d="M24.62,82.24c1.42-.08,4.28-.11,5.54.51,1.17.58,1.23,2.29,1.04,3.41-.06.38-.57,2.43-.75,2.6-.68.63-1.12-1.57-1.23-2.02-.13-.56-.25-1.13-.26-1.71l-.15-.15-3.23-.21c-1.1-.03-6.19.02-6.76-.73-.21-.27,0-.43.21-.59.93-.7,4.35-1.04,5.59-1.11Z" fill="#fcfefc"/>
      <path d="M11.72,44.17c.45.26.86,3.37.9,3.98l.09,7.18c.66.28,1.52.58,2.13.95,1.1.67-1.05,1.21-1.59,1.27-1.22.14-2.23-.32-2.39-1.63.33-3.24-.62-8.14.33-11.18.07-.21.21-.76.53-.58Z" fill="#fcfdfb"/>
      <path d="M30.23,91.09c1.26-.26,1.97,2.08.92,2.9-1.52,1.18-2.37-2.6-.92-2.9Z" fill="#fafcf9"/>
      <path d="M16.83,55.91c.54-.06,2.35.44,1.37,1.08-.55.36-1.32.51-1.91.2-.89-.47-.12-1.21.54-1.28Z" fill="#f8fcf8"/>
      <g>
        <path d="M11.41,85.38l15.55-.03c.57,0,.97.39,1.16.91.16,6.24.02,12.51.07,18.76-.05.87-.57,1.35-1.43,1.43-4.77.42-10.15-.33-14.99,0-.58-.01-1.07-.35-1.26-.91-.16-6.34-.02-12.71-.07-19.06.07-.55.45-.95.96-1.11ZM27.21,86.34h-15.78s0,19.13,0,19.13h15.78s0-19.13,0-19.13Z" fill="#232120"/>
        <path d="M27.21,86.34v19.13s-15.78,0-15.78,0v-19.13s15.78,0,15.78,0ZM14.3,102.7c-.03-1.05.05-2.11-.15-3.15-.15-.75-1.07-3.29-1.71-1.5-.36,1.01-.46,4.23-.17,5.25.5,1.75,2.14,1.33,3.39.63s-.81-1.06-1.36-1.23ZM19.39,103.87c.5-.52-.72-.94-1.12-.95-1.18-.06-1.34,1.29-.17,1.37.26.02,1.12-.24,1.29-.42Z" fill="#adc837"/>
        <path d="M14.3,102.7c.55.17,2.62.52,1.36,1.23s-2.89,1.13-3.39-.63c-.29-1.02-.19-4.24.17-5.25.63-1.79,1.56.75,1.71,1.5.2,1.04.12,2.1.15,3.15Z" fill="#fefefb"/>
        <path d="M19.39,103.87c-.17.17-1.03.43-1.29.42-1.17-.08-1.01-1.43.17-1.37.4.02,1.62.44,1.12.95Z" fill="#fbfdf7"/>
      </g>
      <g>
        <path d="M24.21,13.53c.08.09.26.5.3.64.21,13.26.21,26.61,0,39.86-.12.38-.38.79-.82.86l-8.84-.02c-.68-.12-.78-.94-.86-1.5l.03-38.91c.11-.47.25-1.06.82-1.15,2.81.19,6-.27,8.77-.01.21.02.45.07.6.23ZM23.66,14.29h-8.68v39.64h8.68V14.29Z" fill="#24211f"/>
        <path d="M23.66,14.29v39.64h-8.68V14.29h8.68ZM20.4,17.16c.06.51.87,3.61,1.6,2.33.46-.81.86-2.71.32-3.51s-2.71-.97-3.64-.89c-.54.05-2.91.51-2.17,1.37.59.68,3.01.64,3.88.7ZM21.96,23.64c.49-.28.69-2.51-.41-2.42-1.28.1-.45,2.92.41,2.42Z" fill="#adc837"/>
        <path d="M20.4,17.16c-.88-.06-3.3-.02-3.88-.7-.75-.87,1.62-1.33,2.17-1.37.93-.08,3.08.05,3.64.89s.14,2.71-.32,3.51c-.73,1.27-1.54-1.82-1.6-2.33Z" fill="#fefefb"/>
        <path d="M21.96,23.64c-.86.5-1.68-2.32-.41-2.42,1.1-.09.9,2.14.41,2.42Z" fill="#fdfefa"/>
      </g>
    </g>
  </g>
  <g>
    <g>
      <path d="M328.79,5.18v105.25h-27.81V5.18h27.81ZM320.36,13.13c.23,1.2.53,2.53.98,3.67.23.57.66.83.94.14.36-.91.58-3.77.27-4.68-.5-1.47-3.36-1.57-4.68-1.49-1.57.1-6.26,1.44-2.03,2.12,1.47.24,3.02.08,4.51.23ZM319.75,55.09c.24-.22.4-.95.43-1.29l-.03-38.55c-.14-.5-.19-1.15-.81-1.24h-8.9c-.7.19-.75,1-.84,1.61.09,12.94-.17,25.92.13,38.84.13.42.42.84.9.86,2.71-.19,5.75.25,8.43,0,.22-.02.53-.08.7-.23ZM321.51,18.91c-.81.27-.28,2.31.65,2.03.83-.25.38-2.37-.65-2.03ZM324.18,84.79c.13.11.5,2.81.9,3.36.65.9,1.23-1.37,1.33-1.78.49-1.96.39-3.38-1.81-3.91s-6.86-.56-8.76.58c-1.66.99.64,1.64,1.56,1.73,2.17.22,4.59-.14,6.78.02ZM307.03,85.59c-.65.21-.9.63-.96,1.3v18.32c0,.77.69,1.3,1.42,1.32,4.78-.31,10.07.4,14.79,0,.61-.05,1.09-.22,1.32-.83.19-6.39.09-12.84.05-19.24-.18-.51-.62-.87-1.17-.88l-15.45.03ZM324.94,89.99c-1.08.32-.69,2.9.64,2.6,1.22-.27.98-3.09-.64-2.6Z" fill="#5db246"/>
      <path d="M324.18,84.79c-2.2-.16-4.61.19-6.78-.02-.91-.09-3.22-.74-1.56-1.73,1.9-1.13,6.64-1.09,8.76-.58s2.3,1.95,1.81,3.91c-.1.41-.68,2.68-1.33,1.78-.4-.55-.77-3.25-.9-3.36Z" fill="#fcfdfc"/>
      <path d="M320.36,13.13c-1.49-.15-3.05,0-4.51-.23-4.23-.68.46-2.02,2.03-2.12,1.32-.08,4.18.02,4.68,1.49.31.91.09,3.77-.27,4.68-.27.69-.71.43-.94-.14-.45-1.13-.75-2.47-.98-3.67Z" fill="#fcfdfc"/>
      <path d="M324.94,89.99c1.62-.48,1.87,2.33.64,2.6-1.33.3-1.72-2.28-.64-2.6Z" fill="#fafdfa"/>
      <path d="M321.51,18.91c1.02-.35,1.48,1.78.65,2.03-.93.28-1.45-1.75-.65-2.03Z" fill="#f9fcf9"/>
      <g>
        <path d="M319.75,55.09c-.17.15-.47.21-.7.23-2.67.24-5.71-.19-8.43,0-.48-.03-.77-.44-.9-.86-.3-12.92-.04-25.9-.13-38.84.09-.61.14-1.42.84-1.61h8.9c.63.1.68.75.81,1.24l.03,38.55c-.03.33-.18,1.06-.43,1.29ZM310.58,15.08v39.26h8.62V15.08h-8.62Z" fill="#24211f"/>
        <path d="M310.58,15.08h8.62v39.26h-8.62V15.08ZM311.72,39.66c-.4.1-.54,1.7-.56,2.09-.15,2.39-.21,5.55-.1,7.94.04.91.11,2.57.8,3.22.62.59,2.29.61,2.93.11.81-.65-.89-1.27-1.05-1.78-.04-.14-.1-.67-.12-.86-.23-2.89.03-7.37-1.19-9.97-.11-.23-.37-.82-.7-.74ZM316.62,51.81c-1.47.14-1.07,2.2.62,1.7,1.37-.41.37-1.79-.62-1.7Z" fill="#aec837"/>
        <path d="M311.72,39.66c.33-.08.59.51.7.74,1.22,2.6.96,7.08,1.19,9.97.01.19.07.72.12.86.16.51,1.87,1.13,1.05,1.78-.63.5-2.31.48-2.93-.11-.68-.65-.76-2.31-.8-3.22-.11-2.39-.05-5.55.1-7.94.02-.39.16-1.99.56-2.09Z" fill="#fefefc"/>
        <path d="M316.62,51.81c.99-.09,1.98,1.29.62,1.7-1.68.5-2.09-1.56-.62-1.7Z" fill="#fdfdfa"/>
      </g>
      <g>
        <path d="M307.03,85.59l15.45-.03c.55.01.99.38,1.17.88.05,6.4.14,12.85-.05,19.24-.24.61-.72.78-1.32.83-4.72.4-10.01-.31-14.79,0-.73-.02-1.42-.56-1.42-1.32v-18.32c.06-.66.31-1.09.96-1.3ZM322.72,86.54h-15.67s0,19,0,19h15.67s0-19,0-19Z" fill="#232120"/>
        <path d="M322.72,86.54v19s-15.67,0-15.67,0v-19s15.67,0,15.67,0ZM308.79,96.35c-.2.05-.36.37-.44.55-.54,1.2-.67,5.27-.51,6.64.2,1.71,2.31,1.47,3.4.75,1.37-.91-.98-1.22-1.13-1.65-.04-1.51.04-3.05-.26-4.54-.09-.43-.46-1.9-1.06-1.75ZM313.59,103.31c-1.66.24-1.08,2.2.94,1.44,1.91-.72.17-1.59-.94-1.44Z" fill="#adc737"/>
        <path d="M308.79,96.35c.6-.15.97,1.32,1.06,1.75.3,1.49.22,3.03.26,4.54.15.43,2.5.74,1.13,1.65-1.09.72-3.2.96-3.4-.75-.16-1.36-.03-5.44.51-6.64.08-.18.24-.5.44-.55Z" fill="#fefefa"/>
        <path d="M313.59,103.31c1.11-.16,2.85.71.94,1.44-2.02.77-2.6-1.2-.94-1.44Z" fill="#fcfdf9"/>
      </g>
    </g>
    <g>
      <path d="M280.63,41.02l-16.91,69.38c-.41.66-1.04.94-1.82.8-4.17-1.06-8.4-1.91-12.55-3.01-1.15-.3-2.56-.39-2.59-1.92,5.66-23.93,11.52-47.84,17.36-71.74.26-.58.95-.89,1.56-.93,4.52,1.3,9.39,2.01,13.88,3.35.39.12.71.28,1.08.44v-12.87c0-.49.93-1.42,1.42-1.42h17.96V5.34c0-.35.69-1.02,1.05-1.11,9.03-.28,18.13-.04,27.19-.12.68.09,1.29.48,1.49,1.15l.02,105.02c-.14.6-.61.99-1.19,1.16-15.57.11-31.19.11-46.75,0-.46-.04-1.19-.97-1.19-1.35V41.02ZM328.79,5.18h-27.81v105.25h27.81V5.18ZM300.08,24.18h-18.39s0,86.35,0,86.35h18.39s0-86.35,0-86.35ZM260.86,52.37l14.98,3.78,4.26-17.38c.03-.45-.19-.7-.62-.76l-13.7-3.34-.55.09-4.36,17.61ZM275.53,57.18l-14.73-3.83-.25.05c-.08.44-.93,3.31-.77,3.48l14.97,3.92.78-3.61ZM274.46,61.68l-14.97-3.92-11.73,48.34c-.06.26.07.5.28.65l14.07,3.46c.29.06.54-.1.69-.34,3.66-15.06,7.42-30.11,11.01-45.19.24-1,.51-2.01.65-3.02Z" fill="#252023"/>
      <g>
        <g>
          <path d="M260.86,52.37l4.36-17.61.55-.09,13.7,3.34c.43.06.66.31.62.76l-4.26,17.38-14.98-3.78ZM276.41,40.05c-.1.95-.1,1.93,0,2.88.1.84.53.74.96.18.81-1.05,1.79-2.97.9-4.19-.55-.75-2.76-1.42-3.68-1.51-.46-.04-2.49-.06-2.37.7.13.89,3.36,1.79,4.19,1.94ZM276.19,44.76c-.96.29-.63,2.68.42,1.98.82-.55.61-2.29-.42-1.98Z" fill="#596cb3"/>
          <path d="M276.41,40.05c-.83-.16-4.05-1.05-4.19-1.94-.11-.76,1.91-.74,2.37-.7.92.08,3.13.75,3.68,1.51.9,1.22-.09,3.15-.9,4.19-.44.57-.87.66-.96-.18-.11-.96-.11-1.93,0-2.88Z" fill="#fbfdfe"/>
          <path d="M276.19,44.76c1.02-.31,1.24,1.43.42,1.98-1.05.7-1.38-1.69-.42-1.98Z" fill="#f7f9fd"/>
        </g>
        <g>
          <path d="M275.53,57.18l-.78,3.61-14.97-3.92c-.16-.17.7-3.04.77-3.48l.25-.05,14.73,3.83ZM263.28,55.54c-1.51.17-.41.72.31,1.1,2.02,1.07,5.89,1.99,8.18,2.1,1.85.09,1.81-.38.31-1.09-2.3-1.1-6.26-2.4-8.8-2.11Z" fill="#56c7ec"/>
          <path d="M263.28,55.54c2.54-.29,6.5,1.01,8.8,2.11,1.5.72,1.54,1.19-.31,1.09-2.29-.11-6.16-1.03-8.18-2.1-.72-.38-1.82-.93-.31-1.1Z" fill="#fafdff"/>
        </g>
        <g>
          <path d="M274.46,61.68c-.14,1.01-.41,2.02-.65,3.02-3.59,15.08-7.34,30.13-11.01,45.19-.15.23-.41.4-.69.34l-14.07-3.46c-.21-.15-.34-.4-.28-.65l11.73-48.34,14.97,3.92ZM251.23,98.21c-.42.12-.78,1.44-.9,1.85-.34,1.16-.69,2.71-.9,3.9-.17.99-.29,1.77.66,2.41.72.49,3.2.45,3.11-.47-.05-.47-1.18-1.34-1.52-1.69.33-1.6.73-3.42.32-5.03-.09-.36-.28-1.1-.76-.96ZM254.86,105.46c-1.33.15-1.18,1.97.76,1.84,2.55-.17.42-1.98-.76-1.84Z" fill="#596cb3"/>
          <path d="M251.23,98.21c.48-.13.67.6.76.96.4,1.62,0,3.43-.32,5.03.34.35,1.48,1.22,1.52,1.69.09.92-2.38.95-3.11.47-.95-.64-.84-1.42-.66-2.41.21-1.19.56-2.74.9-3.9.12-.41.49-1.73.9-1.85Z" fill="#fbfdfe"/>
          <path d="M254.86,105.46c1.18-.13,3.31,1.68.76,1.84-1.94.13-2.09-1.69-.76-1.84Z" fill="#f8fafd"/>
        </g>
      </g>
      <g>
        <path d="M300.08,24.18v86.35s-18.38,0-18.38,0V24.18s18.38,0,18.38,0ZM295.39,25.09c-.97.02-2.41,0-3.31.21s-1.47.61-.46,1.25c1.29.81,3.23.46,4.67.61.13.87.12,1.66.41,2.53.51,1.54,1.1,2.04,2.01.4.6-1.08.7-2.09.26-3.26-.71-1.92-1.83-1.76-3.59-1.73ZM297.44,32.72c-1.03.23-.34,2.23.27,2.23.74,0,1.12-2.55-.27-2.23ZM288.63,33.7c-.35.07-.61.33-.71.66l-.05,71.23c0,.36.43.83.76.91.55.12,3.55.1,4.19.02.48-.06.83-.33.98-.78l.05-71.03c-.04-.39-.36-.92-.76-1.01-1.31.12-3.23-.25-4.46,0ZM284.56,107.97c.04-1.3-.08-4.84-1.35-5.55-.5-.28-.77.35-.89.75-.52,1.76.18,3.81.21,5.61.28,1.36,2.33,1.25,3.26.7.86-.51-.82-1.3-1.23-1.51ZM289.8,108.6c-.32-.32-1.43-.38-1.86-.3-.92.18-.89,1.29.1,1.43.49.07,2.29-.59,1.76-1.13Z" fill="#ec568a"/>
        <path d="M295.39,25.09c1.77-.03,2.88-.19,3.59,1.73.43,1.17.34,2.18-.26,3.26-.92,1.64-1.51,1.15-2.01-.4-.29-.87-.28-1.66-.41-2.53-1.44-.15-3.38.19-4.67-.61-1.01-.63-.41-1.04.46-1.25s2.34-.2,3.31-.21Z" fill="#fffdfe"/>
        <path d="M284.56,107.97c.41.21,2.09,1,1.23,1.51-.93.55-2.98.66-3.26-.7-.03-1.8-.74-3.85-.21-5.61.12-.4.39-1.03.89-.75,1.27.71,1.4,4.25,1.35,5.55Z" fill="#fffcfd"/>
        <path d="M289.8,108.6c.53.54-1.27,1.2-1.76,1.13-1-.13-1.02-1.24-.1-1.43.43-.09,1.54-.03,1.86.3Z" fill="#fefafc"/>
        <path d="M297.44,32.72c1.39-.31,1.02,2.24.27,2.23-.61,0-1.3-2-.27-2.23Z" fill="#fef9fc"/>
        <g>
          <path d="M288.63,33.7c1.23-.25,3.15.12,4.46,0,.4.09.72.61.76,1.01l-.05,71.03c-.15.45-.5.72-.98.78-.64.08-3.64.1-4.19-.02-.33-.07-.76-.55-.76-.91l.05-71.23c.1-.33.36-.59.71-.66ZM292.77,34.66h-3.92v70.78h3.92V34.66Z" fill="#2c2225"/>
          <path d="M292.77,34.66v70.78h-3.92V34.66h3.92ZM291,50.42c-.08.01-.24-.02-.29,0-.41.26-.55,6.13-.59,7-.37,8.51-.22,17.45.68,25.94.07.64.11,1.7.38,2.26.37.75.62-.38.67-.72.24-1.89.08-4.02.12-5.95.16-8.23.08-16.36-.58-24.57-.11-1.32-.29-2.64-.39-3.97Z" fill="#f498ba"/>
          <path d="M291,50.42c.1,1.32.28,2.64.39,3.97.67,8.21.75,16.33.58,24.57-.04,1.93.12,4.06-.12,5.95-.04.34-.29,1.47-.67.72-.27-.55-.32-1.62-.38-2.26-.91-8.49-1.05-17.43-.68-25.94.04-.87.18-6.74.59-7,.05-.03.2,0,.29,0Z" fill="#fffefe"/>
        </g>
      </g>
    </g>
  </g>
  <g>
    <g>
      <path d="M138.33,58.99c4.4,3.33,8.02,7.52,11.29,11.94,4.47,6.06,8.22,12.65,11.62,19.37-.77-.76-1.95-1.66-2.85-2.31-3.08-2.2-6.83-4.02-10.58-4.66-.24-2.04-1.3-3.86-2.44-5.53-1.32-1.94-3.04-4.02-4.78-5.6-.78-.71-1.63-1.41-2.63-1.8-3.34-4.08-7.14-7.87-11.67-10.62l1.49-.31c2.02-.56,3.9-1.48,5.81-2.31l4.33,1.83h.4Z" fill="#f0e5d2"/>
      <path d="M138.33,58.99h-.4s-4.33-1.83-4.33-1.83c-1.91.83-3.79,1.76-5.81,2.31l-1.49.31c-.12-.07-.73-.39-.73-.46,2.38-1.24,4.82-2.42,7.24-3.57.14-.02.25.01.38.05.48.14,1.53.77,2.01,1.04,1.12.64,2.12,1.38,3.13,2.15Z" fill="#c0a57e"/>
      <path d="M137.96,70.4c.99.39,1.85,1.09,2.63,1.8,1.73,1.58,3.46,3.66,4.78,5.6,1.13,1.67,2.2,3.49,2.44,5.53,3.75.64,7.5,2.46,10.58,4.66.91.65,2.08,1.55,2.85,2.31.31.3,1.43,2.81,1.7,3.4.19.4.39.82.53,1.24-4.04-5.38-9.89-9.02-16.25-11.11-2.84-4.63-5.8-9.22-9.25-13.43Z" fill="#c0a57e"/>
    </g>
    <g>
      <path d="M161.84,108.06c-.76.05-1.53.03-2.29.06-20.15.73-40.29,1.66-60.46,2.2-.65.02-1.71.28-2.22-.22-.31-.3-.41-.85-.22-1.24l6.19-13.65c.25-.38.57-.58,1.02-.63.26-.03,1,.09,1.12-.1l3.32-10.6c.28-.62.64-.72,1.26-.88,2.68-.68,5.95-1.07,8.72-1.36,9.15-.96,18.56-.75,27.45,1.71-2.62-4.28-5.42-8.48-8.61-12.36s-6.54-7.28-10.57-9.88c-.5-.33-1.68-.83-1.9-1.34-.26-.59-.04-1.05.48-1.37,2.15-1.35,4.93-2.23,7.14-3.54.21-.09.43-.14.66-.13.65.01,2.53,1.1,3.16,1.48,6.6,3.94,12.31,11.01,16.58,17.3,3.31,4.88,6.29,10.07,8.93,15.34.82-1.23,1.55-2.53,2.36-3.78,7.41-11.5,18.78-23.8,31.95-28.49.79-.28,2.18-.84,2.98-.75,4.38,1.85,8.72,3.83,13.04,5.83.44.46.26,1.11-.32,1.33-.88.33-2.28.52-3.25.78-7.76,2.09-15.07,5.94-21.05,11.29,4.65-1.56,9.26-3.28,13.99-4.61,1.64-.46,3.86-1.14,5.53-1.25,3.53-.24,9.85,2.74,13.12,4.28,1.07.51,2.87,1.25,3.79,1.89.38.27,1.57,2.28,1.9,2.8.85,1.38,1.74,2.89,2.41,4.37.2.44.65,1.31.62,1.76-.06.88-1.1,1.04-1.8,1.07l-.03.12,3.51,2.02c.78.68,1.63,3.83,1.91,4.93.75,2.9,1.19,5.9,1.42,8.89.84,2.67,2.11,5.2,3.1,7.83.14,1.45-1.14,1.26-2.16,1.24-.68-.01-1.39-.1-2.07-.13-19.65-.65-39.26-1.44-58.88-2.14-.72-.03-1.45,0-2.17-.06v1.31c0,.49-.69,1.09-1.19,1.07-2.35-.18-5.02.23-7.33,0-.38-.04-.72-.21-.95-.52-.03-.05-.18-.29-.18-.31v-1.56ZM126.3,59.78c4.53,2.75,8.32,6.54,11.67,10.62s6.41,8.8,9.25,13.43c6.36,2.08,12.2,5.72,16.25,11.11-.14-.42-.34-.84-.53-1.24-.28-.58-1.39-3.09-1.7-3.4-3.4-6.72-7.14-13.31-11.62-19.37-3.27-4.43-6.89-8.61-11.29-11.94-1.01-.77-2.01-1.51-3.13-2.15-.48-.27-1.53-.9-2.01-1.04-.13-.04-.24-.07-.38-.05-2.42,1.15-4.86,2.33-7.24,3.57,0,.07.61.38.73.46ZM188.47,61.3c-9.5,5.77-17.15,14.47-23.21,23.68-.6.92-1.23,1.81-1.8,2.75-.19.31-1.28,2.08-1.25,2.27,2.16,4.31,4.2,8.68,5.98,13.17l.61-1.71c4.06-11.95,11.52-22.95,21.78-30.38,5.96-4.32,12.85-7.35,20.05-8.92l-7.76-3.48c-1.21-.54-2.39-1.18-3.62-1.66-.24-.1-.54-.26-.8-.23-.56.05-1.98.63-2.57.85-2.64.98-5.02,2.21-7.42,3.66ZM201.85,71.38c-.64.02-2.44.68-3.16.9-3.56,1.1-7.17,2.34-10.67,3.62-.81.29-1.62.57-2.41.92s-1.48,1.17-2.08,1.8c-1.68,1.77-3.31,3.78-4.75,5.75-3.46,4.74-6.29,10.02-8.32,15.52.52-.61.94-1.32,1.42-1.97.52-.7,1.52-1.75,1.88-2.42,2.09-2.35,4.34-4.57,6.81-6.53,10.77-8.52,24.55-12.27,38.11-13.31.98-.08,1.99-.07,2.96-.18.04-.05-.14-.13-.18-.15-1.82-.92-3.8-1.84-5.68-2.62-.55-.23-1.4-.65-1.95-.76-1.64-.66-3.42-1.34-5.18-1.63-1.32-.21-2.21-.07-3.49.19-1.11.22-2.23.52-3.3.89ZM189.33,84.5c-.72.25-1.89,1.01-2.58,1.42-5.69,3.39-10.86,7.96-14.64,13.42-1.08,1.57-2.16,3.29-2.94,5.02-.07.16-.49,1.05-.41,1.14.87.26,1.62.81,2.3,1.4.13.02.45-.24.57-.3,2.33-1,4.82-1.49,7.33-1.83.11-.02.17-.06.18-.06.02,0,.04,0,.06,0,9.53-1.25,20.28-.57,29.87.18,7.87.62,15.58,1.59,23.39,2.62.16.02.33.02.49.06-.01-.66.02-1.33,0-1.99-.13-4.94-.77-10.39-2.31-15.09-.22-.66-.65-2.28-1.36-2.49-5.39.59-10.8,1.28-16.19,1.93-6.65.8-13.31,1.64-19.97,2.38-2.56.29-5.36.73-7.91.85-.35.02-1.27.1-1.41-.3-.21-.64.33-.77.8-.91,3.6-1.11,8.18-1.63,11.95-2.34.1-.02.22-.02.29-.1,10.26-1.73,20.5-3.61,30.78-5.25.07-.06-.19-.6-.23-.71-.83-2.01-2.22-4.31-3.43-6.12-.22-.32-.43-.66-.65-.98-5.59.16-11.18.75-16.64,1.91-6.01,1.27-11.92,3.26-17.33,6.15ZM123.12,82.24c-3.67.21-7.52.65-11.13,1.3-.71.13-1.57.25-2.25.44-.26.07-.48.11-.57.41l-2.97,9.42c.35.04.7-.14,1.04-.21,11.03-2.53,23.69-4.21,35-3.17.53.05,1.12.13,1.67.19,8.82,1.05,18.37,4.21,22.73,12.57.02-.25-.14-.56-.23-.81-.43-1.13-1.34-3.28-2.06-4.2-.32-.66-.75-1.31-1.17-1.91-8.7-12.47-25.9-14.81-40.05-14.02ZM227.68,87.06l-2.45-1.37c-10.39,1.62-20.78,3.52-31.16,5.36l-.97.22,34.57-4.21ZM162.33,99.09c-8.58-8.71-26.45-8.54-37.77-7.38-6.28.64-12.58,1.77-18.69,3.3l-.52,1.62c.83.21.71-.18,1.08-.63.31-.4.54-.4,1-.53,2.02-.53,4.39-.89,6.46-1.23,8.13-1.34,16.48-2.09,24.72-1.73,8.22.36,16.89,1.71,23.67,6.65.14.1.32.35.55.4-.14-.17-.34-.31-.49-.46ZM119.21,94.45c-2.89.37-5.75.85-8.61,1.4-.81.16-1.64.27-2.44.46-.25.06-.78.13-.94.28l-5.65,10.37c5.43-.68,10.86-1.33,16.31-1.83,9.25-.85,18.52-1.42,27.82-1.16,5.34.15,11.16.51,16.16,2.5.17.07.39.3.63.24.05-.01.72-.58.9-.69.85-.51,1.87-.85,2.87-.89.14-.12-1.48-2.21-1.65-2.41-.62-.74-1.29-1.36-2.01-1.99-4.79-4.13-11.29-5.89-17.47-6.71-8.45-1.13-17.46-.66-25.9.43ZM105.16,98.17c.08-.15.3-.35.31-.55h-1.47l.61-2.01c-.25.04-.76-.1-.91.1l-6.08,13.45-.03.25c.17.06.39-.05.49-.06,1.47-.1,3.01-.07,4.49-.12,19.05-.69,38.1-1.46,57.16-2.08l.82-.12c-1.59-.54-3.17-.87-4.82-1.16-6.59-1.14-13.4-1.06-20.06-.85-7.52.24-15.05.8-22.54,1.58-2.01.21-4.03.44-6.02.73-1.9-.02-4.09.6-6.01.74-.39-.04-.69-.27-.75-.66-.05-.34.23-.74.38-1.05,1.37-2.72,2.97-5.49,4.43-8.18ZM170.42,99.94v.06s.04-.04,0-.06ZM170.36,100.06v.06s.04-.04,0-.06ZM166.7,103.24v.06s.04-.04,0-.06ZM166.79,103.54c.03-.25-.09-.25-.06,0h.06ZM233.91,107.94c-.21.29-.38.55-.77.6-2.79-.32-5.6-.69-8.39-1.03-13.45-1.63-27.08-2.87-40.64-2.26l-3.21.3c-.38-.05-1.41.13-1.85.19-1.96.26-3.89.7-5.78,1.27,0,.1.2.12.27.12.97.08,2.06.03,3.05.06,18.84.68,37.67,1.45,56.53,2.07.87.03,1.76.04,2.63.12l-1.77-4.45c-.11-.01-.06.14-.06.21-.03.79-.08,2.02,0,2.78ZM167.69,106.55c-.24-.26-1.77-.36-2.15-.31-.71.08-1.84.7-2.06,1.43-.13.45.16.65.58.65.77,0,2.83-.7,3.45-1.2.17-.14.38-.34.17-.56ZM167.32,107.95c-.22.04-.8.32-.84.57-.06.38.63.67.95.7.71.07,2.86-.48,1.33-1.08-.42-.17-.99-.26-1.44-.18Z" fill="#231f20"/>
      <g>
        <path d="M162.57,100.73c-.05.57.26,1.1.52,1.59.38.71.88,1.36,1.31,2.04-1.06.4-2.36.81-2.56,2.11-5-1.99-10.82-2.35-16.16-2.5-9.3-.26-18.56.31-27.82,1.16.28-.53-.6-.51-.95-.55-2.66-.27-5.88-.2-8.54.13-1.38.17-2.75.48-4.13.66l2.11-3.72c.77-1.3,1.3-2.79,1.99-4.11.48-.92,1.06-.76,1.84-1.27.14-.09.39-.24.41-.42,2.86-.55,5.72-1.03,8.61-1.4.07.14.19.17.33.18,1.49.2,3.26.12,4.76.12,5.7,0,11.42-.1,17.1-.42,1.13-.06,2.29-.05,3.41-.19.1-.01.21-.04.28-.12,6.17.83,12.68,2.58,17.47,6.71ZM134.54,97.26s.14-.11,0-.21c-.09-.07-.51-.13-.65-.15-1.71-.25-4.03-.45-5.72-.18-.2.03-.77.1-.92.17-.08.04-.03.13-.04.19,0,.04-.07.09-.05.14.04.15.51.22.66.22.04,0,.09,0,.12,0,.02.06.07.06.12.06.06,0,.12,0,.18,0,.03.08.12.06.18.06.32.02.74.12,1.01.12h3.36c.28,0,.76-.04,1.07-.06.12,0,.7-.07.73-.12.04-.06-.06-.19-.06-.24ZM140.95,97.5c1.63.83,4.19,1.27,6.04,1.62,2.31.44,5.19.96,7.51,1.07.28.13.75.22,1.07.24.17.01.99.07.95-.15-.2-.26-.52-.36-.82-.46-1.43-.5-3.16-.9-4.65-1.28-2.98-.75-7.17-1.86-10.2-1.66-.14,0-.93.08-.88.28.25.22.7.2.98.34ZM110.48,99.09c-.18.28.05.27.28.3,1.79.21,4.35-.23,6.07-.73.15-.04,1.03-.13.79-.48-.12-.18-1.12-.11-1.37-.13-1.46-.07-2.98-.15-4.44.08-.32.05-1.67.34-1.7.69-.02.23.18.28.37.27ZM110.6,101.71c.12.22.4.19.61.18.06,0,.12,0,.18,0,.11.1.24.06.37.06,1.79.03,3.59.01,5.37,0,.13.1.36.1.49,0,1.12,0,2.24-.04,3.36-.06.12,0,.29,0,.43,0,.67-.02,1.34-.04,2.02-.06.1,0,.2.01.37,0,.45-.03.89-.05,1.34-.06.12,0,.17.02.37,0,.33-.03.65-.04.98-.06.04,0,.14,0,.24,0,.33-.02.65-.04.98-.06.03,0,.1,0,.18,0,.26-.02.53-.04.79-.06.04,0,.13,0,.24,0,.25-.02.49-.04.73-.06.04,0,.14,0,.24,0,.24-.02.49-.04.73-.06.02,0,.09,0,.18,0,.22-.02.45-.04.67-.06.01,0,.06,0,.12,0,.2-.02.4-.05.61-.06.01,0,.09,0,.18,0,.2-.02.4-.04.61-.06.01,0,.09,0,.18,0,.18-.02.36-.05.55-.06,0,0,.04,0,.12,0,.18-.02.36-.04.55-.06,0,0,.04,0,.12,0,.2-.02.41-.04.61-.06,0,0,.05,0,.12,0,.19-.02.37-.04.55-.06,0,0,.03,0,.12,0,.16-.02.32-.04.49-.06,0,0,.03,0,.12,0,.16-.02.32-.04.49-.06,0,0,.03,0,.12,0,.57-.06,1.14-.12,1.71-.18,0,0,.03,0,.12,0,.53-.05,1.06-.13,1.59-.18.01,0,.06.01.18,0s.25.02.37,0c.1-.02.12-.06.12-.06.04,0,.09,0,.12,0,.22-.05.66-.07.61-.37.17,0,1.26-.31,1.4-.4.35-.24-.15-.31-.36-.36-1.31-.31-3.78-.2-5.22-.22-7.08-.09-14.04.1-21.07.93-1.98.23-4.22.47-6.14.95-.19.05-1.22.28-1.17.48.04.16,1,.26,1.16.21Z" fill="#f0e4d1"/>
        <path d="M164.35,98.17c-2.97-3.75-8.67-7.08-13.41-7.74-2.33-.32-6.07-.36-8.42-.13-.11.01-.21.02-.27.12-11.3-1.03-23.97.65-35,3.17.88-1.59,1.52-3.27,2.05-5.01.16-.53.76-3.07,1.04-3.3.17-.14,1.47-.27,1.81-.33,3.44-.65,7.49-1.37,10.75-2.56.09-.03.2-.04.24-.15,14.15-.79,31.35,1.55,40.05,14.02.42.6.85,1.25,1.17,1.91Z" fill="#f0e5d2"/>
        <path d="M162.33,99.09l-.06.06c-6.78-4.95-15.44-6.29-23.67-6.65-8.24-.36-16.58.39-24.72,1.73-2.08.34-4.44.7-6.46,1.23-.46.12-.69.13-1,.53-.36.46-.24.85-1.08.63l.52-1.62c6.11-1.53,12.41-2.66,18.69-3.3,11.32-1.15,29.2-1.32,37.77,7.38Z" fill="#e4caa3"/>
        <path d="M110.6,95.85c-.02.18-.27.32-.41.42-.78.51-1.36.35-1.84,1.27-.69,1.33-1.22,2.81-1.99,4.11l-2.11,3.72c1.38-.18,2.75-.49,4.13-.66,2.66-.33,5.88-.4,8.54-.13.35.04,1.22.02.95.55-5.45.5-10.88,1.15-16.31,1.83l5.65-10.37c.16-.15.69-.22.94-.28.81-.19,1.63-.3,2.44-.46Z" fill="#c0a57e"/>
        <path d="M142.24,90.42c.06-.1.17-.11.27-.12,2.35-.23,6.09-.19,8.42.13,4.74.66,10.45,4,13.41,7.74.73.92,1.63,3.06,2.06,4.2.09.24.25.56.23.81-4.35-8.35-13.91-11.52-22.73-12.57-.55-.06-1.14-.14-1.67-.19Z" fill="#c0a57e"/>
        <path d="M123.12,82.24c-.04.12-.15.12-.24.15-3.26,1.19-7.31,1.91-10.75,2.56-.34.06-1.63.19-1.81.33-.28.23-.88,2.77-1.04,3.3-.53,1.74-1.17,3.41-2.05,5.01-.34.08-.69.26-1.04.21l2.97-9.42c.08-.3.31-.34.57-.41.68-.19,1.54-.31,2.25-.44,3.61-.65,7.46-1.1,11.13-1.3Z" fill="#c1a67e"/>
        <path d="M145.11,94.02c-.07.08-.18.1-.28.12-1.13.13-2.28.13-3.41.19-5.68.32-11.4.42-17.1.42-1.51,0-3.27.08-4.76-.12-.14-.02-.27-.04-.33-.18,8.44-1.08,17.45-1.56,25.9-.43Z" fill="#c1a67e"/>
        <path d="M98.08,109.34c-.1,0-.32.13-.49.06l.03-.25,6.08-13.45c.15-.2.66-.06.91-.1l-.61,2.01h1.47c0,.19-.22.4-.31.55-.49.15-.87.15-1.34-.06-.22,1.31-.79,2.61-1.33,3.83-.45,1-1.06,2.4-1.63,3.32-.06.09-.07.19-.22.18-.1-.25-.36-.36-.63-.29-.6.16-1.28,1.92-1.41,2.5-.07.33-.17.67.08.97-.09.34-.42.47-.61.73Z" fill="#412e2a"/>
        <path d="M162.57,100.73c.73.63,1.39,1.25,2.01,1.99.17.2,1.79,2.29,1.65,2.41-1,.04-2.02.38-2.87.89-.18.11-.85.67-.9.69-.24.07-.46-.17-.63-.24.2-1.3,1.51-1.7,2.56-2.11-.43-.68-.93-1.33-1.31-2.04-.26-.49-.57-1.02-.52-1.59Z" fill="#c0a57e"/>
        <path d="M162.27,99.15l.06-.06c.15.15.35.29.49.46-.23-.04-.41-.3-.55-.4Z" fill="#c1a67e"/>
        <path d="M166.7,103.24s.04.04,0,.06v-.06Z" fill="#c0a57e"/>
        <path d="M141.14,100c-.05.25.39.03.43.21.03.14-.23.11-.18.27-.04,0-.08,0-.12,0-.09-.11-.15-.08-.12.06-.11.02-.25-.01-.37,0-.02-.1-.14-.07-.18,0-.53.06-1.06.13-1.59.18l-.04-.05-.08.05c-.57.06-1.14.13-1.71.18l-.04-.05-.08.05c-.17.02-.33.05-.49.06l-.04-.05-.08.05c-.17.02-.33.05-.49.06l-.04-.05-.08.05c-.18.02-.36.04-.55.06l-.09-.06-.03.06c-.2.02-.41.04-.61.06l-.04-.05-.08.05c-.19.02-.37.05-.55.06l-.04-.05-.08.05c-.19.02-.37.05-.55.06-.02-.1-.14-.06-.18,0-.21.02-.41.05-.61.06-.02-.1-.14-.06-.18,0-.21.02-.41.05-.61.06l-.09-.06-.03.06c-.23.02-.45.05-.67.06,0-.09-.17-.09-.18,0-.25.02-.49.05-.73.06-.03-.1-.22-.09-.24,0-.25.02-.49.05-.73.06-.03-.1-.22-.09-.24,0-.27.02-.53.05-.79.06,0-.09-.17-.09-.18,0-.33.02-.65.04-.98.06-.02-.09-.22-.1-.24,0-.33.02-.65.03-.98.06-.06-.1-.31-.1-.37,0-.45,0-.89.03-1.34.06-.06-.1-.31-.1-.37,0-.67.02-1.34.04-2.02.06-.08-.1-.35-.1-.43,0-1.12.02-2.24.05-3.36.06-.14,0-.35,0-.49,0-1.79.01-3.59.03-5.37,0,.04-.26-.28-.07-.37-.06-.06,0-.12,0-.18,0-.05-.12-.05-.24,0-.37.06,0,.13,0,.18,0,.07,0,.28.2.24-.06,1.8-.09,3.71-.4,5.53-.55,3.8-.3,7.64-.5,11.45-.67l.09.06.03-.06c.47-.02.94-.04,1.4-.06l.09.06.03-.06c.61-.02,1.22-.05,1.83-.06l.09.06.03-.06c2.94-.07,5.97-.18,8.92-.12Z" fill="#262223"/>
        <path d="M141.99,100.12c-.2,0-.57-.12-.86-.12-2.95-.06-5.97.05-8.92.12-.03,0-.08,0-.12,0-.61.02-1.22.04-1.83.06-.03,0-.07,0-.12,0-.47.02-.94.04-1.4.06-.02,0-.07,0-.12,0-3.81.17-7.65.37-11.45.67-1.82.14-3.73.46-5.53.55-.09,0-.17-.02-.24.06-.06,0-.12,0-.18,0-.37,0-.41.12-.61.18-.16.05-1.12-.06-1.16-.21-.05-.19.98-.43,1.17-.48,1.92-.48,4.16-.72,6.14-.95,7.02-.83,13.99-1.02,21.07-.93,1.44.02,3.91-.09,5.22.22.21.05.71.12.36.36-.14.1-1.23.39-1.4.4Z" fill="#fbfbfb"/>
        <path d="M140.95,97.5c.1-.09.19-.12.33-.13.32,0,.92.1,1.28.14,1.46.16,2.93.43,4.38.69,2.44.44,5.54.95,7.88,1.65.18.05.49.1.49.34-.26,0-.53.01-.79,0-2.33-.11-5.21-.63-7.51-1.07-1.86-.35-4.41-.79-6.04-1.62Z" fill="#2b2727"/>
        <path d="M154.51,100.18c.26.01.53,0,.79,0,0-.23-.31-.28-.49-.34-2.34-.7-5.44-1.21-7.88-1.65-1.45-.26-2.91-.53-4.38-.69-.36-.04-.95-.15-1.28-.14-.14,0-.23.04-.33.13-.28-.14-.72-.12-.98-.34-.05-.2.74-.27.88-.28,3.03-.21,7.22.9,10.2,1.66,1.49.37,3.22.77,4.65,1.28.3.1.62.2.82.46.05.22-.77.16-.95.15-.32-.02-.79-.11-1.07-.24Z" fill="#f9f9f9"/>
        <path d="M110.48,99.09c-.19,0-.39-.04-.37-.27.03-.34,1.38-.64,1.7-.69,1.46-.23,2.98-.15,4.44-.08.25.01,1.25-.05,1.37.13.24.35-.63.44-.79.48.05-.22-.11-.23-.27-.24-1.02-.09-2.75.05-3.78.19-.7.1-1.67.46-2.3.48Z" fill="#f9f9f9"/>
        <path d="M133.69,97.13c-.03.25.13.06.18.06.08,0,.16,0,.24,0l.06.3c-.16.02-.35-.08-.31.12-.31.02-.79.06-1.07.06h-3.36c-.26,0-.69-.11-1.01-.12-.07-.2-.17-.06-.18-.06-.06,0-.12,0-.18,0,.02-.24-.08-.07-.12-.06-.04,0-.08,0-.12,0v-.08c-.07-.06-.15-.01-.12-.13.08-.18.43.02.37-.21,1.96-.09,3.67.04,5.62.12Z" fill="#292526"/>
        <path d="M110.48,99.09c.63-.02,1.6-.38,2.3-.48,1.03-.14,2.76-.28,3.78-.19.17.02.32.03.27.24-1.72.5-4.28.93-6.07.73-.24-.03-.46-.02-.28-.3Z" fill="#2f2b2b"/>
        <path d="M134.54,97.26c-.15.01-.28-.06-.43-.06-.08,0-.16,0-.24,0-.03-.08-.12-.06-.18-.06-1.95-.08-3.66-.21-5.62-.12-.29.01-.57.04-.86.06.01-.06-.04-.15.04-.19.14-.07.71-.14.92-.17,1.69-.27,4.01-.06,5.72.18.14.02.56.08.65.15.14.11,0,.2,0,.21Z" fill="#f7f7f7"/>
        <path d="M128.07,97.01c.07.23-.29.03-.37.21-.03.12.06.07.12.13v.08c-.15,0-.62-.07-.66-.22-.02-.06.05-.11.05-.14.29-.02.57-.05.86-.06Z" fill="#5d5957"/>
        <path d="M141.99,100.12c.05.3-.39.32-.61.37-.05-.16.21-.13.18-.27-.04-.19-.47.03-.43-.21.28,0,.65.13.86.12Z" fill="#5d5957"/>
        <path d="M111.21,101.53c-.05.12-.05.24,0,.37-.21,0-.49.04-.61-.18.2-.06.24-.18.61-.18Z" fill="#5d5957"/>
        <path d="M134.54,97.26c0,.05.1.18.06.24-.03.05-.61.12-.73.12-.04-.2.14-.11.31-.12l-.06-.3c.14,0,.28.08.43.06Z" fill="#5d5957"/>
        <path d="M117.62,101.95c-.13.1-.36.1-.49,0,.14,0,.35,0,.49,0Z" fill="#5d5957"/>
        <path d="M121.41,101.89c-.14,0-.3,0-.43,0,.08-.1.35-.1.43,0Z" fill="#5d5957"/>
        <path d="M111.39,101.89c.09,0,.41-.2.37.06-.13,0-.26.04-.37-.06Z" fill="#5d5957"/>
        <path d="M123.79,101.83c-.16.01-.27,0-.37,0,.06-.1.3-.1.37,0Z" fill="#5d5957"/>
        <path d="M125.5,101.77c-.19.02-.25,0-.37,0,.06-.1.3-.1.37,0Z" fill="#5d5957"/>
        <path d="M126.72,101.71c-.1,0-.21,0-.24,0,.03-.1.22-.09.24,0Z" fill="#5d5957"/>
        <path d="M128.92,101.59c-.11,0-.21,0-.24,0,.02-.09.22-.1.24,0Z" fill="#5d5957"/>
        <path d="M129.9,101.53c-.11,0-.21,0-.24,0,.02-.09.22-.1.24,0Z" fill="#5d5957"/>
        <path d="M130.82,101.47c-.09,0-.16,0-.18,0,0-.09.17-.09.18,0Z" fill="#5d5957"/>
        <path d="M133.2,101.28c-.1,0-.17,0-.18,0,.05-.06.16-.1.18,0Z" fill="#5d5957"/>
        <path d="M132.4,101.34c-.09,0-.17,0-.18,0,.05-.06.16-.1.18,0Z" fill="#5d5957"/>
        <path d="M127.88,101.65c-.08,0-.15,0-.18,0,0-.09.17-.09.18,0Z" fill="#5d5957"/>
        <path d="M140.77,100.55c-.12.01-.17,0-.18,0,.04-.07.16-.1.18,0Z" fill="#5d5957"/>
        <path d="M128.43,97.56c-.07,0-.15.02-.18-.06.01,0,.11-.14.18.06Z" fill="#5d5957"/>
        <path d="M141.26,100.49s-.02.05-.12.06c-.02-.14.03-.17.12-.06Z" fill="#5d5957"/>
        <path d="M139,100.73c-.1,0-.11,0-.12,0l.08-.05.04.05Z" fill="#5d5957"/>
        <path d="M137.17,100.92c-.09,0-.11,0-.12,0l.08-.05.04.05Z" fill="#5d5957"/>
        <path d="M135.27,101.1c-.07,0-.11,0-.12,0l.03-.06.09.06Z" fill="#5d5957"/>
        <path d="M135.95,101.04c-.09,0-.11,0-.12,0l.08-.05.04.05Z" fill="#5d5957"/>
        <path d="M131.61,101.41c-.06,0-.11,0-.12,0l.03-.06.09.06Z" fill="#5d5957"/>
        <path d="M133.87,101.22c-.08,0-.11,0-.12,0l.08-.05.04.05Z" fill="#5d5957"/>
        <path d="M127.94,97.44s.14-.18.12.06c-.05,0-.11,0-.12-.06Z" fill="#5d5957"/>
        <path d="M134.54,101.16c-.09,0-.11,0-.12,0l.08-.05.04.05Z" fill="#5d5957"/>
        <path d="M136.56,100.98c-.09,0-.11,0-.12,0l.08-.05.04.05Z" fill="#5d5957"/>
        <path d="M111.64,101.47c.03.26-.17.07-.24.06.07-.08.15-.06.24-.06Z" fill="#5d5957"/>
        <path d="M128.74,100.25l-.03.06-.09-.06c.05,0,.1,0,.12,0Z" fill="#5d5957"/>
        <path d="M130.27,100.18l-.03.06-.09-.06c.05,0,.1,0,.12,0Z" fill="#5d5957"/>
        <path d="M132.22,100.12l-.03.06-.09-.06s.09,0,.12,0Z" fill="#5d5957"/>
        <path d="M133.87,97.19c-.05,0-.21.19-.18-.06.07,0,.15-.02.18.06Z" fill="#5d5957"/>
      </g>
    </g>
    <g>
      <path d="M105.16,98.17c-1.46,2.69-3.06,5.46-4.43,8.18-.16.31-.43.71-.38,1.05.06.39.37.62.75.66,1.92-.14,4.11-.75,6.01-.74,9.43.09,18.92-.61,28.37-.86,5.51-.14,11.04-.05,16.55-.18.99-.02,2.26.08,3.21-.09.19-.03.46-.1.49-.34,1.65.29,3.23.62,4.82,1.16l-.82.12c-19.06.62-38.11,1.39-57.16,2.08-1.48.05-3.02.02-4.49.12.19-.26.53-.39.61-.73.27.32,1.21.35,1.16-.15-.01-.15-.15-.26-.17-.39-.05-.27.56-.97.71-1.28.17-.34.41-1,.26-1.36.15,0,.16-.09.22-.18.56-.92,1.18-2.31,1.63-3.32.54-1.21,1.12-2.51,1.33-3.83.47.21.85.21,1.34.06ZM100.81,108.25c-.23.05-.36.23-.23.45.15.26.56.25.82.21.66-.1.04-.79-.59-.65Z" fill="#523c38"/>
      <path d="M180.9,105.56c3.78.52,7.63.48,11.45.61s7.95.24,11.91.42c1.33.06,3.43.39,4.67.25-.47.61.71.92,1.15,1.02,1.64.36,3.69.38,5.36.2.38-.04,1.18-.09,1.5-.21.15-.06.2-.11.18-.28.15.06.6-.04.79,0,.02.4.79.58,1.13.61s1.93.01,2.12-.21c.08-.1.02-.18,0-.28.5.08,2.87.06,3.36-.03.09-.02.2-.06.24-.16,2.8.34,5.6.71,8.39,1.03.39-.06.56-.32.77-.6.02.15.27.79.22.86-.28.12-.57.2-.85.32-.09.04-.2,0-.17.17-18.85-.62-37.69-1.39-56.53-2.07-.99-.04-2.08.02-3.05-.06-.07,0-.27-.02-.27-.12,1.89-.58,3.82-1.01,5.78-1.27.44-.06,1.47-.24,1.85-.19Z" fill="#523d38"/>
      <path d="M155.73,105.86c-.02.24-.29.31-.49.34-.95.17-2.22.06-3.21.09-5.51.13-11.04.04-16.55.18-9.45.24-18.93.95-28.37.86,1.99-.29,4.01-.52,6.02-.73,7.49-.78,15.02-1.35,22.54-1.58,6.66-.21,13.47-.29,20.06.85Z" fill="#402d29"/>
      <path d="M224.75,107.51c-.04.1-.15.14-.24.16-.49.09-2.87.11-3.36.03-.62-.1-1.31-.5-2.04-.55-.33-.02-1.21-.04-1.19.43-.19-.04-.65.06-.79,0-.02,0-.1-.15-.24-.21-1.41-.58-5.21-.87-6.75-.77-.43.03-.82.2-1.19.25-1.24.15-3.34-.19-4.67-.25-3.97-.18-7.94-.28-11.91-.42s-7.67-.1-11.45-.61l3.21-.3c13.56-.61,27.2.63,40.64,2.26Z" fill="#412e2a"/>
      <path d="M167.69,106.55c.21.22,0,.42-.17.56-.61.5-2.67,1.2-3.45,1.2-.43,0-.71-.2-.58-.65.21-.73,1.34-1.34,2.06-1.43.38-.04,1.9.06,2.15.31Z" fill="#f9f9f9"/>
      <path d="M233.91,107.94c-.08-.76-.03-1.98,0-2.78,0-.07-.05-.23.06-.21l1.77,4.45c-.86-.08-1.75-.09-2.63-.12-.03-.16.07-.13.17-.17.28-.12.57-.2.85-.32.05-.07-.2-.71-.22-.86Z" fill="#402d29"/>
      <path d="M167.32,107.95c.45-.08,1.02.02,1.44.18,1.53.6-.62,1.15-1.33,1.08-.32-.03-1.01-.31-.95-.7.04-.25.62-.53.84-.57Z" fill="#f7f7f7"/>
      <path d="M100.64,105.43c.15.36-.09,1.02-.26,1.36-.15.31-.76,1-.71,1.28.02.12.16.24.17.39.05.5-.89.47-1.16.15-.25-.29-.15-.64-.08-.97.13-.58.81-2.34,1.41-2.5.26-.07.52.04.63.29Z" fill="#fafafb"/>
      <path d="M100.81,108.25c.63-.14,1.26.55.59.65-.27.04-.67.05-.82-.21-.13-.22,0-.4.23-.45Z" fill="#f7f7f7"/>
      <path d="M217.11,107.57c.02.16-.04.22-.18.28-.32.12-1.12.17-1.5.21-1.66.18-3.72.16-5.36-.2-.44-.1-1.62-.41-1.15-1.02.37-.04.76-.22,1.19-.25,1.54-.11,5.34.19,6.75.77.15.06.23.21.24.21Z" fill="#fafafb"/>
      <path d="M221.15,107.69c.03.09.09.18,0,.28-.19.23-1.77.24-2.12.21s-1.11-.22-1.13-.61c-.02-.47.86-.45,1.19-.43.73.05,1.42.45,2.04.55Z" fill="#f7f7f7"/>
    </g>
    <g>
      <g>
        <path d="M202.88,58.68l7.76,3.48c-7.2,1.57-14.09,4.61-20.05,8.92-10.27,7.43-17.72,18.44-21.78,30.38-.7-2.76-1.7-5.45-2.94-8.02-.58-1.2-1.28-2.34-1.81-3.56.48-1.6,1.27-3.18,1.21-4.9,6.05-9.22,13.71-17.92,23.21-23.68.83.11,1.76-.16,2.58-.38,2.65-.71,5.16-1.87,7.66-2.97l4.18.73Z" fill="#f0e5d2"/>
        <path d="M185.6,76.81c-1.24,2.49-3.08,4.62-4.69,6.88-2.7,3.8-4.96,7.7-7.16,11.8-.36.68-1.37,1.72-1.88,2.42-.48.65-.89,1.37-1.42,1.97,2.03-5.51,4.86-10.78,8.32-15.52,1.44-1.97,3.07-3.98,4.75-5.75.59-.63,1.32-1.47,2.08-1.8Z" fill="#c0a57e"/>
        <path d="M168.8,101.47l-.61,1.71c-1.77-4.48-3.82-8.86-5.98-13.17-.03-.19,1.06-1.96,1.25-2.27.57-.94,1.2-1.84,1.8-2.75.07,1.71-.73,3.3-1.21,4.9.53,1.22,1.23,2.36,1.81,3.56,1.24,2.57,2.24,5.25,2.94,8.02Z" fill="#c1a67e"/>
        <path d="M202.88,58.68l-4.18-.73c-2.5,1.1-5.01,2.26-7.66,2.97-.81.22-1.75.49-2.58.38,2.4-1.46,4.78-2.68,7.42-3.66.6-.22,2.02-.8,2.57-.85.26-.03.55.13.8.23,1.23.48,2.42,1.12,3.62,1.66Z" fill="#c1a67e"/>
        <path d="M166.79,103.54h-.06c-.03-.25.09-.25.06,0Z" fill="#c0a57e"/>
        <path d="M170.36,100.06s.04.04,0,.06v-.06Z" fill="#c0a57e"/>
        <path d="M170.42,99.94s.04.04,0,.06v-.06Z" fill="#c0a57e"/>
      </g>
      <g>
        <path d="M223.95,77.42c1.21,1.81,2.6,4.11,3.43,6.12.05.12.3.65.23.71-10.28,1.64-20.52,3.52-30.78,5.25-1.89-.15-3.88.09-5.77.31-2,.23-6.63.77-8.15,1.99-1.13.92-.28,1.89.94,1.98,1.5.12,3.56-.13,5.05-.39,1.42-.25,2.83-.65,4.2-1.08,6.66-.74,13.32-1.58,19.97-2.38.72.57,1.76.69,2.65.73,3.41.18,7.06-.71,10.51-.43l2.23-.16c1.74,5.71,1.81,11.84,3.97,17.43-7.81-1.03-15.53-2-23.39-2.62-.35-.33-.96-.39-1.42-.51-8.45-2.1-16.81-2.4-25.34-.56-1.04.22-2.15.44-3.11.89-.02,0-.04,0-.06,0l-.18.06c-2.5.35-5,.84-7.33,1.83-.1-.35-.22-.71-.42-1.02-.13-.21-.62-.67-.61-.83.73-1.68,1.42-3.24,1.57-5.09,0-.12.01-.22-.06-.33,3.78-5.46,8.95-10.02,14.64-13.42.69-.41,1.87-1.17,2.58-1.42.89-.3,2.01-.49,2.94-.75,7.03-1.99,13.99-4.04,21.28-4.98,2.42-.31,4.83-.42,7.26-.62,1.09-.09,2.15-.26,3.15-.73ZM216.32,80.41s-.22.1-.09.18c1.83.09,3.63-.13,5.42-.51.29-.06,1.88-.38,1.98-.53.09-.14.01-.18-.09-.25.35-.34-.29-.4-.53-.42-1.73-.16-4.45.45-6.12,1.01-.19.06-.47.11-.55.31-.03.07,0,.16-.01.2ZM195.43,86.27s-.04.17.03.19c4.89-.15,9.81-.74,14.64-1.55,1.37-.23,3.01-.44,4.34-.79.09-.02.64-.2.66-.23.09-.13-.05-.22-.18-.24,1.42-.5.38-.68-.46-.73-3.1-.21-7.05.61-10.12,1.18-2.61.48-5.5.95-8.05,1.6-.18.04-1.09.25-1.04.49.02.07.18.08.18.09ZM213.08,93.35c-.03.21,0,.15.13.2.85.31,2.44.4,3.38.47,2.88.22,6.11.11,8.95-.37.42-.07.86-.11,1.27-.23.09-.03.81-.22.68-.38-.05-.06-1.37-.27-1.57-.3-3.51-.46-7.61-.06-11.17.18-.44.03-1.48-.05-1.83.19-.22.15-.05.22.14.24ZM192.26,94.69s-.08,0-.12,0c-3.07.07-7.43,2.2-10.14,3.63-1.22.65-2.8,1.43-3.93,2.18-.13.08-.82.55-.49.65.08.02.31.03.39,0,0,.36.21.24.43.18,3.73-.93,8.3-3.07,11.73-4.85.56-.29,1.98-.94,2.38-1.31.57-.13,2.23-.68.52-.61-.22,0-.55.06-.76.12ZM191.77,98.41c.37.06.79.18,1.16.18.04,0,.08,0,.12,0,.03.08.12.06.18.06,1.81.05,3.73.26,5.56.37.06,0,.11,0,.12,0,.33.02.65.04.98.06.06,0,.11,0,.12,0,.31.02.61.04.92.06.08,0,.15,0,.18,0,.35.02.69.04,1.04.06.08,0,.15,0,.18,0,.37.02.73.04,1.1.06.1,0,.2,0,.24,0,.4.02.82.03,1.22.06.05,0,.19.15.31,0,.51.05,1.02.04,1.53.06.12,0,.23,0,.31,0,.71.02,1.42.05,2.14.06.18.1.5.1.67,0,2.83.03,5.66.02,8.49,0,.52.1,1.19.1,1.71,0,.71,0,1.42-.05,2.14-.06.05,0,.13,0,.18,0,.51,0,1.02-.04,1.53-.06.04,0,.1,0,.18,0,.26-.01.53.01.79,0,.5-.03.69-.08,1.16-.18.01,0,.12.06.27,0,.5-.21-.4-.38-.56-.41-3.54-.68-7.43-.88-11.04-1.05-6.33-.3-12.71-.2-19.05-.06-1.33.03-3.77-.14-4.96.23-1.02.33.82.51,1.08.56ZM222.49,103.36c.46-.16.5-.32.01-.47-1.82-.57-4.6-.71-6.52-.81-2.02-.1-4.42-.26-6.41-.06-.83.09-.37.5.15.55-.17.21.08.23.24.28,2.71.76,6.89.82,9.74.88.85.02,1.76.14,2.62.06.52-.05.82-.28.15-.43Z" fill="#f0e4d2"/>
        <path d="M213.82,71.93c.55.11,1.4.54,1.95.76,1.89.79,3.86,1.7,5.68,2.62.04.02.22.1.18.15-.97.12-1.98.11-2.96.18-13.56,1.04-27.34,4.79-38.11,13.31-2.47,1.96-4.72,4.18-6.81,6.53,2.2-4.1,4.45-8,7.16-11.8,1.61-2.26,3.45-4.38,4.69-6.88.79-.34,1.61-.62,2.41-.92,3.5-1.28,7.11-2.52,10.67-3.62.72-.22,2.52-.88,3.16-.9.29,0,.56.1.83.12,1.67.1,3.41-.38,5.06-.55,1.97.5,4.12.57,6.08.98Z" fill="#f0e4d2"/>
        <path d="M213.08,89.93c5.39-.65,10.8-1.34,16.19-1.93.71.21,1.14,1.83,1.36,2.49,1.54,4.7,2.18,10.15,2.31,15.09.02.66-.02,1.33,0,1.99-.16-.04-.33-.04-.49-.06-2.16-5.59-2.23-11.72-3.97-17.43l-2.23.16c-3.45-.28-7.1.61-10.51.43-.9-.05-1.94-.16-2.65-.73Z" fill="#c1a67e"/>
        <path d="M189.33,84.5c5.42-2.89,11.32-4.87,17.33-6.15,5.46-1.16,11.05-1.76,16.64-1.91.22.32.44.65.65.98-1,.47-2.05.64-3.15.73-2.42.2-4.84.31-7.26.62-7.29.94-14.25,2.99-21.28,4.98-.93.26-2.06.45-2.94.75Z" fill="#c1a67e"/>
        <path d="M227.68,87.06l-34.57,4.21.97-.22c10.37-1.84,20.76-3.74,31.16-5.36l2.45,1.37Z" fill="#e4caa2"/>
        <path d="M209.05,104.88c-9.59-.76-20.34-1.44-29.87-.18.96-.44,2.07-.66,3.11-.89,8.53-1.84,16.89-1.54,25.34.56.46.11,1.07.18,1.42.51Z" fill="#c1a67e"/>
        <path d="M196.84,89.5c-.07.08-.19.08-.29.1-3.77.71-8.35,1.24-11.95,2.34-.47.14-1.01.27-.8.91.13.4,1.06.32,1.41.3,2.55-.13,5.35-.57,7.91-.85-1.37.43-2.78.83-4.2,1.08-1.5.26-3.55.5-5.05.39-1.22-.1-2.07-1.06-.94-1.98,1.52-1.22,6.15-1.76,8.15-1.99,1.89-.22,3.88-.46,5.77-.31Z" fill="#c1a67e"/>
        <path d="M171.61,106.59c-.12.05-.45.32-.57.3-.67-.59-1.43-1.14-2.3-1.4-.08-.09.34-.97.41-1.14.79-1.74,1.86-3.46,2.94-5.02.07.1.07.21.06.33-.15,1.85-.84,3.41-1.57,5.09,0,.16.48.63.61.83.19.31.31.67.42,1.02Z" fill="#c0a57e"/>
        <path d="M213.82,71.93c-1.96-.41-4.11-.48-6.08-.98-1.65.17-3.4.65-5.06.55-.27-.02-.54-.13-.83-.12,1.07-.37,2.19-.66,3.3-.89,1.28-.26,2.18-.41,3.49-.19,1.76.29,3.54.97,5.18,1.63Z" fill="#c0a57e"/>
        <path d="M179.13,104.7s-.07.05-.18.06l.18-.06Z" fill="#c1a67e"/>
        <path d="M224.63,98.78c-.02.24.09.06.12.06.1,0,.2,0,.31,0-.04.21.15.1.27.12.24.05.2.22-.06.25-.12.01-.44-.09-.4.12-.26.01-.53-.01-.79,0,0-.09-.17-.09-.18,0-.51.02-1.02.05-1.53.06,0-.09-.17-.09-.18,0-.71.01-1.43.05-2.14.06-.53,0-1.17,0-1.71,0-2.83.02-5.66.03-8.49,0-.19,0-.47,0-.67,0-.72,0-1.42-.04-2.14-.06-.04-.1-.27-.1-.31,0-.51-.02-1.02,0-1.53-.06-.02,0-.23-.17-.31,0-.4-.03-.82-.04-1.22-.06-.03-.1-.22-.09-.24,0-.37-.02-.73-.04-1.1-.06,0-.09-.17-.09-.18,0-.35-.02-.69-.04-1.04-.06,0-.09-.17-.09-.18,0-.31-.02-.61-.04-.92-.06l-.09-.06-.03.06c-.33-.02-.65-.04-.98-.06l-.09-.06-.03.06c-1.83-.11-3.75-.32-5.56-.37.03-.25-.13-.06-.18-.06-.04,0-.08,0-.12,0,.04-.25-.43-.04-.37-.3l.43-.12c6.96-.05,13.96-.16,20.92.06,3.57.12,7.16.27,10.72.55Z" fill="#262223"/>
        <path d="M226.03,99.15c.03-.14-.15-.18-.25-.21-.25-.07-.47-.09-.73-.09-.1,0-.21,0-.31,0-.02-.06-.07-.06-.12-.06-3.56-.27-7.15-.43-10.72-.55-6.95-.23-13.95-.12-20.92-.06-.45,0-.9,0-1.34,0l.12.24c-.26-.04-2.1-.23-1.08-.56,1.18-.38,3.63-.2,4.96-.23,6.34-.14,12.72-.24,19.05.06,3.61.17,7.5.38,11.04,1.05.16.03,1.07.2.56.41-.15.06-.26,0-.27,0Z" fill="#f7f7f7"/>
        <path d="M214.92,83.64c.13.02.27.11.18.24-.02.03-.56.2-.66.23-1.32.35-2.97.56-4.34.79-4.82.81-9.74,1.4-14.64,1.55-.07-.02-.02-.16-.03-.19,5.55-1.18,11.17-2.04,16.83-2.5.73-.06,2-.24,2.66-.12Z" fill="#292526"/>
        <path d="M192.26,94.69c.49.02.72.06.24.49-.4.37-1.82,1.02-2.38,1.31-3.43,1.78-8,3.92-11.73,4.85-.19-.08-.22-.08-.18-.31.92-.47,1.87-1.16,2.83-1.66,3.56-1.87,7.34-3.27,11.1-4.69.04,0,.08,0,.12,0Z" fill="#262223"/>
        <path d="M214.92,83.64c-.66-.12-1.93.06-2.66.12-5.66.46-11.28,1.32-16.83,2.5,0,0-.16-.02-.18-.09-.06-.24.86-.44,1.04-.49,2.55-.65,5.44-1.11,8.05-1.6,3.07-.57,7.02-1.39,10.12-1.18.83.06,1.88.23.46.73Z" fill="#f9f9f9"/>
        <path d="M222.49,103.36c.67.15.36.38-.15.43-.86.08-1.77-.04-2.62-.06-2.85-.07-7.04-.12-9.74-.88-.16-.04-.41-.07-.24-.28.4.04,1.01-.11,1.43-.12,2.4-.07,4.82.11,7.2.38,1.25.14,2.94.28,4.13.54Z" fill="#2a2626"/>
        <path d="M225.54,93.65c-2.84.47-6.07.58-8.95.37-.94-.07-2.53-.16-3.38-.47-.14-.05-.16,0-.13-.2.4.04,1.01-.11,1.43-.12,2.47-.11,4.98-.07,7.45,0,1.01.03,2.17-.01,3.17.13.18.03.45.04.4.3Z" fill="#292526"/>
        <path d="M192.13,94.69c-3.75,1.42-7.54,2.82-11.1,4.69-.95.5-1.91,1.19-2.83,1.66-.04.02-.23.12-.24.12-.08.02-.31.01-.39,0-.33-.1.36-.57.49-.65,1.12-.75,2.71-1.53,3.93-2.18,2.71-1.43,7.07-3.56,10.14-3.63Z" fill="#f8f8f8"/>
        <path d="M213.08,93.35c-.2-.02-.37-.08-.14-.24.35-.24,1.39-.16,1.83-.19,3.55-.24,7.65-.64,11.17-.18.2.03,1.52.23,1.57.3.12.16-.59.36-.68.38-.41.12-.85.16-1.27.23.05-.26-.22-.27-.4-.3-1-.14-2.16-.1-3.17-.13-2.47-.07-4.98-.11-7.45,0-.42.02-1.03.16-1.43.12Z" fill="#f8f8f7"/>
        <path d="M222.49,103.36c-1.19-.26-2.88-.4-4.13-.54-2.38-.27-4.8-.45-7.2-.38-.42.01-1.04.17-1.43.12-.52-.05-.99-.46-.15-.55,2-.2,4.4-.04,6.41.06s4.7.24,6.52.81c.49.15.44.31-.01.47Z" fill="#f8f8f8"/>
        <path d="M223.53,79.31c.11.06.19.11.09.25-.1.15-1.68.47-1.98.53-1.79.37-3.58.6-5.42.51-.13-.09.08-.16.09-.18,2.35-.68,4.77-.97,7.21-1.1Z" fill="#2f2b2b"/>
        <path d="M223.53,79.31c-2.44.13-4.86.42-7.21,1.1.01-.04-.02-.13.01-.2.08-.2.36-.24.55-.31,1.66-.56,4.38-1.17,6.12-1.01.23.02.87.08.53.42Z" fill="#f8f8f7"/>
        <path d="M192.5,95.18c.47-.43.24-.47-.24-.49.21-.06.54-.12.76-.12,1.72-.06.06.49-.52.61Z" fill="#f7f7f7"/>
        <path d="M192.99,98.17l-.43.12c-.07.27.4.05.37.3-.37,0-.79-.12-1.16-.18l-.12-.24c.45,0,.9,0,1.34,0Z" fill="#523d38"/>
        <path d="M225.05,98.84c.26,0,.48.02.73.09.09.03.28.07.25.21-.47.1-.66.16-1.16.18-.04-.21.28-.1.4-.12.26-.03.3-.2.06-.25-.12-.02-.31.08-.27-.12Z" fill="#523d38"/>
        <path d="M220.05,99.45c-.52.1-1.19.1-1.71,0,.54,0,1.18,0,1.71,0Z" fill="#523d38"/>
        <path d="M178.21,101.04c-.03.22,0,.23.18.31-.22.05-.43.18-.43-.18.01,0,.2-.1.24-.12Z" fill="#5d5957"/>
        <path d="M209.85,99.45c-.17.1-.5.1-.67,0,.2,0,.48,0,.67,0Z" fill="#523d38"/>
        <path d="M207.04,99.39c-.08,0-.18,0-.31,0,.04-.1.27-.1.31,0Z" fill="#523d38"/>
        <path d="M205.2,99.33c-.12.15-.25,0-.31,0,.07-.17.29,0,.31,0Z" fill="#523d38"/>
        <path d="M203.68,99.27s-.15,0-.24,0c.02-.09.22-.1.24,0Z" fill="#523d38"/>
        <path d="M224.08,99.33c-.08,0-.14,0-.18,0,0-.09.17-.09.18,0Z" fill="#523d38"/>
        <path d="M222.37,99.39c-.05,0-.14,0-.18,0,0-.09.17-.09.18,0Z" fill="#523d38"/>
        <path d="M202.33,99.21s-.1,0-.18,0c0-.09.17-.09.18,0Z" fill="#523d38"/>
        <path d="M193.05,98.6c.05,0,.21-.19.18.06-.07,0-.15.02-.18-.06Z" fill="#523d38"/>
        <path d="M201.11,99.15s-.1,0-.18,0c0-.09.17-.09.18,0Z" fill="#523d38"/>
        <path d="M198.91,99.03s-.06,0-.12,0l.03-.06.09.06Z" fill="#523d38"/>
        <path d="M200.01,99.09s-.06,0-.12,0l.03-.06.09.06Z" fill="#523d38"/>
        <path d="M224.75,98.84s-.15.18-.12-.06c.05,0,.11,0,.12.06Z" fill="#523d38"/>
      </g>
    </g>
  </g>
</svg>