<?xml version="1.0" encoding="UTF-8"?>
<svg id="Layer_1" data-name="Layer 1" xmlns="http://www.w3.org/2000/svg" width="104.7" height="141.77" viewBox="0 0 104.7 141.77">
  <g>
    <g>
      <path d="M86.46,58c0,2.49,0,4.97,0,7.46-.16-.05-.15.19-.16.29-.38,2.48-.84,4.94-1.23,7.41-.02.13,0,.11,0,.12-.01.12-.04.58-.06.61,0,0-.09,0-.12,0-.02.07.06.11.06.12,0,.04,0,.18,0,.18-.05.06-.1-.13-.12.18,0,.14-.02.35,0,.49-.53-.23-.74.34-.92.75-.71,1.64-1.53,6.53-1.16,8.22.34,1.56,1.83,3.24,2.96,4.32,2.47,2.37,5.56,4.42,7.98,6.82.64.64.95,1.41,1.19,2.26.65,2.25,1.08,4.7,1.67,7,.7,2.68,1.5,5.32,2.23,7.99-.58-.14-.61.63-.67,1.06-.23,1.87.29,3.76.12,5.58-.08.87-1.38,2.04-1.94,2.73-2.13,2.64-4.33,5.61-6.3,8.38-.25.35-.7.9-.83,1.29-.27.83.34.69.85.36,1.26-.8,2.77-2.5,3.97-3.52.12-.1.09-.08.18-.18.2-.22.32-.31.55-.49.25-.19.18-.15.36-.36.21-.25.37-.35.61-.55.83-.7,1.92-1.66,2.55-2.55.04-.05.08-.12.12-.18.31-.11.5-.42.67-.67.02-.03.03-.08.06-.12.31-.13.58-.5.79-.76.31-.39.64-.82.79-1.3.22-.05.11.27.24.36,0,.04,0,.08,0,.12,0,.13.03.32.12.42,0,.04,0,.08,0,.12,0,.07-.02.15.06.18,0,.04,0,.08,0,.12,0,.07-.02.15.06.18,0,.04,0,.08,0,.12,0,.11.06.11.06.12,0,.06,0,.12,0,.18.02.1.06.11.06.12,0,.06,0,.13,0,.18.02.1.06.11.06.12,0,.04,0,.08,0,.12.04.2.06.29.12.49.01.05-.03.17.06.18-3.93,4.07-7.99,8.03-12.01,12.01-.04-.14-.16-.11-.27-.13-.57-.12-1.16-.17-1.73-.3.04-.28.26-.42.37-.69.37-.98.03-1.8-1.11-1.35-.76.3-1.14,1.04-1.44,1.74-1.91-.2-3.82-.44-5.73-.61-5.75-.51-11.52-.73-17.28-.91-2.13-.07-4.68-.36-6.77.01-.46.08-.52.23-.99.22-.12,0-.24-.02-.33.07-.12-.01-.24,0-.36,0,.07-.2-.4-.15-.55-.06-.12,0-.24,0-.36,0,.07-.2-.4-.15-.55-.06-.14,0-.28,0-.42,0,.07-.2-.4-.15-.55-.06-.14,0-.28,0-.42,0,0-.03.01-.11,0-.12-.03-.02-.59-.03-.67.06-.16,0-.32,0-.49,0,0-.03.01-.11,0-.12-.03-.02-.65-.03-.73.06-.22-.01-.45,0-.67,0,0-.03.01-.11,0-.12-.03-.02-.65-.03-.73.06-.28-.01-.57,0-.85,0,.03-.18-.09-.12-.21-.12-.22,0-.51-.04-.7.06-.48-.01-.97,0-1.46,0,.03-.18-.09-.12-.21-.12-.64-.02-1.36-.03-2.01,0-.12,0-.24-.06-.21.12-.32,0-1.15.09-1.34-.15-.05-.06-.04-.12-.06-.15-.12-.2-.07-.09-.18-.18-.2-.16-.18-.16-.3-.36s-.1-.1-.18-.18c-.15-.14-.24-.27-.36-.42-.12-.15-.08-.09-.18-.18-.21-.18-.27-.26-.42-.49-.12-.17-.07-.09-.18-.18-.08-.07-.28-.3-.3-.3.02-.55-.37-1.06-.64-1.51-1.13-1.86-2.54-3.57-3.54-5.5-.32-3.03-.61-7.74-2.26-10.35-.2-.31-.55-.8-.96-.71,0-1.66,0-3.32,0-4.97l7.04,4.7.06.24v9.89c.04.53.26.94.6,1.33,2.09,2.47,4.96,4.67,7.12,7.13.28.23.58.43.94.51,2.55.13,5.19.18,7.73-.03,5.22-2.67,10.46-5.31,15.61-8.1.14-.13.47-.53.55-.7.15.11.3-.02.4-.12.42-.45.84-3.28.98-4.05.03-.18.11-1.06.14-1.1,0,0,.09,0,.12,0,.02-.07-.06-.11-.06-.12,0-.04,0-.23,0-.24,0-.01.09,0,.12,0,.02-.07-.06-.11-.06-.12,0-.04,0-.23,0-.24,0-.01.09,0,.12,0,.02-.06-.06-.11-.06-.12,0-.08,0-.16,0-.24.25.03.07-.12.06-.18,0-.05,0-.23,0-.24,0-.01.09,0,.12,0,.02-.06-.06-.11-.06-.12,0-.08,0-.16,0-.24.24.03.07-.12.06-.18,0-.05,0-.29,0-.3,0,0,.09,0,.12,0,.02-.06-.06-.11-.06-.12,0-.08,0-.16,0-.24.25.03.06-.13.06-.18,0-.08,0-.16,0-.24.25.03.06-.13.06-.18,0-.1,0-.21,0-.3.25.03.06-.13.06-.18,0-.08,0-.16,0-.24.26.03.07-.17.06-.24,0-.08,0-.16,0-.24.26.03.07-.17.06-.24,0-.08,0-.16,0-.24.26.03.07-.17.06-.24,0-.08,0-.16,0-.24.26.04.07-.21.06-.3,0-.1,0-.2,0-.3.26.04.07-.26.06-.36,0-.08,0-.16,0-.24.2.06.15-.35.06-.49,0-.1,0-.2,0-.3.2.06.15-.35.06-.49,0-.12,0-.24,0-.36.2.07.15-.46.06-.61,0-.12,0-.24,0-.36l.12-.36c.22.01.21.29.46.12s.36-.44.45-.7c.52-1.47.93-3.67,1.25-5.24.7-3.39,1.91-10.24-.11-13.19-.53-.77-2.3-1.93-3.2-1.86-.03,0-.12,0-.12,0-.01-.02.01-.11,0-.12-.04-.04-.11.06-.12.06-.04,0-.08,0-.12,0,.07-.14-.22-.17-.34-.17-.05,0-.08.05-.09.05-.04,0-.08,0-.12,0,.03-.26-.17-.07-.24-.06-.04,0-.08,0-.12,0,.04-.26-.26-.07-.36-.06-.06,0-.12,0-.18,0,.05-.27-.32-.07-.42-.06-.1,0-.2,0-.3,0,0-.03.01-.11,0-.12-.03-.02-.72-.03-.79.06-.24,0-.49,0-.73,0-.12-.09-.62-.14-.55.06-.14,0-.28,0-.42,0l-.03-.06c-.14-.01-.17-.02-.15.12-.1,0-.21,0-.3,0-.03,0-.15-.18-.12.06-.43.03-.77.09-1.18.24-.22.08-.69.4-.82.43-.5.11-1.63.03-2.21.06-1.37.08-2.83.15-4.18.3-3.22.35-4.28.94-6,3.64-.37.57-.73,1.2-1.01,1.81-1.52,1.56-3.02,3.14-4.55,4.7-.1.1-.24.4-.38.39l-14.59-7.39.08-.13c4.32-2.15,8.64-4.31,12.96-6.47-.16.63.48.59.93.54.53-.06,3.6-1.02,4.1-1.27.25-.03.18.19.46.24.29.05.55-.02.83-.07,1.68-.35,3.88-1.16,5.54-1.74,1.98-.69,4.05-1.49,5.95-2.36s5.19-2.35,5.42-4.77c.19-2.06-1.31-6.47-2.7-8.04-.2-.23-.68-.68-1-.67-.33-1.18-.66-2.45-1.11-3.6-.04-.09-.02-.2-.17-.16.01-4.13.03-8.25.06-12.37l4.33,1.7c5.07,1.73,10.08,3.61,15.24,5.08,1.02.29,2.33.71,3.35.9.12.02.24.04.37.03Z" fill="#7a6c5f"/>
      <path d="M86.46,65.46c0,3.04,0,6.09,0,9.13.03.39.19.74.38,1.08l15.33,15.35.3.49c.12,10.46.08,20.96.02,31.43-.15.51-.64.8-.99,1.16-.09-.01-.05-.14-.06-.18.08-.11.04-.56-.12-.49,0-.04,0-.08,0-.12.11-.09.08-.14-.06-.12,0-.06,0-.13,0-.18.11-.1.08-.14-.06-.12,0-.06,0-.12,0-.18.11-.1.08-.14-.06-.12,0-.04,0-.08,0-.12,0-.06.18-.21-.06-.18,0-.04,0-.08,0-.12,0-.06.18-.21-.06-.18,0-.04,0-.08,0-.12,0,0,.05-.04.05-.09,0-.12-.04-.4-.17-.34,0-.04,0-.08,0-.12-.05-.54.01-.68.1-1.2.08-.48.16-.88.14-1.38,0-.12.06-.24-.12-.21,0-.06,0-.12,0-.18.09-.07.08-.64.06-.67,0,0-.09,0-.12,0,0-.06,0-.12,0-.18,0-.01.07-.09.07-.21,0-.07-.05-.56-.07-.58,0-.01-.09,0-.12,0,0-.04,0-.08,0-.12-.04-.5-.07-.74-.23-1.26-.03-.1.04-.23-.14-.19-.18-.61-.7-1.95-1.09-2.43.32-.19.29-.62.36-.93-.51-4.8-.57-9.88-1.89-14.54-1.07-3.77-2.7-5.11-5.59-7.51-1.85-1.53-5.83-3.94-6.93-5.87-.71-1.25-.14-3.08-.07-4.48.05-1.06.05-2.53-.14-3.56-.06-.35-.25-.66-.29-.96-.02-.14,0-.34,0-.49.16.03.12-.04.12-.18,0,0,0-.14,0-.18l.06-.12s.05-.48.06-.61l.06-.09-.06-.04c.39-2.47.85-4.94,1.23-7.41.01-.1,0-.34.16-.29Z" fill="#b5a9a0"/>
      <path d="M86.46,54.24c-.94-.2-1.83-.58-2.74-.87-2.91-.93-5.88-1.74-8.84-2.5-3.87-.99-7.76-1.92-11.7-2.58,0-1.36-.02-2.72.01-4.08.11-.39.42-.71.82-.82h21.62c.46.14.77.51.83.99,0,3.28,0,6.57,0,9.85ZM82.99,46.61l1.18,5.64c.57,1.31.79-.02.88-.66.23-1.58.59-4.95-.32-6.28-.32-.47-.9-.73-1.46-.78-1.27-.11-4.5-.1-5.67.27-.16.05-.74.27-.72.47.04.42,1.04.77,1.39.86,1.54.38,3.17.21,4.72.47Z" fill="#b5aaa1"/>
      <path d="M64.75,87.65c-.02.14.04.19.12.28.94,1.13,4.87,1.64,6.32,2.05.62.17.9.22,1.17.83.47,1.07.83,2.29,1.3,3.39-.18-.03-.12.09-.12.21-.19,4.73-.05,9.34-.12,14.04,0,.12,0,.24,0,.36,0,.14-.05.4-.06.61,0,.12,0,.24,0,.36,0,.1-.05.31-.06.49,0,.1,0,.2,0,.3,0,.11-.07.28-.06.49,0,.08,0,.16,0,.24-.1.07-.06.25-.06.36,0,.1,0,.2,0,.3-.1.05-.06.21-.06.3,0,.08,0,.16,0,.24-.09.04-.06.16-.06.24s0,.16,0,.24c-.09.04-.06.16-.06.24s0,.16,0,.24c-.09.04-.06.16-.06.24s0,.16,0,.24c-.08.03-.06.12-.06.18,0,.1,0,.21,0,.3-.08.03-.06.12-.06.18,0,.08,0,.17,0,.24-.08.03-.06.12-.06.18,0,.08,0,.17,0,.24l-.06.12s0,.25,0,.3c-.08.03-.06.12-.06.18,0,.08,0,.17,0,.24l-.06.12s0,.2,0,.24c-.08.03-.06.12-.06.18,0,.08,0,.17,0,.24l-.06.12s0,.2,0,.24l-.06.12s0,.2,0,.24l-.06.12s-.11.92-.14,1.1c-.14.77-.56,3.6-.98,4.05-.1.1-.25.23-.4.12.08-.19.17-.66.18-.88v-29.48c-.06-1.19-.92-2.04-2.1-2.15h-13.88c-.28.05-.56.1-.82.21-.67.28-2.24,2.08-2.85,2.7.27-.62.64-1.24,1.01-1.81,1.72-2.7,2.78-3.29,6-3.64,1.36-.15,2.82-.22,4.18-.3.58-.03,1.72.05,2.21-.06Z" fill="#b5a9a0"/>
      <path d="M85.31,135.38c-.15.37-.7,1.51.04,1.56.44.03,1.65-.92,2.03-1.22l.12-.03c.57.13,1.16.18,1.73.3.1.02.23-.02.27.13-.53.53-2.12,2.35-2.65,2.59-.13.06-.28.08-.42.12-2.83.03-5.67.01-8.5.02.03-.2-.1-.1-.21-.12-5.79-.86-11.64-1.96-17.37-3.12-1.26-.25-2.61-.48-3.84-.83-.85-.24-1.38-.52-2.28-.6.09-.09.22-.07.33-.07.46,0,.53-.14.99-.22,2.1-.37,4.64-.08,6.77-.01,5.76.18,11.53.4,17.28.91,1.91.17,3.82.41,5.73.61Z" fill="#908276"/>
      <path d="M86.46,54.24c0,1.25,0,2.51,0,3.76-.12.01-.24,0-.37-.03-1.01-.19-2.32-.61-3.35-.9-5.15-1.46-10.17-3.34-15.24-5.08l-4.33-1.7c0-.67,0-1.34,0-2,3.94.65,7.84,1.59,11.7,2.58,2.96.76,5.92,1.57,8.84,2.5.91.29,1.81.67,2.74.87ZM84.32,53.95c-.52.12-.57,1.04-.52,1.47.04.37.55,1.9,1.09,1.4.21-.2.5-1.38.48-1.69-.03-.52-.41-1.32-1.04-1.18Z" fill="#918377"/>
      <path d="M63.11,62.67c.15-.03.13.07.17.16.45,1.14.78,2.41,1.11,3.6-.59.03-.56.96-.55,1.37.02,1.05.23,2.39.47,3.41.02.11-.03.23.14.19-.03.21-.12.65-.12.82v1.7c0,.37-1.63,2.39-1.88,2.94-.14-.03-.21.03-.31.08-.43.21-1.06.49-1.45.73-.11.07-.15.03-.12.21-.61-.2-1.4.03-1.94.33-.36.2-1.38.95-1.39,1.37-.11,0-.21.04-.31.09-2.22,1.11-4.43,2.51-6.61,3.7-.13.11-.29.39-.42.46-.5.25-3.56,1.2-4.1,1.27-.45.05-1.09.09-.93-.54,5.68-2.84,11.36-5.68,17.04-8.52.69-.34,1.14-.99,1.21-1.76,0-3.87-.01-7.74,0-11.62Z" fill="#b4a9a0"/>
      <path d="M84.82,74.86c.03.29.22.61.29.96.18,1.03.19,2.5.14,3.56-.07,1.4-.64,3.22.07,4.48,1.1,1.93,5.08,4.34,6.93,5.87,2.9,2.39,4.52,3.74,5.59,7.51,1.32,4.66,1.38,9.74,1.89,14.54-.07.32-.04.75-.36.93-.07-.08-.53-.47-.61-.49-.72-2.67-1.53-5.31-2.23-7.99-.6-2.3-1.02-4.75-1.67-7-.25-.85-.55-1.62-1.19-2.26-2.41-2.4-5.5-4.45-7.98-6.82-1.13-1.08-2.62-2.76-2.96-4.32-.37-1.69.46-6.58,1.16-8.22.18-.41.39-.98.92-.75Z" fill="#918377"/>
      <path d="M64.39,66.43c.32-.02.8.44,1,.67,1.38,1.57,2.89,5.97,2.7,8.04-.22,2.42-3.48,3.89-5.42,4.77s-3.97,1.67-5.95,2.36c-1.65.57-3.86,1.39-5.54,1.74-.28.06-.53.12-.83.07-.28-.04-.21-.27-.46-.24.13-.07.3-.35.42-.46,2.18-1.19,4.39-2.59,6.61-3.7.1-.05.19-.1.31-.09-.01.3.26.4.51.43.86.08,2.23-.07,2.85-.74.36-.39.65-1.16-.03-1.39-.03-.18,0-.15.12-.21.39-.24,1.02-.53,1.45-.73.11-.05.18-.11.31-.08-.22.49.04.8.56.71.62-.1,2.59-1.14,3.1-1.56,1.65-1.38,1.26-4.13.31-5.82-.14-.25-.9-1.28-1.15-1.27-.13,0-.19.14-.24.24-.3.61-.48,1.57-.58,2.24-.17.04-.11-.08-.14-.19-.24-1.03-.45-2.36-.47-3.41,0-.41-.05-1.34.55-1.37Z" fill="#928377"/>
      <path d="M69.06,86.8c.21,0,.51.07.79.06.1,0,.2,0,.3,0,.08.1.3.07.42.06.06,0,.12,0,.18,0,.06.09.26.07.36.06.04,0,.08,0,.12,0,.04.09.16.06.24.06.04,0,.08,0,.12,0,.11.09.29.12.42.12.04,0,.09,0,.12,0l.12.06s.09,0,.12,0c1.24.4,2.23,1.01,2.74,2.26.56,1.37.38,3.34.23,4.8-.05.45-.03,1.68-.68,1.6-.47-.06-.83-1.27-1.01-1.69-.48-1.11-.83-2.32-1.3-3.39-.27-.61-.55-.66-1.17-.83-1.45-.4-5.38-.92-6.32-2.05-.07-.09-.14-.14-.12-.28.12-.03.6-.34.82-.43.41-.15.75-.21,1.18-.24.05,0,.11,0,.12-.06.1,0,.21,0,.3,0s.17-.06.18-.06c.14,0,.28,0,.42,0,.18,0,.43-.06.55-.06.24,0,.49,0,.73,0Z" fill="#fefeff"/>
      <path d="M72.39,87.23c.9-.07,2.67,1.09,3.2,1.86,2.03,2.95.82,9.8.11,13.19-.33,1.57-.73,3.76-1.25,5.24-.09.26-.22.54-.45.7s-.24-.11-.46-.12l-.12.36c.07-4.7-.07-9.32.12-14.04,0-.12-.06-.24.12-.21.18.42.55,1.63,1.01,1.69.65.09.64-1.15.68-1.6.15-1.46.33-3.43-.23-4.8-.51-1.25-1.5-1.86-2.74-2.26ZM74.25,97.25c-.35.08-.57.64-.62.96-.07.46.06.91.17,1.35.17.66.66,2.12,1.12.67.24-.76.49-2.09-.07-2.74-.16-.19-.34-.29-.59-.23Z" fill="#928478"/>
      <path d="M85.31,135.38c.3-.71.68-1.45,1.44-1.74,1.14-.45,1.48.37,1.11,1.35-.1.27-.33.42-.37.69l-.12.03c-.37.31-1.59,1.25-2.03,1.22-.74-.05-.19-1.19-.04-1.56Z" fill="#fcfdfd"/>
      <path d="M42.07,133.74c-.03-.18.09-.12.21-.12.64-.03,1.36-.02,2.01,0,.12,0,.24-.06.21.12-.81-.01-1.62.01-2.43,0Z" fill="#908276"/>
      <path d="M45.95,133.74c.19-.1.48-.07.7-.06.12,0,.24-.06.21.12-.3,0-.64-.05-.91-.06Z" fill="#908276"/>
      <path d="M69.06,86.8c.07-.09.76-.08.79-.06,0,0,0,.09,0,.12-.28,0-.58-.06-.79-.06Z" fill="#928478"/>
      <path d="M49.11,133.86c.08-.09.7-.08.73-.06,0,0,0,.09,0,.12-.24-.01-.52-.05-.73-.06Z" fill="#908276"/>
      <path d="M47.71,133.8c.08-.09.7-.08.73-.06,0,0,0,.09,0,.12-.24,0-.53-.05-.73-.06Z" fill="#908276"/>
      <path d="M50.32,133.93c.07-.09.64-.08.67-.06,0,0,0,.09,0,.12-.22-.01-.48-.05-.67-.06Z" fill="#908276"/>
      <path d="M73.42,108.82c.09.15.14.67-.06.61.01-.2.06-.46.06-.61Z" fill="#928478"/>
      <path d="M53.29,134.11c.14-.09.61-.14.55.06-.18-.01-.39-.05-.55-.06Z" fill="#908276"/>
      <path d="M51.41,133.99c.14-.09.61-.14.55.06-.19-.01-.41-.05-.55-.06Z" fill="#908276"/>
      <path d="M52.38,134.05c.14-.09.61-.14.55.06-.19-.01-.41-.05-.55-.06Z" fill="#908276"/>
      <path d="M68.33,86.8c-.11,0-.37.05-.55.06-.07-.2.42-.16.55-.06Z" fill="#928478"/>
      <path d="M73.3,110.58c.09.14.14.55-.06.49,0-.2.05-.37.06-.49Z" fill="#928478"/>
      <path d="M73.36,109.79c.09.14.14.55-.06.49,0-.18.06-.38.06-.49Z" fill="#928478"/>
      <path d="M101.31,123.43c.16-.07.2.37.12.49-.06-.2-.08-.29-.12-.49Z" fill="#b5aaa1"/>
      <path d="M70.15,86.86c.11,0,.47-.21.42.06-.13,0-.35.04-.42-.06Z" fill="#928478"/>
      <path d="M100.89,121.43c.14-.07.17.21.17.34,0,.05-.05.08-.05.09-.09-.11-.11-.29-.12-.42Z" fill="#b5aaa1"/>
      <path d="M71.6,87.05s.04-.05.09-.05c.12,0,.4.04.34.17-.13,0-.32-.03-.42-.12Z" fill="#928478"/>
      <path d="M70.75,86.93c.11,0,.41-.2.36.06-.11,0-.3.03-.36-.06Z" fill="#928478"/>
      <path d="M73.24,111.3c0,.11.2.41-.06.36,0-.11-.04-.3.06-.36Z" fill="#928478"/>
      <path d="M73.18,111.97c0,.09.2.34-.06.3,0-.1-.03-.25.06-.3Z" fill="#928478"/>
      <path d="M73.12,112.52c0,.08.19.27-.06.24,0-.08-.03-.2.06-.24Z" fill="#928478"/>
      <path d="M73.06,113c0,.08.19.27-.06.24,0-.08-.03-.2.06-.24Z" fill="#928478"/>
      <path d="M71.24,86.99c.07,0,.27-.2.24.06-.08,0-.2.03-.24-.06Z" fill="#928478"/>
      <path d="M73,113.49c0,.08.19.27-.06.24,0-.08-.03-.2.06-.24Z" fill="#928478"/>
      <path d="M39.65,132.29c-.12,0-.19-.06-.18-.18.1.09.07.04.18.18Z" fill="#908276"/>
      <path d="M39.04,131.62c-.12,0-.19-.06-.18-.18.11.1.06,0,.18.18Z" fill="#908276"/>
      <path d="M72.57,116.52c0,.06.18.21-.06.18,0-.07-.02-.15.06-.18Z" fill="#928478"/>
      <path d="M72.69,115.73c0,.06.18.21-.06.18,0-.07-.02-.15.06-.18Z" fill="#928478"/>
      <path d="M84.94,74.19c0,.14.04.21-.12.18.02-.31.07-.12.12-.18Z" fill="#928478"/>
      <path d="M101.07,122.28c.24-.03.07.12.06.18-.08-.03-.06-.12-.06-.18Z" fill="#b5aaa1"/>
      <path d="M101.01,121.98c.24-.03.07.12.06.18-.08-.03-.06-.12-.06-.18Z" fill="#b5aaa1"/>
      <path d="M72.82,114.88c0,.05.19.21-.06.18,0-.07-.02-.15.06-.18Z" fill="#928478"/>
      <path d="M72.88,114.46c0,.05.19.21-.06.18,0-.07-.02-.15.06-.18Z" fill="#928478"/>
      <path d="M72.94,113.97c0,.05.19.21-.06.18,0-.07-.02-.15.06-.18Z" fill="#928478"/>
      <path d="M67.36,86.86s-.08.06-.18.06c-.02-.14,0-.13.15-.12l.03.06Z" fill="#928478"/>
      <path d="M101.25,123.19c.14-.02.17.03.06.12,0,0-.04-.02-.06-.12Z" fill="#b5aaa1"/>
      <path d="M72.63,116.16s.08.06.06.12c-.03,0-.11,0-.12,0l.06-.12Z" fill="#928478"/>
      <path d="M66.87,86.93c-.02.06-.07.06-.12.06-.02-.24.09-.06.12-.06Z" fill="#928478"/>
      <path d="M72.75,115.31s.08.06.06.12c-.03,0-.11,0-.12,0l.06-.12Z" fill="#928478"/>
      <path d="M101.19,122.89c.14-.02.17.02.06.12,0,0-.05-.02-.06-.12Z" fill="#b5aaa1"/>
      <path d="M101.13,122.58c.14-.02.17.02.06.12,0,0-.06-.02-.06-.12Z" fill="#b5aaa1"/>
      <path d="M72.51,116.94s.08.06.06.12c-.03,0-.11,0-.12,0l.06-.12Z" fill="#928478"/>
      <path d="M72.45,117.31s.08.06.06.12c-.03,0-.11,0-.12,0l.06-.12Z" fill="#928478"/>
      <path d="M85,73.89l-.06.12s-.09-.06-.06-.12c.03,0,.11,0,.12,0Z" fill="#928478"/>
      <path d="M72.15,87.17s.08-.1.12-.06c.01.01-.01.1,0,.12l-.12-.06Z" fill="#928478"/>
      <path d="M85.06,73.28s-.02,0,0-.12l.06.04-.06.09Z" fill="#928478"/>
      <path d="M72.39,117.67s.08.06.06.12c-.03,0-.11,0-.12,0l.06-.12Z" fill="#928478"/>
      <g>
        <path d="M98.77,112.21c.07.02.54.41.61.49.4.47.91,1.81,1.09,2.43.14.48.21.98.36,1.46,0,.04,0,.08,0,.12.01.25.04.57.12.79,0,.06,0,.12,0,.18,0,.23.06.52.06.67,0,.06,0,.12,0,.18.04,2.53-.77,2.69-1.94,4.49-.03.05-.04.09-.06.12-.31.11-.5.42-.67.67-.04.06-.08.13-.12.18l-2.55,2.55c-.23.2-.4.3-.61.55-.17.03-.34.19-.36.36-.23.18-.35.27-.55.49-.12,0-.19.06-.18.18-1.2,1.02-2.71,2.72-3.97,3.52-.51.32-1.12.47-.85-.36.13-.39.58-.94.83-1.29,1.96-2.77,4.17-5.73,6.3-8.38.56-.69,1.86-1.86,1.94-2.73.16-1.82-.36-3.71-.12-5.58.05-.43.08-1.2.67-1.06Z" fill="#fefefe"/>
        <path d="M101.01,118.52c.18-.03.12.09.12.21.02.5-.06.9-.14,1.38-.09.52-.15.66-.1,1.2-.13-.1-.02-.41-.24-.36-.15.48-.48.91-.79,1.3-.21.26-.48.63-.79.76,1.17-1.8,1.98-1.96,1.94-4.49Z" fill="#b5aaa1"/>
        <path d="M98.22,123.98c-.62.88-1.72,1.85-2.55,2.55l2.55-2.55Z" fill="#b5aaa1"/>
        <path d="M99.01,123.13c-.17.25-.36.56-.67.67.17-.24.36-.56.67-.67Z" fill="#b5aaa1"/>
        <path d="M95.07,127.07c-.19.22-.12.17-.36.36.03-.17.2-.34.36-.36Z" fill="#b5aaa1"/>
        <path d="M94.16,127.92c-.09.11-.06.08-.18.18,0-.12.06-.19.18-.18Z" fill="#b5aaa1"/>
        <path d="M100.47,115.13c.18-.04.11.09.14.19.16.52.19.76.23,1.26-.15-.47-.23-.98-.36-1.46Z" fill="#b5aaa1"/>
        <path d="M100.83,116.7s.11-.01.12,0c.02.02.07.51.07.58,0,.11-.07.2-.07.21-.08-.21-.11-.54-.12-.79Z" fill="#b5aaa1"/>
        <path d="M100.95,117.67s.11-.01.12,0c.02.03.03.59-.06.67,0-.15-.06-.44-.06-.67Z" fill="#b5aaa1"/>
      </g>
      <path d="M82.99,46.61c-1.54-.25-3.18-.09-4.72-.47-.35-.09-1.35-.44-1.39-.86-.02-.2.56-.42.72-.47,1.17-.37,4.4-.39,5.67-.27.57.05,1.14.31,1.46.78.9,1.32.55,4.7.32,6.28-.09.64-.32,1.97-.88.66l-1.18-5.64Z" fill="#feffff"/>
      <path d="M84.32,53.95c.64-.14,1.01.65,1.04,1.18.02.31-.26,1.49-.48,1.69-.53.5-1.05-1.04-1.09-1.4-.05-.42,0-1.35.52-1.47Z" fill="#fcfdfd"/>
      <path d="M62.45,76.86c.25-.55,1.88-2.57,1.88-2.94v-1.7c0-.16.09-.61.12-.82.09-.67.28-1.64.58-2.24.05-.1.11-.24.24-.24.26,0,1.01,1.02,1.15,1.27.95,1.69,1.34,4.45-.31,5.82-.51.43-2.48,1.46-3.1,1.56-.52.08-.78-.22-.56-.71Z" fill="#fefefe"/>
      <path d="M60.57,77.89c.68.23.38,1,.03,1.39-.62.67-1.99.81-2.85.74-.25-.02-.53-.13-.51-.43.02-.41,1.03-1.17,1.39-1.37.54-.3,1.33-.54,1.94-.33Z" fill="#fdfefe"/>
      <path d="M74.25,97.25c.26-.06.43.04.59.23.56.65.31,1.98.07,2.74-.46,1.46-.95,0-1.12-.67-.11-.44-.24-.89-.17-1.35.05-.32.27-.88.62-.96Z" fill="#fcfcfd"/>
    </g>
    <path d="M1.63,126.95c0-9.16-.06-18.34.08-27.48.14-.42.37-.77.71-1.04,3.37-2.26,6.85-4.37,10.21-6.64.35-.24,1.12-.66,1.31-.99.22-.37.18-.81.17-1.23-.1-4.16-.13-8.32-.12-12.49,0-.5-.09-.75.11-1.28.18-.49.97-1.23,1.5-1.23h1.91l-1.77-2.48c-2.5.8-3.8-2.25-1.83-3.74-.12-.34-.2-.7-.27-1.05-.05-.25-.04-.8-.09-.94-.03-.1-.39-.23-.51-.34-.82-.79-.44-2.46.74-2.65,2.04-.33,2.47,2.61.56,3.05-.05.18.2,1.54.3,1.69.05.07.5.03.63.05,1.65.26,2.04,2.3,1.1,3.51.39.59.79,1.19,1.22,1.75.12.15.89,1.16.96,1.16h1.18c-.06-.53-.17-.32-.55-.46-1.13-.4-1.27-1.94-.39-2.7.09-.08.3-.12.33-.22.02-.06-.17-1.13-.2-1.18-.04-.05-.57-.1-.74-.17-1.16-.48-1.16-2.41.05-2.84l-.68-2.83c-.09-.19-.29-.06-.43-.06-2.25-.11-3.19-2.7-1.8-4.31.13-.15.64-.49.65-.55.02-.09-.59-1.61-.65-1.68-.07-.08-.6-.02-.76-.04-1.19-.16-1.52-2.02-.58-2.69l-1.21-1.82c-.14-.09-.47.17-.63.22-3.5,1.12-4.52-4.17-1.49-4.89,2.47-.59,3.92,2.09,2.62,4.07.26.3.51.62.73.96.12.18.61,1.09.66,1.13.07.04.37,0,.5.01.97.17,1.45,1.15,1.16,2.06-.06.17-.33.51-.32.63l.72,1.85c2.91-.4,3.97,3.44,1.57,4.84.24.45.57,2.79.79,3.02.03.03.64.3.67.27-.06-.34-.26-.66-.3-1.01-.17-1.43.46-2.59,1.88-2.97-.03-.99.04-1.98.18-2.96-2.37-.87-1.52-4.56,1.14-3.94,2.03.47,1.81,3.91-.35,3.97-.11.96-.22,1.93-.18,2.9,2.81.3,2.95,4.4.29,5.08l.13,1.05c1.76-.04,2.12,2.34.6,3.01l.52,2.27c.19-.03.51.08.62-.1l1.74-5.9c-.56-.65-.4-1.66.5-1.83l.53-2.23c-1.07-.55-1-2.37.11-2.79.12-.05.54-.09.57-.13.12-.14.29-1.89.44-2.2-1.57-.4-1.93-2.64-.7-3.61.4-.32.77-.34,1.25-.46l.05-2.81c-1.95-.2-1.76-3.24.34-3.03,1.17.11,1.61,1.59.97,2.48-.13.18-.38.29-.46.39-.12.17-.04,2.1-.05,2.49,0,.2-.12.45-.07.65,0,.03.41.24.52.34,1.22,1.13.65,3.41-1.07,3.62l-.42,2.29c.02.13.28.25.39.4.73.98.16,2.48-1.11,2.55.04.5-.6,1.87-.48,2.25.03.1.17.16.22.26.37.67-.04,1.46-.78,1.58l-1.69,5.78h1.21c-.02-.39.52-1.12.53-1.44,0-.09-.21-.32-.26-.44-.43-.99.14-2.2,1.28-2.25.13,0,.4.08.44.06.06-.03.59-.91.71-1.08.25-.33.51-.66.78-.98.1-.12.38-.33.43-.43.02-.05-.19-.65-.21-.82-.27-2.77,3.62-3.1,3.92-.52.17,1.51-1.05,2.63-2.54,2.24-.16-.04-.58-.29-.62-.29-.22,0-1.58,1.91-1.78,2.23.99,1.19.13,3-1.46,2.63l-.43,1.09h2.4c.67,0,1.67,1.08,1.67,1.73v13.98l30.26-15.13c.32-.15.51-.37.64-.7.02-10.08.07-20.15.09-30.23,0-.71,1.05-1.85,1.73-1.85h3.97c-.12-.24-.53-1.99-.61-2.06-.02-.02-.34-.01-.47-.05-.45-.12-.8-.49-.95-.93-.1-.29-.06-.54-.15-.82-.19-.18-1.58-1.27-1.7-1.21-.9.89-2.48.48-2.61-.85-.02-.17.07-.64.03-.7-.06-.1-2.06-1.04-2.15-.97-.26.72-1.06,1.12-1.79,1.15-3.18.13-3.12-5.09.41-4.54,1.03.16,1.78,1.33,1.69,2.34.58.23,1.15.49,1.71.75.16.07.66.39.75.41.11.02.38-.13.55-.16,1.1-.16,1.64.54,1.83,1.53l1.76,1.24-1.64-3.55c-.41.03-.76.13-1.18.1-1.64-.13-2.37-2.02-1.69-3.4.09-.18.44-.55.44-.65,0-.06-.49-.74-.56-.81-.24-.22-.71-.04-1.09-.43-.33-.35-.35-.82-.31-1.27-.23-.2-.76-.96-1-1.07-.04-.02-.56.21-.76.22-1.22.02-1.83-1.27-1.33-2.31.6-1.27,2.62-.94,2.76.52.02.21-.07.62-.05.72.02.08.82.83.96.98.05.06.11.19.13.2.26.15.83-.2,1.29.44.4.57.06.92.17,1.29.02.06.69.98.74,1.02s.74-.02.91,0c1.5.15,2.2,1.85,1.72,3.17-.09.25-.33.46-.26.71.12.46.7,1.36.94,1.86.31.66.58,1.34.87,2.01,1.34-.02,1.87,1.43,1.23,2.5.71.75,1.27,1.63,1.76,2.55.07.07.25.1.33.03-.21-.47-.4-2.93-.62-3.17-.08-.08-.4-.16-.56-.32-.39-.41-.34-1.07-.09-1.53.05-.09.18-.16.2-.22.11-.25-1.03-4.66-1.19-5.3-.49-1.9-1.06-3.78-1.57-5.67-1.49.16-2.5-1.12-2.09-2.55.06-.22.3-.51.24-.66l-2.36-3.28c-.66-.03-1.24-.22-1.35-.95-.04-.26.07-.57.02-.74-.04-.13-1.39-1.76-1.58-1.95-.29-.28-.3-.12-.6-.19-.81-.18-1.05-.8-.91-1.57-.27-.19-1.31-1.56-1.51-1.58-.13,0-.38.15-.55.17-1.14.15-1.87-.73-1.71-1.83.02-.14.21-.56.2-.59-.04-.08-1.11-1.15-1.21-1.22-.04-.02-.06-.06-.11-.05-1.72,1.22-3.86-.03-3.61-2.15.28-2.39,3.69-2.7,4.32-.33.16.6.08,1.04-.05,1.63l1.49,1.49c1.05-.08,1.89.4,1.94,1.52,0,.21-.16.41.06.6l1.51,1.63c.71-.17,1.36.27,1.44.99.03.26-.1.45-.02.68l1.73,2.09c.38.06.6-.04.94.21.47.35.52.93.37,1.46l1.69,2.3-.46-1.3c-.09-.17-.29-.19-.42-.31-.44-.4-.36-.97-.31-1.5l-.96-2.17c-1.23.21-2-.98-1.58-2.1.04-.12.24-.37.24-.42.03-.18-1.57-2.58-1.78-2.93-.55-.11-1.09-.1-1.33-.73-.69-1.77,2.03-2.33,2.15-.57.01.19-.11.49-.08.57.08.23.83,1.21,1.02,1.52.32.51.62,1.05.91,1.57.23.09.46.06.71.14.82.24,1.19,1.2.93,1.98-.05.17-.28.43-.26.56l.91,2.04c1.32-.08,1.67,1.22.92,2.15l.9,2.52c1.37.04,2.08,1.44,1.6,2.67-.07.19-.3.45-.26.62,1.05,1.74,2,3.54,2.87,5.38.5.07,1.01.23,1.15.79s-.05.88-.27,1.35c.57,1.4,1.03,2.83,1.42,4.29.05-.17.61-.4.63-.43.02-.04.03-.85,0-.92-.03-.08-.48-.24-.62-.35-.73-.62-.66-1.96.15-2.5.12-.08.4-.15.41-.16.03-.04.03-.84,0-.93-.04-.2-.27-.16-.43-.24-1.54-.8-1.28-3.23.43-3.65v-1.74c-1.34-.55-1.31-2.51.06-2.99v-1.56c-2.31-.67-2.22-4.02.12-4.57-.03-.25.13-.59.05-.83-.04-.11-.33-.19-.44-.28-.82-.63-.76-2.08.13-2.6.12-.07.42-.12.44-.14.05-.06-.03-.83,0-.99-2.42-.71-2.36-4.56.12-5.16,3.68-.89,4.53,4.85.91,5.28.05.26-.06.73.01.96.02.06.3.24.38.34.49.56.5,1.42.08,2.02-.14.19-.56.43-.59.51-.03.08-.03.87,0,.95.02.05.55.3.69.4,1.16.92,1.11,3-.16,3.78-.18.11-.53.2-.62.27-.19.14-.06,1.38-.1,1.66,1.09.57,1.21,1.91.28,2.71-.09.08-.29.12-.32.22-.03.09-.04,1.69-.01,1.8.25.15.54.26.73.49l.42.7c.27-1.73.64-3.44,1.09-5.13,0-.1-.27-.34-.35-.49-.42-.84-.08-1.91.84-2.23.09-.03.27-.01.3-.04.06-.05.43-1.35.43-1.42.01-.24-.21-.26-.33-.39-1.43-1.65-.37-4.25,1.9-3.94l.67-1.73c-.09-.38-.34-.66-.35-1.1-.03-.96.65-1.51,1.53-1.65l.87-1.87c-.08-.29-.33-.48-.47-.78-.79-1.78.54-3.74,2.53-3.3l1.03-1.92c0-.31-.18-.57-.18-.89,0-1.07.94-1.73,1.95-1.46,1.51.41,1.32,2.9-.34,3-.16.01-.51-.08-.57-.03-.22.14-.69,1.37-.93,1.63-.03.06-.05.1-.02.16.08.15.34.36.45.58.65,1.29.07,3.11-1.43,3.4-.39.08-.74-.02-1.11.05l-.82,1.81c.58.66.68,1.73.02,2.37-.38.37-1.13.35-1.22.44-.06.06-.62,1.48-.62,1.56.33.42.67.75.81,1.29.42,1.61-.66,3.05-2.34,3-.06.28-.49,1.22-.39,1.43.04.08.23.2.3.31.69.99.11,2.5-1.17,2.49-1.03,4.24-1.77,8.59-1.55,12.98l.21.24.53-1.92c-.43-.5-.66-.87-.59-1.56.08-.85.71-1.23,1.49-1.36l.97-2.91c.01-.12-.44-.47-.55-.61-.75-1.06-.45-2.84.73-3.44.45-.23.93-.24,1.42-.29l1.32-3.16c.04-.21-.15-.4-.21-.62-.26-1,.34-2,1.42-2.02l1.38-2.72c.03-.12-.27-.49-.34-.7-.62-1.77.65-3.53,2.57-3.14l1.83-2.48c-.12-.62.01-1.47.74-1.62,1.88-.39,1.9,2.52.08,2.26l-1.63,2.26c-.04.15.14.24.22.36,1.27,1.95-.26,4.33-2.57,3.62l-.06.04-1.23,2.41c1.02,1.13.35,3.04-1.28,2.75l-1.26,3.14c.33.41.62.67.77,1.2.46,1.56-.47,2.96-2.09,3.06-.11,0-.26-.07-.27-.06-.13.09-.81,2.66-.97,3.01.12.31.33.52.41.86.18.79-.14,1.49-.88,1.82-.11.05-.32.06-.38.1-.21.16-1.17,4.36-1.38,4.93-.08.46.11.9.17,1.35h.85c0-.17-.02-.35,0-.51.04-.36.28-1.32.24-1.57-.01-.11-.22-.28-.3-.44-.51-1.01.04-2.17,1.18-2.33.31-.64.59-1.3.93-1.92.38-.7.86-1.36,1.22-2.04-.47-1.06.03-2.25,1.26-2.33.18-.01.39.12.56.01.15-.36,1.04-1.02,1.12-1.31.04-.14-.08-.4-.09-.57-.18-3.08,3.67-3.42,4.31-.98.6,2.28-1.7,3.87-3.57,2.47-.09-.02-.95.94-.98,1.07-.03.15.14.42.17.6.16,1.18-.84,2.04-1.98,1.73-.7,1.14-1.4,2.28-1.93,3.5.15.25.35.4.46.7.25.67.09,1.49-.52,1.91-.21.15-.81.24-.85.3-.05.07-.27,1.64-.21,1.7.04.04.32-.01.4-.06.22-.13.8-.83,1.06-1.07.44-.41.91-.79,1.37-1.18-.02-.56-.15-.93,0-1.52.34-1.4,1.77-2.04,3.08-1.5.12.05.32.23.41.26.15.04,1.46-.99,1.75-1.07-.12-1.29.84-2.11,2.09-1.67.14.05.3.23.43.22.19-.02.98-.56,1.25-.62.07-.07.11-.59.15-.76.43-1.67,2.4-2.14,3.67-1.06.08.06.14.25.21.26.07.01,1.27-.31,1.33-.34.05-.03.11-.28.17-.39.21-.33.66-.51,1.05-.46,1.48.18,1.22,2.71-.5,2.26-.26-.07-.46-.37-.58-.38-.06,0-.96.23-1.01.27l-.04.06c.56,2.55-2.93,3.86-4.08,1.55-.05-.04-1.11.49-1.17.54-.08.06-.02.49-.04.64-.13.96-1.24,1.4-2.07,1.05-.13-.05-.29-.23-.36-.22-.3.02-1.18.87-1.55.97.75,1.92-.78,3.92-2.85,3.17-.15-.06-.64-.39-.69-.38-.23.03-1.35,1.24-1.62,1.45h5.25c.06,0,.58.24.68.29.61.35.95,1,1.05,1.68v30.2c0,.21.07.42.21.58l15.22,15.22c.41.49.59.9.64,1.54v30.75c-.04.57-.21,1.1-.61,1.51-4.47,4.43-8.87,8.92-13.34,13.34-.93.92-1.89,2.31-3.27,2.4h-46.93c-.17,0-.68-.18-.76-.18h-5.28c-.2,0-.65-.38-.77-.56-.98-1.54,1.02-2.3,2-3,.04-.03.1.01.08-.1l-3.97-3.97c-.22-.27-.58-.84-.58-1.18v-23.2h-7s-.28.17-.34.21l-7.55,7.55-.18.36-.02,21.99c-.06,1.01-.83,1.83-1.85,1.91-3.15.24-6.59-.18-9.77,0-.93-.08-1.68-.88-1.79-1.79,0-3.02,0-6.04,0-9.07,0-.63,0-1.25,0-1.88ZM71.54,42.35h1.21c-.2-2.22-.64-4.42-1.32-6.54-.13-.42-.73-2.28-.92-2.52-.07-.09-.39-.16-.55-.31-.4-.4-.33-.99-.21-1.49l-.97-2c-.07.04,0,.17,0,.23.27,1.38.75,2.86,1.08,4.25.1.41.57,2.81.7,2.94.09.1.27.13.42.31.26.31.31.75.23,1.14-.04.2-.29.42-.29.61l.6,3.37ZM75.24,33.62l.18-2.3c-.28.23-.47.49-.85.58-.02.07,0,1.07.01,1.14.03.1.26.16.36.25.12.11.17.26.3.34ZM75.12,36.83v-1.24s.14-.16,0-.15c-.01.2-.34.26-.43.39-.07.1-.09.91-.06.94.02.02.39,0,.49.06ZM75.54,41.14c-.14.05-.56.11-.6.22-.09.27.12.7.05.99.07-.01.2.04.25-.04.13-.19.18-.92.3-1.18ZM73.97,42.35s-.08-.93-.12-1.01c-.04-.09-.06-.17-.19-.15l.12,1.15s.17.01.18,0ZM63.17,48.29c0,.67,0,1.34,0,2-.03,4.12-.05,8.24-.06,12.37,0,3.87,0,7.74,0,11.62-.07.77-.52,1.42-1.21,1.76-5.68,2.84-11.36,5.68-17.04,8.52-4.32,2.16-8.64,4.32-12.96,6.47l-.08.13,14.59,7.39c.14.01.28-.28.38-.39,1.53-1.56,3.03-3.14,4.55-4.7.61-.62,2.18-2.41,2.85-2.7.26-.11.54-.16.82-.21h13.88c1.18.1,2.03.96,2.1,2.15v29.48c-.02.21-.1.69-.18.88-.07.16-.4.57-.55.7-5.15,2.79-10.39,5.43-15.61,8.1-2.55.21-5.18.16-7.73.03-.36-.08-.66-.28-.94-.51-2.16-2.45-5.03-4.66-7.12-7.13-.34-.4-.56-.8-.61-1.33v-9.89s-.05-.24-.05-.24l-7.04-4.7c0,1.66,0,3.32,0,4.97,0,1.86,0,3.72,0,5.58,0,.08,0,.16,0,.24,0,.06,0,.12,0,.18,0,3.96-.06,7.96.07,11.9l.23.38,7.12,7.13c.26.25.62.35.97.37,12.78-.02,25.57.01,38.35,0,2.83,0,5.67.02,8.5-.02.14-.04.29-.06.42-.12.53-.24,2.12-2.06,2.65-2.59,4.02-3.98,8.08-7.94,12.01-12.01.35-.36.84-.65.99-1.16.05-10.47.1-20.97-.02-31.43l-.3-.49-15.33-15.35c-.18-.34-.35-.69-.38-1.08,0-3.04,0-6.09,0-9.13,0-2.49,0-4.97,0-7.46,0-1.25,0-2.51,0-3.76,0-3.28,0-6.57,0-9.85-.07-.48-.37-.84-.83-.99h-21.62c-.4.11-.71.43-.82.82-.03,1.36,0,2.72-.01,4.08ZM19.88,67.28c.04-.09-.04-.16-.06-.12-.04.09.04.16.06.12ZM22.85,74.55l-.51-2.18c-1.07-.29-1.55-1.56-.91-2.48.08-.11.36-.32.38-.4.01-.06-.15-1.14-.18-1.19-.09-.16-.25-.08-.42-.13-.44-.13-.72-.33-1.09-.58.22.61.28,1.09-.05,1.68-.07.13-.37.42-.38.47-.02.12.25,1.35.31,1.4.08.06.42.12.6.25.74.52.78,1.67.22,2.33-.07.08-.33.26-.33.28-.02.09.03.56.06.56h2.3ZM15.09,89.41c0,.44.12.99,0,1.46,0,.03-.29.54-.34.6-.4.57-3.8,2.67-4.63,3.22-.95.62-1.95,1.25-2.91,1.88-1.23.8-3.04,1.74-4.12,2.64-.23.19-.38.36-.42.67v38c.07.35.44.76.81.77l9.86-.03c.37-.16.66-.49.67-.91,0-3.27,0-6.53,0-9.8,0-3.03-.02-6.07,0-9.1,0-.96-.18-3.01.25-3.78.14-.25.4-.5.59-.71,2.3-2.47,4.93-4.75,7.24-7.22.29-.26.69-.45,1.09-.49,2.34-.21,5.01.15,7.39.02l.65.26,21.88,14.57c1.23.71,1.36,2.48.22,3.34l-7.42,4.92c-.02.09.02.1.06.15.25.36.99,1.02,1.42,1.06,2.16.21,4.74-.13,6.93-.04l7.77-3.99c.11-.13.06-1.28.06-1.55,0-.08,0-.16,0-.24.02-2.2,0-4.41,0-6.61,0-.14,0-.28,0-.42,0-3.24,0-6.49,0-9.74-.02-.26-.1-.56-.28-.75-.21-.22-1.25-.71-1.6-.89-4.57-2.41-9.23-4.66-13.83-7-.04-.02-.08-.04-.12-.06l-15.16-7.73c-.57-.32-.93-.87-1.03-1.52,0-2.15,0-4.31,0-6.46,0-1.37,0-2.75,0-4.12,0-1.01.12-2.48,0-3.42-.05-.38-.35-.69-.71-.81l-13.51-.02c-.62.03-.9.49-.94,1.06-.02.32.06.58.07.85.05,3.98.02,7.94.06,11.92ZM63.17,126.34l6.33-3.29c.25-.18.4-.47.45-.76l.02-29.58c-.06-.66-.53-1.09-1.18-1.12-4.68.06-9.39-.1-14.05.08-.52.17-1.61,1.51-2.05,1.96-1.76,1.8-3.51,3.6-5.28,5.4l14.65,7.48c.49.23,1.11,1.02,1.11,1.56v18.28ZM39.28,113.55v9.43c0,.08.2.43.27.52l5.58,5.57,7.54-5.06c.53-.38.51-1.23-.04-1.59l-13.36-8.86ZM37.28,138.66l-1.85-1.82c-.12,0-1.98,1.25-2.02,1.38s.01.44.14.44h3.73Z" fill="#221e1f"/>
    <g>
      <path d="M30.13,83.95c0,2.15,0,4.31,0,6.46.09.64.46,1.2,1.03,1.52l15.16,7.73c-.03.08.04.14.06.18.02.07.01.09.06.18.09.17.09.13.18.24.15.18.27.27.42.42.66.63,1.39,1.19,2.13,1.72.27.19.93.73,1.21.76.09,1.09,1.18,1.86,1.97,2.55,1.58,1.38,3.11,2.19,4.16,4.08.63,1.14,1.15,2.34,1.8,3.48.48.83,1.02,1.63,1.53,2.45-.26.63-.07,2.21.36,2.76.54.68,1.03-.51,1.15-.94h.24s0,.04,0,.06c.02.18.33.85.55.91,0,2.2.02,4.41,0,6.61l-7.4-6.61c.04-.53-.41-1.09-.73-1.48-1.45-1.8-3.36-3.78-4.97-5.46-2.84-2.97-5.94-6.03-8.97-8.79-1.35-1.23-4.02-3.83-5.85-3.84-1.69,0-6.27,1.76-8.07,2.41-1.16.42-2.46.88-3.57,1.41-.09.04-.19.03-.16.17-2.82-.27-3.53.94-5,2.98-.92,1.29-3.27,4.82-3.13,6.33.08.93.99.2,1.34-.15l-.79,2.24c-.2.21-.46.46-.59.71-.43.77-.25,2.81-.25,3.78-.09-.06-.1-.16-.14-.26-1.68-4.65-3.49-9.25-5.14-13.9-.33-.94-1.3-3.22-1.33-4.07-.02-.53,1.09-2.1,1.4-2.65.56-.99,1.25-2.1,1.32-3.25.83-.55,4.23-2.65,4.63-3.22.04-.06.33-.57.34-.6,1.4-.29,2.74-.92,4.04-1.51,3.6-1.62,7.2-3.48,10.7-5.31.1-.05.17-.11.3-.1Z" fill="#b5a9a0"/>
      <path d="M7.21,96.57c-.66,1.16-2.13,2.47-2.25,3.85-.18,2.12,1.05,5.73,1.68,7.84,1.92,6.4,4.31,13.13,7.04,19.22.05.12.16.46.31.44,0,3.26,0,6.53,0,9.8,0,.42-.29.75-.67.91l-9.86.03c-.38-.02-.74-.42-.8-.77v-38c.03-.31.19-.48.42-.67,1.08-.9,2.89-1.84,4.12-2.64ZM3.98,130.6c-.08.02-.2.16-.25.23-.64.85-.51,3.82-.25,4.85.36,1.41,1.41,1.83,2.78,1.63.42-.06,1.65-.25,1.55-.81-.07-.39-1.45-1-1.75-1.35.03-1.06-.06-2.13-.47-3.11-.23-.55-.9-1.66-1.62-1.44ZM10.05,135.76c-.69.05-1.51.74-.66,1.24.52.3,1.06.21,1.58,0,1.35-.56-.15-1.28-.92-1.23Z" fill="#918377"/>
      <path d="M54.69,118.64c.07.02.33.43.42.52,1.99,1.9,4.12,3.73,6.18,5.58.23.21.45.66.86.63,0,.27.05,1.42-.06,1.55l-7.77,3.99c-2.2-.09-4.77.26-6.93.04-.44-.04-1.18-.7-1.42-1.06-.04-.05-.08-.06-.06-.15l7.42-4.92c1.14-.85,1.01-2.63-.22-3.34l-21.88-14.57-.65-.26c-2.37.14-5.05-.23-7.39-.02-.4.04-.8.23-1.09.49-2.31,2.47-4.94,4.75-7.24,7.22l.79-2.24c.4-.4,1.24-1.79,1.58-2,.85-.53,1.77-1.94,2.52-2.73,1.11-1.18,1.36-1.12,2.75-1.74.12-.05.16.02.13-.2.92-.1,2.65-.36,3.49-.66.3-.11.55-.23.45-.61,2-.65,3.98-1.39,6-1.97.43-.12,1.35-.45,1.74-.29,2.58,2.1,4.89,4.49,7.41,6.66,2.97,2.56,6.03,5.06,9.07,7.55.69.56,2.7,2.36,3.42,2.52.17.04.39,0,.49.03ZM29.2,103.62c-.81.1-1.67.94-.77,1.59.61.43,1.36.34,1.98-.02,1.35-.78-.35-1.67-1.21-1.57Z" fill="#918276"/>
      <path d="M31.16,119.07c.19-.03.11.1.12.21.09.85.19,1.7.31,2.54.18,1.23.36,2.49.72,3.68-.4,0-.5.56-.54.89-.09.84,0,2.92.28,3.7.45,1.27,2.97,3.86,4.01,4.84.45.42,1.61,1.55,2.08,1.8.68.37.94-.06.7-.7-.33-.86-1.02-2.11-1.48-2.95-.82-1.52-1.45-2.46-2.7-3.67-.15-.15-.64-.47-.72-.61-.14-.22-.29-1.34-.43-1.72.52.34.94.87,1.39,1.3s2.78,2.63,3.15,2.73c.17.04.4,0,.49.03.02,0,.22.23.3.3,0,.12.06.19.18.18.16.22.22.3.42.49,0,.12.06.19.18.18.12.16.21.29.36.42,0,.12.06.19.18.18.12.21.1.2.3.36,0,.12.06.19.18.18.02.03,0,.09.06.15.19.24,1.02.14,1.34.15.81.01,1.62-.01,2.43,0,.48,0,.97-.01,1.46,0,.27,0,.61.05.91.06.28,0,.57-.01.85,0,.2,0,.49.05.73.06.22,0,.45-.01.67,0,.21,0,.49.05.73.06.16,0,.32,0,.49,0,.19,0,.45.05.67.06.14,0,.28,0,.42,0s.36.05.55.06c.14,0,.28,0,.42,0s.36.05.55.06c.12,0,.24,0,.36,0,.15.01.37.05.55.06.12,0,.24-.01.36,0,.9.08,1.43.36,2.28.6,1.23.35,2.58.57,3.84.83,5.73,1.16,11.59,2.26,17.37,3.12.11.02.25-.08.21.12-12.78.02-25.57-.02-38.35,0-.35-.02-.71-.11-.97-.37l-7.12-7.13-.23-.38c-.14-3.95-.08-7.94-.07-11.9ZM41.03,136.61c-.59.1-1.14.75-.74,1.32.51.72,2.06.31,2.65-.13s.14-.71-.32-.93c-.5-.23-1.04-.35-1.59-.26Z" fill="#b5aaa1"/>
      <path d="M30.13,79.83c-.18.01-.37.14-.53.23-4.91,2.81-9.57,6.05-14.24,9.23-.09.06-.16.12-.27.12-.03-3.98-.01-7.94-.06-11.92,0-.27-.09-.53-.07-.85.04-.57.32-1.03.94-1.06l13.51.02c.35.12.65.43.71.81.13.94,0,2.41,0,3.42ZM17.62,76.39c-1.27.21-1.48,1.68-1.37,2.74.05.5.56,2.22.79,2.67.15.28.36.48.69.28.23-.14.72-1.83.83-2.2s.18-.74.28-1.11c.73-.04,1.51-.08,2.2-.34.61-.23,1.54-.87.71-1.47-.7-.5-3.3-.71-4.14-.57ZM17.14,83.36c-.4.1-.65.8-.66,1.17s.26,1.94.86,1.46c.23-.18.6-1.28.6-1.58,0-.35-.35-1.16-.8-1.05Z" fill="#918377"/>
      <path d="M10.12,94.69c-.07,1.16-.77,2.26-1.32,3.25-.31.55-1.42,2.12-1.4,2.65.03.86,1,3.14,1.33,4.07,1.65,4.66,3.46,9.26,5.14,13.9.03.09.04.2.14.26-.02,3.03,0,6.07,0,9.1-.16.01-.26-.32-.31-.44-2.73-6.09-5.12-12.82-7.04-19.22-.63-2.11-1.87-5.72-1.68-7.84.12-1.38,1.58-2.69,2.25-3.85.96-.63,1.96-1.26,2.91-1.88Z" fill="#7a6c5f"/>
      <path d="M30.13,79.83c0,1.37,0,2.75,0,4.12-.13-.02-.2.04-.3.1-3.49,1.83-7.1,3.7-10.7,5.31-1.3.58-2.65,1.21-4.04,1.51.12-.46,0-1.01,0-1.46.11,0,.18-.06.27-.12,4.67-3.17,9.33-6.42,14.24-9.23.16-.09.34-.22.53-.23Z" fill="#7a6c5f"/>
      <path d="M38.56,131.14c-.09-.03-.32.02-.49-.03-.38-.1-2.7-2.3-3.15-2.73s-.87-.97-1.39-1.3c-.16-.44-.68-1.59-1.21-1.58-.36-1.19-.54-2.45-.72-3.68-.12-.84-.22-1.69-.31-2.54-.01-.11.07-.25-.12-.21,0-.06,0-.12,0-.18.09-.03.09-.22,0-.24,0-1.86,0-3.72,0-5.58.41-.09.76.4.96.71,1.65,2.61,1.94,7.33,2.26,10.35,1,1.92,2.41,3.64,3.54,5.5.28.45.67.96.64,1.51Z" fill="#908276"/>
      <path d="M62.14,118.1c-.3.07-.24-.47-.55-.49,0-.02,0-.04,0-.06.01-.44.18-.46.03-1.03-.03-.1,0-.21-.15-.18,0-.18-.04-.31-.06-.49,0,0,.02-.02,0-.12-.09-.57-.47-1.63-.42-2.12,0-.02,0-.04,0-.06.29.05.34-.45.4-.66.44-1.58.88-3.41-.33-4.76-.78-.87-4.06-2.68-5.21-2.91-.09-.02-.41-.12-.37.09-.09-.01-.55-.02-.61,0,0-.16-.14-.2-.25-.27-.67-.45-2.85-1.73-3.56-1.84-.23-.04-.46.01-.68-.01-.04-.41-.3-.36-.6-.58-.75-.54-1.58-1.1-2.29-1.68-.13-.11-.12-.3-.45-.22-.16-.15-.28-.24-.42-.42,0-.21.05-.28-.18-.24-.05-.09-.04-.12-.06-.18l.06-.12c4.6,2.34,9.26,4.6,13.83,7,.34.18,1.39.67,1.6.89.18.19.26.49.28.75,0,3.25,0,6.49,0,9.74Z" fill="#918276"/>
      <path d="M37.28,138.66h-3.73c-.13,0-.18-.32-.14-.44s1.9-1.38,2.02-1.38l1.85,1.82Z" fill="#908276"/>
      <path d="M62.14,125.13c0,.08,0,.16,0,.24-.4.03-.62-.42-.86-.63-2.06-1.85-4.19-3.68-6.18-5.58-.09-.09-.35-.5-.42-.52,0-.04.06-.09.06-.12l7.4,6.61Z" fill="#918377"/>
      <path d="M61.6,117.61c.31.02.25.56.55.49,0,.14,0,.28,0,.42-.21-.06-.52-.73-.55-.91Z" fill="#918377"/>
      <path d="M46.44,99.72l-.06.12s-.09-.1-.06-.18c.04.02.08.04.12.06Z" fill="#918377"/>
      <path d="M31.16,118.89c0-.08,0-.16,0-.24.09.02.09.22,0,.24Z" fill="#b5aaa1"/>
      <path d="M40.68,133.44c-.12,0-.19-.06-.18-.18.11.09.06-.02.18.18Z" fill="#908276"/>
      <path d="M40.19,132.89c-.12,0-.19-.06-.18-.18.09.08.06-.03.18.18Z" fill="#908276"/>
      <path d="M54.75,118.52s-.05.08-.06.12c-.1-.03-.32,0-.49-.03-.72-.16-2.74-1.96-3.42-2.52-3.03-2.48-6.09-4.99-9.07-7.55-2.52-2.17-4.83-4.56-7.41-6.66-.4-.16-1.31.16-1.74.29-2.02.58-4,1.32-6,1.97-.04-.14-.39-.29-.53-.35-.79-.3-2.76-.79-3.59-.87-.03-.14.07-.13.16-.17,1.11-.52,2.41-.98,3.57-1.41,1.79-.65,6.37-2.42,8.07-2.41,1.84,0,4.5,2.61,5.85,3.84,3.04,2.76,6.13,5.82,8.97,8.79,1.61,1.69,3.52,3.66,4.97,5.46.32.39.77.95.73,1.48Z" fill="#7a6c60"/>
      <path d="M22.43,102.94c.83.08,2.8.57,3.59.87.14.05.49.2.53.35.1.38-.15.5-.45.61-.84.3-2.57.57-3.49.66-.6.06-1.28.02-1.85.13-.38.07-.65.48-.88.76-.87,1.04-1.79,2.38-2.55,3.52-.06.09-.12.16-.12.27-.34.21-1.18,1.6-1.58,2-.35.35-1.25,1.09-1.34.15-.13-1.52,2.21-5.05,3.13-6.33,1.46-2.04,2.17-3.25,5-2.98Z" fill="#fefeff"/>
      <path d="M54.87,105.3c-.16.06-.26.45-.24.63.15,1.38,3.05,3.22,4.12,4.01l1.46,3.57c.18.29.52.28.78.1-.05.49.34,1.55.42,2.12h-.06c-.27-.45-.66-.85-1.17-.42-.04.03-.33.39-.34.42-.5-.82-1.05-1.61-1.53-2.45-.65-1.13-1.17-2.34-1.8-3.48-1.05-1.9-2.58-2.71-4.16-4.08-.79-.69-1.88-1.45-1.97-2.55.22.03.45-.02.68.01.71.11,2.88,1.39,3.56,1.84.11.07.25.11.25.27Z" fill="#7c6e61"/>
      <path d="M61.36,115.73s.01.09.06.12c.02.17.06.31.06.49,0,.39-.01.83-.12,1.21-.13.43-.61,1.62-1.15.94-.43-.54-.63-2.13-.36-2.76.01-.02.3-.38.34-.42.52-.43.9-.03,1.17.42Z" fill="#fdfefe"/>
      <path d="M47.05,100.69c.32-.08.31.11.45.22.71.59,1.53,1.15,2.29,1.68.3.22.57.17.6.58-.27-.03-.94-.57-1.21-.76-.74-.53-1.47-1.09-2.13-1.72Z" fill="#918377"/>
      <path d="M61.48,116.34c.16-.03.12.08.15.18.15.57-.02.6-.03,1.03h-.24c.11-.38.13-.82.12-1.21Z" fill="#918377"/>
      <path d="M46.44,100.02c.24-.03.19.03.18.24-.09-.11-.09-.08-.18-.24Z" fill="#918377"/>
      <path d="M3.98,130.6c.72-.21,1.4.89,1.62,1.44.41.99.49,2.05.47,3.11.29.35,1.68.96,1.75,1.35.1.56-1.14.75-1.55.81-1.37.2-2.42-.22-2.78-1.63-.26-1.03-.39-4,.25-4.85.05-.07.17-.21.25-.23Z" fill="#fdfefe"/>
      <path d="M10.05,135.76c.77-.05,2.27.67.92,1.23-.53.22-1.07.31-1.58,0-.85-.5-.02-1.19.66-1.24Z" fill="#fcfcfd"/>
      <path d="M29.2,103.62c.86-.1,2.56.79,1.21,1.57-.61.36-1.37.45-1.98.02-.9-.64-.04-1.49.77-1.59Z" fill="#fcfdfd"/>
      <path d="M22.61,105.42c.03.22,0,.14-.13.2-1.39.62-1.64.56-2.75,1.74-.74.79-1.67,2.2-2.52,2.73,0-.11.06-.18.12-.27.76-1.13,1.68-2.47,2.55-3.52.23-.28.5-.68.88-.76.56-.11,1.25-.06,1.85-.13Z" fill="#7f7265"/>
      <path d="M32.31,125.5c.53-.01,1.06,1.14,1.21,1.58.14.38.29,1.5.43,1.72.09.14.57.47.72.61,1.25,1.21,1.88,2.14,2.7,3.67.45.84,1.15,2.09,1.48,2.95.24.64-.02,1.07-.7.7-.47-.25-1.63-1.38-2.08-1.8-1.04-.98-3.57-3.57-4.01-4.84-.28-.78-.37-2.87-.28-3.7.03-.32.14-.88.54-.89Z" fill="#feffff"/>
      <path d="M41.03,136.61c.55-.09,1.09.03,1.59.26.46.21.9.49.32.93s-2.15.85-2.65.13c-.4-.57.15-1.22.74-1.32Z" fill="#fefefe"/>
      <path d="M17.62,76.39c.84-.14,3.44.07,4.14.57.84.6-.09,1.24-.71,1.47-.69.26-1.47.3-2.2.34-.1.37-.17.74-.28,1.11s-.6,2.06-.83,2.2c-.33.2-.55,0-.69-.28-.23-.44-.74-2.17-.79-2.67-.11-1.06.1-2.52,1.37-2.74Z" fill="#fdfefe"/>
      <path d="M17.14,83.36c.45-.11.8.7.8,1.05,0,.3-.37,1.4-.6,1.58-.6.48-.87-1.09-.86-1.46s.26-1.07.66-1.17Z" fill="#fcfcfd"/>
      <path d="M55.47,105.3c1.05.14,4.2,1.92,5.03,2.64,1.88,1.62.84,3.65.48,5.61,0,.02,0,.04,0,.06-.26.18-.6.19-.78-.1l-1.46-3.57c-1.07-.79-3.97-2.62-4.12-4.01-.02-.18.07-.57.24-.63.05-.02.52-.01.61,0Z" fill="#fdfefe"/>
      <path d="M60.99,113.55c.35-1.96,1.4-3.99-.48-5.61-.84-.72-3.98-2.5-5.03-2.64-.05-.22.27-.11.37-.09,1.15.23,4.43,2.04,5.21,2.91,1.21,1.35.77,3.19.33,4.76-.06.21-.11.71-.4.66Z" fill="#918377"/>
      <path d="M61.42,115.85c-.05-.03-.04-.09-.06-.12h.06c.02.1,0,.11,0,.12Z" fill="#918377"/>
    </g>
  </g>
  <path d="M1.63,128.83c-.1-.06-.06-.23-.06-.33,0-.4,0-.81,0-1.21,0-.1-.04-.27.06-.33,0,.63,0,1.25,0,1.88Z" fill="#918377"/>
</svg>