<?xml version="1.0" encoding="UTF-8"?>
<svg id="Layer_1" data-name="Layer 1" xmlns="http://www.w3.org/2000/svg" width="130.9" height="308.29" viewBox="0 0 130.9 308.29">
  <path d="M92.99,264.61v-8.22c-.03,2.74-.03,5.49,0,8.22Z" fill="#507c39"/>
  <path d="M28.56,306.11h-8.09c2.69,0,5.39,0,8.09,0Z" fill="#b5a9a0"/>
  <g>
    <g>
      <path d="M20.48,306.11c-5.06,0-10.13,0-15.19,0-1.66-.21-2.94-1.4-3.2-3.06l.06-14.43c.34-1.25,1.15-1.87,2.2-2.49,4.42-2.61,9.79-4.45,14.18-7.09.75-.45,1.27-.92,1.44-1.83.26-4.72-.36-9.82,0-14.49.11-1.49.6-2.55,1.87-3.35,3.56-2.24,8.51-4.15,12.35-6.17,1.34-.71,3.59-1.52,4.11-2.94l3.85-15.6c0-.72-.24-1.37-.73-1.89l-28.89-24.6c-.78-.75-1.38-1.38-1.53-2.52.26-4.95-.46-10.48-.04-15.37.12-1.38.81-2.31,1.96-3,4.65-2.8,10.3-4.79,15.04-7.52.49-.35.82-.94.97-1.51v-16.51c-1.74-4.5-4.82-8.81-6.6-13.23-.59-1.47-.64-2.7.4-4,.34-.43,1.49-1.26,2-1.26h33.32c-.58-2.13-1.18-4.26-1.95-6.33-.62-1.67-1.22-3.72-2.7-4.74-3.82-2.62-9.17-4.2-13.3-6.53-1.12-.63-5.04-2.82-2.51-4.12,3.32-1.71,8.28.5,11.33,2.01l-1.59-2.39c-4.68-6.42-10.15-12.18-15.83-17.7l-1.36,1.5c-3,2.53-6.94,1.23-8.49-2.15-4.45,1.31-8.13-1.93-7.23-6.53-3.04-1.7-4.2-5.43-1.89-8.28.53-.66,1.21-1.03,1.81-1.59-1.69-5.03,2.15-8.99,7.23-7.47,1.84-3.58,6.15-4.76,9.09-1.64.24.25.77,1.16,1,1.23.28.08,1.15-.22,1.54-.24,4.56-.31,6.96,3.82,5.43,7.88.04.19,1.09.78,1.34,1,3.47,2.92,2.4,7.38-1.37,9.35.56,2.55-.39,5.4-2.9,6.46-.83.35-1.69.42-2.57.56,9.71,9.65,19.21,20.27,24,33.34.22.03.14-.31.13-.45-.34-4.13-1.72-9.59-2.52-13.79-3.76-19.77-8.19-39.44-14.54-58.53-1.65-3.05-14.41-7.51-18.03-9.5-1.53-.84-4.27-2.7-.91-3.53,3.74-.92,9.39-.15,12.87,1.48.83.39,1.56.95,2.39,1.33-2.46-6.82-5.36-13.56-9.65-19.44-.18-.04-.17-.03-.27.08-.3.32-.49.78-.9,1.16-2.96,2.75-7.07,1.46-8.73-1.96-4.38,1.22-8.11-1.95-7.19-6.5-4.11-2.52-4.12-7.41-.02-9.94-1.89-4.86,2.25-9.18,7.19-7.38,1.93-4.4,7.78-4.79,9.93-.39,4.04-1.32,7.86,1.13,7.56,5.55-.03.47-.46,1.82-.38,2.06.03.09,1.13.8,1.36,1,3.42,2.96,2.24,7.27-1.45,9.27.77,4.1-1.75,7.15-5.93,6.98,5.41,7.48,8.69,16.51,11.74,25.18,6.94,19.73,11.6,40.2,15.61,60.72l3.43,18.55c.11-.6-.12-1.2-.13-1.76-.45-12.94-.81-25.9-.65-38.9.01-1.13.27-2.29.1-3.48-.38-2.65-5.3-7.85-7.06-10.16-.98-1.29-4.99-6.22-1.32-6.64,3.3-.38,5.82,1.45,7.47,4.14l1.46,2.91c.82-11.31,2.49-22.57,5.35-33.54-3.94,1.47-7.57-.87-7.72-5.07-3.42-1.04-5.42-4.24-3.78-7.68.19-.4,1.32-1.81,1.32-1.93,0-.25-.5-1-.62-1.34-1.63-4.55,1.37-7.81,5.96-7.62.98-4.78,6.2-6.27,9.62-2.75,4.72-2.67,9.24.64,8.66,5.89,5,.99,6.26,6.63,2.36,9.88,2.01,4.1-.65,8.35-5.22,8.15-1.19,4.36-6.15,5.81-9.34,2.46-.76,2.1-1.21,4.33-1.7,6.52-1,4.53-1.8,9.1-2.41,13.7l1.11-1.44c1.48-1.62,3.37-2.91,5.52-3.48,2.58-.69,3.47.15,1.66,2.31-2.52,3-8.58,7.57-9.32,11.43-.46,2.38-.52,6.08-.66,8.6-.74,13.52-.31,27.09.13,40.58.07,1.96.04,3.92.13,5.88,0,.16-.1.49.13.45,5.86-37.48,14.49-76.96,40.3-106.03-3.1.18-5.72-1.64-5.98-4.84-.04-.49.16-1.73.1-1.92-.06-.19-.68-.48-.9-.67-3.32-3.05-2.81-6.78.85-9.2-1.66-5.04,2.12-9.11,7.24-7.5,2.15-4.41,7.53-4.63,10.03-.4,4.21-1.15,7.86,1.33,7.44,5.87-.04.43-.45,1.58-.38,1.81.04.12,1,.68,1.22.87,3.51,3.03,2.59,7.31-1.3,9.38,1.05,4.48-2.67,8.01-7.1,6.67-1.63,3.38-5.87,4.22-8.62,1.5l-1.23-1.51c-3.98,4.51-7.71,9.25-11.02,14.29-1.18,1.8-2.6,3.91-3.6,5.8-.06.12-.14.37.07.19l2.75-1.41c3.52-1.45,9.58-2.43,13.37-2.16,2.8.19,3.82,1.37,1.5,3.47-3.8,3.43-11.23,6.66-15.87,9.31-2.43,1.39-8.75,4.81-10.03,7.06-1.11,1.95-2.24,5.44-3.06,7.64-5.79,15.61-9.51,31.95-12.48,48.33-1.07,5.89-2.31,12.21-3.02,18.12-.11.89-.22,1.75-.15,2.65h4.24c.11,0,1.52-1.47,1.56-1.57.21-.46.11-1.85.07-2.41-.16-2.08-1.4-7.17-.49-8.84s2.86.18,3.52,1.11c1.12,1.58,1.45,3.81,1.41,5.71l5.35-4.63c-4.12-.41-6.36-4.35-4.47-8.09-3.87-3.29-2.75-8.8,2.24-9.99-.36-4.1,2.27-7.65,6.64-6.69.45.1,1.81.71,2.01.68.26-.04,1.36-1.07,1.83-1.31,3.51-1.76,7.01.44,7.8,4.06,5.27-.42,8.25,4.46,5.35,8.93,3.39,3.33,2.23,8.23-2.3,9.6-.17,3.59-2.8,6.17-6.48,5.45-.46-.09-1.87-.75-1.97-.73s-1.2,1.12-1.53,1.34c-2.41,1.57-5.36,1.26-7.16-1.04-.25-.31-.86-1.68-1.1-1.62-1.86,1.71-3.83,3.3-5.68,5.02-1.49,1.38-3.29,3.02-4.63,4.5-.14.15-.24.34-.32.53h31.37c.14,0,1.12.52,1.3.65,1.28.95,1.87,2.72,1.21,4.21l-15.72,31.64-.03,16.28c.07.64.47,1.37,1,1.74,4.81,2.83,10.52,4.86,15.26,7.7,1.33.8,1.62,1.27,2.09,2.73,1.7,5.26,2.72,10.97,4.33,16.29v16.82c-.15,1.06-.66,1.89-1.49,2.54-3.47,2.77-8.1,4.87-11.61,7.69-.91,1.06-.57,3.43-.58,4.83v8.22c.02,1.72-.5,4.03,1.13,5.07l32.78,16.66c1.05.54,1.83,1.55,1.95,2.74.44,4.39-.33,9.49,0,13.96-.23,1.38-1.12,2.46-2.45,2.9-32.58.28-65.24.2-97.85.17-2.69,0-5.39,0-8.09,0ZM106.42,9.49c.82-1.71,2.47-2.77,4.04-3.72-1.79-2.96-5.24-3.32-7.43-.52-.2.25-.77.91-.36,1.14.72.41,1.43.78,2.05,1.33s.93,1.16,1.42,1.68c.1.11.09.12.27.08ZM112.42,12.23c1.27-.18,2.41-.17,3.68.04s1.6.94,1.8-1.02c.36-3.7-2.35-5.84-5.86-4.88.5,1.98.9,3.83.38,5.86ZM101.08,6.75c-4.05-1.3-7.31,1.91-5.88,5.95,1.04-.11,2.02-.53,3.07-.6.83-.05,1.6.08,2.41.13-.22-1.83-.28-3.73.39-5.48ZM111.22,12.59c.72-.71.39-5.69-.3-5.84s-4,2.97-3.97,3.83c.01.35.36.87.46,1.25.26,1.02.41,1.94.33,3,.6-.51,1.15-1.08,1.83-1.49.33-.2,1.57-.67,1.66-.76ZM105.12,14.58v-2.02c0-.67.74-1.5.45-2.28-.32-.88-2.46-2.71-3.37-3.03-.12-.04-.15-.2-.28.02-.26.43-.47,2.38-.46,2.94,0,.36.27,2.19.43,2.38.06.07,1.28.54,1.58.71.62.36,1.13.82,1.66,1.28ZM21.91,13.53c.81-1.72,2.45-2.79,4.04-3.72-1.51-2.59-4.74-3.32-6.98-1.12-.28.28-1.3,1.45-.81,1.74.76.45,1.44.79,2.12,1.4.56.51.87,1.11,1.32,1.55.11.11.11.19.32.14ZM27.91,16.27c.84-.09,1.69-.19,2.54-.13s1.69.39,2.55.47c1.61-3.94-1.54-7.46-5.61-6.21.82,1.85.89,3.9.52,5.87ZM16.17,16.27c.08-.08-.27-1.91-.27-2.28,0-.52.59-3.06.47-3.21-3.88-1.3-7.17,2.14-5.69,5.96,1-.12,1.92-.53,2.94-.6.85-.06,1.7.04,2.54.13ZM26.71,16.64c.66-.67.51-4.96-.31-5.84-1.12.25-3.98,2.8-3.98,3.85,0,.34.52,1.35.62,1.86.16.79.2,1.58.17,2.38.6-.53,1.14-1.08,1.83-1.49.32-.19,1.59-.69,1.66-.76ZM20.61,18.62v-2.15c0-.54.67-1.39.49-2.05-.26-1.01-2.58-2.79-3.56-3.23-.71.82-.76,4.84-.17,5.45.06.07,1.28.53,1.58.71.62.36,1.13.82,1.66,1.28ZM106.55,15.62c.28-1.09.29-1.89.05-2.98-.05-.2-.1-.74-.3-.8-.25,1.2-.56,2.75.26,3.78ZM101.18,13.43c-.54-.61-4.46-.24-5.28.19-.13.07-.19,0-.17.23.04.67,2.45,3.41,3.05,3.3.19-.03,1.24-.66,1.68-.79.7-.21,1.46-.37,2.19-.36-.31-.56-.74-1.05-1.07-1.61-.14-.24-.35-.91-.4-.97ZM116.99,13.54c-.24-.34-3.18-.44-3.71-.39-1.64.15-1.29.7-2.05,1.87-.14.21-1.12,1.3-1.02,1.39.77-.4,3.01.85,3.42.76.69-.14,3.74-3.08,3.36-3.63ZM105.12,16.4c.16-.65-2.43-2.66-2.61-2.48-.11.62,2.31,2.78,2.61,2.48ZM107.99,16.4c.65.13,2.89-2.16,2.61-2.48-1.11.5-2.05,1.4-2.61,2.48ZM118.03,22.28c3.79-1.67,3.81-6.42.08-8.21-1,1.38-1.98,2.91-3.6,3.64,1.51,1.19,3,2.64,3.52,4.57ZM94.8,14.33c-.33-.19-1.44.95-1.66,1.25-1.72,2.31-.92,5.06,1.47,6.44.55-1.15,1.16-2.25,2.02-3.2.19-.21,1.03-.85,1.05-.91.04-.16-1.31-1.28-1.56-1.57-.34-.38-1.22-1.94-1.32-2ZM22.04,19.67c.21-.98.26-1.89.07-2.88-.04-.22-.13-.8-.33-.9-.3,1.17-.55,2.78.26,3.78ZM104.99,17.45c-.14-.14-1.97-.53-2.28-.53-.24,0-3.22.56-2.94.92,1.49.54,2.91.78,4.43.2.13-.05.99-.37.78-.58ZM18.13,20.06c-.56-.44-1.35-2.52-1.79-2.71-.57-.23-2.31-.22-2.97-.16-.28.03-2.06.42-2.14.53-.19.28.69,1.48.9,1.75.25.31,1.48,1.52,1.79,1.61.51.15.97-.31,1.44-.47.89-.3,1.82-.62,2.77-.55ZM32.47,17.59c-.32-.45-4.14-.54-4.82-.2l-1.96,3.06c.8-.39,2.92.83,3.39.73.77-.16,3.78-3.03,3.39-3.59ZM112.16,17.84c-.04-.21-.25-.24-.42-.3-.88-.31-2.41-.39-3.23.1,1.13.59,2.44.37,3.65.19ZM20.61,20.45c-.47-1.12-1.48-2.01-2.6-2.42.48,1.07,1.46,2.07,2.6,2.42ZM23.48,20.45c.65.13,2.89-2.16,2.61-2.48-1.07.51-2.14,1.35-2.61,2.48ZM33.52,26.32c3.83-1.66,3.81-6.63-.06-8.23-.8,1.54-1.98,2.83-3.46,3.73,1.57,1.1,2.97,2.64,3.52,4.5ZM10.3,18.37c-.3-.21-1.46.98-1.67,1.26-1.68,2.27-.91,5.11,1.48,6.44.71-1.57,1.62-3.11,3.07-4.11,0-.21-1.4-1.36-1.69-1.7-.45-.52-.94-1.24-1.18-1.88ZM102.64,19.41c-.73-.08-1.51-.14-2.22-.33-.35-.09-1.65-.71-1.74-.7-.78.15-3.18,3.26-3.08,4.28,1,.26,2.16.65,3.2.66.27,0,1.79-.18,1.92-.26.1-.06.71-1.83.94-2.22.29-.51.7-.91.98-1.43ZM117.11,22.79c.49-.68-2.56-4.07-3.39-4.36-.48-.17-.72.16-1.17.26-.81.19-1.64.38-2.48.33,1.05,1.13,1.98,2.45,2.24,4.02.67.42,4.48.19,4.79-.25ZM105.38,18.88c-1.69.51-2.97,2.11-3.39,3.78,1.85-.62,3-1.86,3.39-3.78ZM111.25,22.67c-.61-1.64-1.84-3.43-3.65-3.78.46,1.84,1.84,3.26,3.65,3.78ZM106.42,24.23c.63-1.54,1.15-3.69,0-5.09.03.83-.58,1.35-.66,2.15-.09.85.02,2.34.66,2.94ZM20.48,21.5c-.17-.17-2.06-.54-2.4-.53-.25,0-3.07.58-2.81.92,1.49.54,2.91.78,4.43.2.13-.05.99-.37.78-.58ZM27.52,21.63c-.2-.2-3.23-.54-3.52.13.85.27,1.78.34,2.68.27.13-.01,1.14-.1.84-.4ZM111.48,23.87c-.07-.08-1.25-.49-1.52-.63l-1.97-1.35c.06.55-.08,1.02-.23,1.53-.16.57-.74,1.47-.79,1.82-.11.74,2.04,2.51,2.68,2.88.35.21,1.18.79,1.45.33.4-.69.85-4.05.38-4.58ZM104.73,22.28c-.08-.06-1.39.89-1.65,1.02-.47.24-.96.4-1.46.56-.28,1.5-.12,2.98.38,4.41.42.31,3.7-2.22,3.62-3.03-.04-.36-.41-.9-.54-1.3-.17-.55-.23-1.11-.36-1.67ZM18.13,23.45c-.99-.09-1.95-.24-2.9-.55-.35-.11-.83-.53-1.13-.43-.79.27-3.45,3.71-3,4.24.6.13,1.18.39,1.79.5s2.86.2,3.33-.09c.1-.06.71-1.82.94-2.22.29-.51.67-.94.98-1.43ZM32.6,26.84c-.23-1.29-1.36-2.75-2.34-3.58-1.48-1.26-1.17-.73-2.74-.39-.64.14-1.3.22-1.96.19.53.62,1.1,1.24,1.49,1.97.19.35.73,2.02.82,2.08.11.07,1.69.26,1.92.26.32,0,2.71-.4,2.81-.53ZM20.87,22.93c-1.68.51-3.01,2.1-3.39,3.78,1.89-.66,2.92-1.86,3.39-3.78ZM26.74,26.71c-.62-1.65-1.83-3.4-3.65-3.78.39,1.8,1.89,3.31,3.65,3.78ZM21.91,28.28s.31-.86.36-1.01c.41-1.33.54-2.94-.35-4.07,0,.81-.75,1.67-.77,2.43-.02.54.27,1.98.5,2.48.05.12.05.39.27.18ZM100.56,24.1c-.84.14-1.82.21-2.67.13-.53-.05-2.35-.67-2.48-.65-.43.08-.11,1.97,0,2.35.67,2.43,3.4,3.44,5.68,2.74.06-.08-.52-1.61-.52-1.89v-2.68ZM117.51,23.71c-1.59.54-3.3.69-4.95.39.37,1.68-.18,3.32-.51,4.95,3.47.91,6.21-1.89,5.47-5.34ZM64.81,30.1s.31-.9.41-1.09c.37-.69.85-1.44,1.35-2.04.91-1.11,2.08-1.21.19-2.27-2.94-1.65-6.01.14-6.51,3.32,1.04.12,2.1.59,2.99,1.12.31.18,1.36,1.1,1.57.96ZM76.43,30.63c.46-4.26-3.05-6.89-6.91-4.83.47.9.99,1.68,1.31,2.67s.45,1.94.52,2.94c1.66-.65,3.3-.91,5.09-.78ZM26.97,27.92c-.07-.1-1.3-.45-1.52-.63l-1.97-1.35c.02.52-.09,1.04-.22,1.54-.16.56-.74,1.46-.8,1.82-.11.74,2.04,2.51,2.68,2.88.35.21,1.18.79,1.45.33.41-.7.82-4,.39-4.58ZM20.21,26.32c-.08-.07-1.51.95-1.74,1.07-.24.13-1.31.45-1.37.53-.37.5-.03,4.26.44,4.4.55.17,3.42-2.21,3.55-2.83.08-.37-1.06-2.49-.89-3.16ZM67.3,35.2c.43-.47.68-1.06,1.11-1.57.58-.69,1.36-1.12,1.89-1.76.09-1.92-.49-3.88-1.64-5.42-1.13.74-2.96,3.06-3.06,4.39-.03.48.76,1.32,1.02,1.83.38.75.7,1.67.68,2.52ZM102.51,29.19c1.27,2.93,4.82,3.92,7.18,1.51,1.2-1.23.52-1.06-.44-1.66-.47-.3-1.04-.66-1.46-1.02-.37-.32-1.3-1.53-1.57-1.57-.23-.03-.26.27-.45.47-.91.94-2.02,1.85-3.27,2.28ZM13.89,32.85c.6.1,1.68,0,2.35,0,.05,0,.2-.17.33-.13-.6-1.45-.63-3.03-.52-4.57-1.72.31-3.53.15-5.15-.52-.27-.03-.17.01-.2.19-.22,1.58.39,3.37,1.7,4.3.22.16,1.27.69,1.49.73ZM33,27.76c-1.6.51-3.3.71-4.95.39.24,1.67-.03,3.39-.65,4.96,3.57.84,6.28-1.76,5.61-5.35ZM58.95,28.8c-4.25-.27-6.52,3.59-4.23,7.19,1.64-.87,3.35-1.77,5.27-1.71-.22-.62-.51-1.22-.69-1.86-.09-.31-.36-1.23-.36-1.47v-2.15ZM59.99,28.93v2.28c0,.19.47,1.61.59,1.89.08.2.47,1.05.58,1.11,1.18.12,2.23.5,3.26,1.04.11.06.25.14.26,0-.12-.66-.36-1.42-.39-2.09s.28-1.49,0-1.96c-.35-.61-4.01-2.62-4.31-2.28ZM18,33.24c1.24,2.93,4.85,3.91,7.17,1.5,1.32-1.38.27-1.15-.77-1.84s-1.89-1.56-2.68-2.53c-.95,1.24-2.24,2.3-3.72,2.87ZM70.23,35.85c.96,0,1.91,0,2.87,0,.05,0,.19.15.38.14.72-.05,2.69-3.38,2.68-4.13,0-.58-2.03-.22-2.48-.13-.36.07-2.3.69-2.44.89-.09.13-.16.96-.25,1.25-.22.7-.54,1.34-.88,1.99-.12.26.12,0,.13,0ZM74.73,36.37c1.05.38,2.16,1.03,3,1.76.29.25,1.44,1.65,1.61,1.62.72-.13,1.71-2.62,1.76-3.33.16-1.97-1.36-3.92-3.24-4.43-.98-.26-.8.53-1.11,1.24-.51,1.16-1.22,2.16-2.02,3.13ZM66.38,36.11c.07-1.19-.23-2.62-1.04-3.52-.1,1.24.19,2.59,1.04,3.52ZM68.08,36.5c1-.75,1.72-1.75,1.95-3-.93.73-1.83,1.8-1.95,3ZM62.73,37.41c-.51-.26-2-2.16-2.28-2.22-.81-.16-3.11.54-3.9.93-.39.2-.7.53-1.12.64-.33.46,3.02,2.72,3.61,2.72,1.15-.82,2.25-1.79,3.69-2.07ZM65.34,37.28c-.77-.98-2-1.72-3.26-1.82.79.98,2,1.64,3.26,1.82ZM72.38,36.76c-1.22-.04-2.72.02-3.65.91,1.22.06,2.71-.05,3.65-.91ZM70.69,38.72c1.47.61,2.36,1.99,3.22,3.25.71.18,4.37-.9,4.47-1.5.13-.78-3.4-3.17-4.26-3.29-.58-.08-1.12.55-1.64.78-.2.09-1.88.62-1.78.76ZM56.47,45.11c.06-1.73.91-3.42,1.95-4.76-.97-.48-1.89-1.01-2.74-1.69-1.05-.85-.99-1.69-2.01.07-1.56,2.7-.23,5.76,2.79,6.38ZM60.39,39.89h2.28c.11,0,1.27-.41,1.46-.5.2-.1,1.04-.66,1.15-.8.08-.09.14-.23,0-.26-1.56-.44-3.52.23-4.72,1.27-.09.08-.24,0-.17.3ZM72.65,41.85c-1-1.47-2.55-2.87-4.43-2.87.77,1.69,2.6,2.75,4.43,2.87ZM63.65,44.07c1.75-1.07,2.35-2.58,2.48-4.57-1.57.93-2.42,2.77-2.48,4.57ZM68.34,44.59c.3-1.75.23-3.83-1.17-5.09.2.74-.29,1.59-.24,2.25.07.83.75,2.31,1.41,2.84ZM63.51,40.68c-.82.13-1.57.31-2.41.26-.44-.03-1.45-.39-1.76-.19-.1.06-.65.89-.76,1.07-.66,1.08-1.14,2.42-1.2,3.69,1.74.32,3.48-.06,5.09-.72.14-.12.23-1.62.32-2.03.17-.75.57-1.35.72-2.08ZM79.03,41.46c-1.51.64-2.99,1.5-4.69,1.44.46,1.66.77,3.24.52,4.96,3.6.08,5.6-3.15,4.17-6.39ZM73.82,47.85c.33-1.61.08-3.33-.58-4.83-1.39-.21-2.59-.54-3.85-1.17-.04.43.15.8.13,1.23-.01.55-.48,2.22-.33,2.55.37.8,3.66,2.21,4.63,2.22ZM66.13,42.9c-.09.82-2.4,2.14-2.48,2.54-.13.64.81,3.8,1.39,3.97.29.09,1.26-.97,1.48-1.24.34-.41,1.27-1.75,1.31-2.22.04-.51-.81-1.21-1.02-1.71l-.68-1.34ZM57.39,46.55c.18,3.58,3.79,5.37,6.78,3.46-.86-1.2-1.26-2.63-1.55-4.06-.24-.18-1.97.6-2.42.6h-2.8ZM73.56,48.77c-1.24-.1-2.37-.6-3.43-1.2-.32-.18-1.21-.95-1.44-.88-.52.75-.92,1.58-1.52,2.27-.2.24-1.45,1.33-1.43,1.43,2.59,2.91,6.71,2.14,7.82-1.62ZM83.86,55.68c-.48.58-.94,1.76-1.3,2.48-.92,1.78-1.86,3.59-2.54,5.48,5.34-3.83,11.3-6.64,16.98-9.89,2.11-1.21,5.26-2.86,7.02-4.46.4-.36,1.27-1.08.44-1.35-2.18-.7-8.53.23-10.91.79-3.94.93-8.3,2.81-9.68,6.96ZM37.82,57.25c-.45-1.13-.52-1.4-1.52-2.2-3.59-2.85-9.47-3.79-13.92-3.14-.27.04-1.6.17-1.52.57.07.34,2.97,1.77,3.47,2.01,4.99,2.41,10.43,4.08,14.98,7.33.16-.05.03-.28,0-.4-.23-.99-.76-1.93-1.11-2.87-.14-.38-.21-.86-.39-1.3ZM60.91,74.61c-.36.6-.32,1.4-.39,2.09-.02.15-.23.66,0,.65,2.25-3.69,5.82-6.33,8.61-9.59.13-.31-.43-.19-.57-.18-3.19.33-6.83,4-7.64,7.03ZM25.79,76.59c-1.24.21-2.73,1.62-3.22,2.76,1.52.87,2.85,1.87,3.84,3.34.7-1.06,1.47-1.97,2.5-2.72.3-.22,1.62-.88,1.59-1.11-.05-.52-1.49-1.7-1.98-1.94-.79-.38-1.87-.48-2.73-.34ZM58.43,88.96c-.02-3.49-2.82-9.48-6.75-10.01-3.19-.43-2.7.72-1.37,2.8,2.33,3.62,5.86,6.61,7.86,10.47.21.04.12-.18.13-.32.02-.33-.02-.66,0-.98.05-.63.14-1.28.13-1.96ZM37.68,85.68c1.49-3.85-1.51-7.42-5.54-6.12.55,1.91.9,3.93.34,5.88,1.75-.34,3.47-.03,5.2.25ZM20.87,85.44c-.52-1.84-.21-3.67.21-5.49-4.1-1.35-7.1,2.02-5.82,6.01,1.82-.63,3.7-.87,5.61-.52ZM31.16,79.96c-1.22.17-3.88,2.53-4.11,3.65-.05.25.63,1.89.71,2.43.1.66.09,1.35.02,2.01,1.04-1.12,2.29-1.75,3.63-2.43.56-1.9.41-3.81-.25-5.65ZM25.17,87.66c-.04-.84.02-1.66.19-2.48.08-.38.41-.93.44-1.27.08-.93-2.7-3.42-3.76-3.56-.37,1.17-.71,4.25-.11,5.26.11.19,1.45.73,1.8.94.53.32.98.7,1.44,1.1ZM26.48,88.7c.64-.75.45-2.35.15-3.21-.06-.17-.04-.4-.28-.44-.16,1.2-.3,2.49.13,3.65ZM22.69,89.22l-1.45-2.53c-.64-.79-5.11-.32-5.46.19-.28.41,2.26,3.21,2.83,3.37.39.11.91-.33,1.3-.47.9-.32,1.8-.65,2.77-.55ZM30.26,89.48c.51.03,1.05.1,1.54.22,1.66.41,1.65,1.04,3.21-.22.39-.31,2.24-2.27,2.15-2.67-.86-.62-4.46-.83-5.07-.12-.21.25-.5,1.05-.77,1.45-.32.48-.72.89-1.07,1.34ZM25.17,89.61c.35-.4-2.24-2.77-2.61-2.48.6,1.06,1.48,1.99,2.61,2.48ZM30.78,87.13c-1.19.35-2.17,1.43-2.74,2.48,1.19-.35,2.17-1.43,2.74-2.48ZM38.17,87.27c-.95,1.48-2.04,2.68-3.47,3.71,1.15.81,2.03,1.77,2.79,2.95.6.94.43,1.95,1.64.97,2.92-2.37,2.39-6.1-.96-7.63ZM14.86,95.09s.18-.64.28-.83c.67-1.24,1.6-2.42,2.72-3.28-1.21-1-2.38-2.11-3-3.59-2.13,1.31-3.33,3.69-1.93,6.04.2.34,1.49,1.97,1.92,1.65ZM25.17,90.66c-1.44-.65-2.81-.67-4.3-.19-.14.04-1.16.35-.92.58.05.05,1.1.32,1.28.35,1.32.27,2.9.22,3.94-.74ZM32.21,90.79c-.91-.22-1.85-.35-2.8-.26-.27.03-1.14.18-.54.4.76.28,1.79.33,2.59.21.23-.03.67-.09.75-.36ZM22.82,92.49c-1.45.16-2.75-.43-4.08-.9-1.43.99-2.51,2.45-3.09,4.08.13.6,4.61.99,5.18.57.08-.06.51-1.47.66-1.76.35-.72.9-1.33,1.33-2ZM32.5,96.24c.63.33,4.66.16,4.79-.44.07-.3-1.27-2.26-1.56-2.6s-1.58-1.52-1.92-1.61c-.64-.16-2.66.87-3.55.63,1.06,1.14,1.85,2.5,2.24,4.02ZM31.3,95.88c-.47-1.77-1.79-3.28-3.52-3.91.17,1.94,1.83,3.24,3.52,3.91ZM25.43,92.09c-1.69.47-2.94,2.14-3.39,3.78,1.81-.61,3.06-1.87,3.39-3.78ZM26.35,97.44c1.12-1.5.99-3.51.39-5.22l-.91,2.28c-.11,1.02.23,1.98.52,2.94ZM31.67,97.07c-1.31-.45-2.43-1.11-3.5-1.98-.09.56-.18,1.13-.36,1.66s-.77,1.56-.66,2.02c.19.79,2.99,2.99,3.82,3.1.29.04.15-.04.2-.18.59-1.47.67-3.08.49-4.62ZM24.91,95.49c-.13-.13-1.44.81-1.71.96-.32.18-1.36.49-1.49.73-.2,1.46-.03,2.9.33,4.31.38.34,3.49-2.22,3.72-2.88.1-.31-1.15-2.44-.85-3.12ZM15.39,96.79v2.02c0,.24.54,1.23.73,1.49,1.14,1.54,3.21,2.08,5.01,1.51-.45-1.47-.61-2.97-.52-4.5-1.81.34-3.49,0-5.22-.52ZM32.74,97.31v2.41l-.65,2.54c3.37.82,6.45-1.93,5.4-5.36-1.55.51-3.13.67-4.75.4ZM26.22,99.53c-.78,1.36-2.29,2.21-3.65,2.93,1.73,3.39,5.98,3.79,7.95.4-.86-.53-1.76-.98-2.54-1.64-.54-.46-.99-1.17-1.43-1.57-.11-.1-.15-.17-.33-.13ZM90.64,111.54c-.61-3.87-5.04-5.29-7.69-2.28,1.41,1.18,2.63,2.7,3.13,4.5.13.12,1.3-.88,1.52-1.02.9-.55,2-1,3.04-1.2ZM74.47,114.28h2.41l2.67.78c.16-2,.63-3.91,1.82-5.55-3.69-2.32-7.44.64-6.91,4.76ZM83.6,118.71c.08-.69.28-1.49.55-2.12.29-.67,1.22-1.62,1.14-2.24-.11-.8-2.24-4.38-3.04-4.24-.66.11-1.57,3.55-1.63,4.25-.15,1.83.69,1.53,1.75,2.66l1.24,1.7ZM91.95,112.32v2.28l-.91,3.2c1.87-.03,3.56.78,5.14,1.69,2.49-3.53-.04-7.52-4.23-7.17ZM90.9,112.45c-1.08.22-3.92,1.5-4.37,2.48-.08.18.11,1.8.07,2.28-.04.53-.23,1.19-.39,1.7.61-.16,1.12-.56,1.72-.76.38-.12,1.8-.31,1.9-.38.05-.03.45-.95.52-1.12.1-.27.55-1.62.55-1.8v-2.41ZM80.86,119.5c-.6-.55-1.01-3.1-1.38-3.38-.93-.7-3.6-.98-4.75-.79.29,1.1.85,2.3,1.57,3.19.13.16.94,1.01,1.05,1.05.28.12,1.44-.21,1.88-.21.56,0,1.07.2,1.63.14ZM73.82,115.59c-4.13.56-5.26,5.28-2.14,7.95l1.83-1.95c.81-.68,1.75-1.13,2.67-1.64-1.02-1.3-2.08-2.7-2.35-4.37ZM85.69,116.24c-.24-.28-.74.98-.79,1.1-.12.35-.54,2.09-.39,2.29.33.08.23-.09.34-.25.68-.95.7-2.03.84-3.15ZM82.95,120.15c-.17-1.3-1.11-2.34-2.08-3.13.27,1.2.99,2.52,2.08,3.13ZM95.6,120.28c-.76-.32-1.45-.82-2.24-1.08-.6-.2-2.58-.65-3.05-.36-.19.11-.38.53-.57.73-.46.46-.92.91-1.44,1.3,1.35.54,2.49,1.19,3.58,2.15.74-.31,1.48-.66,2.14-1.12.25-.18,1.74-1.38,1.58-1.62ZM88.82,118.98c-1.19.21-2.4.86-3.13,1.82,1.19-.09,2.49-.85,3.13-1.82ZM80.41,120.41c-.58-.08-1.29.06-1.89,0l1.46.69c.64.1,1.72.54,2.19-.03-.55-.13-1.21-.58-1.76-.65ZM80.21,122.11c-.55-.01-1.15-.27-1.65-.5-1.42-.66-1.06-1.17-2.76-.33-.67.33-3.28,2.21-3.16,2.97.07.46,3.83,1.57,4.48,1.39.47-.7.92-1.55,1.53-2.16.39-.39,1.07-.73,1.43-1.05.12-.11.18-.13.14-.32ZM96.51,121.06c-.19-.13-.65.61-.84.79-.93.85-1.99,1.4-3.07,2.02,1.03,1.36,1.9,3.02,1.95,4.77,2.71-.56,4.2-3.35,3.02-5.96-.27-.6-.8-1.03-1.07-1.61ZM90.64,123.41c-1.22-1.32-3.33-2.02-5.09-1.5.41.56,1.9,1.5,2.54,1.5h2.54ZM51.26,127.2c-.32-1.05-.85-1.45-1.71-2.01-2.64-1.73-8.21-4.18-11.28-2.82-.6.26-.47.45-.05.85,2.21,2.11,9,4.62,12.04,6.1.78.38,2.21,1.34,2.89,1.55.17.05.24-.02.19-.19-.07-.24-.79-1.43-.98-1.76-.08-.15-.29-.22-.32-.26-.25-.42-.25-1-.78-1.44ZM82.69,122.63c-1.83,0-3.44,1.35-4.3,2.87,1.75-.17,3.67-1.16,4.3-2.87ZM82.69,128.24c1.36-1.47,1.58-3.21,1.04-5.09-1.3,1.37-1.31,3.32-1.04,5.09ZM87.38,127.59c-.05-1.76-.94-3.56-2.48-4.44.16.53.07,1.09.16,1.6.19,1.08,1.42,2.29,2.32,2.84ZM91.66,124.22c-1.43.23-2.84.37-4.28.04.55.92.85,1.97,1.03,3.02.1.58-.23.83.41,1.16,1.33.69,3.37.78,4.83.59-.08-1.81-.95-3.37-1.98-4.81ZM76.17,131.5v-2.94c0-.28.62-1.93.52-2.02-1.26,0-2.56-.42-3.7-.93-.32-.14-.84-.73-1.02-.34-1.51,3.12.82,6.39,4.2,6.23ZM77.21,131.5c1.12-.18,2.14-.55,3.12-1.12.24-.14,1.44-.95,1.51-1.1.17-.33-.32-2.09-.34-2.67-.01-.45.13-.81.14-1.24-.44.75-3.68,1.13-3.85,1.3-.64.64-.84,3.89-.58,4.83ZM87.35,128.79c-.04-.07-1.18-.8-1.41-1-.42-.37-.75-.81-1.11-1.24-.34.55-.55,1.17-.87,1.74-.48.83-1.05.72-.52,1.87.23.49,2.06,2.82,2.44,2.91.35.08,1-1.56,1.1-1.88.16-.48.58-2.01.36-2.39ZM93.64,130.07h-2.8c-.38,0-2.26-.75-2.41-.65-.14.74-.28,1.44-.53,2.15s-.68,1.37-.91,2.07c2.97,1.85,6.51-.08,6.64-3.57ZM82.42,130.2c-.1-.07-1.17.81-1.44.97-1.04.61-2.18,1.07-3.38,1.25.71,3.3,4.54,4.46,7.1,2.21.2-.17.82-.65.51-.92-1.15-1-2.26-2.03-2.79-3.51ZM68.86,138.68c.3-.31.34-.12.4-.71.22-2.29-.36-6.45-3.01-7.12-.51,3.18.65,6.35.65,9.53.18.21,1.06-.94,1.17-1.04.25-.23.52-.38.78-.65ZM30,169.09c0,1.48.01,2.96,0,4.44-.02,2.25.61,5.58-1.37,7.05l-15.45,7.83c-.78.5-1.1,1.24-1.18,2.15-.4,4.67.31,9.9,0,14.63.06.74.37,1.46.92,1.96l28.96,24.66c.92.79,1.41,1.92,1.31,3.14-1.36,4.88-2.2,10.15-3.69,14.96-.72,2.33-1.47,2.47-3.48,3.56-4.46,2.43-9.17,4.44-13.66,6.82-.7.47-1.14,1.06-1.22,1.91-.42,4.51.35,9.67.01,14.23-.12,1.66-.6,2.61-2,3.48-2.8,1.73-6.71,3.39-9.74,4.94-1.27.65-5.09,2.15-5.8,3.14-.76,1.06-.45,4.07-.47,5.47-.03,3.19.01,6.39,0,9.58.31,1.12,1.2,1.96,2.4,2.04,5.5,0,11-.01,16.5,0,34.64.05,69.3.03,103.92-.09.98-.28,1.76-1.16,1.86-2.19.42-4.27-.33-9.23,0-13.58-.05-.51-.35-1.15-.72-1.5-.71-.68-4.39-2.35-5.54-2.94-9.26-4.77-18.63-9.32-27.87-14.13-.93-.5-1.65-1.5-1.74-2.56-.43-4.86.34-10.35,0-15.28.1-1.09.7-1.85,1.53-2.52,3.29-2.65,8.06-4.7,11.25-7.41.46-.39.71-.76.87-1.35l.06-16.78c-1.43-5.09-2.57-10.29-4.08-15.36-.48-1.6-.39-2.12-1.92-3.04-4.61-2.78-10.66-4.69-15.09-7.61-.87-.57-1.52-1.53-1.61-2.57-.47-5.25.36-11.19,0-16.51,3.12-6.6,6.4-13.16,9.65-19.71,2.03-4.09,4.25-8.1,6.13-12.27.74-1.44-.44-3.25-2.02-3.39l-71.83.03c-1.31.45-2.13,1.59-1.89,3.01l6.92,13.95c.17,2.58.08,5.21.09,7.81Z" fill="#252121"/>
      <path d="M37.82,57.25c-1.89-1.39-4.02-2.26-6.26-2.94-1.63-.49-4.12-1.19-5.79-.97-.14.02-.58.08-.47.31.23.23.54.34.82.48,2.18,1.06,5.18,2.2,7.49,3.08,1.45.55,3.05,1.2,4.6,1.34.35.94.89,1.88,1.11,2.87.03.12.16.34,0,.4-4.55-3.24-9.99-4.92-14.98-7.33-.5-.24-3.4-1.67-3.47-2.01-.09-.4,1.25-.53,1.52-.57,4.44-.65,10.33.29,13.92,3.14,1,.79,1.07,1.07,1.52,2.2Z" fill="#99ae3b"/>
      <path d="M82.56,58.16c.37-.71.82-1.9,1.3-2.48.39-.46,1.96-1.46,2.54-1.83,3.27-2.04,8.71-4.11,12.54-4.55,1.63-.18,2.85.03.75,1.14-1.8.95-4.1,1.62-6,2.48-3.74,1.68-7.24,3.95-11.13,5.24Z" fill="#507c39"/>
      <path d="M58.43,88.96c-1.1-2.09-2.38-4.12-3.98-5.87-.37-.41-2.58-2.7-3.07-2.22-.05.45.21.84.42,1.21.83,1.53,2.35,3.64,3.39,5.09.93,1.29,1.94,2.67,3.11,3.74-.02.32.02.66,0,.98,0,.15.09.36-.13.32-2-3.86-5.53-6.85-7.86-10.47-1.34-2.08-1.82-3.23,1.37-2.8,3.93.53,6.73,6.52,6.75,10.01Z" fill="#99ae3b"/>
      <path d="M51.26,127.2c-1.78-1.48-7.72-3.83-9.98-3.65-.14.01-.44-.07-.32.19.22.53,4.71,2.61,5.52,2.96,1.76.77,3.68,1.61,5.57,1.93.02.04.24.12.32.26.19.33.91,1.53.98,1.76.05.17-.02.24-.19.19-.68-.2-2.11-1.17-2.89-1.55-3.04-1.47-9.82-3.98-12.04-6.1-.42-.4-.55-.58.05-.85,3.07-1.35,8.64,1.09,11.28,2.82.86.56,1.39.97,1.71,2.01Z" fill="#98ad3b"/>
      <path d="M58.95,28.8v2.15c0,.24.27,1.16.36,1.47.18.64.47,1.23.69,1.86-1.92-.06-3.63.83-5.27,1.71-2.3-3.59-.02-7.46,4.23-7.19Z" fill="#fdfefe"/>
      <path d="M76.43,30.63c-1.79-.13-3.43.14-5.09.78-.07-1-.21-1.98-.52-2.94s-.84-1.77-1.31-2.67c3.86-2.06,7.37.57,6.91,4.83Z" fill="#fcfdfd"/>
      <path d="M74.73,36.37c.8-.98,1.51-1.97,2.02-3.13.31-.71.13-1.51,1.11-1.24,1.88.51,3.4,2.46,3.24,4.43-.06.72-1.05,3.21-1.76,3.33-.17.03-1.32-1.37-1.61-1.62-.84-.74-1.95-1.38-3-1.76Z" fill="#fcfdfd"/>
      <path d="M64.81,30.1c-.21.14-1.26-.78-1.57-.96-.89-.53-1.95-1-2.99-1.12.5-3.18,3.58-4.97,6.51-3.32,1.89,1.06.73,1.17-.19,2.27-.5.6-.98,1.35-1.35,2.04-.1.19-.37,1.05-.41,1.09Z" fill="#fcfdfd"/>
      <path d="M73.56,48.77c-1.11,3.76-5.23,4.53-7.82,1.62-.02-.1,1.22-1.19,1.43-1.43.59-.7,1-1.53,1.52-2.27.24-.07,1.13.7,1.44.88,1.06.6,2.19,1.1,3.43,1.2Z" fill="#fbfcfd"/>
      <path d="M56.47,45.11c-3.02-.62-4.35-3.68-2.79-6.38,1.02-1.76.96-.92,2.01-.07.84.68,1.77,1.21,2.74,1.69-1.04,1.35-1.89,3.03-1.95,4.76Z" fill="#fbfcfc"/>
      <path d="M67.3,35.2c.02-.85-.3-1.77-.68-2.52-.26-.51-1.05-1.36-1.02-1.83.1-1.33,1.93-3.65,3.06-4.39,1.15,1.53,1.72,3.5,1.64,5.42-.54.64-1.32,1.07-1.89,1.76-.43.51-.67,1.09-1.11,1.57Z" fill="#fbfcfd"/>
      <path d="M79.03,41.46c1.43,3.25-.58,6.47-4.17,6.39.25-1.72-.06-3.3-.52-4.96,1.7.06,3.18-.8,4.69-1.44Z" fill="#fbfcfd"/>
      <path d="M57.39,46.55h2.8c.45,0,2.18-.78,2.42-.6.29,1.42.7,2.86,1.55,4.06-2.99,1.91-6.6.12-6.78-3.46Z" fill="#fbfcfd"/>
      <path d="M63.51,40.68c-.15.73-.55,1.33-.72,2.08-.09.4-.18,1.91-.32,2.03-1.61.66-3.35,1.04-5.09.72.06-1.28.54-2.61,1.2-3.69.11-.18.66-1.01.76-1.07.31-.19,1.32.17,1.76.19.85.05,1.59-.12,2.41-.26Z" fill="#fbfcfc"/>
      <path d="M37.82,57.25c.18.45.25.92.39,1.3-1.55-.13-3.15-.78-4.6-1.34-2.31-.88-5.31-2.02-7.49-3.08-.28-.14-.6-.25-.82-.48-.11-.23.33-.29.47-.31,1.67-.23,4.16.48,5.79.97,2.24.67,4.37,1.55,6.26,2.94Z" fill="#507c39"/>
      <path d="M70.69,38.72c-.09-.14,1.58-.67,1.78-.76.52-.24,1.06-.86,1.64-.78.86.11,4.4,2.5,4.26,3.29-.1.6-3.76,1.68-4.47,1.5-.86-1.26-1.75-2.64-3.22-3.25Z" fill="#fbfcfd"/>
      <path d="M73.82,47.85c-.97,0-4.27-1.42-4.63-2.22-.15-.33.32-2,.33-2.55.01-.43-.17-.8-.13-1.23,1.26.63,2.46.96,3.85,1.17.66,1.5.91,3.22.58,4.83Z" fill="#fafbfc"/>
      <path d="M59.99,28.93c.3-.34,3.96,1.67,4.31,2.28.27.48-.03,1.33,0,1.96s.28,1.43.39,2.09c0,.14-.16.06-.26,0-1.03-.54-2.08-.93-3.26-1.04-.11-.07-.5-.91-.58-1.11-.11-.28-.59-1.7-.59-1.89v-2.28Z" fill="#fbfcfd"/>
      <path d="M58.43,88.96c0,.68-.08,1.33-.13,1.96-1.16-1.07-2.18-2.45-3.11-3.74-1.04-1.45-2.56-3.56-3.39-5.09-.2-.38-.47-.76-.42-1.21.49-.48,2.69,1.81,3.07,2.22,1.6,1.75,2.88,3.78,3.98,5.87Z" fill="#507c39"/>
      <path d="M62.73,37.41c-1.45.28-2.54,1.25-3.69,2.07-.59,0-3.94-2.26-3.61-2.72.42-.11.73-.44,1.12-.64.79-.39,3.08-1.09,3.9-.93.28.06,1.77,1.96,2.28,2.22Z" fill="#fafbfc"/>
      <path d="M51.26,127.2c.53.44.53,1.01.78,1.44-1.88-.32-3.81-1.16-5.57-1.93-.81-.36-5.3-2.43-5.52-2.96-.11-.27.18-.18.32-.19,2.26-.18,8.2,2.17,9.98,3.65Z" fill="#507c39"/>
      <path d="M66.13,42.9l.68,1.34c.21.5,1.05,1.2,1.02,1.71-.03.47-.97,1.82-1.31,2.22-.22.27-1.18,1.32-1.48,1.24-.58-.17-1.51-3.34-1.39-3.97.08-.4,2.39-1.72,2.48-2.54Z" fill="#fbfcfc"/>
      <path d="M60.91,74.61c.82-3.03,4.46-6.7,7.64-7.03.14-.02.7-.13.57.18-2.79,3.26-6.36,5.91-8.61,9.59-.23,0-.01-.5,0-.65l5.34-6.73c.05-.34.03-.37-.3-.3-1.33.3-3.93,3.73-4.65,4.93Z" fill="#96ab3b"/>
      <path d="M60.91,74.61c.73-1.21,3.32-4.63,4.65-4.93.33-.07.34-.04.3.3l-5.34,6.73c.07-.69.03-1.48.39-2.09Z" fill="#507c39"/>
      <path d="M60.39,39.89c-.08-.31.07-.22.17-.3,1.2-1.04,3.16-1.71,4.72-1.27.15.03.08.17,0,.26-.12.14-.95.71-1.15.8-.18.09-1.34.5-1.46.5h-2.28Z" fill="#f6ca17"/>
      <path d="M72.65,41.85c-1.84-.12-3.66-1.17-4.43-2.87,1.89,0,3.43,1.4,4.43,2.87Z" fill="#f3af1c"/>
      <path d="M68.34,44.59c-.66-.53-1.34-2.01-1.41-2.84-.05-.65.43-1.5.24-2.25,1.4,1.26,1.47,3.34,1.17,5.09Z" fill="#f5c816"/>
      <path d="M63.65,44.07c.05-1.8.9-3.63,2.48-4.57-.12,1.99-.73,3.49-2.48,4.57Z" fill="#f3af1c"/>
      <path d="M72.38,36.76c-.94.86-2.43.97-3.65.91.93-.89,2.43-.95,3.65-.91Z" fill="#edc11c"/>
      <path d="M65.34,37.28c-1.26-.18-2.47-.84-3.26-1.82,1.26.11,2.49.84,3.26,1.82Z" fill="#edab20"/>
      <path d="M66.38,36.11c-.85-.93-1.14-2.28-1.04-3.52.81.91,1.11,2.33,1.04,3.52Z" fill="#edc11c"/>
      <g>
        <path d="M27.91,16.27c.36-1.97.3-4.02-.52-5.87,4.07-1.25,7.22,2.27,5.61,6.21-.86-.07-1.68-.41-2.55-.47s-1.7.04-2.54.13Z" fill="#fcfdfd"/>
        <path d="M16.17,16.27c-.84-.09-1.69-.19-2.54-.13-1.02.07-1.95.47-2.94.6-1.48-3.81,1.81-7.26,5.69-5.96.12.16-.47,2.69-.47,3.21,0,.36.35,2.2.27,2.28Z" fill="#fcfdfd"/>
        <path d="M33.52,26.32c-.56-1.86-1.96-3.4-3.52-4.5,1.48-.9,2.67-2.18,3.46-3.73,3.87,1.6,3.89,6.57.06,8.23Z" fill="#fcfdfd"/>
        <path d="M21.91,13.53c-.2.05-.21-.03-.32-.14-.45-.44-.75-1.05-1.32-1.55-.67-.61-1.36-.96-2.12-1.4-.49-.29.52-1.46.81-1.74,2.24-2.21,5.47-1.47,6.98,1.12-1.59.93-3.24,1.99-4.04,3.72Z" fill="#fcfdfd"/>
        <path d="M18,33.24c1.48-.57,2.76-1.63,3.72-2.87.79.97,1.64,1.84,2.68,2.53s2.09.46.77,1.84c-2.32,2.41-5.93,1.43-7.17-1.5Z" fill="#fcfdfd"/>
        <path d="M26.71,16.64c-.06.06-1.34.57-1.66.76-.7.42-1.23.96-1.83,1.49.03-.8,0-1.59-.17-2.38-.1-.51-.62-1.53-.62-1.86,0-1.04,2.86-3.6,3.98-3.85.82.88.97,5.17.31,5.84Z" fill="#fbfcfd"/>
        <path d="M10.3,18.37c.24.64.73,1.36,1.18,1.88.29.34,1.69,1.49,1.69,1.7-1.45,1-2.36,2.54-3.07,4.11-2.39-1.33-3.16-4.17-1.48-6.44.21-.28,1.37-1.47,1.67-1.26Z" fill="#fdfefe"/>
        <path d="M33,27.76c.67,3.59-2.04,6.18-5.61,5.35.62-1.57.9-3.29.65-4.96,1.66.31,3.36.12,4.95-.39Z" fill="#fbfcfd"/>
        <path d="M13.89,32.85c-.22-.04-1.27-.57-1.49-.73-1.31-.93-1.93-2.72-1.7-4.3.03-.18-.07-.22.2-.19,1.62.67,3.43.83,5.15.52-.1,1.53-.07,3.12.52,4.57-.13-.04-.28.13-.33.13-.67,0-1.75.1-2.35,0Z" fill="#fbfcfd"/>
        <path d="M18.13,23.45c-.31.49-.69.92-.98,1.43-.23.41-.83,2.16-.94,2.22-.47.29-2.71.2-3.33.09s-1.18-.37-1.79-.5c-.46-.52,2.21-3.97,3-4.24.3-.1.79.32,1.13.43.95.31,1.91.46,2.9.55Z" fill="#fbfcfc"/>
        <path d="M32.6,26.84c-.1.13-2.48.53-2.81.53-.24,0-1.82-.19-1.92-.26-.09-.06-.64-1.72-.82-2.08-.39-.73-.95-1.35-1.49-1.97.66.03,1.32-.05,1.96-.19,1.56-.34,1.26-.88,2.74.39.98.84,2.11,2.29,2.34,3.58Z" fill="#fbfcfc"/>
        <path d="M26.97,27.92c.43.58.02,3.88-.39,4.58-.27.47-1.1-.12-1.45-.33-.64-.37-2.79-2.14-2.68-2.88.06-.36.64-1.26.8-1.82.14-.5.24-1.02.22-1.54l1.97,1.35c.22.18,1.45.53,1.52.63Z" fill="#fbfcfd"/>
        <path d="M20.61,18.62c-.53-.46-1.04-.92-1.66-1.28-.3-.17-1.51-.64-1.58-.71-.6-.61-.54-4.63.17-5.45.98.44,3.29,2.22,3.56,3.23.17.67-.49,1.52-.49,2.05v2.15Z" fill="#fafafb"/>
        <path d="M18.13,20.06c-.95-.06-1.88.26-2.77.55-.47.16-.92.62-1.44.47-.31-.09-1.53-1.3-1.79-1.61-.21-.26-1.1-1.47-.9-1.75.08-.11,1.86-.51,2.14-.53.66-.06,2.4-.07,2.97.16.45.18,1.23,2.27,1.79,2.71Z" fill="#fbfcfd"/>
        <path d="M32.47,17.59c.4.56-2.61,3.43-3.39,3.59-.47.1-2.59-1.12-3.39-.73l1.96-3.06c.68-.34,4.5-.25,4.82.2Z" fill="#fafbfb"/>
        <path d="M20.21,26.32c-.16.68.97,2.79.89,3.16-.13.62-3,3-3.55,2.83-.47-.15-.82-3.9-.44-4.4.06-.08,1.13-.4,1.37-.53s1.66-1.14,1.74-1.07Z" fill="#fafbfb"/>
        <path d="M20.48,21.5c.21.22-.65.53-.78.58-1.52.59-2.94.34-4.43-.2-.26-.33,2.57-.91,2.81-.92.35,0,2.24.35,2.4.53Z" fill="#f5c816"/>
        <path d="M26.74,26.71c-1.76-.47-3.26-1.98-3.65-3.78,1.83.39,3.03,2.13,3.65,3.78Z" fill="#f3af1c"/>
        <path d="M20.87,22.93c-.47,1.92-1.5,3.12-3.39,3.78.38-1.69,1.71-3.27,3.39-3.78Z" fill="#f3af1c"/>
        <path d="M21.91,28.28c-.22.21-.22-.07-.27-.18-.23-.5-.51-1.94-.5-2.48.02-.76.77-1.62.77-2.43.89,1.14.76,2.74.35,4.07-.05.16-.32.98-.36,1.01Z" fill="#f6ca17"/>
        <path d="M22.04,19.67c-.81-1-.56-2.61-.26-3.78.2.1.29.69.33.9.18.99.13,1.9-.07,2.88Z" fill="#edc11c"/>
        <path d="M27.52,21.63c.3.29-.71.39-.84.4-.9.07-1.82,0-2.68-.27.29-.67,3.32-.33,3.52-.13Z" fill="#edc11c"/>
        <path d="M20.61,20.45c-1.15-.34-2.13-1.35-2.6-2.42,1.13.4,2.14,1.29,2.6,2.42Z" fill="#edab20"/>
        <path d="M23.48,20.45c.47-1.13,1.53-1.96,2.61-2.48.29.32-1.96,2.61-2.61,2.48Z" fill="#edab20"/>
      </g>
      <g>
        <path d="M20.87,85.44c-1.91-.34-3.79-.1-5.61.52-1.28-3.99,1.72-7.36,5.82-6.01-.41,1.81-.73,3.65-.21,5.49Z" fill="#fdfefe"/>
        <path d="M37.68,85.68c-1.73-.28-3.45-.59-5.2-.25.56-1.95.21-3.97-.34-5.88,4.03-1.3,7.03,2.28,5.54,6.12Z" fill="#fcfdfd"/>
        <path d="M38.17,87.27c3.35,1.53,3.88,5.25.96,7.63-1.21.98-1.04-.03-1.64-.97-.76-1.18-1.64-2.14-2.79-2.95,1.44-1.03,2.52-2.23,3.47-3.71Z" fill="#fcfdfd"/>
        <path d="M25.79,76.59c.86-.15,1.94-.05,2.73.34.49.24,1.94,1.42,1.98,1.94.02.23-1.29.89-1.59,1.11-1.03.75-1.8,1.65-2.5,2.72-.99-1.47-2.32-2.46-3.84-3.34.48-1.14,1.97-2.55,3.22-2.76Z" fill="#fcfdfd"/>
        <path d="M26.22,99.53c.18-.04.21.03.33.13.45.39.89,1.11,1.43,1.57.78.66,1.68,1.11,2.54,1.64-1.97,3.39-6.23,3-7.95-.4,1.37-.72,2.87-1.58,3.65-2.93Z" fill="#fbfcfd"/>
        <path d="M31.16,79.96c.66,1.84.81,3.76.25,5.65-1.34.69-2.59,1.31-3.63,2.43.08-.66.09-1.35-.02-2.01-.09-.54-.77-2.18-.71-2.43.23-1.12,2.89-3.48,4.11-3.65Z" fill="#fbfcfd"/>
        <path d="M14.86,95.09c-.44.32-1.72-1.31-1.92-1.65-1.4-2.35-.2-4.73,1.93-6.04.62,1.48,1.79,2.59,3,3.59-1.12.85-2.05,2.04-2.72,3.28-.1.19-.25.8-.28.83Z" fill="#fdfefe"/>
        <path d="M32.74,97.31c1.62.27,3.2.11,4.75-.4,1.06,3.43-2.03,6.18-5.4,5.36l.65-2.54v-2.41Z" fill="#fbfcfd"/>
        <path d="M15.39,96.79c1.72.52,3.41.87,5.22.52-.08,1.53.08,3.03.52,4.5-1.8.57-3.87.03-5.01-1.51-.19-.26-.73-1.25-.73-1.49v-2.02Z" fill="#fdfefe"/>
        <path d="M22.82,92.49c-.43.67-.98,1.28-1.33,2-.14.29-.58,1.7-.66,1.76-.57.42-5.06.03-5.18-.57.58-1.63,1.66-3.1,3.09-4.08,1.33.46,2.63,1.06,4.08.9Z" fill="#fbfcfd"/>
        <path d="M32.5,96.24c-.39-1.52-1.18-2.88-2.24-4.02.89.24,2.91-.78,3.55-.63.35.08,1.63,1.28,1.92,1.61s1.63,2.3,1.56,2.6c-.13.6-4.17.77-4.79.44Z" fill="#fbfcfd"/>
        <path d="M31.67,97.07c.18,1.55.1,3.16-.49,4.62-.06.14.08.22-.2.18-.84-.11-3.63-2.31-3.82-3.1-.11-.46.48-1.46.66-2.02s.27-1.11.36-1.66c1.07.86,2.19,1.53,3.5,1.98Z" fill="#fbfcfd"/>
        <path d="M25.17,87.66c-.46-.4-.92-.78-1.44-1.1-.35-.21-1.68-.76-1.8-.94-.6-1.02-.26-4.1.11-5.26,1.05.14,3.84,2.62,3.76,3.56-.03.34-.36.88-.44,1.27-.18.82-.23,1.64-.19,2.48Z" fill="#fbfcfd"/>
        <path d="M22.69,89.22c-.97-.1-1.87.24-2.77.55-.4.14-.91.58-1.3.47-.57-.16-3.11-2.96-2.83-3.37.35-.51,4.81-.98,5.46-.19l1.45,2.53Z" fill="#fbfcfc"/>
        <path d="M30.26,89.48c.36-.45.76-.86,1.07-1.34.26-.4.55-1.2.77-1.45.61-.71,4.22-.5,5.07.12.09.4-1.76,2.36-2.15,2.67-1.57,1.26-1.56.63-3.21.22-.49-.12-1.04-.19-1.54-.22Z" fill="#fafbfb"/>
        <path d="M24.91,95.49c-.3.68.96,2.82.85,3.12-.23.66-3.34,3.22-3.72,2.88-.36-1.41-.53-2.85-.33-4.31.12-.24,1.17-.56,1.49-.73.27-.15,1.58-1.1,1.71-.96Z" fill="#fbfcfc"/>
        <path d="M25.17,90.66c-1.04.96-2.62,1.01-3.94.74-.18-.04-1.23-.31-1.28-.35-.24-.23.78-.54.92-.58,1.49-.47,2.86-.45,4.3.19Z" fill="#f5c816"/>
        <path d="M31.3,95.88c-1.69-.67-3.35-1.97-3.52-3.91,1.73.63,3.05,2.14,3.52,3.91Z" fill="#f3af1c"/>
        <path d="M25.43,92.09c-.33,1.92-1.58,3.17-3.39,3.78.45-1.64,1.7-3.32,3.39-3.78Z" fill="#f3af1c"/>
        <path d="M26.35,97.44c-.3-.95-.63-1.92-.52-2.94l.91-2.28c.6,1.71.73,3.72-.39,5.22Z" fill="#f6ca17"/>
        <path d="M26.48,88.7c-.43-1.16-.29-2.45-.13-3.65.24.04.22.27.28.44.3.87.49,2.47-.15,3.21Z" fill="#edc11c"/>
        <path d="M32.21,90.79c-.09.26-.52.32-.75.36-.8.11-1.83.06-2.59-.21-.6-.22.26-.38.54-.4.95-.09,1.89.04,2.8.26Z" fill="#edc11c"/>
        <path d="M30.78,87.13c-.57,1.05-1.55,2.12-2.74,2.48.57-1.05,1.55-2.12,2.74-2.48Z" fill="#edab20"/>
        <path d="M25.17,89.61c-1.13-.49-2.01-1.42-2.61-2.48.37-.29,2.96,2.08,2.61,2.48Z" fill="#edab20"/>
      </g>
      <g>
        <path d="M101.08,6.75c-.67,1.75-.61,3.65-.39,5.48-.82-.05-1.58-.18-2.41-.13-1.05.07-2.04.49-3.07.6-1.44-4.04,1.83-7.25,5.88-5.95Z" fill="#fbfcfd"/>
        <path d="M112.42,12.23c.51-2.03.12-3.88-.38-5.86,3.51-.96,6.22,1.18,5.86,4.88-.19,1.96-.55,1.21-1.8,1.02s-2.41-.21-3.68-.04Z" fill="#fcfdfd"/>
        <path d="M118.03,22.28c-.52-1.92-2.01-3.38-3.52-4.57,1.62-.74,2.6-2.26,3.6-3.64,3.73,1.79,3.71,6.54-.08,8.21Z" fill="#fdfefe"/>
        <path d="M106.42,9.49c-.18.04-.17.03-.27-.08-.49-.52-.81-1.14-1.42-1.68s-1.34-.92-2.05-1.33c-.41-.24.16-.89.36-1.14,2.19-2.8,5.64-2.44,7.43.52-1.58.94-3.23,2-4.04,3.72Z" fill="#fcfdfd"/>
        <path d="M102.51,29.19c1.25-.43,2.36-1.34,3.27-2.28.19-.2.21-.5.45-.47.27.04,1.21,1.25,1.57,1.57.42.36.99.72,1.46,1.02.95.61,1.64.43.44,1.66-2.36,2.42-5.91,1.43-7.18-1.51Z" fill="#fcfdfd"/>
        <path d="M94.8,14.33c.1.06.99,1.62,1.32,2,.25.28,1.6,1.4,1.56,1.57-.02.07-.85.7-1.05.91-.86.95-1.48,2.05-2.02,3.2-2.39-1.38-3.19-4.13-1.47-6.44.22-.3,1.33-1.44,1.66-1.25Z" fill="#fcfdfd"/>
        <path d="M111.22,12.59c-.09.08-1.32.56-1.66.76-.68.41-1.23.98-1.83,1.49.08-1.06-.06-1.98-.33-3-.1-.39-.44-.91-.46-1.25-.03-.86,3.26-3.98,3.97-3.83s1.02,5.13.3,5.84Z" fill="#fcfdfd"/>
        <path d="M117.51,23.71c.74,3.45-2,6.25-5.47,5.34.33-1.63.89-3.27.51-4.95,1.65.3,3.37.14,4.95-.39Z" fill="#fbfcfc"/>
        <path d="M100.56,24.1v2.68c0,.28.58,1.81.52,1.89-2.28.71-5.01-.31-5.68-2.74-.1-.38-.43-2.27,0-2.35.13-.02,1.94.6,2.48.65.85.08,1.83.01,2.67-.13Z" fill="#fafbfc"/>
        <path d="M102.64,19.41c-.28.52-.69.92-.98,1.43-.22.39-.83,2.16-.94,2.22-.14.08-1.66.26-1.92.26-1.04,0-2.2-.4-3.2-.66-.1-1.02,2.31-4.13,3.08-4.28.09-.02,1.39.6,1.74.7.71.19,1.49.25,2.22.33Z" fill="#fbfcfd"/>
        <path d="M117.11,22.79c-.31.44-4.12.67-4.79.25-.26-1.57-1.19-2.89-2.24-4.02.84.06,1.67-.14,2.48-.33.44-.1.69-.43,1.17-.26.83.29,3.87,3.67,3.39,4.36Z" fill="#fbfcfd"/>
        <path d="M111.48,23.87c.46.53.02,3.89-.38,4.58-.27.47-1.1-.12-1.45-.33-.64-.37-2.79-2.14-2.68-2.88.06-.36.63-1.26.79-1.82.14-.51.29-.99.23-1.53l1.97,1.35c.27.15,1.45.56,1.52.63Z" fill="#fbfcfc"/>
        <path d="M105.12,14.58c-.53-.46-1.04-.92-1.66-1.28-.29-.17-1.52-.64-1.58-.71-.16-.19-.42-2.02-.43-2.38-.01-.56.2-2.52.46-2.94.13-.22.16-.06.28-.02.91.32,3.04,2.15,3.37,3.03.28.77-.45,1.61-.45,2.28v2.02Z" fill="#fafafb"/>
        <path d="M101.18,13.43c.05.06.26.73.4.97.33.56.75,1.04,1.07,1.61-.73-.02-1.49.14-2.19.36-.44.14-1.49.76-1.68.79-.61.11-3.01-2.64-3.05-3.3-.01-.23.04-.16.17-.23.83-.43,4.74-.8,5.28-.19Z" fill="#fafbfc"/>
        <path d="M116.99,13.54c.39.55-2.66,3.48-3.36,3.63-.41.09-2.65-1.16-3.42-.76-.11-.1.88-1.18,1.02-1.39.76-1.17.41-1.72,2.05-1.87.53-.05,3.47.05,3.71.39Z" fill="#fbfcfd"/>
        <path d="M104.73,22.28c.13.55.19,1.12.36,1.67.12.41.5.94.54,1.3.08.81-3.2,3.33-3.62,3.03-.5-1.44-.66-2.91-.38-4.41.5-.16.99-.32,1.46-.56.26-.13,1.57-1.08,1.65-1.02Z" fill="#fafbfc"/>
        <path d="M104.99,17.45c.21.22-.65.53-.78.58-1.52.59-2.94.34-4.43-.2-.28-.36,2.7-.91,2.94-.92.3,0,2.14.38,2.28.53Z" fill="#f5c816"/>
        <path d="M111.25,22.67c-1.81-.52-3.19-1.94-3.65-3.78,1.81.36,3.04,2.14,3.65,3.78Z" fill="#f3af1c"/>
        <path d="M105.38,18.88c-.39,1.92-1.54,3.17-3.39,3.78.42-1.68,1.7-3.27,3.39-3.78Z" fill="#f3af1c"/>
        <path d="M106.42,24.23c-.64-.6-.74-2.09-.66-2.94.08-.8.69-1.32.66-2.15,1.14,1.39.63,3.55,0,5.09Z" fill="#f6ca17"/>
        <path d="M106.55,15.62c-.81-1.03-.51-2.58-.26-3.78.2.07.26.6.3.8.24,1.09.23,1.89-.05,2.98Z" fill="#edc11c"/>
        <path d="M112.16,17.84c-1.21.18-2.52.4-3.65-.19.83-.5,2.35-.42,3.23-.1.17.06.38.09.42.3Z" fill="#edc11c"/>
        <path d="M105.12,16.4c-.3.3-2.72-1.86-2.61-2.48.17-.18,2.77,1.83,2.61,2.48Z" fill="#edab20"/>
        <path d="M107.99,16.4c.56-1.07,1.5-1.98,2.61-2.48.29.32-1.96,2.61-2.61,2.48Z" fill="#edab20"/>
      </g>
      <path d="M68.08,36.5c.12-1.2,1.02-2.27,1.95-3-.24,1.25-.95,2.26-1.95,3Z" fill="#f3af1c"/>
      <path d="M82.56,58.16c3.89-1.29,7.39-3.56,11.13-5.24,1.9-.86,4.2-1.53,6-2.48,2.1-1.11.88-1.32-.75-1.14-3.83.44-9.27,2.5-12.54,4.55-.58.36-2.15,1.37-2.54,1.83,1.38-4.15,5.73-6.03,9.68-6.96,2.38-.56,8.74-1.48,10.91-.79.83.27-.04.98-.44,1.35-1.75,1.6-4.9,3.25-7.02,4.46-5.68,3.26-11.64,6.06-16.98,9.89.69-1.89,1.63-3.69,2.54-5.48Z" fill="#9aaf3b"/>
      <g>
        <path d="M91.95,112.32c4.18-.35,6.71,3.64,4.23,7.17-1.58-.91-3.27-1.72-5.14-1.69l.91-3.2v-2.28Z" fill="#fcfdfd"/>
        <path d="M74.47,114.28c-.53-4.12,3.22-7.08,6.91-4.76-1.19,1.64-1.66,3.55-1.82,5.55l-2.67-.78h-2.41Z" fill="#fcfdfd"/>
        <path d="M73.82,115.59c.27,1.67,1.33,3.07,2.35,4.37-.92.51-1.86.96-2.67,1.64l-1.83,1.95c-3.11-2.68-1.99-7.4,2.14-7.95Z" fill="#fcfdfd"/>
        <path d="M90.64,111.54c-1.04.2-2.13.66-3.04,1.2-.23.14-1.4,1.14-1.52,1.02-.49-1.8-1.72-3.33-3.13-4.5,2.65-3.01,7.08-1.59,7.69,2.28Z" fill="#fbfcfd"/>
        <path d="M82.42,130.2c.52,1.48,1.64,2.51,2.79,3.51.31.27-.31.75-.51.92-2.56,2.25-6.39,1.09-7.1-2.21,1.2-.18,2.34-.64,3.38-1.25.27-.16,1.35-1.04,1.44-.97Z" fill="#fbfcfd"/>
        <path d="M96.51,121.06c.27.58.8,1,1.07,1.61,1.18,2.61-.31,5.41-3.02,5.96-.05-1.75-.92-3.4-1.95-4.77,1.08-.62,2.14-1.17,3.07-2.02.19-.17.65-.92.84-.79Z" fill="#fbfcfd"/>
        <path d="M83.6,118.71l-1.24-1.7c-1.05-1.12-1.89-.83-1.75-2.66.06-.69.97-4.13,1.63-4.25.8-.14,2.94,3.44,3.04,4.24.08.61-.85,1.57-1.14,2.24-.27.63-.48,1.44-.55,2.12Z" fill="#fbfcfd"/>
        <path d="M76.17,131.5c-3.38.16-5.71-3.11-4.2-6.23.19-.39.71.2,1.02.34,1.14.51,2.44.93,3.7.93.1.09-.52,1.74-.52,2.02v2.94Z" fill="#fbfcfc"/>
        <path d="M93.64,130.07c-.13,3.49-3.67,5.43-6.64,3.57.23-.7.65-1.32.91-2.07s.39-1.41.53-2.15c.15-.1,2.02.65,2.41.65h2.8Z" fill="#fbfcfc"/>
        <path d="M91.66,124.22c1.03,1.43,1.9,3,1.98,4.81-1.46.2-3.5.11-4.83-.59-.63-.33-.31-.58-.41-1.16-.18-1.05-.47-2.1-1.03-3.02,1.43.33,2.84.19,4.28-.04Z" fill="#fbfcfd"/>
        <path d="M80.21,122.11c.04.19-.02.21-.14.32-.35.32-1.03.66-1.43,1.05-.6.61-1.05,1.45-1.53,2.16-.65.18-4.41-.93-4.48-1.39-.12-.76,2.48-2.64,3.16-2.97,1.71-.84,1.34-.32,2.76.33.5.23,1.1.48,1.65.5Z" fill="#fbfcfd"/>
        <path d="M77.21,131.5c-.25-.94-.06-4.19.58-4.83.17-.17,3.41-.55,3.85-1.3-.01.43-.15.8-.14,1.24.01.58.5,2.34.34,2.67-.07.15-1.27.96-1.51,1.1-.98.57-2,.94-3.12,1.12Z" fill="#fbfcfc"/>
        <path d="M95.6,120.28c.16.23-1.33,1.44-1.58,1.62-.66.46-1.4.81-2.14,1.12-1.09-.96-2.23-1.61-3.58-2.15.52-.4.98-.84,1.44-1.3.2-.2.39-.62.57-.73.47-.29,2.45.16,3.05.36.79.27,1.48.76,2.24,1.08Z" fill="#fafbfb"/>
        <path d="M80.86,119.5c-.56.06-1.07-.14-1.63-.14-.45,0-1.61.33-1.88.21-.1-.05-.92-.89-1.05-1.05-.72-.89-1.28-2.09-1.57-3.19,1.14-.19,3.82.1,4.75.79.37.28.78,2.83,1.38,3.38Z" fill="#fbfcfc"/>
        <path d="M87.35,128.79c.22.38-.2,1.91-.36,2.39-.1.32-.75,1.96-1.1,1.88-.39-.09-2.22-2.42-2.44-2.91-.53-1.15.05-1.04.52-1.87.32-.56.53-1.18.87-1.74.36.42.69.86,1.11,1.24.23.2,1.36.93,1.41,1Z" fill="#fbfcfd"/>
        <path d="M68.86,138.68c-.21-.9-.26-1.83-.46-2.74-.12-.57-.64-2.58-1.04-2.88-.16-.12-.27-.15-.46-.12.31,2.1.19,4.5,1.17,6.39-.12.11-.99,1.25-1.17,1.04,0-3.18-1.17-6.35-.65-9.53,2.64.67,3.22,4.83,3.01,7.12-.06.59-.1.4-.4.71Z" fill="#98ad3b"/>
        <path d="M68.86,138.68c-.27.28-.53.42-.78.65-.99-1.9-.86-4.3-1.17-6.39.2-.03.31,0,.46.12.4.3.92,2.31,1.04,2.88.19.91.25,1.84.46,2.74Z" fill="#507c39"/>
        <path d="M90.64,123.41h-2.54c-.65,0-2.13-.94-2.54-1.5,1.75-.51,3.87.19,5.09,1.5Z" fill="#f5c816"/>
        <path d="M82.69,122.63c-.64,1.71-2.55,2.7-4.3,2.87.86-1.52,2.47-2.88,4.3-2.87Z" fill="#f3af1c"/>
        <path d="M87.38,127.59c-.9-.55-2.12-1.76-2.32-2.84-.09-.51,0-1.08-.16-1.6,1.54.88,2.43,2.68,2.48,4.44Z" fill="#f3af1c"/>
        <path d="M82.69,128.24c-.27-1.77-.26-3.72,1.04-5.09.54,1.88.32,3.62-1.04,5.09Z" fill="#f5c816"/>
        <path d="M85.69,116.24c-.13,1.11-.16,2.2-.84,3.15-.11.15,0,.32-.34.25-.15-.2.26-1.94.39-2.29.04-.12.55-1.38.79-1.1Z" fill="#edc11c"/>
        <path d="M82.95,120.15c-1.09-.61-1.81-1.93-2.08-3.13.97.79,1.91,1.84,2.08,3.13Z" fill="#edab20"/>
        <path d="M80.41,120.41c.55.07,1.21.52,1.76.65-.47.57-1.55.14-2.19.03l-1.46-.69c.6.06,1.31-.08,1.89,0Z" fill="#edc11c"/>
        <path d="M88.82,118.98c-.64.98-1.94,1.73-3.13,1.82.73-.97,1.94-1.61,3.13-1.82Z" fill="#edab20"/>
        <path d="M90.9,112.45v2.41c0,.17-.45,1.52-.55,1.8-.06.17-.46,1.08-.52,1.12-.1.07-1.52.26-1.9.38-.6.2-1.11.59-1.72.76.16-.51.34-1.17.39-1.7.04-.48-.15-2.09-.07-2.28.45-.98,3.3-2.27,4.37-2.48Z" fill="#fbfcfd"/>
      </g>
      <path d="M70.23,35.85s-.25.26-.13,0c.34-.65.66-1.29.88-1.99.09-.29.16-1.12.25-1.25.14-.19,2.08-.81,2.44-.89.46-.09,2.47-.45,2.48.13.01.75-1.96,4.07-2.68,4.13-.19.01-.34-.14-.38-.14-.96,0-1.91,0-2.87,0Z" fill="#fafafb"/>
    </g>
    <g>
      <path d="M92.6,159.95c-3.25,6.54-6.53,13.11-9.65,19.71-.32-.04-.39.05-.55.3-.89,1.37-1.59,4.91-1.89,6.59-.15.87-.56,2.78-.43,3.55-1.22-.21-2.1,1.79-2.54,2.74-2.22,4.84-1.86,7.44.69,11.96,2.42,4.27,6.11,7.88,9.6,11.27,1.52,1.48,3.47,3.57,5.09,4.82.62.48,1.39.88,2.15.39,1.31,5.67,2.06,11.54,3.11,17.31.06.75.04.81-.52,1.28-2.89,2.41-6.62,4.49-9.63,6.94-.64.52-1.48,1.14-1.84,1.88-.96.08-2.11,2.23-2.5,3.04-2.3,4.78-4.28,14.57-2.26,19.53,1.37,3.35,3.59,4.84,5.61,7.44.1.13.25.17.19.39-5.91.77-11.87,1.22-17.78,1.98-12.74,1.63-25.58,3.99-38.19,6.41-7.45,1.43-14.9,2.89-22.28,4.66.08-.2.01-.28.27-.45.45-.3,1.55-.6,2.13-.88,3.59-1.72,7.44-3.51,10.77-5.67,2.04-1.32,4.19-2.94,4.31-5.6.02-.52.02-1.55,0-2.02l.39.26c.9-2.24,1.66-4.68,1.83-7.11.08-1.17-.16-2.46.13-3.59.08.04.81.12.96.12,6.82-.09,18.45-3.67,22.98-8.99,3.43-4.03,5.51-12.4,6.41-17.59.84-4.8,1.13-8.07-2.5-11.78-3.97-4.05-16.12-12.42-21.66-12.91-.29-.03-1.14-.06-1.37,0-3.89-2.97-8.02-5.65-11.86-8.69-2.49-1.97-4.48-3.4-5.42-6.58-.61-2.05-.98-4.32-1.54-6.42-.52-1.96-1.13-3.89-1.66-5.84l15.45-7.83c1.98-1.47,1.35-4.79,1.37-7.05,2.54-.38,5.07-.84,7.59-1.35,9.61-1.93,19.23-4.05,28.8-6.16,8.76-1.93,17.48-4.02,26.21-6.07Z" fill="#b5a9a0"/>
      <path d="M82.95,179.66c.36,5.32-.48,11.27,0,16.51.09,1.04.74,2,1.61,2.57,4.43,2.92,10.48,4.83,15.09,7.61,1.53.92,1.44,1.44,1.92,3.04,1.51,5.07,2.65,10.27,4.08,15.36l-.06,16.78c-.16.59-.41.96-.87,1.35-3.19,2.71-7.95,4.76-11.25,7.41-.83.67-1.43,1.42-1.53,2.52.34,4.93-.43,10.42,0,15.28.09,1.06.82,2.06,1.74,2.56,9.24,4.81,18.61,9.36,27.87,14.13,1.15.59,4.83,2.26,5.54,2.94.37.35.66.99.72,1.5-.32,4.35.43,9.3,0,13.58-.1,1.03-.87,1.9-1.86,2.19-34.62.12-69.29.14-103.92.09-.08-.39.19-.23.42-.3,7.53-2.23,14.88-4.98,22.34-7.41,7.26-2.36,14.74-3.96,22.21-5.57,6.1-1.32,12.47-2.78,18.63-3.67,2.85-.41,5.73-.57,8.57-.95,2.35-.31,5.2-.6,6.31-3.09,1.81-4.06-2.2-6.04-4.72-8.12s-7.82-6.02-8.91-8.97c-1.36-3.68-.1-11.51.1-15.63.04-.78.35-2.77-.78-2.67.35-.74,1.2-1.36,1.84-1.88,3.01-2.45,6.74-4.53,9.63-6.94.56-.47.57-.53.52-1.28-1.06-5.77-1.81-11.64-3.11-17.31-.04-.17.15-.76.14-1.11-.05-1.16-3.85-7.82-4.68-9.29-1.09-1.92-2.23-3.85-3.44-5.7-1.02-1.55-5.25-6.83-5.44-8.12-.28-1.91-.07-3.79-.86-5.66-.17-.41-.67-1.01-.71-1.31-.13-.78.28-2.68.43-3.55.29-1.68,1-5.22,1.89-6.59.16-.25.24-.34.55-.3ZM102.6,224.9c.41-.39.65-2.64.69-3.29.23-3.81-1.92-11.51-4.97-13.95-1.29-1.04-5.77-3.51-7.35-3.33-2.23.26-.63,2.14.32,2.92,1.1.89,4.12,2.42,4.79,3.42.81,1.2,1.23,6,1.73,7.8s1.29,3.56,2.44,5.13c.48.65,1.42,2.16,2.34,1.3ZM101.88,228.35c-.08.05-.74,1.48-.77,1.64-.19,1.02-.05,1.94.57,2.76,1.84,2.48,3.22-.42,2.63-2.37-.22-.71-1.65-2.52-2.42-2.04ZM120.87,298.64c-1.01.42-6.22,2.31-6.55,3.03-.54,1.18,1.07,1.3,1.84,1.42,2.81.41,7.86,1.07,9.11-2.2.55-1.44.89-7.76.56-9.3-.23-1.03-.88-2.67-2.18-1.85-1.15.72-1.88,3.59-2.16,4.89s-.41,2.67-.62,4.02ZM108.09,300.92c-1.22.18-4.2,1.54-1.97,2.69,1.29.67,3.71,1,4.59-.46.96-1.6-1.28-2.42-2.62-2.23Z" fill="#918377"/>
      <path d="M86.21,248.69c1.13-.1.82,1.9.78,2.67-.2,4.12-1.46,11.95-.1,15.63,1.09,2.95,6.39,6.89,8.91,8.97s6.53,4.07,4.72,8.12c-1.11,2.49-3.96,2.77-6.31,3.09-2.85.38-5.73.54-8.57.95-6.16.89-12.53,2.35-18.63,3.67-7.47,1.61-14.95,3.21-22.21,5.57-7.46,2.42-14.81,5.18-22.34,7.41-.22.07-.49-.09-.42.3-5.5,0-11,0-16.5,0-1.2-.08-2.09-.91-2.4-2.04,0-3.19-.03-6.39,0-9.58l2.09-.39c.01.18-.03.37.03.55.33.58.66,3.16,1.23,3.34.44.14.69.03.92-.33.66-1.05,1.1-3.23,1.6-4.47,7.37-1.77,14.83-3.23,22.28-4.66,12.61-2.42,25.45-4.79,38.19-6.41,5.92-.76,11.87-1.21,17.78-1.98.06-.22-.09-.26-.19-.39-2.01-2.6-4.24-4.08-5.61-7.44-2.02-4.96-.05-14.75,2.26-19.53.39-.81,1.55-2.96,2.5-3.04ZM5.96,299.47c-.57.16-1.31,1.57-1.39,2.15-.52,3.95,4.18,4.09,3.63.13-.12-.84-1.32-2.53-2.24-2.28Z" fill="#7a6c5f"/>
      <path d="M98.73,147.68c-16.95,4.43-33.71,9.55-50.31,15.1-4.64,1.55-9.31,3.1-13.92,4.73-1.49.53-2.96,1.23-4.5,1.57-.01-2.6.08-5.22-.09-7.81l-6.92-13.95c-.24-1.41.58-2.56,1.89-3.01l71.83-.03c1.58.14,2.76,1.96,2.02,3.39ZM50.21,147.17c-.22-.26-4.4-.89-5.01-.92-3.94-.21-9.95-.28-13.82.15-3.05.34-4.25,3.14-2.97,5.82.28.59,1.78,2.71,2.25,3.1,2.12,1.74,1.61-3.59,2.29-3.82,4.96-.28,10.07-.58,14.7-2.52.3-.13,2.34-1.12,2.43-1.22.12-.14.21-.48.12-.58ZM32.82,158.29c-1.08.11-.66,2-.08,2.64,2.54,2.82,2.32-2.87.08-2.64Z" fill="#918377"/>
      <path d="M33.65,215.93c-.2.05-.53.42-.5.68.14,1.45,4.3,4.81,5.53,5.84,4.08,3.42,9.75,6.98,13.31,10.7.78.82,1.17,1.37,1.1,2.55-.19,3.39-2.89,12.16-4.41,15.29-2.39,4.94-8.01,6.29-12.5,8.89-2.06,1.19-4.44,2.79-6.29,4.27-.68.55-1.87,1.29-1.55,2.31.02.06.46.6.5.61-.3,1.13-.05,2.42-.13,3.59-.16,2.43-.92,4.87-1.83,7.11l-.39-.26c-.05-1.19-.26-3.31-.8-4.36-.3-.58-.95-1.39-1.68-1.06-1.32.6-1.26,5.13-1.6,6.49-.27,1.06-1.31,1.54-2.19,2.11-1.39.9-5.54,3.56-6.9,3.86-1.03.23-2.16.27-3.21.38-.21.02-.57.11-.7-.12,3.03-1.54,6.94-3.21,9.74-4.94,1.41-.87,1.88-1.82,2-3.48.34-4.56-.43-9.73-.01-14.23.08-.85.52-1.44,1.22-1.91,4.49-2.38,9.2-4.39,13.66-6.82,2.01-1.09,2.76-1.23,3.48-3.56,1.49-4.82,2.34-10.08,3.69-14.96.11-1.22-.38-2.35-1.31-3.14l-28.96-24.66c-.55-.5-.85-1.22-.92-1.96.31-4.73-.4-9.96,0-14.63.08-.91.39-1.65,1.18-2.15.52,1.96,1.14,3.88,1.66,5.84.55,2.1.93,4.37,1.54,6.42.95,3.18,2.94,4.61,5.42,6.58,3.83,3.04,7.97,5.72,11.86,8.69Z" fill="#918276"/>
      <path d="M98.73,147.68c-1.88,4.17-4.1,8.18-6.13,12.27-8.73,2.05-17.45,4.14-26.21,6.07-9.57,2.11-19.19,4.23-28.8,6.16-2.52.51-5.05.97-7.59,1.35.01-1.48,0-2.96,0-4.44,1.54-.34,3.01-1.04,4.5-1.57,4.61-1.64,9.28-3.18,13.92-4.73,16.61-5.55,33.36-10.67,50.31-15.1Z" fill="#7a6c5f"/>
      <path d="M13.3,284.58c.05.3-.36.42-.57.54-1.77,1.01-4.06,2.07-5.68,3.19-1.81,1.24-2,2.64-1.84,4.75l-2.09.39c.01-1.4-.29-4.41.47-5.47.71-.99,4.52-2.49,5.8-3.14.13.22.49.14.7.12,1.05-.11,2.18-.15,3.21-.38Z" fill="#b5a9a0"/>
      <path d="M28.82,267.09s-.48-.55-.5-.61c-.32-1.02.87-1.76,1.55-2.31,1.85-1.49,4.23-3.08,6.29-4.27,4.49-2.6,10.11-3.96,12.5-8.89,1.52-3.14,4.21-11.9,4.41-15.29.07-1.18-.32-1.73-1.1-2.55-3.56-3.72-9.23-7.27-13.31-10.7-1.22-1.03-5.38-4.39-5.53-5.84-.03-.26.3-.63.5-.68.23-.06,1.08-.02,1.37,0,5.53.49,17.69,8.86,21.66,12.91,3.63,3.7,3.34,6.97,2.5,11.78-.91,5.2-2.99,13.57-6.41,17.59-4.53,5.32-16.15,8.91-22.98,8.99-.14,0-.88-.09-.96-.12Z" fill="#7a6c5f"/>
      <path d="M80.08,190.1c.05.3.54.9.71,1.31.79,1.87.58,3.75.86,5.66.19,1.29,4.43,6.57,5.44,8.12,1.21,1.84,2.35,3.78,3.44,5.7.83,1.47,4.63,8.13,4.68,9.29.01.35-.18.94-.14,1.11-.76.48-1.52.09-2.15-.39-1.62-1.25-3.57-3.34-5.09-4.82-3.49-3.39-7.19-7-9.6-11.27-2.55-4.52-2.91-7.12-.69-11.96.44-.95,1.32-2.95,2.54-2.74Z" fill="#7a6c5f"/>
      <path d="M26.48,277.53c.02.47.02,1.5,0,2.02-.12,2.67-2.28,4.28-4.31,5.6-3.33,2.16-7.18,3.95-10.77,5.67-.58.28-1.67.57-2.13.88-.25.17-.19.24-.27.45-.5,1.24-.94,3.42-1.6,4.47-.23.37-.48.47-.92.33-.57-.18-.9-2.76-1.23-3.34-.07-.18-.02-.37-.03-.55-.16-2.11.03-3.52,1.84-4.75,1.63-1.11,3.92-2.18,5.68-3.19.21-.12.62-.24.57-.54,1.36-.3,5.51-2.96,6.9-3.86.88-.57,1.92-1.05,2.19-2.11.34-1.35.29-5.89,1.6-6.49.73-.33,1.38.47,1.68,1.06.53,1.04.75,3.16.8,4.36Z" fill="#fefeff"/>
      <path d="M102.6,224.9c-.92.86-1.86-.65-2.34-1.3-1.15-1.57-1.93-3.25-2.44-5.13s-.92-6.6-1.73-7.8c-.67-1-3.69-2.53-4.79-3.42-.95-.77-2.56-2.65-.32-2.92,1.57-.18,6.05,2.29,7.35,3.33,3.05,2.45,5.2,10.14,4.97,13.95-.04.65-.28,2.9-.69,3.29Z" fill="#fdfefe"/>
      <path d="M120.87,298.64c.21-1.34.33-2.68.62-4.02s1.01-4.16,2.16-4.89c1.3-.81,1.95.82,2.18,1.85.34,1.54,0,7.86-.56,9.3-1.25,3.27-6.3,2.61-9.11,2.2-.77-.11-2.38-.23-1.84-1.42.33-.73,5.54-2.61,6.55-3.03Z" fill="#fdfefe"/>
      <path d="M108.09,300.92c1.34-.19,3.58.63,2.62,2.23-.88,1.46-3.3,1.13-4.59.46-2.23-1.15.75-2.51,1.97-2.69Z" fill="#fcfdfd"/>
      <path d="M101.88,228.35c.77-.48,2.21,1.33,2.42,2.04.59,1.95-.79,4.84-2.63,2.37-.61-.83-.76-1.75-.57-2.76.03-.16.69-1.59.77-1.64Z" fill="#fbfcfd"/>
      <path d="M5.96,299.47c.92-.25,2.13,1.44,2.24,2.28.55,3.96-4.15,3.82-3.63-.13.08-.58.82-1.99,1.39-2.15Z" fill="#fafbfc"/>
      <path d="M50.21,147.17c.08.1,0,.45-.12.58-.09.1-2.13,1.09-2.43,1.22-4.63,1.94-9.74,2.24-14.7,2.52-.68.23-.17,5.56-2.29,3.82-.47-.39-1.97-2.51-2.25-3.1-1.28-2.67-.08-5.48,2.97-5.82,3.86-.43,9.87-.36,13.82-.15.61.03,4.79.66,5.01.92Z" fill="#fdfefe"/>
      <path d="M32.82,158.29c2.23-.23,2.46,5.46-.08,2.64-.58-.64-.99-2.53.08-2.64Z" fill="#fafbfb"/>
    </g>
  </g>
</svg>