<?xml version="1.0" encoding="UTF-8"?>
<svg id="Layer_1" data-name="Layer 1" xmlns="http://www.w3.org/2000/svg" width="116.6" height="229.09" viewBox="0 0 116.6 229.09">
  <g>
    <path d="M87.19,133.11c-1.34,2.71-2.67,5.42-4.02,8.13-.22,0-.26.14-.37.26-4.54,5.09-9.51,11.2-13.32,16.85-2.03,3.01-3.42,5-.8,8.31.79,1,2.36,2.16,2.84,3.19,1.24,2.67,2.94,4.73,4.85,6.96,5.54,6.5,11.8,13.04,17.88,19.05,1.65,1.64,4.58,5.11,7.24,4.36-1.1,3.29-2.13,6.6-3.16,9.92-.07.22-.19.89-.46.86-.26-.26-4.03-.23-4.66-.2-5.25.22-11.36,1.25-16.63,1.98-16.58,2.29-33.03,5.56-49.13,10.08-.01-1.3.16-3.13,0-4.35-.05-.39-.31-.85-.58-1.14.38-.61.98-1.16,1.47-1.71.08-.09.08-.23.09-.25.1-.11.19-.2.29-.29.03-.02.17-.02.24-.09,5.97-6.4,11.99-13.01,17.58-19.75,3.13-3.77,7.89-9.38,8.23-14.4.16-2.36-.43-8.2-1.38-10.34.1-.34.17-.87.19-1.23.25-3.69.66-7.6.79-11.26.22-6.42-4.16-9.04-7.02-14.05-.1-.17-.17-.29-.13-.51,2.31-.25,4.64-.91,6.9-1.48,10.76-2.7,22.08-5.57,32.64-8.88.11-.04.35-.2.42-.02Z" fill="#b5a9a0"/>
    <path d="M92.18,123.12c-.46.05-.96.25-1.4.41-11.12,4.06-22.17,8.39-32.95,13.28-2.82,1.28-5.85,2.6-8.55,4.08-.49.27-3.52,2.06-3.61,2.36-.19.58,1.24.27,1.56.24-.04.21.03.33.13.51,2.87,5.01,7.25,7.63,7.02,14.05-.13,3.66-.54,7.57-.79,11.26-.02.36-.09.88-.19,1.23-.11-.26-.51-.9-.77-.53s-.4,1.64-.49,2.16c-.42,2.48-.53,5.05-1.24,7.48-.87,2.99-3.65,6.09-5.68,8.43-6.97,8.01-14.91,15.1-22.38,22.63-.3-.67-2-2.9-2.55-3.57-.26-.32-1.54-1.54-1.59-1.64-.16-.37.02-.51.02-.81.02-1.06-.07-2.22-.39-3.23-.71-2.22-2.06-2.56-2.7-.05-.33,1.33-.62,4.97-.07,6.14s2.16,2.23,3.25,2.83c.53.29,2.57,1.33,3.04,1.42l-1.37,1.27c-2.02-1.33-4.12-2.56-6.11-3.93-.23-.2-.36-.51-.36-.81.19-2.49-.24-5.3,0-7.75.08-.8,1.23-1.72,1.81-2.3,8.42-8.31,16.9-16.6,25.27-24.98.23-.28.4-.66.44-1.03-.04-5.98.09-11.99-.07-17.96l-17.39-34.34c-.27-.68.08-1.44.85-1.45h68.07c.59.03.9.69.83,1.22s-1.34,2.73-1.66,3.39ZM36.73,119.82c-2.87.05-7.77-.58-7.52,3.65.08,1.27,1.92,4.41,2.84,5.29.61.58,1.17.31,1.26-.5.14-1.18-.32-2.86-.19-4.21.02-.2,0-.37.2-.48,3.3-.41,6.67-.04,9.91-.86.89-.23,2.19-.64,2.91-1.21s.9-.83-.02-1.23c-1.56-.68-7.41-.48-9.39-.44ZM33.62,132.03v1.52c0,.49,1.57,2.35,2,2.6,1.27.74.39-1.86.23-2.28-.42-1.07-1.09-1.62-2.23-1.84Z" fill="#918376"/>
    <path d="M83.17,141.24c-2.19,4.43-4.4,8.85-6.52,13.32.11,2.75-.29,5.87-.05,8.58.07.76.4,1.13.94,1.61l34.95,26.46.2.38.05,21.81c0,.43-.19.8-.57,1-2.23,1.15-4.93,1.91-7.11,3.07-.6.32-1.15.9-1.24,1.6-.25,2.08.31,4.83,0,6.85-.08.55-.53.83-1.05.91-19.07.03-38.15.04-57.22.03-.04-.36-.02-.24.23-.31,1.35-.37,2.74-.58,4.1-.89,7.74-1.8,15.43-3.89,23.09-6,6.04-1.66,12.38-3.29,18.33-5.17,1.08-.34,6.2-2.06,6.59-2.91.06-.13.02-.51-.05-.59.27.03.39-.64.46-.86,1.03-3.31,2.06-6.63,3.16-9.92.86-.24,1.23-1.37,1.17-2.19-.19-2.36-1.73-3.86-3.32-5.4-4.15-4.02-8.64-8.06-12.93-11.95-3.53-3.2-8.08-7.63-12.11-10.02-.53-.31-1.98-1.1-2.53-1.1-.22,0-.12.19-.24.3-.48-1.03-2.05-2.19-2.84-3.19-2.62-3.3-1.23-5.3.8-8.31,3.81-5.65,8.77-11.76,13.32-16.85.11-.13.15-.27.37-.26ZM110.27,200.43c-.17.05-.7.96-.8,1.17-.71,1.52-.98,3.78-1.21,5.45-.12.85-.12,3.22-.65,3.76s-1.58,1.15-2.21,1.71-1.69,1.57-2.2,2.2c-.25.31-.5.66-.29,1.08.28.56,1.91.07,2.42-.03,2.12-.43,5.19-1.16,6.17-3.33.92-2.04.46-8.01-.19-10.23-.11-.36-.58-1.9-1.04-1.78ZM100.83,222.72c1.04.97,2.13-1.76,2.29-2.5.21-.95.19-2.86-1.02-3.13-1.38-.31-2.09,1.71-2.09,2.77,0,.55.43,2.5.82,2.86Z" fill="#918377"/>
    <path d="M97.86,211c.08.08.11.45.05.59-.39.86-5.51,2.57-6.59,2.91-5.95,1.88-12.29,3.51-18.33,5.17-7.66,2.11-15.35,4.19-23.09,6-1.36.32-2.76.52-4.1.89-.24.07-.26-.06-.23.31-.1,0-.2,0-.29,0,.06-.29-.25-.31-.2,0-5.56,0-11.12.02-16.67-.02-.45-.08-.84-.36-.93-.83-.16-.77-.01-2.29-.02-3.16,16.09-4.52,32.55-7.79,49.13-10.08,5.27-.73,11.38-1.75,16.63-1.98.63-.03,4.39-.06,4.66.2Z" fill="#7a6c5f"/>
    <path d="M53.4,170.54c.95,2.14,1.53,7.98,1.38,10.34-.34,5.02-5.11,10.63-8.23,14.4-5.59,6.73-11.6,13.35-17.58,19.75-.07.08-.22.07-.24.09-.1-1.03-1.26-2.5-2.16-2.98-.82-.44-2.54-.68-2.64.58-.15,1.8,3.03,3.09,4.51,2.69-.02.02-.01.15-.09.25-.49.55-1.09,1.1-1.47,1.71-2.13-1.42-4.23-2.9-6.37-4.31l1.37-1.27c.78.14,1.32-.31.98-1.08,7.46-7.53,15.41-14.62,22.38-22.63,2.03-2.34,4.81-5.44,5.68-8.43.71-2.43.82-5,1.24-7.48.09-.52.22-1.78.49-2.16s.66.27.77.53Z" fill="#7a6c60"/>
    <path d="M92.18,123.12c-1.64,3.34-3.35,6.66-4.99,9.99-.07-.18-.3-.01-.42.02-10.57,3.32-21.88,6.18-32.64,8.88-2.25.57-4.58,1.23-6.9,1.48-.31.03-1.75.35-1.56-.24.1-.3,3.12-2.09,3.61-2.36,2.71-1.48,5.73-2.8,8.55-4.08,10.78-4.89,21.82-9.22,32.95-13.28.44-.16.93-.37,1.4-.41Z" fill="#7a6c5f"/>
    <path d="M45.08,226.87c-.05-.31.26-.29.2,0-.07,0-.13,0-.2,0Z" fill="#918377"/>
    <path d="M101.49,200.22c-2.66.75-5.59-2.72-7.24-4.36-6.07-6.01-12.33-12.55-17.88-19.05-1.9-2.23-3.6-4.29-4.85-6.96.12-.11.02-.3.24-.3.55,0,2.01.79,2.53,1.1,4.04,2.39,8.59,6.82,12.11,10.02,4.29,3.89,8.78,7.93,12.93,11.95,1.59,1.54,3.13,3.04,3.32,5.4.07.82-.31,1.95-1.17,2.19Z" fill="#7a6c5f"/>
    <path d="M28.72,215.11c-.11.1-.2.18-.29.29-1.48.4-4.66-.89-4.51-2.69.1-1.27,1.82-1.03,2.64-.58.9.48,2.06,1.95,2.16,2.98Z" fill="#fcfdfd"/>
    <path d="M36.73,119.82c1.98-.04,7.83-.24,9.39.44.92.4.74.67.02,1.23s-2.02.98-2.91,1.21c-3.25.82-6.61.45-9.91.86-.2.11-.18.29-.2.48-.13,1.35.34,3.03.19,4.21-.1.81-.65,1.08-1.26.5-.92-.87-2.77-4.01-2.84-5.29-.25-4.23,4.66-3.6,7.52-3.65Z" fill="#fefefe"/>
    <path d="M22.85,210.7c.34.77-.19,1.22-.98,1.08-.47-.08-2.51-1.13-3.04-1.42-1.09-.6-2.71-1.69-3.25-2.83s-.27-4.81.07-6.14c.63-2.51,1.99-2.17,2.7.05.32,1.01.41,2.17.39,3.23,0,.3-.19.44-.02.81.05.11,1.33,1.33,1.59,1.64.55.67,2.25,2.9,2.55,3.57Z" fill="#fdfefe"/>
    <path d="M33.62,132.03c1.14.22,1.8.76,2.23,1.84.17.42,1.04,3.03-.23,2.28-.44-.25-2-2.11-2-2.6v-1.52Z" fill="#fcfdfd"/>
    <path d="M110.27,200.43c.45-.12.93,1.42,1.04,1.78.65,2.23,1.11,8.19.19,10.23-.98,2.17-4.05,2.9-6.17,3.33-.51.1-2.14.59-2.42.03-.21-.42.05-.77.29-1.08.51-.64,1.58-1.64,2.2-2.2s1.7-1.2,2.21-1.71.53-2.91.65-3.76c.23-1.67.5-3.93,1.21-5.45.1-.21.63-1.12.8-1.17Z" fill="#fdfefe"/>
    <path d="M100.83,222.72c-.39-.36-.81-2.32-.82-2.86,0-1.06.71-3.08,2.09-2.77,1.21.27,1.23,2.18,1.02,3.13-.16.73-1.25,3.47-2.29,2.5Z" fill="#fdfdfe"/>
  </g>
  <g>
    <g>
      <path d="M80.29,60.81c-.57-.08-1.47-.56-1.81-1.03-1.17-1.6.44-3.75,1.61-4.85.37-.35.99-.7,1.32-1.03.08-.08.14-.09.1-.24-1.89-.69-5.26-3.03-4.05-5.38.92-1.79,4.53-1.75,6.21-1.38-.56-1.69-1.33-4.42-.15-5.98,1.58-2.08,4.32,0,5.54,1.42l.98,1.23c.63-1.88,3.37-5.63,5.63-4.02,1.62,1.16,1.52,4.32,1.23,6.07,1.76-.66,5.84-1.5,6.68.81.75,2.05-1.79,4.49-3.35,5.51,1.54.81,4.14,2.26,4.31,4.21.27,3.13-4.38,3.12-6.47,2.7.79,1.77,1.58,5.86-.79,6.71-2.14.76-4.4-1.92-5.58-3.38-.51,1.65-2.56,4.46-4.45,4.41-1.18-.03-1.95-1.13-2.26-2.16-.41-1.34-.2-2.75-.2-4.11-6.93,4.69-11.43,12.3-15.03,19.69,1.86-1.38,3.81-2.77,5.87-3.87,2.97-1.58,7.35-3.28,10.67-2.05,3.8,1.4-.83,4.74-2.36,5.87-3.45,2.53-7.35,4.65-10.95,6.98-2.29,1.48-8.25,5.21-9.29,7.56-.96,2.18-1.78,5.26-2.5,7.59-1.29,4.21-2.43,8.48-3.46,12.76.37.66.7,1.87,1.14,2.44.07.09.11.16.23.16h33.98c1.37.2,2.21,1.71,1.6,2.97l-16.98,34.25c.14,2.65-.36,5.89-.05,8.48.05.41.26.57.54.83l34.76,26.26c.61.47.79,1.16.84,1.9.47,6.83-.37,14.19,0,21.07-.06.85-.27,1.53-1.01,2.02-1.91,1.27-5.12,2.02-7.22,3.17-.36.19-.64.32-.69.78-.24,1.94.16,4.37,0,6.38-.1,1.26-.66,2.2-2.01,2.3l-74.9-.03c-.93-.24-1.49-.98-1.61-1.91-.28-2.23.18-4.88-.02-7.13-.02-.2-.01-.37-.16-.53-4.07-2.95-8.41-5.55-12.57-8.39-.3-.27-.63-.88-.68-1.28.2-2.6-.3-5.68,0-8.22.05-.46.29-.85.55-1.22,8.91-8.82,17.84-17.62,26.73-26.46l.24-.45-.02-17.71-17.3-34.13c-.67-1.32.25-2.86,1.7-2.98h31.13c1.09-2.17-.19-4.05-1.19-5.94-1.74-3.31-3.7-6.52-5.7-9.68-4.33-1.93-9.21-2.24-13.68-3.75-1.33-.45-4.7-1.66-2.72-3.46,1.51-1.37,4.42-1.59,6.37-1.47l4.55.73c-4.7-6.1-10.11-12.24-17.23-15.53.31.66.76,1.27,1.03,1.96.48,1.24.83,3.05-.45,3.96-1.85,1.32-4.7-.54-6.26-1.61-.12,1.93-1.37,5.86-3.84,5.56-2.11-.26-3.11-3.79-3.31-5.56-1.52,1.08-3.96,2.65-5.88,1.81s-1.24-3.39-.51-4.82l1.29-2.09c-2.04-.14-6.46-1.6-5.39-4.37.69-1.78,3.68-2.57,5.39-2.79l-1.13-1.76c-2.42-4.63.42-6.8,4.78-4.29.5.29.93.68,1.44.96.17-2.02,1.62-6.46,4.38-5.41,1.75.67,2.62,3.71,2.77,5.41l1.76-1.13c1.37-.75,3.91-1.59,4.98.02,1.23,1.86-.54,4.67-1.65,6.2,3.72.16,8.51,3.52,3.3,6.29l-2.22.77c2.26.87,4.4,2.34,6.31,3.83,9.17,7.14,15.84,18.04,21.57,27.99l.32.42c-.29-1.75-.63-3.5-.87-5.25-.9-6.6-1.07-13.27-1.23-19.93-2.87-6.61-7.82-12.36-10.75-18.94-.71-1.58-2.53-5.85.65-5.86,3.74,0,7.23,5.04,8.94,7.91l1.59,2.87c.84-15.44,2.75-30.8,5.19-46.05-3.39,2.86-8.63,2.43-6.04-3.16l1.34-2.23c-1.82,0-5.73-1.38-5.58-3.66.15-2.16,3.77-3.36,5.58-3.39.07-.06-.83-1.3-.93-1.47-.78-1.36-1.7-3.5-.59-4.9,1.54-1.94,5.14.03,6.61,1.28.13-1.75,1.2-5.37,3.28-5.58,2.61-.27,3.67,3.57,3.87,5.58,1.43-1.15,4.55-2.97,6.27-1.62,1.5,1.17.76,3.27.08,4.69l-1.26,2.02c2.04-.01,6.64,1.7,5.36,4.43-.79,1.7-3.63,2.52-5.36,2.62l1.39,2.29c2.6,6-3.24,5.75-6.48,2.81-.2,2.03-1.29,5.94-3.96,5.58-1.04-.14-2-1.5-2.39-2.41l-.4-1.01-2.35,16.56c3.21-4.26,7.67-8.63,13.47-8.23,3.65.25,3.61,2.22,1.61,4.66-2.78,3.39-7.45,6.57-10.77,9.6-1.68,1.53-5.29,4.88-5.75,7.08s-.54,5.59-.71,7.91c-.89,12.19-1.28,25.06,0,37.23.43,4.07,1.15,8.11,2.06,12.1.18-.03.16-.2.21-.33.33-.98.52-2.19.8-3.22,2.59-9.71,5.79-19.54,10.07-28.62,3.52-7.47,7.87-14.81,14.19-20.25-.6-.06-1.33.08-1.91,0ZM65.25,8.98c-.09-1.83-.29-4.52-1.53-5.97-1.54-1.81-2.81.48-3.28,1.9-.43,1.31-.49,2.7-.58,4.07-.11.13-.81-.68-.93-.78-.88-.74-2.17-1.66-3.25-2.04-2.81-.98-3.3.64-2.3,2.98.44,1.02,1.26,2.08,1.98,2.92.1.12.8.73.68.83-1.76-.02-3.72.19-5.29,1.03-2.14,1.14-1.63,2.49.33,3.4,1.49.69,3.33.88,4.96.87.12.11-.68.81-.78.93-1.04,1.23-2.64,3.48-2.33,5.17.11.6.73.94,1.3.96,1.45.03,3.67-1.48,4.75-2.4.11-.1.77-.87.88-.74.11,1.85.25,3.94,1.25,5.55,1.15,1.84,2.42,1.07,3.2-.56.73-1.52.86-3.43.93-5.09,1.16,1.06,2.38,2.16,3.85,2.76,2.84,1.16,3.81-.09,2.63-2.83-.63-1.46-1.71-2.52-2.66-3.75,1.74.01,3.73-.19,5.29-1.03,2.35-1.25,1.41-2.71-.59-3.53-1.44-.59-3.15-.76-4.7-.74-.04-.17.07-.2.15-.29.96-1.25,1.87-1.95,2.54-3.53,1.61-3.76-1.07-3.74-3.64-2.27-1.04.6-1.68,1.34-2.58,2.03-.1.08-.12.19-.29.15ZM56.34,48.37c-.05.39-.06.79-.1,1.18-.13,1.2-.42,2.42-.34,3.62,3.33-4.39,7.92-7.58,12-11.22,1.26-1.13,2.88-2.52,3.86-3.88.65-.9,1.21-1.81-.24-2.2-5.44-1.47-10.94,3.72-13.73,7.82-1.33,1.95-1.17,2.4-1.45,4.68ZM95.42,47.38c.16-.99.51-1.98.59-2.99.14-1.82-.24-5.68-2.89-3.57-1.51,1.2-2.17,3.3-2.94,4.99-.9-1.52-2.1-3.48-3.7-4.33-2.12-1.13-2.66.44-2.51,2.32.13,1.61.89,3.08,1.47,4.56-1.6-.43-3.27-.74-4.94-.59-.63.06-2.02.44-2.18,1.15-.43,1.88,2.79,3.5,4.19,4.09.2.08,1.23.39,1.27.44.09.12-.09.22-.16.28-.46.36-1.17.68-1.69,1.06-1.12.82-4.49,3.98-1.85,4.87,1.84.62,4.64-.55,6.3-1.4-.35,1.74-.85,3.52-.51,5.31.51,2.74,2.15,2.26,3.6.51.98-1.18,1.59-2.72,2.06-4.16.63.72,1.05,1.63,1.67,2.4,1.92,2.38,5.25,4,4.59-.77-.2-1.46-.84-2.86-1.46-4.17,1.82.41,3.91.92,5.76.42.7-.19,1.52-.61,1.49-1.44-.06-1.79-4.03-3.74-5.59-4.07-.05-.23.04-.16.12-.22.79-.61,1.75-1.02,2.57-1.74.97-.85,3.26-3.37,1.17-4.2-1.94-.76-4.59.56-6.4,1.26ZM19.81,67.47c-.07-1.85-.25-4.43-1.47-5.92-1.61-1.98-2.89.43-3.35,1.93-.41,1.32-.45,2.63-.56,3.99-1.23-1.06-2.47-2.2-4.02-2.79-2.83-1.08-3.54.35-2.46,2.86.61,1.43,1.69,2.57,2.66,3.75-1.69.11-3.52.21-5.06.96-2.36,1.15-1.96,2.65.26,3.59,1.51.64,3.18.77,4.8.84-.99,1.21-2.08,2.35-2.69,3.82-1.19,2.87.12,3.88,2.85,2.66,1.38-.62,2.53-1.68,3.65-2.66.11,1.34.16,2.62.54,3.92.43,1.45,1.71,4,3.33,2.06,1.26-1.51,1.45-4.09,1.52-5.98,1.25,1.04,2.47,2.19,4.02,2.79.91.35,2.73.8,2.93-.59.31-2.17-1.81-4.5-3.12-6.02,1.62-.06,3.29-.19,4.8-.84,2.5-1.08,2.52-2.65,0-3.72-1.51-.64-3.18-.73-4.8-.84,1.31-1.49,3.38-3.79,3.13-5.93-.17-1.45-1.89-1.08-2.87-.71-1.56.59-2.82,1.78-4.09,2.82ZM53.21,75.6c.02-.64.22-2.74.08-3.17-.04-.13-.22-.13-.28-.23-1.92-3.4-4.98-10.28-9.18-11.26-2.52-.59-1.83,1.12-1.27,2.74,1.79,5.17,6.49,11.55,9.36,16.41.09.16,1.12,2.09,1.19,1.99.03-1.35-.03-2.71,0-4.07,0-.32.09-.65.1-1.02,0-.46-.01-.92,0-1.37ZM67.02,85.99c-.2.46-.4.91-.59,1.37-.57,1.39-1.2,2.77-1.62,4.21,5.54-4.9,12.45-8.04,18.39-12.36.82-.59,3.17-2.33,3.45-3.21.31-.96-1.62-1.21-2.27-1.27-4.45-.37-10.21,3.2-13.64,5.83-.51.39-1.75,1.28-2.11,1.71-.53.64-1.25,2.84-1.62,3.72ZM45.86,96.96c-.28-.39-.85-1.45-1.25-1.64-.58-.29-2.26-.63-2.96-.76-2.28-.43-5.7-.76-7.77.46-.64.38-1.05.62-.3,1.14,2.19,1.51,9.13,2.62,12.02,3.35.73.19,1.56.53,2.27.67.16.03.15.02.13-.13-.48-.71-.99-1.4-1.47-2.11-.23-.33-.45-.65-.69-.98ZM20.5,213.06c2.13,1.41,4.24,2.89,6.37,4.31.27.28.53.75.58,1.14.17,1.22,0,3.05,0,4.35,0,.87-.13,2.39.02,3.16.09.47.48.75.93.83,5.56.05,11.12.02,16.67.02.07,0,.13,0,.2,0,.1,0,.2,0,.29,0,19.07.02,38.14,0,57.22-.03.52-.08.96-.36,1.05-.91.31-2.02-.25-4.78,0-6.85.09-.7.64-1.28,1.24-1.6,2.18-1.17,4.88-1.93,7.11-3.07.38-.2.57-.57.57-1l-.05-21.81-.2-.38-34.95-26.46c-.53-.48-.87-.85-.94-1.61-.24-2.71.15-5.83.05-8.58,2.12-4.47,4.33-8.89,6.52-13.32,1.34-2.71,2.68-5.42,4.02-8.13,1.65-3.34,3.35-6.65,4.99-9.99.32-.66,1.59-2.87,1.66-3.39s-.23-1.19-.83-1.22H24.95c-.77,0-1.12.76-.85,1.44l17.39,34.34c.16,5.97.02,11.98.07,17.96-.04.37-.21.75-.44,1.03-8.37,8.38-16.85,16.66-25.27,24.98-.59.58-1.74,1.5-1.81,2.3-.24,2.44.19,5.26,0,7.75,0,.3.13.62.36.81,1.99,1.37,4.09,2.6,6.11,3.93Z" fill="#231f20"/>
      <path d="M56.34,48.37c.28-2.27.12-2.73,1.45-4.68,2.79-4.1,8.3-9.28,13.73-7.82,1.45.39.88,1.29.24,2.2-.98,1.36-2.6,2.75-3.86,3.88-4.08,3.64-8.67,6.83-12,11.22-.07-1.2.21-2.43.34-3.62l12.63-11.51c.03-.25.02-.28-.22-.23-.73.17-3.44,2.18-4.21,2.74-3.02,2.21-5.92,4.76-8.1,7.82Z" fill="#9bb03b"/>
      <path d="M53.21,76.97c0,.37-.1.7-.1,1.02-.03,1.36.03,2.72,0,4.07-.07.1-1.1-1.83-1.19-1.99-2.87-4.86-7.57-11.24-9.36-16.41-.56-1.62-1.25-3.33,1.27-2.74,4.21.99,7.26,7.86,9.18,11.26.06.1.24.1.28.23.14.43-.06,2.53-.08,3.17-1.68-3.47-3.78-6.6-6.32-9.5-.5-.57-1.58-1.9-2.1-2.3s-.88-.41-.64.35c.05.16.33.54.44.73,2,3.4,4.85,7.21,7.17,10.46.4.56.83,1.34,1.45,1.63Z" fill="#9bb03b"/>
      <path d="M45.86,96.96c-1.95-.6-3.89-1.32-5.93-1.57-.74-.09-1.7-.18-2.44-.2-.42-.01-1.3-.06-1.67,0-.26.05-.34.29-.2.5.28.41,7.72,1.85,8.75,2.02.72.12,1.44.26,2.17.23.48.71.99,1.4,1.47,2.11.02.16.02.16-.13.13-.71-.14-1.54-.48-2.27-.67-2.89-.73-9.83-1.84-12.02-3.35-.76-.52-.34-.76.3-1.14,2.07-1.22,5.48-.9,7.77-.46.7.13,2.38.47,2.96.76.4.2.96,1.25,1.25,1.64Z" fill="#9aaf3b"/>
      <path d="M66.43,87.36c.19-.46.39-.91.59-1.37,1.35-1.09,2.66-2.22,4.08-3.22,2.67-1.86,6.31-3.9,9.34-5.06.21-.08,1.38-.64,1.27-.1l-15.28,9.75Z" fill="#507c39"/>
      <path d="M53.21,75.6c-.01.46,0,.92,0,1.37-.62-.29-1.05-1.08-1.45-1.63-2.32-3.25-5.17-7.07-7.17-10.46-.11-.19-.39-.57-.44-.73-.24-.76.14-.73.64-.35s1.61,1.73,2.1,2.3c2.53,2.9,4.64,6.03,6.32,9.5Z" fill="#507c39"/>
      <path d="M56.34,48.37c2.18-3.06,5.08-5.61,8.1-7.82.77-.56,3.48-2.57,4.21-2.74.25-.06.25-.03.22.23l-12.63,11.51c.04-.39.05-.78.1-1.18Z" fill="#507c39"/>
      <path d="M45.86,96.96c.24.33.46.65.69.98-.73.03-1.45-.11-2.17-.23-1.03-.17-8.47-1.61-8.75-2.02-.14-.2-.06-.45.2-.5.37-.07,1.25-.02,1.67,0,.74.03,1.7.11,2.44.2,2.04.25,3.98.97,5.93,1.57Z" fill="#507c39"/>
      <path d="M66.43,87.36l15.28-9.75c.11-.53-1.06.02-1.27.1-3.03,1.16-6.67,3.2-9.34,5.06-1.43.99-2.73,2.13-4.08,3.22.37-.87,1.1-3.08,1.62-3.72.36-.44,1.59-1.32,2.11-1.71,3.43-2.63,9.19-6.2,13.64-5.83.65.05,2.58.3,2.27,1.27-.28.88-2.64,2.62-3.45,3.21-5.95,4.32-12.85,7.46-18.39,12.36.42-1.45,1.05-2.82,1.62-4.21Z" fill="#9bb03b"/>
      <g>
        <path d="M65.25,8.98c.17.04.2-.07.29-.15.9-.69,1.53-1.43,2.58-2.03,2.57-1.47,5.24-1.49,3.64,2.27-.67,1.58-1.58,2.28-2.54,3.53-.08.1-.19.12-.15.29,1.55-.02,3.26.15,4.7.74,2,.82,2.94,2.28.59,3.53-1.56.83-3.55,1.04-5.29,1.03.95,1.23,2.03,2.29,2.66,3.75,1.18,2.74.21,3.99-2.63,2.83-1.47-.6-2.69-1.7-3.85-2.76-.07,1.66-.2,3.58-.93,5.09-.78,1.63-2.05,2.4-3.2.56-1.01-1.61-1.15-3.7-1.25-5.55-.11-.13-.77.64-.88.74-1.08.92-3.3,2.44-4.75,2.4-.57-.01-1.19-.35-1.3-.96-.31-1.69,1.29-3.94,2.33-5.17.11-.12.91-.82.78-.93-1.63.02-3.47-.17-4.96-.87-1.95-.91-2.47-2.25-.33-3.4,1.57-.84,3.53-1.05,5.29-1.03.12-.11-.58-.72-.68-.83-.72-.84-1.54-1.9-1.98-2.92-1.01-2.34-.51-3.96,2.3-2.98,1.08.38,2.37,1.3,3.25,2.04.12.1.82.91.93.78.09-1.37.15-2.76.58-4.07.47-1.42,1.73-3.71,3.28-1.9,1.23,1.45,1.43,4.14,1.53,5.97ZM67.79,15.54c0-2.89-2.34-5.23-5.22-5.23s-5.22,2.34-5.22,5.23,2.34,5.23,5.22,5.23,5.22-2.34,5.22-5.23Z" fill="#fefeff"/>
        <path d="M67.79,15.54c0,2.89-2.34,5.23-5.22,5.23s-5.22-2.34-5.22-5.23,2.34-5.23,5.22-5.23,5.22,2.34,5.22,5.23ZM62.32,19.74c1.98.12,3.78-1.17,4.3-3.09s-.37-3.94-2.14-4.85c-1.52-.78-3.37-.56-4.66.56s-1.79,2.91-1.24,4.53,2.03,2.75,3.74,2.85Z" fill="#262221"/>
        <path d="M64.48,11.8c-.14.35.11.65.08,1.04-.11,1.59-1.95,2.12-2.84,3.15-1.21,1.4-.76,2.76.59,3.76-1.71-.1-3.19-1.23-3.74-2.85s-.06-3.42,1.24-4.53,3.14-1.34,4.66-.56Z" fill="#f9b318"/>
        <path d="M62.32,19.74c-1.35-1-1.8-2.36-.59-3.76.89-1.02,2.72-1.55,2.84-3.15.03-.39-.22-.69-.08-1.04,1.77.91,2.66,2.93,2.14,4.85s-2.32,3.21-4.3,3.09Z" fill="#fbcd13"/>
      </g>
    </g>
    <g>
      <path d="M95.42,47.38c1.81-.7,4.46-2.02,6.4-1.26,2.1.82-.2,3.35-1.17,4.2-.82.72-1.78,1.12-2.57,1.74-.08.06-.18,0-.12.22,1.56.33,5.53,2.28,5.59,4.07.03.84-.8,1.26-1.49,1.44-1.85.5-3.94,0-5.76-.42.62,1.31,1.26,2.72,1.46,4.17.66,4.77-2.67,3.15-4.59.77-.62-.76-1.03-1.68-1.67-2.4-.47,1.44-1.08,2.98-2.06,4.16-1.45,1.75-3.09,2.23-3.6-.51-.33-1.79.16-3.57.51-5.31-1.66.85-4.46,2.02-6.3,1.4-2.63-.89.73-4.05,1.85-4.87.52-.38,1.22-.69,1.69-1.06.07-.06.25-.16.16-.28-.04-.05-1.07-.36-1.27-.44-1.4-.59-4.62-2.21-4.19-4.09.16-.7,1.55-1.09,2.18-1.15,1.67-.15,3.34.15,4.94.59-.57-1.48-1.34-2.94-1.47-4.56-.15-1.87.39-3.44,2.51-2.32,1.6.85,2.81,2.81,3.7,4.33.77-1.69,1.43-3.79,2.94-4.99,2.64-2.11,3.02,1.75,2.89,3.57-.08,1.01-.42,1.99-.59,2.99ZM96.11,52.87c0-2.89-2.34-5.23-5.23-5.23s-5.23,2.34-5.23,5.23,2.34,5.23,5.23,5.23,5.23-2.34,5.23-5.23Z" fill="#fefeff"/>
      <path d="M96.11,52.87c0,2.89-2.34,5.23-5.23,5.23s-5.23-2.34-5.23-5.23,2.34-5.23,5.23-5.23,5.23,2.34,5.23,5.23ZM94.15,50.22c-1.16-1.43-3.11-1.94-4.82-1.26s-2.78,2.39-2.64,4.22,1.45,3.36,3.24,3.78,3.56-.34,4.51-1.87.83-3.48-.3-4.88Z" fill="#272221"/>
      <path d="M94.15,50.22c-.28.22-.25.57-.46.88-.92,1.38-2.78,1.38-3.91,2.36-1.29,1.12-.16,2.24.15,3.5-1.79-.42-3.1-1.95-3.24-3.78s.93-3.54,2.64-4.22,3.66-.17,4.82,1.26Z" fill="#f9b317"/>
      <path d="M89.94,56.96c-.31-1.26-1.44-2.38-.15-3.5,1.13-.98,2.99-.98,3.91-2.36.21-.31.18-.66.46-.88,1.13,1.39,1.25,3.35.3,4.88s-2.77,2.27-4.51,1.87Z" fill="#fbcd13"/>
    </g>
    <g>
      <path d="M19.81,67.47c1.26-1.04,2.53-2.23,4.09-2.82.97-.37,2.7-.74,2.87.71.25,2.14-1.82,4.44-3.13,5.93,1.62.1,3.29.2,4.8.84,2.52,1.07,2.49,2.64,0,3.72-1.5.65-3.17.78-4.8.84,1.31,1.51,3.44,3.84,3.12,6.02-.2,1.4-2.01.95-2.93.59-1.55-.6-2.77-1.75-4.02-2.79-.07,1.89-.25,4.46-1.52,5.98-1.62,1.94-2.9-.61-3.33-2.06-.38-1.3-.43-2.58-.54-3.92-1.12.98-2.27,2.05-3.65,2.66-2.74,1.22-4.05.21-2.85-2.66.61-1.47,1.7-2.61,2.69-3.82-1.62-.07-3.29-.19-4.8-.84-2.22-.94-2.63-2.45-.26-3.59,1.54-.75,3.38-.85,5.06-.96-.98-1.18-2.05-2.32-2.66-3.75-1.07-2.51-.37-3.93,2.46-2.86,1.54.59,2.79,1.73,4.02,2.79.11-1.36.15-2.67.56-3.99.46-1.5,1.74-3.91,3.35-1.93,1.22,1.5,1.4,4.07,1.47,5.92ZM22.36,73.99c0-2.89-2.34-5.23-5.23-5.23s-5.23,2.34-5.23,5.23,2.34,5.23,5.23,5.23,5.23-2.34,5.23-5.23Z" fill="#fefeff"/>
      <path d="M22.36,73.99c0,2.89-2.34,5.23-5.23,5.23s-5.23-2.34-5.23-5.23,2.34-5.23,5.23-5.23,5.23,2.34,5.23,5.23ZM15.39,70.17c-1.58.72-2.55,2.35-2.45,4.08s1.28,3.23,2.93,3.75,3.47-.04,4.55-1.4c1.21-1.52,1.21-3.67.01-5.2s-3.29-2.04-5.05-1.23Z" fill="#272322"/>
      <path d="M20.42,76.6c-1.21.02-2.54.1-3.35-.95-1.23-1.61.23-4.2-1.69-5.48,1.77-.81,3.85-.3,5.05,1.23s1.19,3.68-.01,5.2Z" fill="#fccd12"/>
      <path d="M15.39,70.17c1.91,1.29.45,3.87,1.69,5.48.81,1.05,2.14.96,3.35.95-1.08,1.36-2.89,1.92-4.55,1.4s-2.83-2.01-2.93-3.75.86-3.36,2.45-4.08Z" fill="#f9b318"/>
    </g>
  </g>
</svg>