<?xml version="1.0" encoding="UTF-8"?>
<svg id="Layer_1" data-name="Layer 1" xmlns="http://www.w3.org/2000/svg" width="93.97" height="143.65" viewBox="0 0 93.97 143.65">
  <g>
    <path d="M68.08,51.67c3.34.58,6.77,1.59,9.7,3.29,3.48,2.02,4.22,3.62,5.08,7.46.94,4.2,1.29,8.71,3.66,12.42.66,1.03,1.52,1.87,2.22,2.86,2.32,3.28,3.35,7.62,2.56,11.59-.55,2.79-1.58,3.79-3.82,5.36-3.58,2.51-7.7,4.4-11.58,6.4.99,1.52,1.72,3.17,2.22,4.91,1.87.83,3.71,1.74,5.43,2.86.4-.07.84-.05,1.05.35.08.15.08.37.13.45.04.06.81.59.96.72,1.05.91,2.43,2.34,2.57,3.79.03.27-.08,1.02-.05,1.15.01.05.62.68.74.86.43.62.65,1.28.72,2.03v21.78c-.34,2.48-3.22,3.24-4.76,1.21-1.12-1.48-2.06-3.23-3.14-4.75l-.14-.1c-1.54,3.02-4.75,4.68-8.07,4.9s-7.01-.24-10.26-.82c-2.69-.47-5.41-1.26-8.1-1.62-4.73-.65-9.11,1.32-13.66,2.22-6.21,1.24-12.95,2.21-19.07.05-3.2-1.13-6.02-3.18-8-5.95l-4.23,3.41c-.66.45-1.64.52-2.37.19-.85-.39-2.41-1.92-3.19-2.01-1.19-.13-2.23.17-3.02-1.08-1.21-1.93.84-3.15,1.65-4.63.21-.37.26-.74.07-1.14-.29-.62-1.06-.67-1.55-1.08-.82-.7-.98-1.95-.42-2.86.62-1.01,2.65-1.58,3.62-2.32s.27-2.22.23-3.26c-.07-1.59,1.21-2.67,2.77-2.46.3.04,1.99.67,2.06.6.02-4.81,1.06-9.53,3.86-13.47,3.64-5.12,8.92-7.23,13.89-10.63s6.82-6.49,6.65-12.74c-.14-4.98-.82-10.07-.31-15.04.09-.92.27-1.83.46-2.73l-28.33-14.18c-2.14-1.16-3.61-3.4-3.75-5.85-.22-3.71.18-7.65,0-11.38.08-1.02.39-1.94.81-2.86,2.14-4.8,4.95-9.41,6.93-14.29.29-2.06.19-3.71,1.39-5.52,2.17-3.28,5.65-3.41,9.25-3.16,2.02.13,3.66,1.23,4.95,2.69,5.77,6.5,11.08,13.58,16.79,20.15.08.09.53.65.61.58l6.6-20.03c1.18-3.51,4.48-5.12,7.65-6.48,4.66-2,9.81-.01,11.85,4.59,1.85,6.49,3.87,12.98,5.56,19.52.52,2.02.75,3.46.18,5.53l-7.08,18.52ZM47.11,21.82c-1.04,3.15-2.15,6.27-3.12,9.45,1.43,4.06,2.75,8.17,4.1,12.27.94,2.87,1.88,5.75,2.82,8.62.11.07,1.55-.29,1.81-.34.68-.12,1.35-.23,2.03-.32,4.08-.58,8.2-.6,12.28,0,.78-2.01,1.55-4.03,2.33-6.05,1.51-3.89,3.23-7.92,4.57-11.85,1.08-3.15.27-4.65-.53-7.6-.56-2.04-1.14-4.08-1.71-6.12-.93-3.35-1.76-6.82-2.8-10.14-.69-2.22-1.8-3.91-3.89-5.04-3.73-2.01-6.85-.49-10.21,1.3-2.06,1.1-3.24,2.52-4.04,4.7-1.33,3.62-2.43,7.45-3.64,11.13ZM3.63,38.22c0,3.79-.84,8.17,2.96,10.41,3.9,1.96,7.82,3.9,11.72,5.86,5.53,2.78,11.05,5.59,16.61,8.32l.14-.1c.97-3.22,3.5-5.5,6.37-7.05,2.67-1.45,5.62-2.32,8.5-3.22-1.78-5.35-3.48-10.73-5.26-16.08-.56-1.69-1.05-3.43-1.81-5.04-6.07-7.48-12.27-14.88-18.52-22.21-1.77-1.54-3.67-1.58-5.9-1.53s-3.87.39-5.35,2.08-1.44,3.5-1.71,5.69c-1.79,4.47-4.17,8.72-6.26,13.07-.59,1.22-1.38,2.59-1.48,3.96-.13,1.84,0,3.97,0,5.84ZM42.52,56.26c-1.37.68-2.33,1.25-3.49,2.26-5.09,4.47-3.98,12.26-3.73,18.38.23,5.58,1.14,10.42-2.9,14.95-5.01,5.62-13.03,7.18-17.69,13.86s-4.54,19.58-.59,26.87c5.79,10.72,18.61,9.45,28.76,7.05,3.86-.91,7.81-2.38,11.84-1.97,2.07.21,4.33.81,6.4,1.22,1.11.22,2.19.43,3.3.61.81.13,1.63.33,2.45.43.42.05.86.08,1.28.12.38.03.78.04,1.16.06.45.03.89.04,1.35.06.92.03,1.76.07,2.69,0,3.35-.26,6.32-1.68,7.64-4.92l-6.55-9.93c-.15-.09-1.04.57-1.21.7-.43.33-.59.6-.92.94-.9.93-1.81,1.94-2.75,2.87-.56.55-1.19,1.2-1.77,1.71-.02.01-.1.02-.15.06-.06.05-.3.33-.34.31-.01-.19-.63-.69-.61-.82.41-.37.86-.7,1.25-1.08.22-.22.38-.48.58-.67.47-.47.95-.92,1.41-1.41.32-.34.65-.67.98-1.04s.62-.74.92-1.1c.12-.15.32-.32.45-.5.38-.48.74-.98,1.08-1.5-.15-.39-.43-.73-.58-1.13-.72-1.93.13-4.03,1.93-4.98l-3.55-2.77c-.31-.4-.37-.89-.03-1.3.07-.09.41-.37.49-.37h1.87l-1.94-7.14c-.21-1.04,1.09-1.69,1.76-.84l3.06,4.62c.45-.23.68-.8,1.28-.73-.22-2.73-1.13-5.36-2.63-7.64l-2.91,1.33c-.08.02-.1-.04-.13-.1-.07-.12-.35-.72-.29-.81,3.76-1.78,7.53-3.56,11.14-5.62,1.74-.99,5.87-3.29,6.76-4.98,1.09-2.07,1.19-5.48.66-7.72-.02-.1-.02-.21-.12-.27.09-.76-1.04-3.17-1.46-3.89-.84-1.46-2.06-2.59-2.95-4-2.67-4.28-2.84-8.89-4.02-13.63-.81-3.27-1.63-4.41-4.56-6.08-9.79-5.58-24.75-4.4-34.59.5ZM74.44,108.86l-1.83-2.75,1.87,7.14c-.03.22-.09.48-.23.65-.06.07-.46.35-.51.35h-1.8l3.77,2.99c.19.11.48-.06.69-.12.75-.21,1.4-.52,2.22-.41.36.05.68.26,1.05.29,1.41.12,1.63-1.03,2.64-1.64.21-.13.45-.19.66-.32.12-.77.18-1.55.27-2.33.06-.48.21-.97.18-1.47l-.52,1.04c-.33.49-1.17.51-1.55.09-.14-.16-.16-.36-.28-.51l-2.03,1.58c-.59.32-1.36-.04-1.47-.71-.04-.22,0-.46-.01-.69-.02-.61.01-1.22,0-1.83-1.58,1.75-2.15-.06-3.06-1.22,0-.02,0-.04,0-.06,0-.03-.03-.05-.06-.06ZM82.15,111.61l.83-1.96c-1.48-.91-3-1.74-4.59-2.44.31,1.74.34,3.5.22,5.26.9-.38,2.33-2.48,3.3-1.25.1.13.12.32.24.4ZM84.04,114.73c.81-.27,1.55-.39,2.4-.23.66.13,1,.57.77-.46-.31-1.34-1.65-2.44-2.64-3.29l-.52,3.98ZM85.13,115.48c-.41.05-2.02.56-2.35.77-.81.51-1.05,1.39-2.17,1.68-1.19.31-1.59-.29-2.45-.26-.43.02-2.61.72-3.04.94-1.52.77-2.06,2.82-1.12,4.25l11.78,17.76c.84,1.18,2.63.76,2.86-.66v-21.9c-.29-1.74-1.73-2.81-3.5-2.58ZM3.57,128.49c.96.62,1.24,1.94.7,2.93-.39.71-1.92,2.27-1.93,2.97,0,.54.4,1.02.91,1.18s1.04.02,1.57.08c1.17.14,2.41,1.6,3.52,2.07.02,0,.05.07.12.09.45.14.84.08,1.25-.16l4.13-3.4c.05-.2-.51-.99-.63-1.24-.85-1.63-1.59-3.48-2.05-5.26-.64-2.53-.76-5.01-.98-7.58-.02-.19-.1-.39-.07-.6-.93-.2-2.26-1.02-3.17-.52-1.19.64-.29,2.53-.32,3.6-.05,2.01-2.67,2.48-3.99,3.47-.57.43-.69,1.12-.25,1.7.32.43.79.42,1.19.68Z" fill="#231f1f"/>
    <path d="M85.69,75.46c-1.28-.34-2.28-.13-3.38.56-.94.59-1.46,1.45-2.28,2.13-1.68,1.41-3.49,2.07-4.7,4.1-1.5,2.51-.66,5.66,1.13,7.79,3.35,4.01,10.48,2.13,12.67-2.19.75-1.48.78-2.94.97-4.51.11.06.1.17.12.27.52,2.24.42,5.65-.66,7.72-.89,1.69-5.01,4-6.76,4.98-3.62,2.05-7.38,3.84-11.14,5.62-.06.09.22.69.29.81.03.06.05.12.13.1l2.91-1.33c1.5,2.28,2.42,4.91,2.63,7.64-.6-.07-.83.5-1.28.73l-3.06-4.62c-.67-.85-1.97-.2-1.76.84l1.94,7.14h-1.87c-.08,0-.42.28-.49.37-.34.41-.28.9.03,1.3l3.55,2.77c-1.79.95-2.65,3.06-1.93,4.98.15.4.43.74.58,1.13-.34.51-.7,1.01-1.08,1.5-.14.18-.33.34-.45.5-1.26-.15-2.45.24-3.61.71-3.87,1.56-8.72,4.6-8.07,9.41.08.62.28,1.26.52,1.87.14.36.41.72.46,1.1-2.07-.41-4.33-1-6.4-1.22-4.03-.41-7.98,1.06-11.84,1.97-10.15,2.39-22.97,3.66-28.76-7.05-3.94-7.29-4.25-19.93.59-26.87s12.69-8.25,17.69-13.86c4.04-4.53,3.13-9.37,2.9-14.95-.25-6.12-1.36-13.91,3.73-18.38.12.01.2-.04.3-.1.92-.5,2.07-1.29,2.93-1.9.09-.07.27-.13.25-.27,9.84-4.9,24.8-6.08,34.59-.5,2.93,1.67,3.75,2.8,4.56,6.08,1.17,4.73,1.34,9.35,4.02,13.63ZM59.63,53.4c-.69.04-1.44.14-2.1.35-.22.07-.99.3-.86.55s1.88.84,2.23.95c3.15.93,6.43,1.26,9.57,2.42,3.91,1.44,7.31,4.25,10.81,6.43.86.51,1.33.07.82-.83-.92-1.62-3.41-4.32-4.85-5.54-3.96-3.35-10.54-4.64-15.63-4.33ZM80.48,66.67c-.2.06-.38.44-.41.64-.08.57.1.97.4,1.43.19.3,1.18,1.72,1.5.96.17-.42-.16-1.73-.36-2.16-.17-.36-.68-1-1.13-.86ZM58.85,70.02c-.04-.3-.84-.46-1.09-.48-1.54-.13-3.05,1.7-3.61,2.96-1.09,2.47-1.73,6.55-.66,9.09,2.35,5.57,11.18,8.53,15.64,3.75,1.99-2.13,3.11-5.87.4-7.92-.09-.07-.16-.11-.28-.12-.02-2.42-1.95-4.88-3.83-6.23-1.72-1.23-4.61-2.33-6.56-1.05ZM51.39,112.16c-.3.34,0,.64.19.94.48.71,1.48,1.82,2.45,1.37.43-.2-.03-1.02-.26-1.27l1.44.18.51-.06c2.73,1.7,6.77,3.38,9.78,1.43,4.2-2.72.86-8.25-1.28-11.22.87-3.25-1.43-6.55-4.14-8.12-3.47-2.02-7.72-1.96-10.53,1.12-2.35,2.57-3.69,7.83-2.4,11.08.57,1.42,2.68,4.26,4.23,4.54ZM28.03,98.28c-1.45.34-2.78,1.13-3.99,1.97-7.03,4.84-12.33,13.87-10.97,22.63.41,2.63,1.86,5.6,3.15,7.92.3.53,1.06,2.13,1.52.83-.57-5.21-2.39-10.52-1.36-15.8.88-4.52,3.32-8.54,6.42-11.87,1.4-1.5,3.17-2.86,4.47-4.4.14-.17.9-1.14.76-1.28ZM55.83,115.05c-.43.1-.36.51-.16.8.35.51,2.03,1.79,2.62,2.09,2.19,1.12,6.01.97,7.86-.76.21-.2.91-.98.58-1.26-.34-.3-2.63.18-3.21.21-2.12.12-3.75-.48-5.77-.84-.43-.07-1.58-.33-1.92-.25ZM18.78,133.89c-1.01.11-.29,1.46.11,1.89.43.47,1.61,1.11,2.21,1.34.41.16.82.16.65-.4-.13-.43-1.21-2-1.57-2.28-.31-.24-1-.58-1.39-.54Z" fill="#b5aaa1"/>
    <path d="M85.69,75.46c.88,1.41,2.1,2.53,2.95,4,.42.73,1.55,3.13,1.46,3.89-.18,1.56-.22,3.03-.97,4.51-2.18,4.32-9.32,6.2-12.67,2.19-1.78-2.13-2.63-5.28-1.13-7.79,1.22-2.03,3.02-2.7,4.7-4.1.81-.68,1.34-1.54,2.28-2.13,1.1-.69,2.11-.9,3.38-.56ZM83.54,78.23c-1.71.18-5.4,2.68-6.47,4.05-1.87,2.41-1.09,5.11,1.26,6.81,2.77,1.99,8.28.73,9.38-2.65.18-.56.18-.82.14-1.36-.01-.16.1-.37.1-.54,0-1.07-1.53-4.36-2.24-5.22-.54-.66-1.3-1.18-2.18-1.09Z" fill="#bca8a2"/>
    <path d="M72.3,126.96c.33-.34.5-.61.92-.94.17-.13,1.06-.79,1.21-.7l6.55,9.93c-1.32,3.24-4.29,4.66-7.64,4.92l-.31-.52.31-.15c.33.03.7-.02,1.04,0,.07,0,.28.2.24-.06.06,0,.12,0,.18,0,.05,0,.21.19.18-.06.04,0,.09,0,.12,0,0,0,.08.1.12.06.01-.01-.01-.11,0-.12,0,0,.1,0,.12,0,0,0,.05.09.12.06,0-.04-.01-.11,0-.12.02-.02.14.01.18,0,.1-.03.38-.12.45-.18.06-.05.03-.12.04-.13.13-.1.22-.18.37-.24.03-.01.14.03.18,0,.03-.03,0-.1,0-.11.21-.3.56-.59.79-.89.3-.38,1.66-2.05.35-1.98-.62.03-1.63.52-2.3.67-.22.05-.07.06-.12.12-.03.04-.36.1-.43.12-.14.05-.4.08-.37.24-.03.01-.09,0-.12,0-.12.03-.28.02-.24.18-.7.29-1.45.46-2.14.73-.27-.27-.2-.7-.26-1.06-.13-.75-.14-1.35-.23-2.09-.14-1.16-.53-2.51-.36-3.66.2-1.39,1.05-2.61,1.03-4.01Z" fill="#7a6c5f"/>
    <path d="M71.81,125.8c-.3.36-.59.74-.92,1.1-1.16.04-2.39.66-3.4,1.21-1.8.99-4.51,3.14-4.77,5.33-.02.15.06.29.03.39-.02.08-.15.13-.16.2-.02.12.11.45.11.61.02,1.41.3,2.4,1.05,3.66.17.29.54.67.67.92.04.09.12.21,0,.28-1.11-.18-2.2-.39-3.3-.61-.04-.38-.31-.74-.46-1.1-.24-.61-.43-1.25-.52-1.87-.65-4.81,4.2-7.85,8.07-9.41,1.16-.47,2.34-.86,3.61-.71Z" fill="#aca197"/>
    <path d="M72.3,126.96c.01,1.4-.83,2.62-1.03,4.01-.17,1.15.22,2.5.36,3.66.09.74.1,1.35.23,2.09.06.36-.01.79.26,1.06,0,0-.04.08-.1.11-.65.27-1.57.63-.47,1.17.44.22,1.3.39,1.8.44l-.31.15.31.52c-.93.07-1.77.03-2.69,0-.43-.74-.7-1.35-.9-2.19-.4-1.63-.9-4.4-.74-6.03.07-.71.41-1.42.54-2.12.94-.93,1.85-1.94,2.75-2.87Z" fill="#84776a"/>
    <path d="M70.89,126.9c-.33.36-.66.7-.98,1.04-.5.03-1.07.35-1.51.6-4.46,2.49-4.92,6.69-2,10.71.15.2.45.39.45.68-.82-.1-1.64-.3-2.45-.43.12-.07.05-.19,0-.28-.13-.25-.49-.64-.67-.92-.75-1.25-1.03-2.25-1.05-3.66,0-.16-.13-.49-.11-.61.02-.07.14-.12.16-.2.03-.1-.05-.24-.03-.39.25-2.19,2.97-4.34,4.77-5.33,1.01-.56,2.24-1.17,3.4-1.21Z" fill="#a89c93"/>
    <path d="M69.92,127.94c-.46.48-.93.94-1.41,1.41-2.75,1.04-2.92,4.31-2.22,6.78.15.52.39,1.05.58,1.56l1.28,2.36c-.42-.04-.86-.07-1.28-.12,0-.28-.31-.47-.45-.68-2.92-4.02-2.46-8.22,2-10.71.44-.25,1.01-.57,1.51-.6Z" fill="#9e9288"/>
    <g>
      <path d="M10.17,120.17c.22,2.58.33,5.05.98,7.58-.36,1.13-.13,2.4.09,3.55.12.66.47,1.59.51,2.18.02.32-.01.44-.21.7-.45.58-1.23,1.09-1.75,1.62-.55.56-1.05,1.26-1.47,1.93-1.11-.47-2.35-1.94-3.52-2.07-.52-.06-1.04.07-1.57-.08s-.91-.63-.91-1.18c0-.7,1.54-2.26,1.93-2.97.54-.99.26-2.31-.7-2.93.04-.36-.3-1.16-.13-1.44.11-.18,1.55-1.03,1.86-1.26,1.27-.94,2.54-2,2.36-3.74-.09-.88-.74-1.56.53-1.8.67-.13,1.32.1,1.98-.07Z" fill="#7a6c5f"/>
      <path d="M3.57,128.49c-.4-.26-.86-.25-1.19-.68-.44-.58-.32-1.27.25-1.7,1.32-.99,3.94-1.46,3.99-3.47.03-1.07-.87-2.95.32-3.6.91-.49,2.24.32,3.17.52-.03.21.05.42.07.6-.66.17-1.31-.06-1.98.07-1.28.24-.62.93-.53,1.8.18,1.74-1.09,2.81-2.36,3.74-.31.23-1.75,1.08-1.86,1.26-.17.29.17,1.08.13,1.44Z" fill="#908276"/>
      <path d="M8.34,137.73c.42-.67.91-1.37,1.47-1.93.52-.53,1.3-1.03,1.75-1.62.2-.25.23-.37.21-.7-.04-.59-.39-1.52-.51-2.18-.22-1.14-.45-2.42-.09-3.55.45,1.79,1.2,3.63,2.05,5.26.13.25.69,1.04.63,1.24l-4.13,3.4c-.4.24-.79.31-1.25.16-.06-.02-.1-.08-.12-.09Z" fill="#908276"/>
    </g>
    <path d="M68.51,129.35c-.2.2-.36.46-.58.67-.39.38-.85.71-1.25,1.08-.02.13.6.63.61.82.03.02.28-.26.34-.31.05-.04.14-.05.15-.06,0,.23-.04.46-.08.69-.28,1.83.22,4.12.79,5.91.22.68.5,1.34.81,1.97-.38-.03-.78-.03-1.16-.06l-1.28-2.36c-.18-.51-.43-1.04-.58-1.56-.7-2.47-.54-5.74,2.22-6.78Z" fill="#978a7f"/>
    <path d="M70.65,140.17c-.46-.02-.89-.03-1.35-.06-.32-.63-.6-1.29-.81-1.97-.57-1.79-1.07-4.08-.79-5.91.03-.23.09-.45.08-.69.58-.51,1.21-1.16,1.77-1.71-.13.7-.47,1.41-.54,2.12-.16,1.63.35,4.4.74,6.03.2.84.47,1.45.9,2.19Z" fill="#908276"/>
    <path d="M42.52,56.26c.02.13-.16.2-.25.27-.86.61-2.02,1.4-2.93,1.9-.1.05-.18.11-.3.1,1.15-1.01,2.12-1.58,3.49-2.26Z" fill="#7a6c5f"/>
    <path d="M28.03,98.28c.14.15-.62,1.12-.76,1.28-1.3,1.55-3.06,2.9-4.47,4.4-3.1,3.33-5.54,7.35-6.42,11.87-1.03,5.27.79,10.59,1.36,15.8-.46,1.3-1.23-.3-1.52-.83-1.29-2.32-2.74-5.29-3.15-7.92-1.36-8.76,3.94-17.79,10.97-22.63,1.22-.84,2.54-1.62,3.99-1.97Z" fill="#fff"/>
    <path d="M64.23,103.54c-.95-1.32-2.11-2.71-3.21-3.92-.5-.55-1.56-1.79-2.11-2.17-.13-.09-.18-.06-.25-.09-3.53-1.59-7.58.95-8.76,4.36-.57,1.65-.7,4.62-.01,6.23.09.21.37.53.4.73,0,.02-.05.06-.05.1.03.52,4.76,4.09,5.49,4.54l-.51.06-1.44-.18c-.59-.66-1.57-.89-2.38-1.04-1.55-.29-3.67-3.12-4.23-4.54-1.29-3.25.05-8.51,2.4-11.08,2.82-3.08,7.06-3.14,10.53-1.12,2.71,1.57,5.01,4.88,4.14,8.12Z" fill="#a89c93"/>
    <path d="M59.63,53.4c5.1-.32,11.67.98,15.63,4.33,1.44,1.22,3.93,3.92,4.85,5.54.51.89.04,1.33-.82.83-3.5-2.19-6.9-5-10.81-6.43-3.14-1.15-6.42-1.48-9.57-2.42-.36-.11-2.1-.7-2.23-.95s.64-.49.86-.55c.66-.21,1.41-.3,2.1-.35Z" fill="#fff"/>
    <path d="M58.85,70.02c-.31.21-.74.59-.92.92-.86-.23-1.8.52-2.25,1.2-1.35,2.03-1.87,5.58-1.28,7.92.77,3.04,4.3,5.61,7.26,6.26,2.73.6,6.02-.67,7.49-3.1.65-1.07.89-3.04.23-4.13-.1-.17-.2-.42-.44-.39.17-.42.31-.95.31-1.41.11,0,.19.06.28.12,2.71,2.06,1.59,5.8-.4,7.92-4.46,4.78-13.29,1.82-15.64-3.75-1.07-2.54-.43-6.61.66-9.09.56-1.26,2.07-3.09,3.61-2.96.25.02,1.04.18,1.09.48Z" fill="#bca8a2"/>
    <path d="M55.83,115.05c.35-.08,1.5.18,1.92.25,2.02.35,3.65.96,5.77.84.58-.03,2.87-.51,3.21-.21s-.37,1.06-.58,1.26c-1.85,1.73-5.67,1.88-7.86.76-.58-.3-2.26-1.58-2.62-2.09-.2-.29-.28-.7.16-.8Z" fill="#fff"/>
    <path d="M18.78,133.89c.39-.04,1.08.3,1.39.54.36.28,1.44,1.85,1.57,2.28.18.56-.24.56-.65.4-.6-.23-1.78-.87-2.21-1.34-.39-.43-1.11-1.77-.11-1.89Z" fill="#fdfefe"/>
    <path d="M80.48,66.67c.45-.14.96.5,1.13.86.2.43.53,1.74.36,2.16-.31.76-1.3-.66-1.5-.96-.29-.46-.48-.86-.4-1.43.03-.2.2-.57.41-.64Z" fill="#fdfefe"/>
    <path d="M53.77,113.2c.23.25.69,1.07.26,1.27-.97.45-1.97-.66-2.45-1.37-.2-.29-.49-.6-.19-.94.82.15,1.79.38,2.38,1.04Z" fill="#fdfefe"/>
    <path d="M83.54,78.23c.88-.09,1.64.43,2.18,1.09.71.86,2.24,4.15,2.24,5.22,0,.17-.11.38-.1.54.04.53.04.8-.14,1.36-1.1,3.37-6.61,4.64-9.38,2.65-2.36-1.7-3.13-4.4-1.26-6.81,1.07-1.37,4.76-3.88,6.47-4.05ZM84.65,81.28l-.97-.13c-.15,1.17.09,2.76-1.5,2.88l-2.68-.25c-.12.03-.09.82-.16.98,1.22.02,2.93.59,4.03-.03,1.26-.71,1.24-2.16,1.28-3.44Z" fill="#c8a5a5"/>
    <g>
      <path d="M85.13,115.48c1.77-.22,3.21.84,3.5,2.58v21.9c-.23,1.42-2.03,1.85-2.86.66l-11.78-17.76c-.94-1.43-.4-3.48,1.12-4.25.43-.22,2.61-.93,3.04-.94.86-.03,1.27.57,2.45.26,1.12-.29,1.36-1.17,2.17-1.68.33-.21,1.94-.72,2.35-.77ZM85.56,115.97c-.42.02-.95.25-1.27.5s-1.09,1.1-.46,1.38c.67.3,1.48-.21,1.77-.12.22.07,1.7,2.49,1.63.7-.04-.99-.41-2.51-1.66-2.46ZM87.08,120.18c-.43.14.02,1.55.47,1.39.31-.11.15-1.6-.47-1.39ZM81.09,120.25c-.66.07-2.43.61-2.83,1.15-.59.8.41,1.29,1.05,1.45,1.44.35,2.89.12,4.26-.35.4-.13,1.81-.65,2.02-.92.52-.66-.46-.85-.89-.95-1.11-.27-2.49-.5-3.62-.38ZM77.3,125.32c-.57.17,0,1.32.17,1.64.38.73.93,1.4,1.6,1.88s1.24.77.88-.39c-.28-.89-1.07-2.13-1.77-2.75-.21-.19-.57-.47-.87-.38ZM80.85,126.06c-.78.13-.97.71-.5,1.33.8,1.05,2.95,1.89,4.21,2.22.41.1,1.41.4,1.75.2.4-.24.23-.61,0-.91-1.16-1.52-3.44-3.17-5.46-2.83ZM80.36,129.85c-.62.11-.63.85-.44,1.33.17.42,1.1,1.21,1.54.99.59-.28.16-2.54-1.1-2.33ZM83.91,133.22c-.94.14-.89.95-.49,1.62.47.78,1.32,1.14,2.15,1.39.47.14,1.75.6,1.71-.3-.01-.27-.6-1.17-.79-1.41-.6-.74-1.58-1.45-2.58-1.3Z" fill="#f69c1f"/>
      <path d="M74.5,108.98c.91,1.16,1.48,2.97,3.06,1.22.01.61-.02,1.22,0,1.83-.23-.05-.32.24-.35.41-.34,2.07,1.91,2.54,3.23,1.33.13-.12.48-.62.53-.64.16-.05.37.16.56.22.72.23,1.24-.18,1.73-.66-.1.77-.16,1.55-.27,2.33-.21.13-.45.19-.66.32-1.01.61-1.23,1.77-2.64,1.64-.37-.03-.69-.24-1.05-.29-.81-.11-1.46.2-2.22.41-.12-.56-.65-1.09-1.07-1.47-.11-.1-.64-.42-.64-.46-.03-.15.3-.34.42-.5,1.17-1.52-.4-4.14-.6-5.71ZM76.32,113.64c-.33.08-.38.97-.34,1.24.08.57.78.95,1.32.93.72-.03-.23-1.11-.36-1.34-.12-.21-.22-.93-.62-.83ZM78.77,115.11c-.95.06-.6,1.39.39,1.01.73-.28.25-1.04-.39-1.01Z" fill="#507c39"/>
      <path d="M74.44,108.86l.06.06s0,.04,0,.06c.2,1.57,1.77,4.19.6,5.71-.12.16-.45.34-.42.5,0,.04.53.36.64.46.42.37.95.91,1.07,1.47-.21.06-.5.23-.69.12l-3.77-2.99h1.8c.05,0,.45-.27.51-.35.14-.17.2-.43.23-.65l-1.87-7.14,1.83,2.75Z" fill="#9aaf3b"/>
      <path d="M82.15,111.61c-.12-.08-.14-.27-.24-.4-.97-1.23-2.4.87-3.3,1.25.12-1.76.1-3.52-.22-5.26,1.59.7,3.12,1.53,4.59,2.44l-.83,1.96Z" fill="#7a6c5f"/>
      <path d="M84.04,114.73l.52-3.98c1,.85,2.34,1.95,2.64,3.29.23,1.03-.11.59-.77.46-.85-.17-1.58-.04-2.4.23Z" fill="#7a6c5f"/>
      <path d="M83.25,112.71c-.48.47-1.01.88-1.73.66-.18-.06-.4-.27-.56-.22-.05.02-.4.52-.53.64-1.32,1.21-3.56.74-3.23-1.33.03-.17.12-.46.35-.41,0,.23-.02.47.01.69.11.67.88,1.03,1.47.71l2.03-1.58c.13.15.15.35.28.51.37.43,1.22.4,1.55-.09l.52-1.04c.03.49-.12.98-.18,1.47Z" fill="#9aaf3b"/>
      <path d="M74.5,108.92l-.06-.06s.05.03.06.06Z" fill="#507c39"/>
      <path d="M81.09,120.25c1.14-.12,2.51.11,3.62.38.43.1,1.4.29.89.95-.21.27-1.62.78-2.02.92-1.37.47-2.82.7-4.26.35-.64-.16-1.65-.64-1.05-1.45.4-.54,2.17-1.08,2.83-1.15Z" fill="#fbb416"/>
      <path d="M80.85,126.06c2.02-.34,4.29,1.31,5.46,2.83.23.3.4.67,0,.91-.33.2-1.34-.1-1.75-.2-1.26-.32-3.41-1.16-4.21-2.22-.47-.62-.29-1.19.5-1.33Z" fill="#fbb416"/>
      <path d="M83.91,133.22c1-.15,1.98.56,2.58,1.3.2.24.78,1.14.79,1.41.04.9-1.24.44-1.71.3-.83-.25-1.69-.62-2.15-1.39-.4-.67-.46-1.48.49-1.62Z" fill="#fbb416"/>
      <path d="M85.56,115.97c1.25-.05,1.62,1.47,1.66,2.46.07,1.79-1.41-.63-1.63-.7-.28-.09-1.09.42-1.77.12-.63-.28.14-1.13.46-1.38s.86-.49,1.27-.5Z" fill="#fdfefe"/>
      <path d="M77.3,125.32c.3-.09.66.2.87.38.71.62,1.49,1.86,1.77,2.75.36,1.16-.23.85-.88.39s-1.22-1.15-1.6-1.88c-.17-.32-.74-1.47-.17-1.64Z" fill="#fdfefe"/>
      <path d="M80.36,129.85c1.26-.22,1.7,2.05,1.1,2.33-.45.21-1.38-.57-1.54-.99-.19-.48-.18-1.22.44-1.33Z" fill="#fdfefe"/>
      <path d="M87.08,120.18c.63-.21.79,1.29.47,1.39-.45.15-.91-1.25-.47-1.39Z" fill="#fdfefe"/>
      <path d="M76.7,138.58c-.09,0-.16.03-.18.12-.15.07-.24.15-.37.24-.15.06-.51.13-.49.31-.05.01-.17-.02-.18,0l-.12.06s-.12,0-.12,0l-.12.06s-.08,0-.12,0c-.07,0-.16-.01-.18.06-.06,0-.12,0-.18,0-.08,0-.2-.03-.24.06-.34-.02-.71.03-1.04,0-.5-.05-1.35-.22-1.8-.44-1.11-.54-.18-.9.47-1.17.06-.03.1-.1.1-.11.69-.27,1.44-.44,2.14-.73.11-.05.28,0,.24-.18.03,0,.09.01.12,0,.14-.04.4-.08.37-.24.07-.02.4-.08.43-.12.13.02.14,0,.12-.12.67-.15,1.68-.64,2.3-.67,1.31-.07-.04,1.6-.35,1.98-.24.3-.58.59-.79.89Z" fill="#fdfefe"/>
      <path d="M76.15,138.95s.02.08-.04.13c-.07.06-.35.15-.45.18-.03-.18.33-.24.49-.31Z" fill="#84776a"/>
      <path d="M74.99,136.63c.04.16-.23.2-.37.24-.04-.17.23-.2.37-.24Z" fill="#84776a"/>
      <path d="M74.5,136.87c.04.17-.13.14-.24.18-.04-.16.12-.15.24-.18Z" fill="#84776a"/>
      <path d="M74.63,139.44c.03.26-.17.07-.24.06.04-.09.17-.07.24-.06Z" fill="#84776a"/>
      <path d="M74.99,139.38c.03.25-.13.07-.18.06.03-.07.12-.07.18-.06Z" fill="#84776a"/>
      <path d="M76.7,138.58s.02.09,0,.11c-.04.03-.14,0-.18,0,.03-.09.09-.12.18-.12Z" fill="#84776a"/>
      <path d="M75.54,136.38c.02.13,0,.14-.12.12.05-.06-.1-.07.12-.12Z" fill="#84776a"/>
      <path d="M75.48,139.26s0,.09,0,.12c-.07.03-.11-.06-.12-.06l.12-.06Z" fill="#84776a"/>
      <path d="M75.24,139.32s.01.11,0,.12c-.04.04-.12-.06-.12-.06l.12-.06Z" fill="#84776a"/>
      <path d="M76.32,113.64c.4-.1.5.62.62.83.13.23,1.08,1.32.36,1.34-.54.02-1.24-.36-1.32-.93-.04-.27.02-1.16.34-1.24Z" fill="#fdfefe"/>
      <path d="M78.77,115.11c.64-.04,1.12.73.39,1.01-1,.39-1.34-.95-.39-1.01Z" fill="#fdfefe"/>
    </g>
    <path d="M58.67,97.36c-.06.17-.59.54-.61.65,0,.05.25.34.3.39-.28.17-.63,0-.89,0-2.71.04-5.04,2.45-5.88,4.88-.79,2.27-.01,3.79.67,5.84.04.11.13.19-.07.17-.43-.38-.86-.75-1.26-1.16l-.63.55c-.03-.2-.31-.53-.4-.73-.69-1.6-.56-4.58.01-6.23,1.18-3.41,5.24-5.95,8.76-4.36Z" fill="#9e9288"/>
    <path d="M57.63,71.67c-.69,2.61,1.68,5.76,3.66,7.21,1.81,1.34,5.12,2.53,7.05.8.58.39.03,1.06-.33,1.39-1.48,1.34-3.48,2.29-5.51,2.16-1.4-.09-2.04-.73-3.13-1.46-.92-.61-1.99-1.15-2.54-2.17-.9-1.69-.69-5.66.18-7.36.15-.29.29-.34.5-.57.04,0,.08,0,.12,0Z" fill="#d7a7ac"/>
    <path d="M57.5,71.67c-.21.23-.35.28-.5.57-.87,1.71-1.09,5.67-.18,7.36.54,1.02,1.62,1.56,2.54,2.17,1.09.72,1.73,1.37,3.13,1.46,2.03.13,4.04-.82,5.51-2.16.36-.33.9-1,.33-1.39.02-.02.28-.33.31-.37.35.1.38.89.37,1.19-.1,1.97-2,3.58-3.71,4.24-2.79,1.07-4.81.21-7.07-1.46-2.52-1.86-3.4-3.73-3.03-6.92.12-1.08.97-4.62,2.32-4.69Z" fill="#cfa9aa"/>
    <path d="M57.93,70.94c-.05.09-.28.64-.31.73-.04,0-.08,0-.12,0-1.35.07-2.19,3.61-2.32,4.69-.37,3.19.51,5.06,3.03,6.92,2.25,1.67,4.27,2.54,7.07,1.46,1.72-.66,3.62-2.26,3.71-4.24.02-.3-.02-1.09-.37-1.19.11-.15.23-.43.31-.61.24-.03.34.22.44.39.66,1.1.42,3.06-.23,4.13-1.47,2.42-4.76,3.69-7.49,3.1-2.96-.65-6.48-3.21-7.26-6.26-.6-2.35-.07-5.89,1.28-7.92.45-.68,1.4-1.43,2.25-1.2Z" fill="#c4aca8"/>
    <g>
      <path d="M69.24,77.3c0,.46-.13.99-.31,1.41-.07.18-.19.46-.31.61-.03.04-.29.35-.31.37-1.92,1.73-5.23.54-7.05-.8-1.98-1.46-4.34-4.6-3.66-7.21.02-.09.25-.64.31-.73.18-.33.6-.71.92-.92,1.95-1.28,4.84-.18,6.56,1.05,1.88,1.35,3.81,3.81,3.83,6.23ZM61.16,71.2c-1.53.21-2.25,1.95-1.68,3.3.1.25.52.81.81.78.44-.05.56-1.7.99-1.82.47-.14,1.27.8,1.64,1.09.83.64,1.85,1.43,2.7,2.01s1.2.28.81-.68c-.81-1.98-2.78-5.01-5.26-4.67ZM62.07,76.09c-.71.16-.17,1.11.11,1.46.79.97,2.01,1.45,3.24,1.53.4.02,1.14.15,1.07-.39-.03-.26-.85-.85-1.11-1.04-.27-.2-.59-.41-.88-.59-.54-.33-1.83-1.1-2.43-.96Z" fill="#242021"/>
      <path d="M61.16,71.2c2.48-.34,4.46,2.69,5.26,4.67.39.96.07,1.28-.81.68s-1.87-1.37-2.7-2.01c-.37-.29-1.17-1.23-1.64-1.09-.43.13-.55,1.78-.99,1.82-.29.03-.71-.53-.81-.78-.57-1.35.15-3.1,1.68-3.3Z" fill="#fdfefe"/>
      <path d="M62.07,76.09c.6-.14,1.89.63,2.43.96.29.17.61.39.88.59.25.18,1.07.78,1.11,1.04.07.54-.67.42-1.07.39-1.23-.08-2.45-.56-3.24-1.53-.28-.34-.81-1.29-.11-1.46Z" fill="#fdfefe"/>
    </g>
    <g>
      <path d="M64.23,103.54c2.13,2.97,5.48,8.5,1.28,11.22-3.01,1.95-7.05.27-9.78-1.43-.73-.45-5.47-4.02-5.49-4.54,0-.04.05-.09.05-.1l.63-.55c.4.41.83.78,1.26,1.16.75.66,1.47,1.24,2.26,1.83.52.39.92.68,1.47,1.04.48.32.9.58,1.41.86,2.14,1.17,4.82,2.27,7.21,1.12,4.49-2.15.26-8.1-1.64-10.6-.44-.58-.81-1.08-1.28-1.65s-.93-1.06-1.41-1.59c-.61-.67-1.19-1.29-1.83-1.9-.05-.05-.31-.34-.3-.39.02-.11.55-.48.61-.65.07.03.12,0,.25.09.55.39,1.61,1.62,2.11,2.17,1.1,1.21,2.26,2.59,3.21,3.92Z" fill="#231f1f"/>
      <path d="M57.32,113.02c.05-.2.21-.36.28-.55.23-.67.16-2.37.15-3.15,0-.2-.09-.62-.06-.79s.32-.5.35-.63c.17-.59.12-.34.42-.8.08-.12.07-.26.14-.35.06-.09.24-.13.31-.24s.07-.26.15-.4c.12-.19.39-.29.49-.43s.09-.39.17-.47c.04-.05.18-.06.26-.14.14-.13.32-.42.42-.49.21-.14,1.26-.63,1.5-.7.17-.05.34,0,.5-.06.14-.04.29-.26.49-.28,1.9,2.51,6.13,8.45,1.64,10.6-2.39,1.14-5.07.04-7.21-1.12Z" fill="#7a6c5f"/>
      <path d="M58.36,98.4c.65.61,1.22,1.23,1.83,1.9-1.09-.18-2.17-.28-3.2.19-2.02.93-3.73,4.54-3.58,6.69.08,1.27.59,2.12.96,3.26.06.18.21.53.08.69-.79-.59-1.52-1.18-2.26-1.83.2.02.11-.05.07-.17-.68-2.05-1.46-3.57-.67-5.84.84-2.43,3.18-4.84,5.88-4.88.26,0,.61.17.89,0Z" fill="#978a7f"/>
      <path d="M60.19,100.3c.48.53.95,1.04,1.41,1.59-1.02.14-1.99,0-2.93.53-1.03.57-1.37,1.51-1.89,2.45s-1.17,1.82-1.29,2.87c-.16,1.36.55,2.7.49,4.1,0,.12-.03.22-.06.33-.55-.36-.95-.65-1.47-1.04.13-.16-.02-.5-.08-.69-.36-1.15-.88-1.99-.96-3.26-.14-2.14,1.56-5.76,3.58-6.69,1.04-.47,2.11-.37,3.2-.19Z" fill="#908276"/>
      <path d="M62.88,103.54c-.19.01-.34.24-.49.28-.16.05-.33,0-.5.06-.24.07-1.29.56-1.5.7-.1.07-.28.36-.42.49-.08.07-.22.09-.26.14-.08.08-.07.33-.17.47s-.37.24-.49.43c-.08.14-.08.28-.15.4s-.25.15-.31.24c-.07.09-.06.23-.14.35-.3.46-.25.22-.42.8-.04.13-.33.46-.35.63s.06.59.06.79c0,.77.07,2.48-.15,3.15-.07.19-.22.35-.28.55-.51-.28-.92-.54-1.41-.86.03-.11.06-.22.06-.33.07-1.39-.65-2.74-.49-4.1.12-1.05.79-1.98,1.29-2.87.53-.94.86-1.88,1.89-2.45.94-.52,1.91-.39,2.93-.53.48.57.84,1.07,1.28,1.65Z" fill="#84776a"/>
    </g>
    <path d="M84.65,81.28c-.04,1.28-.02,2.73-1.28,3.44-1.1.63-2.81.05-4.03.03.07-.16.04-.95.16-.98l2.68.25c1.59-.12,1.35-1.71,1.5-2.88l.97.13Z" fill="#242021"/>
  </g>
  <g>
    <g>
      <path d="M71.69,19.87c.57,2.04,1.15,4.07,1.71,6.12-.28.09-.45.69-.48.95-.17,1.48.1,3.08-.15,4.63-.17,1.08-.7,2.16-1.02,3.2-.89,2.83-1.68,5.84-2.34,8.73-.13.57-.37,1.22-.21,1.78.03.1.01.2.16.17-.78,2.01-1.55,4.03-2.33,6.05-4.08-.59-8.21-.57-12.28,0,.01-.16-.09-.15-.2-.2-.88-.43-1.97-.67-2.87-1.11-.72-1.92-1.52-4.54-2.9-6.09-.17-.19-.45-.53-.7-.55-1.35-4.09-2.66-8.21-4.1-12.27.96-3.17,2.08-6.3,3.12-9.45.15,0,.15-.09.22-.18,2.37-3.51,3.28-8.01,5.34-11.66,1.5-2.68,5.72-5,8.79-4.79,5.52.38,6.46,6.28,8.12,10.48.44,1.13,1.03,2.78,1.67,3.77.11.17.24.4.45.43ZM61.16,6.18c-1.34.07-3.21,1.06-3.26,2.55.05.07.11.06.18.06,1.08-.05,2.63-.52,3.63-.07,1.69.77,3.68,5.2,5.1,6.77.55.61.94.38.85-.42-.11-1.03-.81-3.19-1.17-4.21-.78-2.18-2.74-4.8-5.32-4.68ZM67.79,17.38c-.52.52.06,1.89.4,2.41.2.31,1.28,1.87,1.52.88.13-.54-.15-2.01-.43-2.51-.21-.39-1.04-1.22-1.48-.78ZM48.8,22.08c-.1.03-.24.16-.32.23-.92.79-2.87,5.22-2.97,6.45-.14,1.72.68,3.77,1.34,5.33.23.55.62,1.56.92,2.02.24.37.72.64.89.07.18-.6-.06-2.02-.08-2.71-.03-.78,0-1.6-.06-2.39-.1-1.32-.46-2.04-.09-3.4.44-1.64,1.23-2.86,1.07-4.68-.03-.38-.19-1.07-.69-.93ZM48.43,38.59c-.3.1-.19,1.39-.11,1.68.12.4.89,1.72,1.21,1.97.58.47.6-.35.57-.76-.04-.64-.23-1.57-.6-2.09-.15-.21-.84-.88-1.07-.81Z" fill="#7a6c5f"/>
      <path d="M71.69,19.87c-.22-.03-.34-.27-.45-.43-.64-.99-1.23-2.64-1.67-3.77-1.65-4.2-2.6-10.1-8.12-10.48-3.06-.21-7.28,2.11-8.79,4.79-2.05,3.66-2.96,8.15-5.34,11.66-.06.09-.07.18-.22.18,1.21-3.68,2.31-7.5,3.64-11.13.8-2.18,1.99-3.61,4.04-4.7,3.37-1.79,6.49-3.32,10.21-1.3,2.09,1.13,3.2,2.82,3.89,5.04,1.03,3.32,1.86,6.79,2.8,10.14Z" fill="#908276"/>
      <path d="M73.4,25.98c.81,2.95,1.61,4.45.53,7.6-1.34,3.93-3.07,7.96-4.57,11.85-.15.03-.13-.07-.16-.17-.17-.56.08-1.21.21-1.78.66-2.89,1.45-5.9,2.34-8.73.33-1.04.85-2.11,1.02-3.2.25-1.55-.03-3.15.15-4.63.03-.26.2-.87.48-.95Z" fill="#908276"/>
      <path d="M54.75,51.49c-.68.1-1.35.2-2.03.32-.27.05-1.71.41-1.81.34-.95-2.87-1.88-5.75-2.82-8.62.26.02.54.36.7.55,1.38,1.55,2.17,4.17,2.9,6.09.89.44,1.99.67,2.87,1.11.1.05.21.04.2.2Z" fill="#908276"/>
      <path d="M48.8,22.08c.49-.13.65.56.69.93.16,1.82-.63,3.04-1.07,4.68-.36,1.35-.01,2.07.09,3.4.06.78.03,1.6.06,2.39.03.69.27,2.11.08,2.71s-.64.3-.89-.07c-.3-.46-.69-1.47-.92-2.02-.66-1.56-1.47-3.61-1.34-5.33.1-1.23,2.04-5.66,2.97-6.45.08-.07.23-.2.32-.23Z" fill="#fdfefe"/>
      <path d="M61.16,6.18c2.58-.13,4.54,2.49,5.32,4.68.37,1.02,1.06,3.18,1.17,4.21.09.8-.3,1.03-.85.42-1.41-1.57-3.41-6-5.1-6.77-.99-.45-2.55.02-3.63.07-.07,0-.13.01-.18-.06.05-1.49,1.92-2.49,3.26-2.55Z" fill="#fdfefe"/>
      <path d="M67.79,17.38c.44-.44,1.27.39,1.48.78.28.51.56,1.97.43,2.51-.24.99-1.32-.57-1.52-.88-.33-.52-.92-1.89-.4-2.41Z" fill="#fdfefe"/>
      <path d="M48.43,38.59c.24-.07.93.6,1.07.81.37.53.56,1.45.6,2.09.02.4.01,1.22-.57.76-.31-.25-1.09-1.57-1.21-1.97-.08-.29-.2-1.58.11-1.68Z" fill="#fdfefe"/>
    </g>
    <g>
      <path d="M18.43,7.57c2.24-.05,4.13-.01,5.9,1.53,6.25,7.33,12.46,14.73,18.52,22.21.76,1.61,1.25,3.35,1.81,5.04,1.79,5.35,3.48,10.73,5.26,16.08-2.89.89-5.84,1.77-8.5,3.22-.06-.12-.21-.04-.3-.02-2.59.56-4.89,1.21-6.54,3.43-.13.17-.58,1-.71,1-.11,0-1.66-.94-1.93-1.07-4.12-2.15-8.65-4.06-13.32-4.54-.1,0-.25-.07-.32.04-3.9-1.96-7.82-3.9-11.72-5.86-3.8-2.24-2.95-6.62-2.96-10.41.17.04.11-.09.15-.18.96-2.07,1.02-3.9,1.53-6.06.63-2.66,2.67-5.46,4.02-7.85,1.5-2.66,3.13-5.57,3.86-8.55.62-2.53.47-5.22,3.1-6.63.58-.31,1.53-.57,2.02-.98.14-.12.14-.21.12-.4ZM30.9,25.98c-1.81-1.84-3.8-3.95-5.69-5.72-1.67-1.57-4.41-1.53-5.87.28-.48,0-1.06-.06-1.49.19-.23.14-.91.85-1.11,1.09-2.72,3.14-1.8,6.11-.52,9.64,1.39,3.82,3.14,7.2,5.78,10.31,2.21,2.6,4.36,5.04,7.29,6.84,1.61.99,4.22,2.2,6,1.14,1.01-.6.5-1.45.5-2.35-.01-1.3.06-2.66.06-3.98.32-.1.35-.63.41-.91.56-2.71,1.1-6.98.94-9.71-.13-2.24-1.78-3.87-3.43-5.19-.82-.65-1.83-1.42-2.87-1.63ZM9.67,28.2c-1.12.22-1.92,2.97-2.1,3.95-.42,2.16-.55,4.09-1.23,6.24-.51,1.61-1.36,3.13-.81,4.88.63,2.01,4.17,4.61,5.91,5.77.32.21,1.05.83,1.4.44.23-.25.11-.52-.01-.79-1.06-1.53-1.97-3.16-2.99-4.71-.24-.36-1.33-1.75-1.37-2-.02-.16,0-.3.02-.46.15-1.07.71-2.34.93-3.47.46-2.32.16-4.2.33-6.46.05-.67.27-1.36.36-2.03.06-.44.29-1.5-.43-1.35ZM14.93,50.1c-.86.15-.04,1.32.36,1.63.5.37,1.54.7,2.15.85.27.07,1.13.34,1.04-.24-.04-.24-1.03-1.21-1.27-1.42-.64-.55-1.4-.97-2.28-.81Z" fill="#b5aaa1"/>
      <path d="M18.43,7.57c.02.18.02.28-.12.4-.49.41-1.44.67-2.02.98-2.63,1.4-2.47,4.09-3.1,6.63-.73,2.98-2.36,5.89-3.86,8.55-1.35,2.39-3.39,5.19-4.02,7.85-.51,2.16-.57,3.99-1.53,6.06-.04.09.01.22-.15.18,0-1.87-.13-4.01,0-5.84.09-1.37.89-2.74,1.48-3.96,2.09-4.35,4.47-8.59,6.26-13.07.27-2.19.17-3.94,1.71-5.69s3.2-2.03,5.35-2.08Z" fill="#7a6c5f"/>
      <path d="M41.42,55.65c-2.87,1.56-5.4,3.83-6.37,7.05l-.14.1c-5.56-2.73-11.08-5.54-16.61-8.32.06-.11.22-.05.32-.04,4.67.47,9.2,2.38,13.32,4.54.27.14,1.82,1.07,1.93,1.07.13,0,.58-.83.71-1,1.65-2.22,3.95-2.87,6.54-3.43.09-.02.24-.1.3.02Z" fill="#7a6c5f"/>
      <path d="M9.67,28.2c.72-.14.49.91.43,1.35-.09.67-.31,1.36-.36,2.03-.16,2.26.14,4.14-.33,6.46-.23,1.14-.78,2.41-.93,3.47-.02.16-.05.3-.02.46.04.25,1.13,1.64,1.37,2,1.03,1.55,1.94,3.18,2.99,4.71.12.27.24.54.01.79-.35.38-1.08-.23-1.4-.44-1.75-1.15-5.28-3.76-5.91-5.77-.55-1.75.31-3.26.81-4.88.67-2.15.81-4.08,1.23-6.24.19-.98.99-3.73,2.1-3.95Z" fill="#fff"/>
      <path d="M19.35,20.54c-.06.08-.24.38-.31.49-1.28.07-2.33,1.81-2.69,2.9-1,2.98.14,4.52,1.24,7.09,1.37,3.2,2.28,5.86,4.52,8.63,1.65,2.05,4.08,4.72,6.05,6.43,1.58,1.38,4.47,2.92,6.64,2.65.71-.09.54-.8.53-1.34.16,0,.33,0,.49,0,0,.9.52,1.74-.5,2.35-1.79,1.06-4.39-.15-6-1.14-2.93-1.8-5.08-4.24-7.29-6.84-2.64-3.11-4.39-6.49-5.78-10.31-1.28-3.53-2.2-6.49.52-9.64.21-.24.88-.96,1.11-1.09.43-.25,1.01-.19,1.49-.19Z" fill="#c4aca8"/>
      <path d="M19.35,20.54c1.46-1.81,4.2-1.85,5.87-.28,1.89,1.77,3.88,3.88,5.69,5.72.15.16.27.37.43.52,1.58,1.61,4.37,3.67,4.53,5.99,0,3.64,0,7.28,0,10.92,0,1.32-.07,2.68-.06,3.98-.16,0-.33,0-.49,0s-.33-.01-.49,0v-4.53c0-1.14,0-2.28,0-3.43,0-1.43,0-2.86,0-4.28,0-1.34.26-3.09-.52-4.22-3.28-3.4-6.64-6.74-9.96-10.1-1.37-1.09-2.96-.93-4.07.37-.38.44-.48.51-.61,1.16-.04.2-.1.39-.06.61-.24,0-.49.01-.73,0-.1,0-.2,0-.31,0,0-.52.11-1.11.31-1.59.03-.07.14-.3.18-.37.06-.11.24-.41.31-.49Z" fill="#242021"/>
      <path d="M30.9,25.98c1.04.21,2.04.97,2.87,1.63,1.66,1.32,3.3,2.95,3.43,5.19.16,2.73-.38,7-.94,9.71-.06.28-.09.8-.41.91,0-3.64,0-7.28,0-10.92-.16-2.32-2.95-4.38-4.53-5.99-.15-.16-.27-.36-.43-.52Z" fill="#7a6c5f"/>
      <path d="M14.93,50.1c.88-.16,1.64.26,2.28.81.24.21,1.24,1.18,1.27,1.42.09.58-.77.31-1.04.24-.61-.15-1.65-.48-2.15-.85-.41-.31-1.22-1.47-.36-1.63Z" fill="#fff"/>
      <path d="M19.04,21.03c-.04.07-.15.29-.18.37-.14-.02-.24.01-.37.06-1.05.4-1.77,2.73-1.84,3.76-.18,2.91,1.22,4.34,2.38,6.74.66,1.36,1.17,2.8,1.85,4.14,1.14,2.28,3.03,4.13,4.7,6,1.99,2.22,3.35,4.13,6.37,5.06,1.18.36,1.67.33,2.86.23.15-.01.33,0,.49,0,.01.54.18,1.25-.53,1.34-2.17.27-5.06-1.27-6.64-2.65-1.96-1.71-4.4-4.38-6.05-6.43-2.23-2.78-3.15-5.43-4.52-8.63-1.1-2.56-2.23-4.11-1.24-7.09.37-1.1,1.41-2.83,2.69-2.9Z" fill="#cfa9aa"/>
      <path d="M20.26,21.21c.27.13.57-.08.87.01.11.03.21.21.33.28.28.16.87.41,1.09.62s.22.24.51.47c1.58,1.23,2.91,2.76,4.26,4.25.2.22.38.66.7.67-.23.48.41,1.34.68,1.73.35.49.8.94,1.11,1.45.33.54.57,1.18.88,1.75.17.31.79,1.46.99,1.64.25.22.58.17.7-.15.19-.5.18-1.82.15-2.39.16-.02.18.03.26.14.77,1.07,1.18,2.17,1.79,3.29.05.1.08.18.22.18,0,1.43,0,2.86,0,4.28-.18,0-.19.19-.31.27-.36.24-.69-.09-.85-.03-.07-.05-.14-.09-.16-.18-.03-.13-.14-.69-.15-.8-.01-.26.2-.7.19-1.07,0-.25-.1-.53-.25-.73-.11-.15-.51-.5-.7-.45-.16.04-.38.62-.4.79-.38.06-.46-.41-.65-.67-.28-.39-.64-.77-.95-1.15-.18-.22-.27-.6-.46-.87-.28-.39-.7-.68-.98-1.1-.98-1.44-2.15-2.69-3.26-4.02-.31-.37-1.33-1.87-1.65-2.02-.1-.05-.26,0-.34-.09-.05-.06-.04-.21-.08-.27-.05-.07-.21-.02-.24-.14-.03-.09.03-.24-.02-.32-.01-.02-.12-.05-.17-.1-.25-.25-.43-.23-.67-.51-.14-.16-.34-.36-.46-.5-.15-.17-.11-.41-.21-.53-.08-.1-.27-.1-.37-.18-.08-.07-.09-.2-.16-.27-.12-.12-.77-.63-.79-.68-.05-.09-.01-.24-.06-.36-.15-.37-.36-.31-.48-.5-.17-.27,0-.67-.52-.61.13-.66.23-.72.61-1.16Z" fill="#f599ad"/>
      <path d="M19.65,22.37c.53-.06.35.34.52.61.12.18.34.13.48.5.05.12.01.27.06.36.03.05.67.56.79.68.07.07.08.2.16.27.1.09.29.08.37.18.1.12.06.35.21.53.12.14.32.34.46.5.25.28.42.25.67.51.05.05.16.08.17.1.04.08-.01.22.02.32.04.11.19.07.24.14.04.06.03.21.08.27.07.09.23.05.34.09.32.14,1.35,1.65,1.65,2.02,1.11,1.32,2.29,2.57,3.26,4.02.28.42.71.7.98,1.1.19.27.28.64.46.87.3.38.66.76.95,1.15.19.26.27.72.65.67-.06.43.14.97.43,1.31.26.31.36.36.73.15,0,.11.12.67.15.8.02.09.09.13.16.18-.1.03-.11.22-.45.18-.17-.02-1.09-.33-1.2-.43-.03-.03-.2-.35-.3-.46-.61-.62-1.56-1.4-2.08-2.02-.12-.15-.18-.44-.3-.61-.44-.62-1.41-1.25-1.86-1.87-1-1.37-2.25-2.66-3.4-3.94-.12-.14-.19-.37-.33-.52-.44-.48-1.1-.67-1.5-1.01-.29-.25-.65-.66-.95-.88-.19-.14-.46-.2-.64-.34-.89-.68-1.67-2.33-1.9-3.39-.1-.44.1-.97.12-1.41.24.01.49,0,.73,0-.04-.22.02-.41.06-.61Z" fill="#f4a1b2"/>
      <path d="M18.49,21.46c-.19.32-.43.56-.6.9-.43.86-.54,1.9-.62,2.83-.22,2.6,1.02,3.75,2.21,5.77,1.03,1.75,1.79,3.87,2.86,5.58.72,1.16,1.79,2.42,2.66,3.45,1.72,2.02,4.47,5.33,7.14,5.83.29.05.55.1.82.16s.25-.09.39-.14c.41-.16.56-.24.85-.61.46-.57.37-.94.43-1.62,0-.12.03-.69.06-.73,0-.01.09,0,.12,0v4.53c-1.19.1-1.68.14-2.86-.23-3.03-.93-4.38-2.84-6.37-5.06-1.68-1.87-3.56-3.72-4.7-6-.68-1.35-1.19-2.79-1.85-4.14-1.16-2.39-2.56-3.83-2.38-6.74.07-1.03.79-3.36,1.84-3.76Z" fill="#d5adb0"/>
      <path d="M34.82,35.16c-.14,0-.16-.08-.22-.18-.61-1.12-1.02-2.22-1.79-3.29-.08-.11-.1-.16-.26-.14-.09-1.82-1.73-3.3-3.32-3.99-.24-.1-1.07-.34-1.2-.05-.32-.02-.5-.45-.7-.67-1.35-1.48-2.67-3.01-4.26-4.25-.29-.23-.28-.24-.51-.47s-.82-.46-1.09-.62c-.12-.07-.22-.25-.33-.28-.3-.09-.61.12-.87-.01,1.11-1.3,2.7-1.46,4.07-.37,3.32,3.36,6.68,6.7,9.96,10.1.78,1.13.51,2.88.52,4.22Z" fill="#ef96a8"/>
      <path d="M33.65,39.68c.16-.06.49.27.85.03.12-.08.13-.28.31-.27,0,1.14,0,2.28,0,3.43-.03,0-.11-.01-.12,0-.03.05-.05.62-.06.73-.28.05-.42.45-.67.52-.32.1-.63-.01-.92-.03.04-.26-.11-.38-.21-.56-.21-.37-.14-.18-.33-.37-.08-.08-.06-.32-.14-.44-.1-.15-.19-.28-.3-.44-.07-.11-.27-.15-.3-.25-.06-.16.07-.34.02-.45-.05-.13-.48-.32-.55-.49-.06-.15-.01-.29-.03-.43.21-.08.79.05.92-.16.04-.07.09-.33.05-.38-.05-.07-.58-.03-.67-.46-.05-.27.6.2.49-.21.11.1,1.03.41,1.2.43.34.04.36-.15.45-.18Z" fill="#e9a4b1"/>
      <path d="M18.86,21.4c-.2.48-.3,1.07-.31,1.59.1,0,.2,0,.31,0-.03.44-.22.97-.12,1.41-.16-.04-.17.19-.18.28-.05.44-.11,1.09-.06,1.52.09.79.58,1.59.91,2.3-.15-.13-.48-.3-.64-.43-.14-.11-.17-.44-.46-.25-.01-.01-.12,0-.22-.18-.34-.69-.4-1.55-.64-2.23-.04-.11-.07-.17-.18-.22.08-.93.2-1.97.62-2.83.17-.34.41-.58.6-.9.13-.05.23-.08.37-.06Z" fill="#e9a4b1"/>
      <path d="M32.55,31.55c.03.56.04,1.89-.15,2.39-.12.32-.45.36-.7.15-.2-.18-.82-1.33-.99-1.64-.31-.56-.55-1.21-.88-1.75-.32-.51-.77-.96-1.11-1.45-.28-.39-.91-1.25-.68-1.73.14-.29.96-.06,1.2.05,1.59.69,3.24,2.17,3.32,3.99Z" fill="#fff"/>
      <path d="M33.35,38.7c-.38.2-.47.15-.73-.15-.29-.34-.49-.88-.43-1.31.03-.17.25-.75.4-.79.18-.04.59.3.7.45.15.2.24.48.25.73.01.37-.2.81-.19,1.07Z" fill="#fdfefe"/>
      <path d="M18.73,24.39c.23,1.06,1.01,2.71,1.9,3.39.18.14.45.2.64.34.3.22.66.64.95.88.4.34,1.06.54,1.5,1.01.14.16.21.39.33.52,1.15,1.28,2.4,2.57,3.4,3.94.45.61,1.42,1.25,1.86,1.87.13.18.18.47.3.61.52.62,1.47,1.39,2.08,2.02.1.11.27.43.3.46.11.42-.54-.06-.49.21.08.44.62.4.67.46.04.06,0,.31-.05.38-.13.21-.71.09-.92.16-.05-.37-.43-.45-.68-.7-.6-.62-1-.91-1.7-1.41-.55-.39-1.23-.88-1.69-1.37-1.4-1.51-2.73-3.1-4.06-4.68-.97-1.16-1.88-1.98-2.88-3.05-.27-.29-.49-.69-.79-.95-.33-.71-.82-1.51-.91-2.3-.05-.43.01-1.08.06-1.52.01-.09.02-.33.18-.28Z" fill="#f0a9b6"/>
      <path d="M18.31,27.82s.07.33.13.45c.75,1.39,1.89,2.43,2.77,3.71.54.78.97,1.7,1.48,2.5.78,1.23,1.76,2.39,2.72,3.46.65.73,1.08,1.55,1.9,2.14.28.2.69.29.97.5.66.49,1.17,1.33,1.74,1.93.3.31,1.32,1.25,1.67,1.39.32.12,1.02.18,1.36.2.29.02.61.13.92.03.25-.08.39-.47.67-.52-.06.68.04,1.05-.43,1.62-.3.37-.44.45-.85.61-.13.05-.1.2-.39.14s-.54-.1-.82-.16c-2.67-.5-5.42-3.8-7.14-5.83-.88-1.03-1.94-2.29-2.66-3.45-1.07-1.71-1.83-3.83-2.86-5.58-1.19-2.02-2.43-3.17-2.21-5.77.11.04.14.11.18.22.24.69.31,1.55.64,2.23.09.19.21.17.22.18Z" fill="#deaeb4"/>
      <path d="M19.41,28.49c.3.26.52.66.79.95,1,1.07,1.9,1.9,2.88,3.05,1.34,1.59,2.66,3.18,4.06,4.68.46.49,1.14.98,1.69,1.37.71.5,1.1.8,1.7,1.41.24.25.63.33.68.7.02.14-.03.28.03.43.07.18.5.36.55.49.05.11-.08.28-.02.45.04.1.23.15.3.25.1.16.2.29.3.44.08.12.06.36.14.44.19.19.12,0,.33.37.1.18.25.3.21.56-.34-.03-1.03-.08-1.36-.2-.36-.14-1.37-1.07-1.67-1.39-.57-.59-1.08-1.44-1.74-1.93-.28-.21-.69-.3-.97-.5-.82-.58-1.25-1.41-1.9-2.14-.96-1.07-1.93-2.23-2.72-3.46-.51-.8-.94-1.72-1.48-2.5-.88-1.28-2.02-2.32-2.77-3.71-.07-.12-.12-.43-.13-.45.29-.19.32.13.46.25.16.13.49.29.64.43Z" fill="#e6adb5"/>
    </g>
  </g>
</svg>