<?xml version="1.0" encoding="UTF-8"?>
<svg xmlns="http://www.w3.org/2000/svg" width="350.35" height="121.57" viewBox="0 0 350.35 121.57">
  <g id="Layer_5" data-name="Layer 5">
    <g opacity=".9">
      <g opacity=".9">
        <path d="M2475.23,1710.97c-3.81.87-10.14,6.54-18.29,15.79-4.16,4.51-8.8,9.89-13.82,16.01-2.48,3.1-5.18,6.22-7.93,9.55-2.76,3.32-5.6,6.81-8.52,10.45-5.88,7.15-12.17,14.8-18.77,22.83-3.32,3.94-6.71,7.97-10.18,12.09-1.72,2.06-3.46,4.14-5.21,6.24-1.78,2.05-3.58,4.11-5.38,6.19-14.3,16.88-29.93,33.87-45.79,50.69-4,4.14-8.01,8.28-12.02,12.42-3.99,4.14-8.12,8.06-12.14,12.09-2.02,2-4.03,4-6.03,5.99-2.01,1.98-4.07,3.86-6.09,5.79-4.04,3.83-8.05,7.64-12.02,11.39-4.03,3.64-8.01,7.23-11.93,10.78-1.96,1.77-3.9,3.53-5.83,5.27-1.96,1.68-3.9,3.35-5.82,5.01-3.84,3.31-7.6,6.56-11.28,9.73-3.73,3.06-7.37,6.05-10.91,8.95-28.35,23.13-51.06,38.68-59.84,43.48-19.52,11.56-44.93,28.14-75.27,46.64-30.29,18.63-65.64,38.85-104.42,58.81-19.44,9.82-39.68,19.73-60.61,29.15-20.94,9.38-42.49,18.51-64.42,27.11-21.96,8.51-44.28,16.57-66.69,24.05-22.43,7.43-44.93,14.23-67.29,20.38-11.24,2.97-22.4,5.91-33.44,8.82-5.51,1.54-11.06,2.72-16.56,4.02-5.5,1.28-10.97,2.56-16.4,3.82-5.43,1.27-10.83,2.53-16.18,3.78-5.39,1.1-10.73,2.19-16.03,3.27-10.61,2.13-21.01,4.37-31.24,6.3-10.27,1.81-20.31,3.59-30.09,5.31-4.9.83-9.72,1.79-14.51,2.49-4.79.72-9.51,1.43-14.16,2.13-9.3,1.39-18.31,2.74-27,4.04-8.73,1.09-17.13,2.15-25.16,3.15-64.36,7.8-106.11,9.61-106.43,6.57.83-2.29-.84-5.57-4.51-9.56-3.67-4.02-9.36-8.83-16.56-14.06-7.19-5.24-15.9-10.94-25.62-16.8-9.72-5.88-20.54-12.14-31.85-18.17-45.32-24.26-99.64-47.78-133.04-50.73-40.75-3.74-81.78-6.19-122.52-7.13-40.79-1.01-81.4-.22-120.99,1.71-19.79.91-39.41,2.39-58.74,4.12-19.33,1.73-38.39,3.75-57.12,6.04-37.48,4.73-73.71,10.83-108.22,17.63-68.32,12.43-78.17,21.4-108.81,18.57-6.23-.13-17.97,8.21-39.26,18.85-10.65,5.32-23.68,11.23-39.6,16.95-7.96,2.87-16.65,5.67-26.12,8.37-9.48,2.79-19.74,5.45-30.86,7.89-61.19,12.13-141.92,10.58-197.33,26.24-13.51,3.03-30.73,6.26-50.75,9.62-20.02,3.26-42.85,6.98-67.59,11.01-12.36,1.93-25.2,3.93-38.4,5.99-13.2,2.04-26.76,3.95-40.56,6.32-27.6,4.44-56.19,9.03-84.87,13.64-114.7,19.05-230.5,41.8-289.98,56.19-7.08,1.65-14.05,3.27-20.92,4.87-6.86,1.73-13.61,3.43-20.26,5.11-13.3,3.31-26.2,6.53-38.75,9.66-12.55,3.06-24.74,6.02-36.62,8.92-5.95,1.37-11.8,2.96-17.58,4.45-5.78,1.49-11.49,2.97-17.13,4.42-22.57,5.78-44.08,11.11-64.87,16.05-2.6.61-5.19,1.23-7.76,1.83-2.57.66-5.13,1.32-7.69,1.97-5.1,1.3-10.17,2.58-15.2,3.86-10.07,2.47-19.99,4.91-29.82,7.32-9.84,2.3-19.59,4.57-29.28,6.83-9.69,2.24-19.35,4.24-28.98,6.55-9.64,2.18-19.27,4.36-28.93,6.55-9.68,2.17-19.38,4.35-29.16,6.54-39.15,8.78-79.61,17.58-124.12,28.06-8.39,1.82-16.68,3.69-24.88,5.61-8.19,2.03-16.29,4.2-24.33,6.36-4.01,1.1-8.01,2.2-11.99,3.29-3.98,1.14-7.93,2.38-11.87,3.58-7.87,2.48-15.69,4.93-23.46,7.38-31,10.53-61.19,21.93-91.16,35.19-30.04,12.86-59.84,27.6-90.38,43.17-15.18,8.21-30.69,16-46.28,24.97-3.91,2.18-7.85,4.36-11.8,6.56-3.95,2.21-7.95,4.3-11.9,6.71-7.95,4.63-15.99,9.32-24.12,14.06-2.13,1.26-4.25,2.52-6.36,3.77-2.09,1.34-4.18,2.68-6.25,4.01-4.15,2.68-8.26,5.34-12.34,7.98-4.08,2.65-8.12,5.28-12.13,7.89-4,2.65-8.02,5.11-11.88,7.96-7.76,5.56-15.4,11.03-22.96,16.44-3.77,2.72-7.52,5.42-11.25,8.11-3.66,2.86-7.3,5.7-10.92,8.53-7.23,5.69-14.39,11.32-21.49,16.91-1.77,1.4-3.54,2.8-5.31,4.2-1.73,1.48-3.46,2.95-5.19,4.42-3.45,2.95-6.9,5.89-10.33,8.82-6.86,5.87-13.69,11.72-20.49,17.55-6.67,6.14-13.32,12.25-19.97,18.37l-9.97,9.2c-3.32,3.08-6.68,6.08-9.9,9.37-6.52,6.44-13.05,12.9-19.61,19.4-3.28,3.25-6.58,6.5-9.88,9.76-3.33,3.22-6.49,6.78-9.77,10.16-6.51,6.86-13.06,13.76-19.69,20.74-6.7,6.84-13.16,14.3-19.8,21.69-6.63,7.4-13.34,14.89-20.15,22.49-6.66,7.87-13.41,15.85-20.27,23.96-3.44,4.05-6.9,8.14-10.39,12.26l-2.63,3.1-2.57,3.22c-1.72,2.15-3.44,4.31-5.18,6.48-6.69,7.95-13.35,15.85-19.98,23.72l-4.96,5.92-4.81,6.12c-3.2,4.08-6.4,8.16-9.59,12.23-6.36,8.18-12.79,16.22-19.02,24.5-6.14,8.43-12.26,16.84-18.38,25.23l-9.15,12.63c-3.05,4.21-5.92,8.65-8.89,12.97l-17.63,26.14-4.4,6.55-4.26,6.74-8.49,13.53c-5.64,9.06-11.35,18.06-16.94,27.26-21.91,37.27-43.52,75.61-63.64,116.96-2.54,5.15-5.08,10.31-7.63,15.49-2.53,5.2-5.16,10.32-7.54,15.72-4.86,10.69-9.75,21.46-14.67,32.3-2.43,5.46-4.98,10.83-7.32,16.42-2.34,5.6-4.68,11.21-7.03,16.86-4.68,11.3-9.47,22.65-14.13,34.22-4.44,12.81-8.88,25.6-12.81,37.61-1.94,6.02-3.84,11.77-5.39,17.35-1.52,5.61-2.85,10.91-3.93,15.81-1.11,4.94-3.06,11.65-5.49,19.35-1.22,3.85-2.55,7.95-3.96,12.19-.71,2.12-1.43,4.28-2.16,6.47-.69,2.22-1.38,4.47-2.08,6.73-5.6,18.08-11.73,36.91-15.37,50.11-25.82,77.91-48.53,154.14-66.18,232.88-17.58,78.65-30.06,159.91-33.67,245.55-.47,11.85-.7,25.15-.69,38.18-.03,3.26.11,6.51.23,9.72.14,3.21.28,6.37.42,9.47.31,6.19.67,12.11,1.08,17.53.82,10.85,1.85,19.75,3.02,25.04.58,2.67,1.22,4.37,1.89,4.96.67.61,1.35.18,2.03-1.5,3.58-8.84,7.08-18.55,10.49-29.04,1.71-5.24,3.4-10.68,5.07-16.3.82-2.8,1.65-5.66,2.49-8.56.83-2.9,1.62-5.84,2.56-8.82,3.62-11.91,7.19-24.5,10.72-37.68.87-3.29,1.75-6.62,2.63-9.99.89-3.37,1.7-6.78,2.72-10.19,1.94-6.85,3.88-13.83,5.81-20.94s3.85-14.34,5.77-21.69c.96-3.67,1.92-7.37,2.89-11.11,1.06-3.7,2.12-7.44,3.19-11.21,2.09-7.51,4.21-15.14,6.37-22.89,1.05-3.86,2.11-7.75,3.18-11.66,1.09-3.9,2.04-7.86,3.27-11.77,4.69-15.7,9.38-31.75,14.06-48.05,5.03-16.08,10.17-32.51,15.4-49.22,20.04-62.72,40.92-133.59,66.2-207.46,25.18-73.84,55.22-150.33,90.71-223.31,3.07-6.3,6.12-12.55,9.14-18.74,1.49-3.11,3.11-6.07,4.7-9.05,1.6-2.96,3.19-5.92,4.78-8.85,3.2-5.84,6.37-11.62,9.5-17.35,1.58-2.84,3.16-5.68,4.73-8.49.79-1.4,1.58-2.8,2.36-4.2l2.46-4.07c6.56-10.8,13.06-21.3,19.51-31.48,1.62-2.53,3.2-5.1,4.85-7.55,1.67-2.43,3.34-4.85,5-7.26,3.34-4.77,6.65-9.5,9.92-14.18,12.94-18.85,26.61-35.38,39.56-51.22,3.2-4,6.62-7.65,9.92-11.35,3.33-3.65,6.63-7.25,9.89-10.82,3.28-3.51,6.53-6.99,9.75-10.43,1.62-1.7,3.22-3.39,4.82-5.07,1.62-1.65,3.29-3.21,4.92-4.8,51.98-51.16,100.7-81.53,142.31-100.81,7.51-2.84,14.96-5.22,22.43-7.43,7.48-2.2,14.91-4.38,22.74-6.16,15.58-3.71,31.37-8.47,49.12-14.63,4.4-1.61,8.88-3.4,13.45-5.4,2.29-1,4.6-2.05,6.93-3.16,2.37-1.02,4.79-2.07,7.22-3.19,4.87-2.24,9.85-4.71,14.96-7.47,2.55-1.38,5.14-2.83,7.75-4.35,2.62-1.52,5.25-3.16,8.01-4.65,5.48-3.08,11.1-6.46,16.88-10.2,2.89-1.87,5.82-3.82,8.8-5.86,1.48-1.03,2.98-2.07,4.5-3.12,1.53-1,3.08-2.01,4.65-3.03,6.24-4.13,12.67-8.63,19.3-13.55,1.65-1.24,3.32-2.5,5.01-3.77.84-.64,1.69-1.29,2.54-1.94.86-.61,1.73-1.23,2.6-1.85,3.49-2.48,7.03-5.06,10.63-7.75,4.19-3.25,8.36-6.49,12.52-9.73,2.08-1.61,4.14-3.3,6.23-4.87,2.1-1.52,4.21-3.04,6.31-4.56,8.4-6.09,16.69-12.29,25.01-18.48,8.6-5.92,17.16-11.9,25.68-17.93,8.6-5.87,17.3-11.49,25.91-17.3,34.71-22.64,70.15-43.62,106.8-62.42,36.65-18.77,74.47-35.45,113.98-49.09,39.51-13.65,80.62-24.47,123.8-31.75,15-2.47,29.88-4.42,44.36-6.51,14.6-1.89,28.92-3.74,43.06-5.57,7.11-.86,14.18-1.71,21.22-2.55,3.52-.42,7.03-.84,10.53-1.26,3.52-.37,7.04-.74,10.55-1.11,14.03-1.54,27.98-3.06,41.95-4.59,13.95-1.65,27.91-3.3,42-4.96,14.11-1.51,28.34-3.03,42.79-4.58,28.9-3.1,58.52-7.26,89.99-10.63,8.76-.23,30.91-1.78,53.84-3.66,5.73-.48,11.52-.96,17.16-1.44,5.65-.39,11.16-.78,16.33-1.14,10.33-.76,19.29-1.52,25.31-2.18,17.64-3.1,35.68-5.99,53.92-8.76,18.28-2.5,36.8-4.69,55.31-6.97,9.26-1.13,18.52-2.26,27.77-3.38,9.25-1.1,18.46-2.36,27.68-3.26,18.42-1.96,36.66-4.01,54.56-6.25,35.75-4.76,70.25-9.05,101.82-15.38,7.89-1.57,15.61-3.24,23.12-5.03,3.76-.9,7.46-1.82,11.12-2.78,3.66-.89,7.27-1.82,10.82-2.78,14.2-3.83,27.5-8.21,39.72-13.23,19.72-2.72,38.24-5.16,55.84-6.92,17.61-1.68,34.26-3.04,50.19-4.21,15.93-1.16,31.13-2.19,45.84-3.07,14.74-.74,28.98-1.45,42.97-2.15,27.99-1.46,54.92-3.56,82.83-6.26,13.95-1.43,28.11-3.21,42.75-5.45,14.64-2.21,29.72-5.07,45.55-8.1,20.09-4.2,40.2-8.41,60.39-12.64,10.1-2.09,20.23-4.19,30.37-6.3,10.16-1.98,20.35-3.96,30.57-5.95,20.45-3.94,41.03-7.82,61.79-11.57,20.78-3.66,41.76-7.01,62.96-10.27,42.39-6.66,85.79-11.86,130.47-16.05,5.59-.5,11.19-1,16.82-1.5,5.63-.42,11.29-.83,16.96-1.25,11.35-.79,22.79-1.5,34.32-2.12,23.08-1.21,46.47-2.17,70.41-2.45,108.79-2.31,210.43.94,317.37,5.43,9.51.15,25.06,2.26,43.79,5.22,9.38,1.4,19.55,3.06,30.13,4.87,5.3.92,10.69,1.85,16.14,2.79,5.47.9,11,1.81,16.53,2.73,11.09,1.89,22.21,3.79,32.96,5.63,10.83,1.75,21.29,3.44,31.01,5.01,4.87.81,9.56,1.59,14.01,2.34,4.48.67,8.72,1.3,12.67,1.88,7.93,1.23,14.73,2.28,20,3.1,4.92.76,9.99,1.38,15.19,1.87,5.21.43,10.57.62,16.03.75,10.92.22,22.3-.05,33.96-.74,11.7-.96,23.69-2.39,35.81-4.15,3.03-.46,6.07-.92,9.11-1.38,3.04-.46,6.09-.99,9.16-1.63,6.12-1.21,12.25-2.5,18.38-3.86,6.13-1.36,12.25-2.78,18.34-4.25,3.05-.76,6.08-1.45,9.12-2.29,3.03-.87,6.06-1.74,9.08-2.6,12.06-3.52,23.93-7.21,35.47-10.98,23.15-7.93,44.98-16.58,64.19-25.32,60.12-29.83,120.12-61.55,182.23-98.39,62.06-36.93,126.32-78.95,193.63-131.82,24.34-17.61,48.21-33.11,72.59-50.03,24.34-17.02,49.17-35.59,74.87-59.52,29.85-29.32,56.24-59.64,80.1-90.58,23.86-30.95,45.24-62.57,65-94.79,19.75-32.23,37.93-65.01,55.34-98.94,17.43-33.91,34.2-68.87,51.07-105.69,16.48-33.58,30.89-65.51,43.53-95.69,3.19-7.52,6.16-15.02,9.15-22.31,1.48-3.65,2.95-7.27,4.4-10.85,1.4-3.62,2.8-7.2,4.17-10.75,2.74-7.1,5.47-14.03,8.05-20.88,2.54-6.88,5.02-13.62,7.46-20.23,2.46-6.58,4.75-13.12,6.98-19.51,2.24-6.39,4.42-12.65,6.57-18.78,4.1-12.37,8.11-24.14,11.73-35.53,3.57-11.42,7.1-22.25,10.2-32.75,3.1-10.5,6.15-20.44,8.84-30.03,11-38.25,18.64-69.53,24.58-94.78,2.85-12.68,5.41-23.8,7.41-33.69,2.02-9.88,3.71-18.44,5.13-25.86,2.69-14.9,4.31-25.26,5.31-32.6.95-7.36,1.26-11.71,1.41-14.56.27-5.7-.23-5.42,1.69-11.35,1.85-7.53,3.63-14.46,5.51-20.91,1.88-6.46,3.82-12.45,5.82-18.18,3.88-11.5,8.06-21.92,12.35-32.85,4.19-10.96,8.73-22.36,13.11-35.87,2.2-6.75,4.43-14.01,6.67-21.96,2.18-7.97,4.33-16.65,6.5-26.21,2.71-13.02,5.07-26.12,7.39-39.14,2.13-13.04,4.11-26.04,5.96-38.9,3.88-25.69,6.43-51.01,8.73-75.18,4.36-48.38,6.04-92.39,6.05-127.54.1-6.49.2-13.03.3-19.62.11-6.58.07-13.21.12-19.87.08-13.3.17-26.76.25-40.39.04-27.14.08-54.91.12-83.26-.16-28.28.06-57.02-.08-86.22.03-14.57.07-29.27.11-44.08-.01-14.8.04-29.7.16-44.68.31-59.95,1.27-121.35,3.23-183.76,1.09-31.2,2.29-62.65,4.09-94.29,1.67-31.64,3.85-63.46,6.43-95.39-3.42,15.25-7.58,20.8-8.51,38.23-14.59,178.92-33.47,339.3-56.52,499.83-11.54,80.27-24.1,160.59-38.16,243.31-7.02,41.37-14.49,83.32-22.42,126.19-7.84,42.88-16.44,86.52-25.72,131.41-5.51,35.32-12.68,80.17-22.9,121.46-9.56,36.58-19.04,71.16-28.69,104.61-2.46,8.33-4.8,16.68-7.29,24.88-2.48,8.21-4.95,16.37-7.4,24.51-2.54,8.08-5.07,16.14-7.6,24.18-2.49,8.07-5.2,15.96-7.79,23.95-9.57,27.24-23.16,57.72-39.2,87.26-16,29.59-34.28,58.32-52.44,83.05-9.01,12.45-18.17,23.7-26.72,33.94-8.78,9.98-16.88,19.06-24.52,26.33-3.78,3.68-7.36,7.02-10.7,9.99-3.36,2.94-6.55,5.42-9.42,7.55-5.76,4.24-10.39,6.9-13.67,7.69Z" fill="#cae2e0"/>
      </g>
    </g>
  </g>
  <g id="Layer_11" data-name="Layer 11">
    <g>
      <g>
        <path d="M238.26,18.48c-3.45,0-5.96,1.47-7.52,4.41-1.56,2.94-2.34,7.95-2.34,15.02,0,6.63.78,11.45,2.34,14.46,1.56,3.01,4.06,4.53,7.52,4.53s5.95-1.51,7.52-4.53c1.56-3.01,2.34-7.84,2.34-14.46,0-7.06-.78-12.07-2.34-15.02-1.56-2.94-4.06-4.41-7.52-4.41Z" fill="none"/>
        <path d="M76.94,27.38l-7.41,25.05h-7.26l-7.48-25.05v65.08c7.12-4.6,14.51-8.79,22.15-12.57V27.38Z" fill="none"/>
        <path d="M280.47,82.98c5.74,3.06,11.32,6.35,16.75,9.88l-16.75-60.38v50.5Z" fill="none"/>
        <path d="M56.3,32.46l5.8,19.41c.1.33.4.55.74.55h6.11c.34,0,.65-.23.74-.56l5.73-19.36c.25-.86,1.52-.67,1.52.22v45.93c0,.57.59.94,1.11.69,3.92-1.91,7.9-3.71,11.94-5.39.29-.12.47-.4.47-.71V2.19c0-.43-.35-.77-.77-.77h-11.81c-.31,0-.59.18-.71.47l-10.53,24.26c-.27.62-1.15.62-1.42,0L54.63,1.88c-.12-.28-.4-.46-.71-.46h-11.88c-.43,0-.77.35-.77.77v98.19c0,.64.72,1,1.23.62,3.88-2.89,7.86-5.67,11.94-8.31.22-.14.35-.38.35-.64v-59.36c0-.89,1.26-1.08,1.52-.22Z"/>
        <path d="M108.9,1.42h-11.19c-.43,0-.77.35-.77.77v67.9c0,.54.53.91,1.04.72,3.91-1.45,7.87-2.81,11.89-4.04.33-.1.55-.4.54-.74l-.72-63.85c0-.42-.35-.77-.77-.77Z"/>
        <path d="M151.81,46.68c0-3.28-.36-6.21-1.08-8.79-.72-2.59-2.07-4.87-4.06-6.83-1.99-1.96-4.88-3.63-8.66-5.01-3.26-1.18-5.53-2.14-6.8-2.9-1.27-.75-1.91-1.95-1.91-3.58,0-1.9.74-3.08,2.23-3.54s3.29-.69,5.4-.69c1.82,0,3.76.26,5.82.78,1.71.44,3.49,1.12,5.34,2.05.52.26,1.14-.1,1.14-.68V3.98c0-.32-.18-.6-.48-.72-1.61-.64-3.65-1.23-6.11-1.77-2.71-.59-5.33-.88-7.88-.88-6.38,0-11.18,1.62-14.42,4.87-3.24,3.24-4.86,7.98-4.86,14.19,0,3.41.4,6.29,1.19,8.65.79,2.36,2.1,4.36,3.92,6,1.82,1.64,4.29,3.14,7.41,4.52,2.35.98,4.25,1.8,5.72,2.45,1.46.66,2.54,1.38,3.24,2.17.69.78,1.04,1.86,1.04,3.24,0,1.97-.61,3.23-1.84,3.78-1.22.56-3.04.84-5.43.84s-4.77-.42-7.41-1.28c-2.17-.7-4.18-1.57-6.02-2.63-.52-.3-1.17.06-1.17.66v15.88c0,.51.48.88.97.74,10.76-2.92,21.83-5.05,33.17-6.34.33-.04.61-.28.67-.61.72-3.68.86-8.1.86-11.05Z"/>
        <path d="M189.84,57.35c.41.03.77-.27.82-.67.48-4.13.34-8.88.34-11.57,0-3.16-.36-5.99-1.08-8.49-.72-2.5-2.07-4.7-4.06-6.6-1.99-1.89-4.88-3.51-8.66-4.84-3.26-1.14-5.53-2.07-6.8-2.8-1.27-.72-1.91-1.88-1.91-3.46,0-1.83.74-2.97,2.23-3.41,1.49-.44,3.29-.66,5.4-.66,1.82,0,3.76.25,5.82.75,1.72.42,3.5,1.09,5.35,1.99.52.25,1.13-.11,1.13-.69V3.89c0-.32-.19-.61-.48-.72-1.61-.62-3.64-1.19-6.1-1.71-2.71-.57-5.33-.85-7.88-.85-6.38,0-11.18,1.57-14.42,4.7-3.24,3.13-4.86,7.7-4.86,13.7,0,3.29.4,6.07,1.19,8.35.79,2.28,2.1,4.21,3.92,5.79,1.82,1.58,4.29,3.03,7.41,4.36,2.35.95,4.25,1.74,5.72,2.37,1.46.64,2.54,1.33,3.24,2.09.69.75,1.04,1.8,1.04,3.13,0,1.9-.61,3.12-1.84,3.65s-3.04.81-5.43.81-4.77-.41-7.41-1.24c-2.18-.68-4.18-1.52-6.03-2.55-.52-.29-1.16.07-1.16.67v10.54c0,.45.39.81.84.77,6.44-.56,12.95-.86,19.54-.86,4.75,0,9.46.16,14.14.46Z"/>
        <path d="M209.56,1.42h-13.52v56.4c4.55.41,9.06.94,13.52,1.62V1.42Z"/>
        <path d="M261.92,37.9c0-8.93-.91-16.13-2.73-21.61-1.83-5.47-4.5-9.45-8.02-11.94-3.52-2.5-7.83-3.75-12.91-3.75s-9.39,1.25-12.91,3.75c-3.53,2.49-6.2,6.47-8.02,11.94-1.82,5.48-2.73,12.68-2.73,21.61,0,7.01-.46,15.34.2,21.84.03.34.3.61.64.67,15.25,2.74,29.95,7.04,43.96,12.71.47.19.99-.1,1.05-.59,1.47-10.78,1.48-26.78,1.48-34.63ZM245.77,52.36c-1.56,3.01-4.06,4.53-7.52,4.53s-5.96-1.51-7.52-4.53c-1.56-3.01-2.34-7.84-2.34-14.46,0-7.06.78-12.07,2.34-15.02,1.56-2.94,4.06-4.41,7.52-4.41s5.95,1.47,7.52,4.41c1.56,2.94,2.34,7.95,2.34,15.02,0,6.63-.78,11.45-2.34,14.46Z"/>
        <path d="M281.99,37.97l15.15,54.61c.05.18.16.34.32.44,3.66,2.39,7.26,4.88,10.77,7.47.51.38,1.23.02,1.23-.62V2.19c0-.43-.35-.77-.77-.77h-11.97c-.43,0-.77.35-.77.77v30.79c0,.82-1.1,1.08-1.47.35l-15.8-31.49c-.13-.26-.4-.43-.69-.43h-10.26c-.43,0-.77.35-.77.77v73.65c0,.3.18.58.45.7,4.05,1.83,8.02,3.77,11.94,5.83.52.27,1.13-.1,1.13-.68v-43.52c0-.9,1.28-1.08,1.52-.21Z"/>
      </g>
      <g>
        <path d="M87.05,120.96c-3.37,0-5.95-.82-7.73-2.47-1.78-1.64-2.67-4.3-2.67-7.97,0-2.53.4-4.57,1.2-6.12.8-1.55,1.98-2.68,3.53-3.38,1.55-.71,3.44-1.06,5.68-1.06s4.13.35,5.68,1.06c1.55.71,2.73,1.83,3.53,3.38.8,1.55,1.2,3.59,1.2,6.12,0,3.67-.9,6.33-2.69,7.97-1.79,1.65-4.37,2.47-7.72,2.47ZM87.05,115.9c1.52,0,2.62-.43,3.31-1.28.69-.85,1.03-2.22,1.03-4.1,0-2-.34-3.42-1.03-4.25-.69-.83-1.79-1.25-3.31-1.25s-2.62.42-3.31,1.25c-.69.83-1.03,2.25-1.03,4.25,0,1.88.34,3.24,1.03,4.1.68.85,1.79,1.28,3.31,1.28Z" fill="#231f20"/>
        <path d="M106.16,120.64v-20.37h10.6c1.67,0,3.03.3,4.1.92,1.07.61,1.86,1.46,2.39,2.55.53,1.09.79,2.35.79,3.78s-.34,2.58-1.03,3.62c-.69,1.04-1.6,1.84-2.74,2.39.23.19.43.42.6.68.17.26.36.63.57,1.09l2.34,5.35h-6.2l-2.15-4.9c-.17-.38-.38-.65-.62-.81-.24-.16-.58-.24-1.03-.24h-1.68v5.95h-5.95ZM112.1,110.14h3.13c.86,0,1.53-.23,2.01-.68.47-.45.71-1.1.71-1.94,0-1.79-.84-2.69-2.53-2.69h-3.32v5.31Z" fill="#231f20"/>
        <path d="M143.24,120.96c-3.63,0-6.39-.89-8.29-2.67-1.9-1.78-2.85-4.33-2.85-7.64s.98-6.05,2.94-7.91c1.96-1.86,4.83-2.79,8.6-2.79,1.26,0,2.41.08,3.43.22,1.02.15,1.99.37,2.9.66v5.09c-.93-.36-1.89-.6-2.88-.73-.99-.13-2-.19-3.04-.19-1.96,0-3.43.44-4.41,1.33-.98.89-1.47,2.32-1.47,4.3,0,1.86.43,3.2,1.28,4.02.85.82,2.11,1.24,3.78,1.24.55,0,1.06-.04,1.55-.11.49-.07.94-.17,1.36-.3v-2.97h-4.05v-3.67h9.01v10.25c-.78.49-1.82.92-3.12,1.3s-2.88.57-4.76.57Z" fill="#231f20"/>
        <path d="M159.18,120.64l7.81-20.37h6.3l7.81,20.37h-6.2l-1.71-4.33h-6.14l-1.68,4.33h-6.2ZM167.85,112.04h4.56l-2.28-5.98-2.28,5.98Z" fill="#231f20"/>
        <path d="M189.8,120.64v-20.37h5.06l7.69,10.79v-10.79h5.95v20.37h-5.09l-7.66-10.76v10.76h-5.95Z" fill="#231f20"/>
        <path d="M217.83,120.64v-20.37h5.95v20.37h-5.95Z" fill="#231f20"/>
        <path d="M232.48,120.64v-2.97l8.86-12.84h-8.38v-4.55h16.2v3.1l-8.76,12.72h8.95v4.55h-16.86Z" fill="#231f20"/>
        <path d="M257.88,120.64v-20.37h15.44v4.55h-9.49v3.32h8.32v4.62h-8.32v3.32h9.49v4.55h-15.44Z" fill="#231f20"/>
      </g>
      <g>
        <path d="M310.6,9.87c-.38,0-.76.04-1.14.08v38.44c.38.04.75.08,1.14.08,8.11,0,14.69-8.64,14.69-19.29s-6.58-19.29-14.69-19.29Z" fill="none" stroke="#231f20" stroke-miterlimit="10" stroke-width="1.5"/>
        <path d="M310.6,51.04c-.38,0-.76.04-1.14.08v38.44c.38.04.75.08,1.14.08,8.11,0,14.69-8.64,14.69-19.29s-6.58-19.29-14.69-19.29Z" fill="none" stroke="#231f20" stroke-miterlimit="10" stroke-width="1.5"/>
        <ellipse cx="330.79" cy="51.04" rx="18.93" ry="14.97" fill="none" stroke="#231f20" stroke-miterlimit="10" stroke-width="1.5"/>
        <path d="M338.26,21.02c-5.74-5.85-16.38-4.48-23.77,3.06-2.25,2.29-3.93,4.9-5.03,7.57v13.82c.54,1.03,1.2,1.99,2.03,2.84,5.74,5.85,16.38,4.48,23.77-3.06,7.39-7.53,8.74-18.38,3-24.23Z" fill="none" stroke="#231f20" stroke-miterlimit="10" stroke-width="1.5"/>
        <path d="M309.46,70.98c4.86-7.13,5.17-15.83.24-20.85-.08-.08-.16-.14-.24-.22v21.07Z" fill="none" stroke="#231f20" stroke-miterlimit="10" stroke-width="1.5"/>
        <path d="M309.46,29.77v18.69c3.93-4.75,3.78-12.2,0-18.69Z" fill="none" stroke="#231f20" stroke-miterlimit="10" stroke-width="1.5"/>
        <path d="M334.37,54.1c-7.39-7.53-18.04-8.9-23.77-3.06-.42.43-.79.89-1.14,1.37v17.18c1.05,2,2.42,3.93,4.14,5.67,7.39,7.53,18.04,8.9,23.77,3.06,5.74-5.85,4.39-16.69-3-24.23Z" fill="none" stroke="#231f20" stroke-miterlimit="10" stroke-width="1.5"/>
      </g>
      <g>
        <path d="M39.75,9.71c.38,0,.76.04,1.14.08v38.44c-.38.04-.75.08-1.14.08-8.11,0-14.69-8.64-14.69-19.29s6.58-19.29,14.69-19.29Z" fill="none" stroke="#231f20" stroke-miterlimit="10" stroke-width="1.5"/>
        <path d="M39.75,50.88c.38,0,.76.04,1.14.08v38.44c-.38.04-.75.08-1.14.08-8.11,0-14.69-8.64-14.69-19.29s6.58-19.29,14.69-19.29Z" fill="none" stroke="#231f20" stroke-miterlimit="10" stroke-width="1.5"/>
        <ellipse cx="19.55" cy="50.88" rx="18.93" ry="14.97" fill="none" stroke="#231f20" stroke-miterlimit="10" stroke-width="1.5"/>
        <path d="M12.08,20.86c5.74-5.85,16.38-4.48,23.77,3.06,2.25,2.29,3.93,4.9,5.03,7.57v13.82c-.54,1.03-1.2,1.99-2.03,2.84-5.74,5.85-16.38,4.48-23.77-3.06-7.39-7.53-8.74-18.38-3-24.23Z" fill="none" stroke="#231f20" stroke-miterlimit="10" stroke-width="1.5"/>
        <path d="M40.89,70.82c-4.86-7.13-5.17-15.83-.24-20.85.08-.08.16-.14.24-.22v21.07Z" fill="none" stroke="#231f20" stroke-miterlimit="10" stroke-width="1.5"/>
        <path d="M40.89,29.61v18.69c-3.93-4.75-3.78-12.2,0-18.69Z" fill="none" stroke="#231f20" stroke-miterlimit="10" stroke-width="1.5"/>
        <path d="M15.98,53.94c7.39-7.53,18.04-8.9,23.77-3.06.42.43.79.89,1.14,1.37v17.18c-1.05,2-2.42,3.93-4.14,5.67-7.39,7.53-18.04,8.9-23.77,3.06s-4.39-16.69,3-24.23Z" fill="none" stroke="#231f20" stroke-miterlimit="10" stroke-width="1.5"/>
      </g>
    </g>
  </g>
</svg>