<?xml version="1.0" encoding="UTF-8"?>
<svg id="Layer_1" data-name="Layer 1" xmlns="http://www.w3.org/2000/svg" width="114.53" height="122.37" viewBox="0 0 114.53 122.37">
  <path d="M52.36,121.5c-.75.18-1.77.18-2.52,0,.84,0,1.68,0,2.52,0Z" fill="#918377"/>
  <path d="M90.66,100.4c.09-.25.38-.37.52-.52-.07.58-.34.41-.52.52Z" fill="#908276"/>
  <g>
    <g>
      <path d="M79.96,70.81c.86,1.48,2.04,3.87,3,5.14.59.79,1.5.89,2.3.32s2.24-2.35,2.99-3.15l-1.05,6.09c-1.85,5.25-3.28,10.89-4.57,16.37-.32,1.35-.47,3.28-1.14,4.42-1.37,2.33-3.12,4.42-4.42,6.91-.47.9-1.53,2.98-1.52,3.94,0,.32.16.34.21.47.12.32.2.8.63.9l9.37-7.6,8.07,7.47c.11,2.24.13,4.54.08,6.79-7.4-2.25-14.76-4.61-22.17-6.85-1-.3-7.9-2.61-8.27-2.39-.2-.59-1.07-.93-1.61-1.17-2.81-1.29-6.39-2.42-9.36-3.45-7.7-2.67-15.55-4.92-23.38-7.15-.22-.13-.53-1.5-.72-1.91-.1-.23-.2-.59-.51-.59,0-1.15,0-2.31,0-3.46l.84-.21c.01.44.52,2.13,1.08,1.98s.7-2.27.49-2.72l38.72-15.53c.63.67,1.63.84,2.36.21.52-.45,1.39-1.85,1.94-2.1.13-.06.41-.06.63-.16,1.98-.89,3.96-1.79,5.98-2.57Z" fill="#b5aaa1"/>
      <path d="M69.05,75.43l-38.72,15.53s-.59-.53-.66-.55c-.64-.27-.92.84-.91,1.29l-.84.21c0-1.15,0-2.31,0-3.46l1.57-.52c.09.35.09.82.63.58.36-.16.42-.94.53-1.31l15.43-7.14c.59.84,1.12,1.63,2.31,1.1.62-.28,1.86-2.41,2.31-3.1l15.43-6.4c.91,1.13,2.02,2.79,2.94,3.78Z" fill="#7b6d60"/>
      <path d="M46.07,80.05l-15.43,7.14c.21-.72.46-1.55.6-2.29.11-.58.15-2.02.32-2.41.18-.42,2.53-2.6,3.07-3.23.5-.6,1.01-1.26,1.45-1.91.73-1.05,1.7-2.36,1.38-3.7-.14-.03-.28,0-.42.04-1.53.35-6.55,5.81-7.4,7.3-1.05,1.84-.65,4.93-.15,6.93l-1.57.52c0-2.66-.05-5.32.05-7.97l.74-.52,9.55-9.44c.21.26.2.57.38.87.42.68,1.34.93,2.03.51,1.93,2.6,3.54,5.5,5.4,8.16Z" fill="#918377"/>
      <path d="M66.11,71.65l-15.43,6.4c1.16-1.79,2.24-3.64,3.36-5.46.24-.03.33.24.55.34.46.21.94.23,1.39-.02l6.86-5.21c.15-.04.33.23.42.33.98,1.05,1.92,2.47,2.84,3.62Z" fill="#908276"/>
      <path d="M79.96,70.81c-2.02.78-4,1.68-5.98,2.57-.22.1-.5.1-.63.16l4.88-5.56c.18-.05.36.36.45.49.49.73.84,1.58,1.28,2.34Z" fill="#7b6d60"/>
      <path d="M30.33,90.96c.21.45.05,2.58-.49,2.72s-1.07-1.54-1.08-1.98.27-1.56.91-1.29c.07.03.64.51.66.55Z" fill="#fcfefc"/>
      <path d="M29.49,87.92c-.5-2-.89-5.09.15-6.93.84-1.48,5.87-6.94,7.4-7.3.14-.03.28-.07.42-.04.32,1.34-.65,2.65-1.38,3.7-.44.64-.95,1.31-1.45,1.91-.53.63-2.89,2.82-3.07,3.23-.17.39-.21,1.82-.32,2.41-.14.73-.39,1.57-.6,2.29-.11.37-.17,1.15-.53,1.31-.54.25-.54-.23-.63-.58Z" fill="#fefefe"/>
      <g>
        <path d="M78.59,109.01s-.02-.2.06-.31c.2-.27,1.62-2.09,1.52-2.21-.01-.01-.2.03-.31-.11.97-.06,2.56-1.45,2.72-2.37.05-.26.1-.66-.2-.78.09-.04,1.12-1.48,1.15-1.57.29.13.46.06.72-.06.9-.41,3.97-2.81,4.58-3.61,1.08-1.4,1.16-6.15.34-7.69s-1.47,1.21-1.61,1.81c-.27,1.2-.27,3.22-.62,4.21-.24.66-1.97,2.59-2.47,3.35-.2-.1-.07-.35-.04-.51,1.15-5.63,2.32-11.91,2.96-17.61.07-.62.19-1.38.13-1.98-.03-.24-.04-.36-.32-.36l1.05-6.09c.8-.84,1.54-1.75,2.41-2.52v28.28c0,.06-.24.35-.31.42l-11.76,9.7Z" fill="#918377"/>
        <path d="M84.47,99.67c-.51.77-.66,1.18-.94,1.99-.03.09-1.07,1.53-1.15,1.57-.58.27-.92.18-1.47.79-.31.34-1.38,1.99-1.05,2.36.12.13.3.09.31.11.11.12-1.32,1.94-1.52,2.21-.08.1-.04.28-.06.31-.33.46-1.45,1.27-1.94,1.68-.26.22-.58.52-.89.63-.05-.13-.21-.15-.21-.47,0-.96,1.05-3.04,1.52-3.94,1.3-2.49,3.05-4.58,4.42-6.91.67-1.15.82-3.07,1.14-4.42,1.29-5.48,2.72-11.11,4.57-16.37.28,0,.29.12.32.36.07.61-.06,1.37-.13,1.98-.64,5.7-1.81,11.98-2.96,17.61-.03.15-.16.41.04.51Z" fill="#7b6d60"/>
        <path d="M83.53,101.66c.28-.81.44-1.23.94-1.99s2.24-2.69,2.47-3.35c.35-.99.35-3,.62-4.21.14-.6.79-3.35,1.61-1.81s.74,6.29-.34,7.69c-.61.79-3.68,3.19-4.58,3.61-.26.12-.44.19-.72.06Z" fill="#fefefe"/>
        <path d="M82.37,103.24c.3.12.25.52.2.78-.16.92-1.75,2.3-2.72,2.37-.33-.37.74-2.02,1.05-2.36.55-.61.89-.52,1.47-.79Z" fill="#fbfdfb"/>
      </g>
      <g>
        <path d="M31.38,101.87c.09-.2.34-.05.47,0,9.98,3.06,19.96,6.04,30.23,8.07.32.03,1.08.06,1.33-.1.11-.07.07-.2.08-.21.37-.22,7.27,2.08,8.27,2.39,7.4,2.24,14.77,4.6,22.17,6.85,0,.36.1,1.34-.21,1.52l-68.77.03-.2-.22c-.14-2.7-.1-5.45-.02-8.16l8.18-7.55,9.29,7.71c.21.08.54-.63.73-.74-3.88-3.16-7.7-6.39-11.54-9.6ZM26.2,112.28c-.57.15-.78,1.93-.81,2.45-.1,1.43-.19,3.57,1.39,4.18,2.03.79,4.91.39,7.06.71,3.79-.18,7.9.21,11.66-.11.37-.03,1.81-.29,1.07-.76-.53-.34-2.36-.5-3.08-.59-3.73-.48-7.57-.77-11.32-1.06-1.42-.11-2.86-.13-4.29-.23-.31-.1-.14-1.45-.17-1.82-.05-.61-.65-2.98-1.5-2.77ZM52.25,118.78c-.11-.18-2.62-.27-2.98-.21-.2.03-.96.4-.79.62.08.11,1.28.32,1.52.32.26,0,2.19-.33,2.26-.43.02-.03.02-.27,0-.3Z" fill="#918377"/>
        <path d="M63.48,109.64s.04.14-.08.21c-.25.15-1.01.12-1.33.1-10.27-2.03-20.25-5.01-30.23-8.07-.14-.04-.38-.2-.47,0-1.13-.94-2.35-1.82-3.38-2.86-.15-1.19-.07-2.44-.08-3.65.31,0,.4.36.51.59.18.4.49,1.78.72,1.91,7.84,2.23,15.69,4.48,23.38,7.15,2.96,1.03,6.54,2.16,9.36,3.45.54.25,1.41.59,1.61,1.17Z" fill="#7b6d60"/>
        <path d="M26.2,112.28c.85-.22,1.45,2.16,1.5,2.77.03.37-.13,1.72.17,1.82,1.43.1,2.86.11,4.29.23,3.75.29,7.59.58,11.32,1.06.72.09,2.55.26,3.08.59.74.47-.7.73-1.07.76-3.75.32-7.87-.07-11.66.11-2.15-.32-5.02.08-7.06-.71-1.58-.61-1.49-2.76-1.39-4.18.03-.51.24-2.3.81-2.45Z" fill="#fefefe"/>
        <path d="M52.25,118.78s.02.27,0,.3c-.06.1-2,.42-2.26.43-.24,0-1.43-.2-1.52-.32-.17-.23.6-.59.79-.62.36-.06,2.87.03,2.98.21Z" fill="#f8fbf8"/>
      </g>
    </g>
    <g>
      <path d="M49.84,121.5c-8.38,0-16.79.06-25.17-.07-.67-.25-1.01-.74-1.07-1.45-.18-1.9-.17-5.76,0-7.67.08-.89.57-1.21,1.16-1.78,2.22-2.17,4.69-4.14,6.93-6.29.1-.09.33-.26.31-.41-.06-.35-4.42-3.5-4.84-4.19l-.25-.59-.04-18.61c-.49-.21-.65-.46-.9-.91-1.11-1.99-1.99-4.96-3.21-6.75-.04-.06-.13-.21-.19-.17-.46,1.02-1.14,2.05-2.41,1.62-2.38-1.59-5.33-2.89-7.61-4.56-.52-.38-.72-.71-.76-1.39l2.59-14.98h-4.98c-.12,0-.76-.37-.88-.48-.82-.79-.25-1.93-.03-2.85-2-3.56-4.61-6.88-6.57-10.49-.17-.98.15-1.79.93-2.38l6.81-2.79-5.55-9.9,6.29-4.94c.38-.24.84-.34,1.28-.24l10.05,2.17c.02-.15,0-.28-.05-.42-.8-2.71-2.62-5.63-3.47-8.39-.23-1.12.3-1.76,1.37-2l12.02-.05,7.18-9.08c.63-.73,1.68-.69,2.36-.05l6.61,8.29c.3.19.97-.66,1.27-.84.6-.36,1.07-.37,1.71-.04l8.01,7.21c2.44-1.9,4.79-3.94,7.18-5.91.84-.52,1.46-.48,2.18.22,1.01,1.73,1.82,3.59,2.91,5.28l12.3-5.73c.64-.41,2.02.4,2.02,1.07v4.04l12.69-3.94c1.04-.26,1.99.27,2.1,1.37l.05,13.8,13.35,6.06c1.17.87.85,1.81-.07,2.7-1.64,1.57-3.78,2.95-5.49,4.48-2.16.65-4.41,1.05-6.61,1.57-.27.1-.18.41-.15.63l3.62,15.48c.19,1-.45,1.89-1.49,1.92l-13.17-.42,2.42,9.29c0,.91-.77,1.14-.85,1.78v28.87c-.04.57-.13.89-.52,1.31-.15.16-.43.28-.52.52-.91.55-2.97,2.32-3.78,3.09-.1.09-.33.26-.31.41l7.23,6.62c.58.6,1.08.87,1.16,1.78.17,1.88.18,5.8,0,7.66-.09.88-.61,1.47-1.52,1.53-13.7-.01-27.39,0-41.09,0-.84,0-1.68,0-2.52,0ZM38.41,3.65c-.56.7-1.12,1.4-1.68,2.1-1.11,1.39-2.68,3.08-3.61,4.52-.08.13-.2.24-.17.41h4.04s.53.35.62.43l3.74,4.45c.18.07.32-.3.42-.37,1.79-1.42,3.45-3.02,5.2-4.51.11-.15.01-.24-.05-.37-.2-.41-.86-1.02-1.16-1.41-1.8-2.31-3.63-4.59-5.46-6.87-.22-.09-.49-.1-.69.05-.26.19-.93,1.25-1.2,1.58ZM45.44,19.08c3.19.08,6.4-.05,9.6,0,.99-.56,1.86-1.45,2.74-2.2.11-.21-.65-.87-.84-1.05-1.55-1.47-3.19-2.87-4.78-4.3-.52-.47-1.4-1.47-1.94-1.79-.18-.11-.3-.15-.51-.08l-7.58,6.7c-.1.22,1.86,2.26,2.1,2.63.32.18.83.09,1.21.1ZM68.42,13.2c-.25-.45-1.03-2.29-1.44-2.4-.12-.03-.22,0-.32.06l-10.71,8.86c-.07.12,0,.28.03.4.45,1.94,1.26,4.05,1.84,5.98.38,1.28.72,2.59,1.05,3.88l3.32-3.76c.47-.56,1.93-.03,1.93.56v6.14c1.61-2.1,3.17-4.25,4.72-6.4,1.27-1.76,2.59-3.49,3.78-5.31.04-.19-.05-.34-.12-.51-.42-1.04-1.33-2.38-1.88-3.42-.73-1.37-1.46-2.73-2.2-4.09ZM71.56,16.67c.01.14.02.25.08.39.51,1.08,1.37,2.24,1.83,3.32.2.47.27.77.09,1.28-.07.2-.81,1.14-.74,1.2l7.93-.2c.49-.26,3.43.08,3.52-.28-.01-2.07,0-4.15,0-6.23,0-1.62,0-3.25,0-4.88-.03-.23-.25-.38-.47-.43l-12.23,5.83ZM23.71,22.33c1.05,1.01,2.29,1.89,3.36,2.83.16.14.33.41.52.58,1.52,1.32,3.05,2.62,4.59,3.92l6.43-.61c.08-.31-.16-.6-.21-.84-.57-2.46-1.12-4.93-1.68-7.39-.06-.61.14-1.11.66-1.44.08-.05.62-.29.65-.29h4.88l-6.03-7.24c-.38-.33-.95-.19-1.42-.21-5.18-.17-10.4.13-15.59,0-.58-.01-.83.29-.63.85,1.41,2.82,2.28,6.23,3.71,8.99.25.48.4.53.75.87ZM92.03,14.04c-2.22.69-4.48,1.3-6.67,2.09l-.05,6.3c.17.02.35-.02.53,0,1.03.13,1.74,1.44,2.49,2.08.81.05,1.63.01,2.44.02,1.56.01,4.08-.22,5.5,0,.41.06,2.65,1.28,2.79,1.15,0-2.2,0-4.41,0-6.61,0-1.91.24-4.78,0-6.56-.06-.49-.32-.51-.77-.44-1.67.24-4.52,1.43-6.27,1.97ZM43.65,20.13c-1.83,0-3.67,0-5.51,0-.24.03-.38.26-.45.48l3.51,14.81c.11.25.47.25.71.24,1.97-.08,4.65-.74,6.67-1.05,1.11-.17,2.24-.28,3.36-.42.02-.26-.08-.51-.14-.76-.43-1.76-1.57-4.38-1.74-6.02-.13-1.27.76-1.86,1.87-1.24,1.8,1.01,3.76,2.92,5.54,4.12.15.1.37.29.56.28-.46-1.72-1.07-3.39-1.57-5.09-.44-1.49-.76-3.39-1.33-4.81-.08-.2-.15-.37-.35-.49-2.06-.11-4.13-.05-6.19-.05-1.64,0-3.29,0-4.93,0ZM5.56,25.06c.04.06.01.08.1.1.03,0,.07,0,.1,0-.03.22.07.34.16.52,1.23,2.35,2.73,4.64,4.03,6.93.05.09.07.28.15.42,1.67,2.93,3.41,5.83,4.99,8.81.14.02.24-.06.35-.12,1.29-.73,2.72-1.95,3.95-2.82s2.63-1.72,3.88-2.68c-.67-1.17-3.22-2.49-3.26-3.88-.03-.9.78-1.59,1.65-1.61l8.96-.96c.05-.07-1.13-1.09-1.26-1.21-.55-.48-3.04-2.74-3.46-2.88-1.1-1.11-2.33-2.13-3.57-3.1l-11.07-2.37-.26.07-5.55,4.43c-.04.13.03.24.09.34ZM79.22,23.7c-2.41.08-4.83.15-7.24.26l-5.35,7.4-2.41,3.36h3.93c.12,0,.57.35.67.49.32.45.13.74.25,1.12.1.34,4.26,2.67,4.86,3.11,3.3-1.78,6.48-3.77,9.71-5.66,2.15-1.26,4.99-2.59,6.96-4.01.37-.27.55-.53.29-.99l-4.76-5.16c-.25-.2-.62-.12-.91-.14-.57-.03-1.16.1-1.63.1h-2.94c-.35,0-.97.09-1.42.1ZM90.03,26.32c.39.44,1.63,1.71,1.83,2.11.35.73.2,1.47-.41,1.98-.44.37-2.97,1.63-3.08,1.8-.04.07-.03.15-.02.23l4.15,7.83c.12.56.05,1.13-.06,1.68,1.9-.35,3.78-.84,5.67-1.26,3.02-.67,6.03-1.34,9.05-2.02,2.09-1.41,3.9-3.21,5.92-4.72.11-.13.17-.35.12-.53-.1-.37-2.82-1.41-3.34-1.65-1.41-.65-3.05-1.55-4.51-1.99-3.02-1.57-6.23-2.79-9.29-4.3h-6.77c.01.36.52.59.73.84ZM61.91,45.63v-5.3c0-.08.35-.6.47-.68l5.54-3.56.07-.32h-3.93c-.27,0-.88-.57-.89-.9-.14-2.36.17-4.9,0-7.24-.02-.29-.08-.82-.43-.5l-3.66,4.29c-.55.45-.99.48-1.61.13-1.98-1.09-3.98-3.23-5.96-4.43-.13-.08-.23-.2-.41-.17-.01.18,0,.37.02.55.38,2.19,1.75,4.83,2.05,6.98.08.56-.05.68-.27,1.15-.93,1.9-2.54,3.85-3.38,5.75-.06.12-.14.21-.1.37.15.02.28-.01.42-.05,1.67-.45,3.95-1.92,5.53-2.23.86-.17,1.13.26,1.66.81,1.54,1.61,2.94,3.54,4.45,5.2l.43.15ZM26.13,31.36c-1.44.15-3.28.16-4.65.44-.44.09-.48.44-.34.81l10.7,10.71.2.09c.15-.04.2-.24.27-.31,2.73-2.28,5.35-4.69,8.03-7.03l-1.42-6.09c-4.27.42-8.54.91-12.8,1.36ZM86.99,33.04c-3.76,2.09-7.54,4.38-11.23,6.61-.13.08-.82.29-.73.47.15.31.96.45,1.13,1.28.12,1.86.17,3.73.35,5.58,2.57.67,5.17,1.27,7.75,1.9,1.55.38,3.6,1.12,5.12,1.34.47.07.69.01.84-.47.25-.83.4-2.44.55-3.38.3-1.86.51-3.74.82-5.59l-4.18-7.94c-.19-.03-.28.13-.42.21ZM5.04,42.48c.07.45,1.73,2.69,2.1,3.25.52.81.94,1.73,1.54,2.49.05.06.09.3.24.13.1-.11.24-1.98.73-2.57l4.71-3.36c-.03-.11-.16-.19-.2-.26-1.11-2.14-2.41-4.35-3.67-6.4-.07-.12-.21-.6-.36-.61l-6.53,2.69c-.61.36-.81.9-.6,1.59l2.04,3.05ZM46.07,36.08c-1.61.05-3.22.65-4.83.58-2.53,2.43-5.39,4.55-7.92,6.97-.19.18-.76.69-.79.9.21,1.44.28,2.9.42,4.35.16,1.66.29,3.56.54,5.18.06.38.09,1.16.64,1.1,1.22-.38,2.43-.86,3.65-1.24,4.2-1.33,8.41-2.63,12.59-4.05.86-1.34,1.55-2.83,2.31-4.24.91-1.68,1.84-3.35,2.73-5.04l-5.73,2.2c-.86.08-1.63-.98-1.13-1.77l3.4-5.78-5.88.84ZM15.84,42.69c-1.82,1.27-3.71,2.46-5.46,3.83-.09.11-.12.24-.16.36-.25.75-1.09,4.11-1.1,4.78,0,.44.18.53.58.57,1.59.17,3.75,0,5.41,0,1.19,0,2.38,0,3.57,0,1.53,0,3.07.01,4.61-.01.65-2.33,1.25-4.69,1.9-7.02.51-1.84,1.12-3.65,1.58-5.51-.02-.19-2.41-2.62-2.59-2.67-.2-.05-1.12.64-1.37.81-2.35,1.55-4.64,3.24-6.95,4.85ZM62.96,45.21c.1,1.79.65,3.65.85,5.44,1.95.43,3.91.84,5.86,1.27,1.5.34,3.94,1.15,5.35,1.26.46.04.77-.04.74-.57-.2-3.7-.37-7.42-.66-11.11-.06-.19-.35-.32-.51-.43-1.62-1.12-4.35-2.93-6.08-3.73-.07-.03-.13-.18-.27-.19-1.78,1.01-3.54,2.17-5.24,3.34-.03,1.56-.14,3.16-.05,4.72ZM24.03,53.29c-.27,1-.65,1.97-.84,2.99.21,3.11-.28,6.59,0,9.66.06.69.2.73.87.65,1.28-.16,3.52-.94,4.87-1.32.17-.05.35-.05.46-.22,1.69-.14,4.49-1.18,6.19-1.68.37-.11.92.07,1.11-.52l3.3-8.5-5.43,1.76c-.94.2-1.81-.24-2-1.21-.27-1.39-.29-3.19-.44-4.65-.21-1.99-.38-4.01-.69-5.97-1.16-.92-2.4-2.77-3.56-3.58-.09-.06-.1-.15-.26-.1-1.19,4.23-2.42,8.45-3.57,12.7ZM53.41,56.02c.43,1.16.92,2.31,1.36,3.46.18.47.47,2.14,1.16,1.95l7.6-5.63c.24-.57-.26-1.98-.36-2.62-.35-2.16-.64-4.34-1.06-6.5-.45.02-.84-.02-1.2-.32-1.3-1.58-2.68-3.09-4.04-4.62-.11-.12-.42-.78-.63-.63l-4.81,9,.03.56c.7,1.76,1.28,3.57,1.95,5.35ZM102,49.93l-1.89-8.61-7.85,1.8c-.33,1.73-.46,3.5-.75,5.23-.14.82-.21,2.11-.89,2.62-.74.55-1.34.22-2.15.11-.09-.01-.36-.27-.31.05l1.69,6.45c1.34.14,2.69.07,4.03.11,1.1.03,2.19.16,3.3.11l6.04.22c.56,0,.61-.27.55-.77-.16-1.35-1.25-6.16-1.76-7.32ZM78.91,62.21c.2.85.81,2.81.83,3.52s-.7,1.15-.6,1.54l4.66,8.05c.19.24.34.43.67.27.4-.19,1.78-1.91,2.21-2.36,1.63-1.71,3.33-3.37,4.83-5.2-.77-3.33-1.76-6.61-2.63-9.91-.65-2.47-1.16-4.98-1.91-7.43-1.93-.59-3.9-1.01-5.85-1.49-1.5-.37-3-.81-4.51-1.15-.06,1.35.13,2.69.21,4.03.03.44-.1.89-.08,1.24.13,2.19,1.62,6.52,2.18,8.89ZM45.65,52.45c-1.46.49-2.92,1-4.38,1.49-.68,1.65-1.27,3.35-1.91,5.01-.61,1.56-1.32,3.09-1.88,4.67.82,2.08,1.06,5,1.93,6.98.16.36.3.48.71.4.47-.1,2.61-1.25,3.23-1.55,2.08-1.02,4.13-2.14,6.19-3.2,1.2-2.41,2.43-4.82,3.46-7.3.04-.11.33-.13.27-.53l-2.79-7.55c-1.58.61-3.22,1.04-4.83,1.57ZM63.8,61.79c.2.9.81,2.97.83,3.73.02.66-.4,1.05-.82,1.47,2.01,2.71,4.14,5.35,6.29,7.96.11.06.23.08.36.06.23-.03,1.18-1.15,1.42-1.42.18-.21.4-.64.53-.78.01-.02.2-.02.32-.15,1.99-2.21,3.93-4.47,5.93-6.67.16-.35-.46-2.13-.58-2.62-.71-3.08-1.41-6.17-2.2-9.24-.31.16-.63.12-.97.08-1.59-.19-3.8-.86-5.43-1.23-1.82-.41-3.62-.9-5.46-1.26-.15.15.73,3.34.6,4.12-.17,1.05-1.7,1.48-1.76,1.92.23,1.36.65,2.69.95,4.04ZM13.64,63.47c-.27,1.6-.5,3.21-.81,4.81l.14.44,7.6,4.58c.59.12,1.09-1.2,1.36-1.63.84-1.31,1.65-2.64,2.52-3.94.11-.28-.62-.04-.78-.05-.71-.04-1.36-.61-1.43-1.31-.09-.98.01-2.19,0-3.21-.02-3.3-.3-6.69.63-9.86l-7.35-.06c-.12.13-.14.3-.18.45-.74,2.99-1.19,6.69-1.71,9.78ZM56.35,62.42c-.32,0-.67.04-.97-.02-1.13-.23-1.37-2.39-1.6-2.39-.59,1.21-1.3,2.41-1.73,3.67-.18.07-.22.24-.3.38-.3.56-.97,1.78-1.12,2.34-.04.15-.09.28,0,.42l4.46,5.2c.15.1.26.05.41,0,.31-.11,1.52-1.13,1.89-1.42,2.02-1.53,3.98-3.17,6.05-4.65.34-.42-.09-1.02-.18-1.44-.41-2.07-.84-4.14-1.37-6.19l-5.56,4.09ZM32.95,65.25c-2.15.58-4.52,1.05-6.61,1.78-.07.03-.22-.02-.31.05l-2.68,4.26v.2s3.68,7.76,3.68,7.76c.62.68,1.6-.83,2.04-1.25,2.74-2.65,5.71-5.4,8.29-8.19.17-.18.61-.4.62-.68l-1.36-4.99c-1.24.27-2.45.72-3.67,1.05ZM44.39,70.08c-.89.45-1.83.84-2.73,1.26,1.78,3.01,3.85,5.86,5.71,8.82.2.16.57.12.77-.04.28-.23,1.02-1.76,1.29-2.17,1.31-2.03,2.64-4.05,3.94-6.09v-.2s-3.58-4.3-3.58-4.3c-1.84.82-3.6,1.81-5.39,2.72ZM66.11,71.65c-.91-1.14-1.86-2.57-2.84-3.62-.09-.1-.27-.37-.42-.33l-6.86,5.21c-.46.25-.93.23-1.39.02-.22-.1-.31-.37-.55-.34-1.12,1.81-2.2,3.67-3.36,5.46-.44.69-1.69,2.82-2.31,3.1-1.18.53-1.72-.26-2.31-1.1-1.87-2.66-3.47-5.56-5.4-8.16-.69.42-1.61.17-2.03-.51-.19-.3-.17-.61-.38-.87l-9.55,9.44-.74.52c-.1,2.66-.05,5.32-.05,7.97,0,1.15,0,2.31,0,3.46s0,2.31,0,3.46c0,1.21-.07,2.45.08,3.65,1.03,1.04,2.25,1.92,3.38,2.86,3.84,3.21,7.66,6.44,11.54,9.6-.2.1-.52.82-.73.74l-9.29-7.71-8.18,7.55c-.08,2.71-.12,5.46.02,8.16l.2.22,68.77-.03c.31-.18.2-1.17.21-1.52.05-2.25.03-4.56-.08-6.79l-8.07-7.47-9.37,7.6c-.43-.1-.5-.58-.63-.9.31-.11.63-.42.89-.63.5-.41,1.62-1.22,1.94-1.68l11.76-9.7c.07-.08.31-.36.31-.42v-28.28c-.87.77-1.62,1.67-2.41,2.52-.75.79-2.22,2.6-2.99,3.15s-1.71.46-2.3-.32c-.96-1.27-2.14-3.66-3-5.14-.44-.76-.79-1.61-1.28-2.34-.09-.13-.27-.54-.45-.49l-4.88,5.56c-.55.25-1.42,1.65-1.94,2.1-.73.63-1.73.46-2.36-.21-.92-.99-2.03-2.65-2.94-3.78Z" fill="#242021"/>
      <path d="M52.99,58.96c-1.03,2.47-2.26,4.88-3.46,7.3-2.07,1.05-4.11,2.17-6.19,3.2-.34-.52-2.91,0-3.04-.11-.07-2.01-1.59-4.82-1.34-6.74.14-1.1,1.08-2.53.39-3.65.65-1.67,1.23-3.36,1.91-5.01,1.46-.49,2.92-1.01,4.38-1.49,0,.21.13.32.31.37.98.31,3.3-.39,3.84-.07.41.24,1.48,3.47,1.88,4.21s.88,1.32,1.31,1.99Z" fill="#4e7b39"/>
      <path d="M56.87,41.75c1.36,1.52,2.74,3.03,4.04,4.62.36.3.74.34,1.2.32.42,2.15.71,4.33,1.06,6.5-.44.67-.5,1.67-1.04,2.26-.35.38-1.04.71-1.46,1.05-1.16.93-2.48,2.25-3.69,3.02-.97.62-1.2.38-2.19-.04-.44-1.15-.93-2.31-1.36-3.46.18-.31.13-.85.1-1.21-.09-1.42-.4-2.86-.4-4.28,1.72-2.68,3.36-5.56,3.76-8.78Z" fill="#4f7b39"/>
      <path d="M49.42,77.95c-.5-.09-1.25.71-1.63.43-1.4-2.17-3.2-4.08-4.51-6.3-.04-.11-.08-.24-.06-.35.03-.12,1.67-1.1,1.16-1.65,1.79-.91,3.55-1.9,5.39-2.72l3.58,4.3v.2c-1.3,2.04-2.63,4.06-3.94,6.09Z" fill="#4e7b39"/>
      <g>
        <path d="M26.13,31.36c4.26-.46,8.53-.95,12.8-1.36l1.42,6.09c-2.68,2.34-5.3,4.75-8.03,7.03-.57-1.48-1.62-2.73-2.63-3.93-.88-1.05-1.84-2.1-2.78-3.1-1.13-1.21-2.35-2.34-3.51-3.51,0-.18,2.52-.78,2.73-1.21Z" fill="#4e7b39"/>
        <path d="M26.13,31.36c-.21.43-2.73,1.02-2.73,1.21,1.16,1.18,2.38,2.31,3.51,3.51.94,1,1.9,2.05,2.78,3.1,1.01,1.2,2.05,2.45,2.63,3.93-.08.07-.13.27-.27.31l-.2-.09-10.7-10.71c-.14-.38-.1-.72.34-.81,1.37-.29,3.21-.29,4.65-.44Z" fill="#99ae3b"/>
      </g>
      <path d="M56.87,41.75c-.39,3.22-2.03,6.11-3.76,8.78,0,1.42.31,2.86.4,4.28.02.35.08.9-.1,1.21-.66-1.77-1.25-3.58-1.95-5.35l-.03-.56,4.81-9c.21-.15.52.51.63.63Z" fill="#9aaf3b"/>
      <g>
        <path d="M32.11,50.25c-.3-.06-.19.15-.24.33-.48,1.83-.89,5.96,1.22,6.93,1.73.8,3.38-.27,4.9-1.02-.86,2.28-2.35,4.37-2.41,6.87-1.7.5-4.5,1.54-6.19,1.68-1.57.13-3.26-.17-4.83.11l.11-4.88-.63-6.97c1.15-4.24,2.38-8.47,3.57-12.7.16-.04.17.04.26.1,1.16.8,2.4,2.66,3.56,3.58.31,1.97.48,3.98.69,5.97Z" fill="#4e7b39"/>
        <path d="M32.11,50.25c.15,1.45.17,3.26.44,4.65.19.97,1.06,1.41,2,1.21l5.43-1.76-3.3,8.5c-.19.59-.73.41-1.11.52.07-2.51,1.56-4.59,2.41-6.87-1.52.75-3.17,1.81-4.9,1.02-2.11-.97-1.7-5.09-1.22-6.93.05-.18-.07-.4.24-.33Z" fill="#99af3b"/>
        <path d="M24.03,53.29l.63,6.97-.11,4.88c1.57-.27,3.26.02,4.83-.11-.1.17-.29.18-.46.22-1.35.38-3.58,1.16-4.87,1.32-.67.08-.81.04-.87-.65-.28-3.07.22-6.55,0-9.66.19-1.02.57-2,.84-2.99Z" fill="#99ae3b"/>
      </g>
      <path d="M39.35,58.96c.68,1.12-.25,2.54-.39,3.65-.25,1.91,1.27,4.73,1.34,6.74.12.12,2.69-.41,3.04.11-.62.31-2.75,1.46-3.23,1.55-.41.08-.55-.04-.71-.4-.87-1.98-1.11-4.9-1.93-6.98.56-1.58,1.27-3.11,1.88-4.67Z" fill="#99af3b"/>
      <g>
        <path d="M71.56,16.67c1.52-.04,3.03-.65,4.43-1.18,2.37-.9,4.64-2.09,6.95-3.12.22-.03.13.02.16.16.14.91.41,2.4.76,3.23.08.2.12.39.4.39,0,2.07,0,4.15,0,6.23-.09.36-3.02.03-3.52.28l-7.93.2c-.07-.06.67-1,.74-1.2.18-.51.11-.81-.09-1.28-.46-1.08-1.32-2.24-1.83-3.32-.06-.14-.07-.24-.08-.39Z" fill="#4e7b39"/>
        <path d="M84.26,16.14c-.28,0-.31-.19-.4-.39-.35-.83-.62-2.32-.76-3.23-.02-.14.07-.18-.16-.16-2.32,1.03-4.58,2.22-6.95,3.12-1.41.53-2.91,1.14-4.43,1.18l12.23-5.83c.22.05.44.2.47.43,0,1.63,0,3.25,0,4.88Z" fill="#99af3b"/>
      </g>
      <g>
        <path d="M105.35,29.78c1.46.44,3.1,1.35,4.51,1.99.04.45,1.7,1.64,1.67,1.82-.3.33-.61.66-.94.96-.72.67-3.02,2.71-3.8,3.02-.6.24-1.41.36-2.05.57-2.24.74-4.52,1.52-6.64,2.55-1.89.42-3.76.91-5.67,1.26.1-.55.17-1.12.06-1.68l-4.15-7.83c-.01-.08-.03-.16.02-.23.1-.18,2.64-1.43,3.08-1.8.61-.51.76-1.26.41-1.98-.2-.4-1.43-1.67-1.83-2.11,1.05.23,2.12.46,3.2.52.94.05,1.99-.1,2.91.03,1.29.18,3.73,1.33,5.14,1.78s2.73.72,4.07,1.13Z" fill="#4e7b39"/>
        <path d="M109.87,31.78c.52.24,3.24,1.27,3.34,1.65.05.17-.01.39-.12.53-2.02,1.51-3.83,3.32-5.92,4.72-3.02.68-6.03,1.35-9.05,2.02,2.11-1.03,4.39-1.8,6.64-2.55.64-.21,1.45-.33,2.05-.57.78-.31,3.08-2.35,3.8-3.02.32-.3.63-.63.94-.96.03-.18-1.63-1.38-1.67-1.82Z" fill="#99ae3b"/>
        <path d="M105.35,29.78c-1.33-.41-2.73-.7-4.07-1.13s-3.85-1.61-5.14-1.78c-.92-.12-1.97.03-2.91-.03-1.08-.06-2.15-.3-3.2-.52-.22-.25-.72-.48-.73-.84h6.77c3.06,1.51,6.26,2.74,9.29,4.3Z" fill="#96ac3b"/>
      </g>
      <path d="M44.39,70.08c.51.54-1.14,1.52-1.16,1.65-.02.11.02.24.06.35,1.31,2.22,3.11,4.13,4.51,6.3.38.29,1.13-.52,1.63-.43-.27.41-1.01,1.94-1.29,2.17-.19.16-.56.2-.77.04-1.86-2.96-3.93-5.81-5.71-8.82.9-.42,1.84-.81,2.73-1.26Z" fill="#99af3b"/>
      <g>
        <path d="M35.47,11.63c.47.02,1.04-.12,1.42.21l6.03,7.24h-4.88s-.57.24-.65.29c-.52.33-.73.83-.66,1.44.56,2.47,1.12,4.93,1.68,7.39-2.03-.23-4.08-.05-6.12-.02-1.44-1.31-3.17-2.93-5.22-3.02-1.07-.94-2.3-1.82-3.36-2.83-.09-3.2-1.97-6.02-2.83-9.02,2.92-.07,5.84-.21,8.75-.54,1.49-.17,3.85-.38,5.23-.75.25-.07.49-.12.61-.39Z" fill="#4e7b39"/>
        <path d="M35.47,11.63c-.11.28-.35.32-.61.39-1.38.37-3.74.58-5.23.75-2.9.33-5.83.47-8.75.54.86,3.01,2.74,5.82,2.83,9.02-.35-.34-.5-.39-.75-.87-1.43-2.76-2.3-6.17-3.71-8.99-.2-.56.05-.86.63-.85,5.19.13,10.4-.16,15.59,0Z" fill="#99af3b"/>
        <path d="M38.41,28.21c.05.24.29.53.21.84l-6.43.61c-1.54-1.3-3.07-2.6-4.59-3.92-.2-.17-.36-.44-.52-.58,2.05.09,3.77,1.72,5.22,3.02,2.04-.02,4.09-.21,6.12.02Z" fill="#99af3b"/>
      </g>
      <g>
        <path d="M81.11,49.2c-.25-.01-.39-.07-.31.26.23,1.06,4.2,1.39,4.83,2.42,1.12,2.05,1.92,4.33,3.25,6.24.87,3.3,1.85,6.58,2.63,9.91-1.5,1.83-3.2,3.49-4.83,5.2-.5-.01-1.79.73-2.18.5-.15-.09-1.35-2.59-1.58-2.99-.5-.89-2.1-3.26-2.21-4.08-.31-2.3-.21-2.29-1.52-4.25-.03-.05-.21-.43-.27-.2-.55-2.38-2.05-6.71-2.18-8.89-.02-.35.11-.8.08-1.24-.08-1.34-.27-2.69-.21-4.03,1.51.35,3.01.78,4.51,1.15Z" fill="#4e7b39"/>
        <path d="M78.91,62.21c.07-.23.24.15.27.2,1.3,1.97,1.21,1.95,1.52,4.25.11.82,1.71,3.2,2.21,4.08.22.4,1.43,2.9,1.58,2.99.39.23,1.68-.52,2.18-.5-.43.45-1.8,2.17-2.21,2.36-.33.16-.48-.03-.67-.27l-4.66-8.05c-.1-.39.62-.84.6-1.54s-.63-2.68-.83-3.52Z" fill="#99af3b"/>
        <path d="M81.11,49.2c1.95.49,3.93.91,5.85,1.49.75,2.44,1.26,4.96,1.91,7.43-1.33-1.92-2.13-4.19-3.25-6.24-.62-1.02-4.6-1.36-4.83-2.42-.07-.33.07-.27.31-.26Z" fill="#99af3b"/>
      </g>
      <g>
        <path d="M99.06,19.08c-.58.14-.79.96-.9,1.46-.23,1.1-.26,2.35-.26,3.47-.5-.05-.85-.37-1.34-.49-1.42-.36-3.67.22-5.1.61-.2.05-.75.11-.69.41-.81,0-1.63.03-2.44-.02-.75-.64-1.46-1.95-2.49-2.08.49-1.7.77-3.44,1.06-5.18,1.73-.93,3.55-1.46,4.97-2.9.05-.05.37-.27.16-.31,1.75-.54,4.6-1.73,6.27-1.97.44-.06.7-.05.77.44.23,1.79,0,4.65,0,6.56Z" fill="#4e7b39"/>
        <path d="M92.03,14.04c.21.04-.11.27-.16.31-1.43,1.43-3.25,1.97-4.97,2.9-.29,1.74-.57,3.49-1.06,5.18-.17-.02-.35.02-.53,0l.05-6.3c2.19-.79,4.44-1.41,6.67-2.09Z" fill="#9aaf3b"/>
        <path d="M99.06,19.08c0,2.2,0,4.41,0,6.61-.13.14-2.38-1.08-2.79-1.15-1.42-.23-3.94,0-5.5,0-.06-.3.49-.36.69-.41,1.43-.39,3.68-.96,5.1-.61.49.12.85.44,1.34.49,0-1.12.02-2.37.26-3.47.11-.51.31-1.33.9-1.46Z" fill="#99ae3b"/>
      </g>
      <path d="M54.78,59.48c.99.43,1.22.66,2.19.04,1.21-.77,2.54-2.1,3.69-3.02.42-.34,1.11-.67,1.46-1.05.55-.59.61-1.59,1.04-2.26.1.64.61,2.05.36,2.62l-7.6,5.63c-.69.19-.98-1.48-1.16-1.95Z" fill="#99af3b"/>
      <g>
        <path d="M90.77,46.36c-.15.95-.3,2.55-.55,3.38-.15.49-.37.54-.84.47-1.51-.22-3.56-.96-5.12-1.34-.06-.29-.47-.55-.7-.72-1.64-1.2-4.02-1.91-5.97-2.42,0-.64-.13-1.33-.15-1.94-.07-1.62.39-3.62-1.67-4.15,3.69-2.23,7.46-4.52,11.23-6.61.02,1.5.76,2.97,1.45,4.27.5.93,1.28,1.89,1.72,2.8.56,1.17.26,4.15.41,5.67.02.19.06.45.2.59Z" fill="#4e7b39"/>
        <path d="M75.76,39.65c2.06.53,1.6,2.53,1.67,4.15.03.62.16,1.3.15,1.94,1.95.52,4.33,1.22,5.97,2.42.23.17.64.43.7.72-2.58-.64-5.18-1.24-7.75-1.9-.19-1.85-.23-3.72-.35-5.58-.17-.84-.98-.98-1.13-1.28-.09-.18.61-.39.73-.47Z" fill="#99af3b"/>
        <path d="M86.99,33.04c.14-.08.23-.24.42-.21l4.18,7.94c-.31,1.86-.52,3.73-.82,5.59-.13-.14-.18-.4-.2-.59-.15-1.52.15-4.5-.41-5.67-.43-.9-1.22-1.86-1.72-2.8-.69-1.3-1.43-2.77-1.45-4.27Z" fill="#99ae3b"/>
      </g>
      <path d="M52.99,58.96c-.43-.67-.94-1.29-1.31-1.99s-1.47-3.96-1.88-4.21c-.54-.32-2.87.38-3.84.07-.18-.06-.31-.16-.31-.37,1.6-.53,3.25-.97,4.83-1.57l2.79,7.55c.06.4-.23.42-.27.53Z" fill="#99af3b"/>
      <g>
        <path d="M56.35,62.42c.79.02,1.12-.08,1.89-.37,1.05-.4,1.93-1.04,2.89-1.63.55,1.42.96,3.03,2.15,4.09.08.42.52,1.02.18,1.44-2.07,1.47-4.03,3.12-6.05,4.65.06-.32-.16-.2-.36-.21-.36-.01-1.02.08-1.31-.05-.27-.12-.62-.72-.84-.95-.72-.72-2.79-2.32-2.93-3.26-.11-.69.25-1.71.1-2.46.43-1.26,1.14-2.46,1.73-3.67.23,0,.47,2.16,1.6,2.39.31.06.66.02.97.02Z" fill="#4e7b39"/>
        <path d="M52.05,63.68c.15.75-.2,1.77-.1,2.46.14.94,2.22,2.54,2.93,3.26.22.22.57.82.84.95.29.13.95.04,1.31.05.2,0,.42-.11.36.21-.37.28-1.58,1.3-1.89,1.42-.15.05-.26.1-.41,0l-4.46-5.2c-.09-.14-.05-.27,0-.42.16-.56.82-1.78,1.12-2.34.08-.15.12-.32.3-.38Z" fill="#99af3b"/>
        <path d="M63.27,64.52c-1.19-1.06-1.6-2.67-2.15-4.09-.95.58-1.83,1.23-2.89,1.63-.76.29-1.1.39-1.89.37l5.56-4.09c.52,2.05.96,4.12,1.37,6.19Z" fill="#99ae3b"/>
      </g>
      <g>
        <path d="M68.52,37.34l-.52.16c.92,1.17,2.23,2.09,3.43,2.97.5.36,2.17,1.29,2.37,1.73.3.67.22,2.26.29,3.07.24,2.65.52,5.3.94,7.92-1.41-.11-3.85-.92-5.35-1.26.39.07.22-.45.04-.51l-4.86-2.17c-.72-1.29-.84-2.93-1.89-4.03-.09-1.56.02-3.16.05-4.72,1.7-1.17,3.45-2.32,5.24-3.34.14,0,.21.16.27.19Z" fill="#4f7b39"/>
        <path d="M68.52,37.34c1.73.81,4.46,2.62,6.08,3.73.16.11.45.24.51.43.29,3.69.46,7.4.66,11.11.02.53-.28.61-.74.57-.43-2.62-.7-5.27-.94-7.92-.07-.81,0-2.39-.29-3.07-.19-.43-1.87-1.36-2.37-1.73-1.2-.88-2.51-1.8-3.43-2.97l.52-.16Z" fill="#99af3b"/>
        <path d="M62.96,45.21c1.06,1.11,1.17,2.75,1.89,4.03l4.86,2.17c.17.07.35.59-.04.51-1.95-.44-3.91-.85-5.86-1.27-.21-1.79-.75-3.65-.85-5.44Z" fill="#99ae3b"/>
      </g>
      <g>
        <path d="M68.42,13.2c.74,1.36,1.48,2.72,2.2,4.09-.25-.06-.23.13-.26.31-.16.89.39,2.1.46,3.01.09,1.17-1.48,4.16-1.97,5.46-.05.13-.23.36-.01.46-1.55,2.15-3.11,4.3-4.72,6.4v-6.14c0-.59-1.46-1.12-1.93-.56l-3.32,3.76c-.33-1.29-.67-2.6-1.05-3.88.2-.17.28-.55.3-.8.16-1.6-.11-3.36-.41-4.93l.1-.31,8.83-7.66c.4-.15,1.3.71,1.78.79Z" fill="#4e7b39"/>
        <path d="M68.42,13.2c-.48-.08-1.38-.94-1.78-.79l-8.83,7.66-.1.31c.3,1.57.57,3.33.41,4.93-.02.24-.1.63-.3.8-.58-1.93-1.39-4.03-1.84-5.98-.03-.12-.1-.28-.03-.4l10.71-8.86c.1-.06.2-.09.32-.06.41.1,1.19,1.95,1.44,2.4Z" fill="#9aaf3b"/>
        <path d="M70.62,17.3c.55,1.04,1.46,2.38,1.88,3.42.07.17.16.31.12.51-1.19,1.82-2.51,3.55-3.78,5.31-.22-.1-.04-.32.01-.46.49-1.3,2.06-4.29,1.97-5.46-.07-.91-.62-2.12-.46-3.01.03-.17.01-.37.26-.31Z" fill="#99ae3b"/>
      </g>
      <g>
        <path d="M10.49,35.76c1.27,2.05,2.56,4.27,3.67,6.4-2.16.63-5.04,1.89-5.77,4.2-.37-.29-.73-.69-1.26-.63-.37-.57-2.03-2.8-2.1-3.25-.05-.3.04-.66-.01-.99-.07-.47-.61-1.86-.47-2.16l5.93-3.57Z" fill="#4f7b39"/>
        <path d="M10.49,35.76l-5.93,3.57c-.15.3.39,1.69.47,2.16.05.32-.04.69.01.99l-2.04-3.05c-.21-.69-.01-1.23.6-1.59l6.53-2.69c.15.01.29.5.36.61Z" fill="#99af3b"/>
        <path d="M14.17,42.17c.04.07.18.15.2.26l-4.71,3.36c-.49.6-.63,2.46-.73,2.57-.15.17-.19-.07-.24-.13-.6-.76-1.02-1.68-1.54-2.49.53-.06.89.33,1.26.63.73-2.31,3.61-3.57,5.77-4.2Z" fill="#99ae3b"/>
      </g>
      <g>
        <path d="M32.95,65.25c-.06.31.15.19.35.22.15.02.31.09.45.09.79,0,1.61-.51,2.02.39.56,1.23.62,2.8,1.6,3.91-2.58,2.79-5.55,5.54-8.29,8.19-.38-.05-1.28.36-1.52.11-.56-1.6-1.42-3.09-2.06-4.65-.25-.62-.74-1.63-.56-2.28.15-.56.96-1.66,1.23-2.34.19-.46.39-.99.41-1.49,0-.2.09-.43-.21-.37,2.09-.74,4.46-1.2,6.61-1.78Z" fill="#4e7b39"/>
        <path d="M26.34,67.04c.3-.06.22.17.21.37-.02.5-.22,1.02-.41,1.49-.27.68-1.07,1.78-1.23,2.34-.18.64.31,1.66.56,2.28.64,1.57,1.5,3.05,2.06,4.65.24.25,1.15-.16,1.52-.11-.44.42-1.42,1.93-2.04,1.25l-3.69-7.76v-.2s2.69-4.26,2.69-4.26c.09-.07.24-.03.31-.05Z" fill="#99ae3b"/>
        <path d="M32.95,65.25c1.22-.33,2.43-.78,3.67-1.05l1.36,4.99c-.01.27-.46.5-.62.68-.97-1.11-1.04-2.68-1.6-3.91-.41-.9-1.23-.39-2.02-.39-.14,0-.3-.07-.45-.09-.2-.03-.41.09-.35-.22Z" fill="#99af3b"/>
      </g>
      <g>
        <path d="M25.18,45.21c-1.08,1.92-1.86,4-2.86,5.95-1.1.26-2.32.11-3.34.7-.17.1-.32.13-.31.37-1.19,0-2.38,0-3.57,0-.61-.58-1.75-.74-2.57-.84-.61-.07-1.4-.02-2-.11-.16-.02-.17.06-.16-.16.3-.98.37-2.04.66-3.01.56-1.84,2.75-2.93,3.96-4.33l.84-1.1c2.31-1.61,4.6-3.3,6.95-4.85.25-.16,1.17-.85,1.37-.81.18.05,2.58,2.48,2.59,2.67-.46,1.85-1.07,3.67-1.58,5.51Z" fill="#4e7b39"/>
        <path d="M15.84,42.69l-.84,1.1c-1.21,1.4-3.4,2.49-3.96,4.33-.3.98-.36,2.04-.66,3.01-.01.22,0,.14.16.16.6.08,1.39.03,2,.11.82.1,1.96.26,2.57.84-1.66,0-3.82.17-5.41,0-.4-.04-.58-.13-.58-.57,0-.67.85-4.03,1.1-4.78.04-.13.07-.26.16-.36,1.75-1.37,3.64-2.56,5.46-3.83Z" fill="#99ae3b"/>
        <path d="M25.18,45.21c-.64,2.34-1.25,4.69-1.9,7.02-1.53.02-3.07,0-4.61.01-.01-.25.15-.27.31-.37,1.02-.6,2.23-.44,3.34-.7,1-1.96,1.78-4.04,2.86-5.95Z" fill="#99ae3b"/>
      </g>
      <g>
        <path d="M45.75,8.9c.3.39.97,1,1.16,1.41.06.13.15.22.05.37-1.74,1.49-3.41,3.1-5.2,4.51-.59-1.19-1.03-2.48-1.89-3.51-.5-.61-1.98-2.05-2.78-2.05h-2.15c.66-1.21,1.71-2.47,1.78-3.88.56-.7,1.12-1.4,1.68-2.1.1.22.32.04.46-.01.83-.34.88-.48,1.59.22,1.42,1.39,3.14,3.62,4.66,4.78.2.16.35.29.63.26Z" fill="#4f7b39"/>
        <path d="M36.73,5.75c-.07,1.41-1.12,2.67-1.78,3.88h2.15c.8,0,2.27,1.44,2.78,2.05.86,1.04,1.3,2.32,1.89,3.51-.1.08-.24.44-.42.37l-3.74-4.45c-.09-.08-.57-.43-.62-.43h-4.04c-.03-.17.08-.28.17-.41.93-1.44,2.5-3.13,3.61-4.52Z" fill="#99af3b"/>
        <path d="M45.75,8.9c-.28.02-.43-.11-.63-.26-1.53-1.16-3.25-3.39-4.66-4.78-.71-.7-.76-.56-1.59-.22-.13.06-.36.23-.46.01.27-.33.94-1.39,1.2-1.58.2-.15.47-.14.69-.05,1.83,2.28,3.66,4.57,5.46,6.87Z" fill="#96ac3b"/>
      </g>
      <g>
        <path d="M43.65,20.13c.06.27-.13.22-.29.28-1.11.5-2.5.8-3.7.98l2.61,12.53c.13.19.77-.04,1-.05,1.27-.03,3.63-.16,4.75.3.22.09.45.21.56.44-2.02.31-4.69.97-6.67,1.05-.24,0-.6,0-.71-.24l-3.51-14.81c.06-.22.2-.45.45-.48,1.84,0,3.67,0,5.51,0Z" fill="#9aaf3b"/>
        <path d="M56.45,25.48c-1.01-1.08-1.8-2.47-2.48-3.79-1.52-.38-3.3-.44-4.78-.96-.29-.1-.67-.2-.61-.6,2.06,0,4.13-.05,6.19.05.19.12.27.29.35.49.57,1.42.89,3.31,1.33,4.81Z" fill="#99af3b"/>
        <path d="M48.58,20.13c-.06.4.32.5.61.6,1.48.52,3.26.58,4.78.96.68,1.32,1.47,2.71,2.48,3.79.5,1.7,1.12,3.38,1.57,5.09-.19,0-.4-.18-.56-.28-1.78-1.2-3.74-3.11-5.54-4.12-1.11-.62-2-.03-1.87,1.24.17,1.64,1.31,4.27,1.74,6.02.06.25.16.49.14.76-1.11.14-2.25.25-3.36.42-.11-.23-.33-.35-.56-.44-1.12-.46-3.48-.33-4.75-.3-.23,0-.88.23-1,.05l-2.61-12.53c1.21-.18,2.59-.48,3.7-.98.16-.07.34-.02.29-.28,1.64,0,3.29,0,4.93,0Z" fill="#4e7b39"/>
      </g>
      <g>
        <path d="M46.07,36.08l5.88-.84-3.4,5.78c-.5.78.27,1.85,1.13,1.77l5.73-2.2c-.89,1.69-1.82,3.36-2.73,5.04l-.74.57c-1.5,1.63-1.58,2.57-3.94,3.2-.98.26-1.98.42-2.96.71-2.56.78-5.35,1.9-7.26,3.81-1.22.39-2.43.86-3.65,1.24-.55.06-.58-.71-.64-1.1-.25-1.62-.37-3.52-.54-5.18.22-.06.19-.27.24-.44.39-1.23.62-2.53,1.12-3.71,1.02-.82,2.07-1.64,3.05-2.51,1.52-1.36,3.33-3.48,5.17-4.27.96-.41,1.91-.6,2.87-1.12.37-.2.67-.52,1.08-.65.03-.18-.31-.11-.42-.1ZM43.21,39.25c-.51.07-2.44.93-1.87,1.62.36.43,1.19-.1,1.53-.38s1.34-1.37.34-1.24ZM39.32,42.19c-.68.13-3.46,2.69-3.9,3.34-1.17,1.75-.91,4.96-.16,6.86.12.3.4.64.73.43.24-.15,1-3.5,1.04-3.99s-.04-1.06,0-1.57c.12-1.3,1.5-2.18,2.24-3.21.38-.52,1.48-2.14.03-1.86Z" fill="#4f7c39"/>
        <path d="M46.07,36.08c.11,0,.44-.07.42.1-.41.13-.71.45-1.08.65-.96.52-1.91.71-2.87,1.12-1.84.79-3.66,2.91-5.17,4.27-.98.87-2.03,1.69-3.05,2.51-.5,1.18-.73,2.48-1.12,3.71-.05.17-.03.37-.24.44-.14-1.45-.21-2.91-.42-4.35.03-.21.59-.72.79-.9,2.53-2.42,5.39-4.54,7.92-6.97,1.61.06,3.22-.53,4.83-.58Z" fill="#9aaf3b"/>
        <path d="M52.68,45.63c-.77,1.41-1.45,2.9-2.31,4.24-4.17,1.41-8.39,2.72-12.59,4.05,1.91-1.9,4.71-3.03,7.26-3.81.98-.3,1.98-.45,2.96-.71,2.36-.63,2.44-1.56,3.94-3.2l.74-.57Z" fill="#99af3b"/>
        <path d="M39.32,42.19c1.44-.29.34,1.33-.03,1.86-.74,1.04-2.12,1.91-2.24,3.21-.05.51.04,1.06,0,1.57s-.8,3.84-1.04,3.99c-.33.21-.62-.13-.73-.43-.74-1.9-1.01-5.11.16-6.86.44-.65,3.22-3.21,3.9-3.34Z" fill="#fcfefc"/>
        <path d="M43.21,39.25c.99-.13-.02.97-.34,1.24s-1.17.81-1.53.38c-.56-.68,1.36-1.55,1.87-1.62Z" fill="#f8fbf8"/>
      </g>
      <g>
        <path d="M12.28,22.12c-.87.18-1.49.58-2.15,1.15-.28.24-2.14,1.93-1.35,2.19.38.12,2.16-.25,2.64-.37.42-.11,1.56-.64,1.74-.65,1.21-.04,2.8.65,4.31.51,2.16-.2,1.18-1.04-.05-1.68.09-.19.35-.05.49-.02,1.12.22,2.44.47,3.52.78,1.15.33,2.08.95,3.18,1.34.45.16.94.18,1.31.31.43.15,2.92,2.4,3.46,2.88.13.11,1.31,1.14,1.26,1.21l-8.96.96c-.87.03-1.68.72-1.65,1.61.04,1.39,2.59,2.71,3.26,3.88-1.25.96-2.6,1.78-3.88,2.68-.72-.07-3.62.98-4.07.71-.1-.06-.95-1.68-1.13-1.96-1.17-1.81-2.52-3.75-4.24-5.05-1.31-2.29-2.8-4.58-4.03-6.93-.09-.17-.19-.3-.16-.52.87-.47,1.82-.77,2.69-1.24.73-.4,2.73-1.94,3.35-2.01.2-.02.39-.02.46.21ZM20.75,24.66c-.71.21,0,1.19.41,1.43.5.29,2.4.5,1.98-.4-.32-.69-1.65-1.25-2.39-1.03Z" fill="#4f7b39"/>
        <path d="M25.92,25.69c-.38-.13-.87-.16-1.31-.31-1.1-.38-2.03-1-3.18-1.34-1.08-.32-2.4-.56-3.52-.78-.14-.03-.4-.17-.49.02-1.32-.68-3.68-1.46-5.14-1.15-.07-.23-.26-.23-.46-.21-.61.07-2.62,1.61-3.35,2.01-.87.47-1.82.77-2.69,1.24-.03,0-.07,0-.1,0l-.1-.1c-.06-.11-.13-.21-.09-.34l5.55-4.43.26-.07,11.07,2.37c1.24.97,2.46,1.99,3.57,3.1Z" fill="#9ab03b"/>
        <path d="M9.97,32.62c1.72,1.29,3.08,3.24,4.24,5.05.18.28,1.03,1.91,1.13,1.96.46.27,3.35-.78,4.07-.71-1.24.87-2.67,2.09-3.95,2.82-.11.06-.21.14-.35.12-1.58-2.98-3.32-5.88-4.99-8.81-.08-.14-.1-.33-.15-.42Z" fill="#99ae3b"/>
        <path d="M5.67,25.17c-.09-.02-.07-.05-.1-.1l.1.1Z" fill="#4f7b39"/>
        <path d="M17.42,23.28c1.23.64,2.21,1.48.05,1.68-1.5.14-3.09-.55-4.31-.51-.19,0-1.32.54-1.74.65-.48.12-2.27.49-2.64.37-.79-.26,1.06-1.95,1.35-2.19.67-.57,1.28-.97,2.15-1.15,1.46-.31,3.83.47,5.14,1.15Z" fill="#fcfefc"/>
        <path d="M20.75,24.66c.75-.22,2.07.34,2.39,1.03.42.9-1.48.7-1.98.4-.42-.25-1.13-1.22-.41-1.43Z" fill="#f8fbf8"/>
      </g>
      <g>
        <path d="M85.21,23.49c.61,2.13,2.52,3.64,4.1,5.08.19.26.13.37-.07.57-.45.44-1.46.99-2.02,1.44-1.09.86-2.29,1.84-3.3,2.79-.13.12-.23.22-.28.4-3.23,1.89-6.41,3.88-9.71,5.66-.6-.44-4.76-2.77-4.86-3.11-.11-.38.07-.67-.25-1.12-.1-.14-.55-.49-.67-.49h-3.93l2.41-3.36c.03.18.31-.05.38-.09,2.41-1.43,4.23-4.26,6.12-6.26,1.79-.35,3.94-.41,5.67-.94.21-.07.43-.07.42-.37.45-.01,1.06-.1,1.42-.1h2.94c.46,0,1.05-.13,1.63-.1ZM84.71,29.76c.33.33,1.25-.21,1.55-.44.82-.63,1.3-1.6.63-2.52-.39-.54-2.78-2.19-3.4-2.37-1.53-.44-5.04.98-6.53,1.67-.76.35-1.49.8-.09.97l5.93-.59c.13.03,2.08,1.31,2.15,1.42.17.27-.67,1.43-.24,1.86ZM83.73,30.95c-.78-.42-2.48,1.51-1.88,1.94.44.32,2.53-1.05,1.88-1.94Z" fill="#4f7c39"/>
        <path d="M79.22,23.7c0,.3-.21.3-.42.37-1.73.54-3.88.59-5.67.94-1.9,2-3.72,4.82-6.12,6.26-.07.04-.36.27-.38.09l5.35-7.4c2.41-.11,4.83-.18,7.24-.26Z" fill="#99af3b"/>
        <path d="M85.21,23.49c.29.01.67-.06.91.14l4.76,5.16c.26.45.09.72-.29.99-1.97,1.42-4.81,2.74-6.96,4.01.05-.18.15-.28.28-.4,1.01-.95,2.21-1.93,3.3-2.79.57-.45,1.57-1,2.02-1.44.2-.2.26-.31.07-.57-1.58-1.45-3.49-2.96-4.1-5.08Z" fill="#99af3b"/>
        <path d="M84.71,29.76c-.43-.44.41-1.59.24-1.86-.07-.11-2.03-1.4-2.15-1.42l-5.93.59c-1.4-.17-.67-.62.09-.97,1.49-.69,4.99-2.1,6.53-1.67.63.18,3.01,1.83,3.4,2.37.68.92.19,1.89-.63,2.52-.3.23-1.22.78-1.55.44Z" fill="#fbfdfb"/>
        <path d="M83.73,30.95c.64.89-1.44,2.26-1.88,1.94-.59-.43,1.11-2.36,1.88-1.94Z" fill="#f8fbf8"/>
      </g>
      <g>
        <path d="M69.47,52.97c.01.54.77.93,1.19,1.17,1.39.81,2.95,1.09,4.31,1.88.84,2.16,1.58,4.47,2.56,6.57.13.28.25.62.54.77.11.49.73,2.26.58,2.62-2,2.21-3.94,4.47-5.93,6.67-.11.13-.3.14-.32.15l-.52-.1c.38-.59.22-1.63-.66-1.55s-1.27,1.01-1.13,1.76c-.66-.51-1.24-1.57-1.79-2.25-.98-1.22-2.03-2.39-2.99-3.63.02-.4.25-.65.27-1.09.07-1.23-.76-2.42-1.25-3.48l-.54-.66c-.3-1.35-.72-2.67-.95-4.04.07-.43,1.59-.87,1.76-1.92.13-.78-.75-3.97-.6-4.12,1.83.36,3.64.85,5.46,1.26ZM72.52,70.8c.08.13.62.16.76,0,1.29-1.19,4.43-3.65,4.48-5.5.02-.95-1.15-3.85-1.63-4.77-.34-.65-1.53-2.61-2.31-2.63-.41.63-.35,1.41-.24,2.13.25,1.6,1.09,3.24,1.41,4.84-.73,1.53-1.82,3.28-2.33,4.9-.08.24-.28.82-.14,1.03Z" fill="#4f7c39"/>
        <path d="M70.1,72.91c.09.07.11.21.31.27.42.13,1.24-.12,1.48-.48l.52.1c-.13.14-.34.58-.53.78-.24.27-1.19,1.39-1.42,1.42-.13.02-.25,0-.36-.06-2.14-2.61-4.28-5.25-6.29-7.96.41-.43.84-.81.82-1.47-.02-.76-.63-2.83-.83-3.73l.54.66c.49,1.07,1.32,2.26,1.25,3.48-.03.44-.25.69-.27,1.09.96,1.24,2.01,2.41,2.99,3.63.55.68,1.13,1.74,1.79,2.25Z" fill="#99af3b"/>
        <path d="M69.47,52.97c1.63.37,3.84,1.04,5.43,1.23.33.04.66.08.97-.08.79,3.06,1.49,6.15,2.2,9.24-.29-.14-.41-.49-.54-.77-.98-2.1-1.72-4.41-2.56-6.57-1.36-.79-2.93-1.06-4.31-1.88-.42-.25-1.17-.63-1.19-1.17Z" fill="#99af3b"/>
        <path d="M72.52,70.8c-.14-.22.07-.79.14-1.03.51-1.61,1.59-3.36,2.33-4.9-.32-1.6-1.16-3.24-1.41-4.84-.11-.71-.17-1.5.24-2.13.78.01,1.97,1.97,2.31,2.63.48.92,1.65,3.83,1.63,4.77-.04,1.85-3.19,4.31-4.48,5.5-.13.16-.68.12-.76,0Z" fill="#fcfefc"/>
        <path d="M71.88,72.7c-.23.36-1.06.61-1.48.48-.2-.06-.22-.2-.31-.27-.14-.75.29-1.69,1.13-1.76.88-.07,1.04.96.66,1.55Z" fill="#f8fbf8"/>
      </g>
      <g>
        <path d="M91.5,48.36c1.21-1.09,1.71-2.72,2.1-4.25,1.7-.46,3.42-1.09,5.18-1.21.37,1.05.75,2.1,1.2,3.12.58,1.31,1.45,2.63,2.01,3.92.51,1.16,1.59,5.98,1.76,7.32.06.49.02.77-.55.77l-6.04-.22c.12,0,.34.07.31-.1-2.07-.93-4.37-1.13-6.61-1.31-.69-1.82-1.5-3.58-2.41-5.3.81.11,1.41.45,2.15-.11.68-.51.75-1.8.89-2.62ZM91.74,53.79c-.09-.05-.5-.75-.76-.86-1-.45-.6,1.4-.33,1.91.57,1.09,3.54,1.64,4.71,1.8.91.12,4.03.33,4.73-.06.48-.27.22-.71-.15-.95-1.17-.77-3.62-1.59-5.02-1.7-.68-.05-2.72.13-3.17-.13ZM101.31,53.1c-.48.04-.41,1.84-.34,2.21.23,1.28,1.64,1.4,1.53-.05-.03-.42-.73-2.2-1.19-2.16Z" fill="#507c39"/>
        <path d="M91.5,48.36c.29-1.73.42-3.5.75-5.23l7.85-1.8,1.89,8.61c-.56-1.28-1.43-2.6-2.01-3.92-.45-1.02-.83-2.07-1.2-3.12-1.76.12-3.49.76-5.18,1.21-.38,1.53-.89,3.16-2.1,4.25Z" fill="#99af3b"/>
        <path d="M88.46,51.08c.91,1.72,1.72,3.48,2.41,5.3,2.24.18,4.54.38,6.61,1.31.03.18-.2.1-.31.1-1.11.05-2.21-.08-3.3-.11-1.35-.04-2.69.03-4.03-.11l-1.69-6.45c-.05-.32.22-.06.31-.05Z" fill="#99ae3b"/>
        <path d="M91.74,53.79c.46.26,2.5.08,3.17.13,1.4.1,3.85.93,5.02,1.7.37.24.63.68.15.95-.7.39-3.82.19-4.73.06-1.17-.16-4.14-.71-4.71-1.8-.26-.51-.67-2.36.33-1.91.26.12.67.81.76.86Z" fill="#fcfefc"/>
        <path d="M101.31,53.1c.46-.04,1.15,1.74,1.19,2.16.12,1.45-1.3,1.33-1.53.05-.07-.37-.14-2.17.34-2.21Z" fill="#f8fbf8"/>
      </g>
      <g>
        <path d="M61.91,45.63l-.43-.15c-1.51-1.66-2.91-3.59-4.45-5.2-.53-.55-.8-.98-1.66-.81-1.59.31-3.86,1.78-5.53,2.23-.14.04-.27.08-.42.05-.04-.16.04-.25.1-.37.84-1.9,2.45-3.85,3.38-5.75.23-.46.35-.58.27-1.15-.3-2.15-1.67-4.79-2.05-6.98-.03-.18-.03-.37-.02-.55.18-.04.28.09.41.17,1.98,1.2,3.98,3.34,5.96,4.43.62.34,1.06.32,1.61-.13l3.66-4.29c.35-.31.41.21.43.5.17,2.34-.14,4.88,0,7.24,0,.33.61.9.89.9h3.93l-.07.32-5.54,3.56c-.12.08-.47.61-.47.68v5.3ZM53,38.69c.24.4,1.98-1,2.25-1.25.81-.74,1.36-1.62,1.07-2.75-.18-.67-1.59-3.33-2.07-3.81-.79-.79-.81-.07-.71.71.15,1.14.84,2.25,1.03,3.39l-1.53,3.09-.04.62ZM60.43,41.94c.06-1.74-1.59-5.1-3.76-4.13-1.36.61-.16.99.28,1.45s.71,1.08,1.29,1.59c.3.26,1.9,1.55,2.19,1.08Z" fill="#9db13b"/>
        <path d="M53,38.69l.04-.62,1.53-3.09c-.19-1.13-.88-2.25-1.03-3.39-.1-.78-.09-1.5.71-.71.48.48,1.89,3.14,2.07,3.81.3,1.13-.26,2.01-1.07,2.75-.27.24-2.01,1.65-2.25,1.25Z" fill="#fcfefc"/>
        <path d="M60.43,41.94c-.29.46-1.89-.82-2.19-1.08-.59-.52-.84-1.11-1.29-1.59s-1.64-.85-.28-1.45c2.17-.97,3.82,2.39,3.76,4.13Z" fill="#fcfefc"/>
      </g>
      <g>
        <path d="M13.64,63.47c.52-3.1.97-6.79,1.71-9.78.04-.16.06-.33.18-.45l7.35.06c-1.2-.18-1.65.19-2,1.31-.54,1.7.41,6.07.95,7.88.06.2.13.74.42.68,0,1.01-.09,2.23,0,3.21.06.7.72,1.27,1.43,1.31.16,0,.89-.24.78.05-.86,1.3-1.68,2.63-2.52,3.94-.46-.02-1.07-.02-1.51-.12-.83-.18-3.48-1.91-4.36-2.46-.46-.3-1.86-1.04-1.89-1.57-.01-.19.1-.4.11-.62.02-1.12.1-2.5-.63-3.41ZM15.81,57.71c-.67.18-1.06,2.68-1.11,3.31-.08,1.09-.16,4.1.22,4.99.31.72,1.5,1.82,2.18,2.22.27.16.69.47.88.06.23-.48-.79-2.73-.88-3.42-.24-1.84.21-5.2-.83-6.83-.11-.17-.21-.4-.47-.33ZM21.29,70.17c.24-.39-.29-1.33-.64-1.59-1.3-.96-2.41.69-1.06,1.48.32.19,1.53.38,1.7.11Z" fill="#507c39"/>
        <path d="M21.93,71.65c-.28.43-.77,1.76-1.36,1.63l-7.6-4.58-.14-.44c.31-1.6.54-3.2.81-4.81.73.92.65,2.3.63,3.41,0,.22-.12.43-.11.62.03.53,1.43,1.27,1.89,1.57.87.56,3.52,2.29,4.36,2.46.44.09,1.05.1,1.51.12Z" fill="#99af3b"/>
        <path d="M22.88,53.29c-.93,3.17-.65,6.57-.63,9.86-.29.06-.36-.48-.42-.68-.54-1.81-1.49-6.17-.95-7.88.35-1.12.8-1.49,2-1.31Z" fill="#9ab03b"/>
        <path d="M15.81,57.71c.26-.07.36.16.47.33,1.03,1.63.58,5,.83,6.83.09.69,1.12,2.94.88,3.42-.2.41-.62.1-.88-.06-.68-.4-1.87-1.5-2.18-2.22-.39-.9-.31-3.9-.22-4.99.05-.63.44-3.13,1.11-3.31Z" fill="#fcfefc"/>
        <path d="M21.29,70.17c-.17.28-1.39.08-1.7-.11-1.35-.79-.24-2.44,1.06-1.48.35.26.88,1.2.64,1.59Z" fill="#fbfdfb"/>
      </g>
      <g>
        <path d="M52.15,11.52c1.59,1.43,3.23,2.83,4.78,4.3.19.18.95.84.84,1.05-.88.74-1.75,1.64-2.74,2.2-3.2-.05-6.4.08-9.6,0l-1.99-2.35c.93-.73,1.76-1.63,2.72-2.27-.02.03-.25.65-.27.73-.5,2.39,3.2.66,2.16-.78-.4-.56-1.54-.4-1.89.05l3.36-3.2c.59-.27,1.94.59,2.62.26ZM48.91,14.24c.23.36,1.74-.23,2.02-.17.16.03,2.24,1.78,2.66,2.05.71.47,3.16,2.09,2.36.05-.48-1.21-2.12-2.7-3.2-3.42-.8-.54-1.37-.96-2.38-.55-.47.19-1.75,1.57-1.46,2.03Z" fill="#517c39"/>
        <path d="M52.15,11.52c-.68.33-2.03-.53-2.62-.26l-3.36,3.2c-.96.63-1.8,1.54-2.72,2.27l1.99,2.35c-.38,0-.89.08-1.21-.1-.24-.38-2.19-2.42-2.1-2.63l7.58-6.7c.21-.06.33-.03.51.08.53.32,1.41,1.32,1.94,1.79Z" fill="#99af3b"/>
        <path d="M48.91,14.24c-.3-.47.99-1.84,1.46-2.03,1.01-.4,1.58.01,2.38.55,1.07.72,2.72,2.21,3.2,3.42.8,2.04-1.65.42-2.36-.05-.42-.28-2.49-2.02-2.66-2.05-.28-.05-1.79.53-2.02.17Z" fill="#fbfdfb"/>
        <path d="M46.17,14.46c.35-.45,1.49-.62,1.89-.05,1.04,1.45-2.66,3.18-2.16.78.02-.08.24-.7.27-.73Z" fill="#f8fbf8"/>
      </g>
    </g>
  </g>
</svg>