<?xml version="1.0" encoding="UTF-8"?>
<svg id="Layer_1" data-name="Layer 1" xmlns="http://www.w3.org/2000/svg" width="290.06" height="97.34" viewBox="0 0 290.06 97.34">
  <g>
    <g>
      <path d="M48.52,30.45s.17.03.26.12c5.94,6.01,11.98,11.91,17.89,17.95-8.7-.07-16.95,2.51-23.76,7.88-1.18.94-1.26,1.35-2.87,1.75-4.97,1.24-9.18-.12-10.96-5.14-1.04-2.92-1.36-4.72-4.11-6.64,7.83-5.15,15.64-10.32,23.34-15.67.11-.07.25-.06.21-.26Z" fill="#afb0b0"/>
      <path d="M46.21,20.35c0,2.49-.02,4.98.02,7.47.02.13.08.25.15.36.33.51,1.52,1.5,2.02,2.01.09.09.11.24.12.26.04.19-.11.18-.21.26-7.69,5.35-15.51,10.52-23.34,15.67-3.3-2.3-7.76-2.51-11.64-2.06.18-.2.33-.44.51-.64.8-.88,2.7-2.92,3.6-3.55,7.23-5.07,14.5-10.3,21.84-15.28,2.1-1.42,4.37-3.05,6.52-4.35.13-.08.23-.18.4-.15Z" fill="#d0d0d1"/>
      <path d="M17.44,40.13c3.69-3.88,7.48-7.68,11.26-11.47.06-.08.3-.43.3-.47V10.75h17.21c0,3.2,0,6.4,0,9.59-.18-.03-.27.07-.4.15-2.15,1.3-4.43,2.93-6.52,4.35-7.34,4.98-14.61,10.21-21.84,15.28Z" fill="#afb0b0"/>
      <g>
        <path d="M43.82,6.81c-.55,1-1.17,1.96-1.8,2.91h-7.88c.36-1.39-.9-2.42-1.22-3.62-.35-1.28-.26-2.76-.83-4.01,1.8-.11,3.71.08,5.52,0,1.46,1.15,3.48.71,5.19,1.06.29,1.24.39,2.51,1.02,3.64Z" fill="#b6926c"/>
        <path d="M43.82,6.81c-.63-1.13-.74-2.4-1.02-3.64-1.71-.35-3.73.09-5.19-1.06-1.81.08-3.72-.11-5.52,0-.11,0-.26-.02-.34,0,.09-.14.32-.09.47-.09,3.87-.04,7.74,0,11.61.04.25.09.31.27.34.52.07.56.07,3.44-.07,3.87-.07.21-.23.28-.28.37Z" fill="#92725c"/>
        <path d="M32.08,2.1c.58,1.25.48,2.73.83,4.01.32,1.19,1.58,2.23,1.22,3.62h7.88c-.09.14-.32.09-.47.09-2.64.03-5.28,0-7.92-.04l-2.12-3.36c.09-1.22-.17-2.75-.02-3.93.02-.17.08-.33.26-.38.08-.02.24,0,.34,0Z" fill="#97715c"/>
      </g>
    </g>
    <g>
      <path d="M43.3,9.73h3.3c.24,0,.68.52.64.81l.04,17.08,26.67,26.68.25.43v27.4c.03.33-.17.59-.45.74l-17.91,8.8h-8.61v4.32c0,.23-.44.58-.68.61-5.95.05-11.94.09-17.89-.02-.22-.03-.61-.38-.61-.58v-4.41h-8.61c-5.51-2.97-11.16-5.7-16.66-8.69-.36-.19-1.44-.7-1.56-1.01-.15-8.84-.03-17.71-.06-26.56.04-.25.79-1.04,1.02-1.29,1.48-1.61,3.18-3.14,4.71-4.71,7.01-7.15,14.02-14.3,21.02-21.46l.04-17.25c-.05-.33.42-.9.73-.9h3.64c-.31-.91-1.76-2.35-1.88-3.22-.11-.81-.11-3.46,0-4.27.1-.72.79-1.21,1.49-1.25,3.77.22,7.84-.28,11.57,0,.66.05,1.38.31,1.54,1.03.15.65.12,3.66.04,4.42-.09.95-1.47,2.33-1.8,3.29ZM31.74,2.1c-.19.05-.24.21-.26.38-.15,1.18.11,2.71.02,3.93l2.12,3.36c2.64.05,5.28.08,7.92.04.14,0,.38.05.47-.09.63-.95,1.24-1.91,1.8-2.91.05-.08.21-.16.28-.37.14-.44.13-3.31.07-3.87-.03-.24-.09-.43-.34-.52-3.87-.04-7.74-.08-11.61-.04-.14,0-.38-.05-.47.09ZM17.44,40.13c-.9.63-2.8,2.67-3.6,3.55-.18.2-.33.44-.51.64,3.88-.45,8.34-.25,11.64,2.06,2.75,1.92,3.07,3.71,4.11,6.64,1.78,5.02,5.99,6.38,10.96,5.14,1.61-.4,1.69-.82,2.87-1.75,6.81-5.38,15.06-7.95,23.76-7.88-5.91-6.03-11.95-11.94-17.89-17.95-.09-.09-.24-.11-.26-.12-.02-.02-.03-.17-.12-.26-.5-.51-1.69-1.5-2.02-2.01-.07-.11-.13-.23-.15-.36-.04-2.49-.01-4.98-.02-7.47,0-3.2,0-6.4,0-9.59h-17.21v17.43s-.24.4-.3.47c-3.78,3.8-7.57,7.59-11.26,11.47ZM39.88,59.22c-5.14,1.16-9.71-.42-11.62-5.55-.37-.98-.54-1.99-.98-2.96-2.53-5.67-9.8-6.2-15.16-5.17-1.96,1.81-3.75,3.78-5.62,5.68-.03.15.96,1.27,1.14,1.49,5.75,6.72,19.72,19.96,28.47,11.09l3.76-4.58ZM29.09,91.29v4.32h17.12v-4.24c0-.38.55-.69.9-.73,2.66-.3,5.81.26,8.52-.04l17.62-8.62v-26.83s-.07-.18-.07-.18c-1.86-1.76-3.57-3.72-5.5-5.38-10.23-.47-20.73,3.22-27.6,10.9-1.65,1.85-2.81,3.92-4.9,5.38-6.41,4.51-14.2.14-19.5-4.01-3.66-2.87-6.94-6.3-9.95-9.84-.24-.05-3.02,3.09-3.46,3.46l-.09.34.05,25.57,17.34,9.12c2.74.3,5.93-.26,8.61.04.4.04.82.3.9.73Z" fill="#232121"/>
      <path d="M29.09,91.29c-.08-.42-.5-.68-.9-.73-2.68-.3-5.87.26-8.61-.04l-17.34-9.12-.05-25.57.09-.34c.44-.37,3.22-3.51,3.46-3.46,3.01,3.54,6.28,6.97,9.95,9.84,5.3,4.15,13.09,8.52,19.5,4.01,2.08-1.46,3.24-3.53,4.9-5.38,6.87-7.68,17.38-11.37,27.6-10.9,1.93,1.66,3.64,3.61,5.5,5.38l.08.18v26.83s-17.63,8.62-17.63,8.62c-2.71.3-5.87-.26-8.52.04-.35.04-.9.35-.9.73v4.24h-17.12v-4.32ZM66.74,51.71c-.78.12-1.91.97-.66,1.48.73.29,1.35.27,2.06-.08,1.79-.88-.28-1.57-1.4-1.4ZM35.77,69.33c1.24.07,2.45-.8,3.42-1.51,3.37-2.47,6-5.73,9.57-8.16,4.72-3.21,9.94-4.44,15.2-6.46.58-.32.54-.84-.15-.92s-2.21.04-3,.09c-10.3.62-17.48,6.65-23.59,14.43-.25.32-1.75,2.22-1.46,2.52ZM4.13,65.13c-.29.07-.45,1.78-.47,2.1-.15,1.73-.08,3.57-.17,5.31-.11,2.16-.88,6.15.27,7.95.84,1.33,4.11,3,5.58,3.67.48.22,1.78.89,2.23.74.33-.11.07-.58-.07-.76-.66-.89-2.78-2.9-3.68-3.68-.44-.39-1.75-1.16-1.89-1.62-.18-.63-.04-1.03-.04-1.58,0-2.63.05-9.61-1.3-11.72-.07-.11-.33-.43-.46-.4ZM13.91,85.02c-1.78.24-.21,1.55.56,1.96s1.99.63,2.84.59c1.46-.07.12-1.21-.39-1.58-.83-.6-1.97-1.11-3.01-.97ZM45.27,89.71c1.19-.24,2.64-.3,3.79-.62.46-.13.77-.44.19-.66-.63-.24-3.91-.56-4.62-.52-2.39.15-1.46,3.16-1.41,4.71-1.32.04-2.66-.05-3.99,0-2.04.07-4.67.18-6.65.54-.34.06-2.68.55-1.76,1.11.34.2,1.7.3,2.16.33,2.85.14,5.94-.09,8.83-.09.67,0,1.32.1,2.04,0,2.3-.34,1.69-3.15,1.42-4.79ZM53.56,88.87c-.04-.07-1.1-.44-1.27-.48-.61-.15-2.12-.28-2.06.69.05.81,1.6.71,2.15.6.33-.06,1.51-.27,1.18-.81Z" fill="#5db246"/>
      <path d="M35.77,69.33c-.3-.3,1.21-2.21,1.46-2.52,6.11-7.78,13.29-13.81,23.59-14.43.78-.05,2.28-.17,3-.09s.73.61.15.92c-5.27,2.02-10.48,3.25-15.2,6.46-3.57,2.43-6.2,5.68-9.57,8.16-.96.71-2.18,1.58-3.42,1.51Z" fill="#fdfefd"/>
      <path d="M45.27,89.71c.27,1.63.88,4.44-1.42,4.79-.72.11-1.37,0-2.04,0-2.89,0-5.98.24-8.83.09-.46-.02-1.82-.12-2.16-.33-.92-.56,1.41-1.04,1.76-1.11,1.98-.36,4.61-.47,6.65-.54,1.32-.04,2.66.04,3.99,0-.05-1.55-.98-4.56,1.41-4.71.72-.05,4,.28,4.62.52.58.22.26.53-.19.66-1.15.32-2.6.38-3.79.62Z" fill="#fcfefc"/>
      <g>
        <path d="M4.13,65.13c.12-.03.39.29.46.4,1.35,2.11,1.3,9.09,1.3,11.72,0,.56-.14.96.04,1.58.13.47,1.44,1.23,1.89,1.62.9.79,3.02,2.79,3.68,3.68.14.18.4.65.07.76-.45.15-1.75-.52-2.23-.74-1.47-.67-4.74-2.34-5.58-3.67-1.15-1.8-.38-5.79-.27-7.95.09-1.74.02-3.58.17-5.31.03-.32.18-2.03.47-2.1Z" fill="#fdfefc"/>
        <path d="M13.91,85.02c1.04-.14,2.18.37,3.01.97.51.37,1.85,1.51.39,1.58-.84.04-2.09-.19-2.84-.59s-2.34-1.72-.56-1.96Z" fill="#fbfdfb"/>
      </g>
      <path d="M66.74,51.71c1.12-.18,3.18.52,1.4,1.4-.71.35-1.32.38-2.06.08-1.25-.5-.12-1.35.66-1.48Z" fill="#fafdfa"/>
      <path d="M53.56,88.87c.33.53-.85.74-1.18.81-.55.1-2.1.21-2.15-.6-.06-.97,1.45-.83,2.06-.69.17.04,1.23.42,1.27.48Z" fill="#fafcfa"/>
      <g>
        <path d="M39.88,59.22l-3.76,4.58c-8.76,8.87-22.72-4.37-28.47-11.09-.18-.22-1.17-1.33-1.14-1.49,1.87-1.9,3.66-3.87,5.62-5.68,5.36-1.03,12.63-.5,15.16,5.17.43.97.61,1.98.98,2.96,1.91,5.12,6.49,6.71,11.62,5.55ZM15.03,46.15c-1.43.11-4.43.84-1.11,1.49,1.28.25,2.6.27,3.87.58,5.19,1.25,4.89,4.65,8.09,7.84.7.7.96.3.89-.55-.49-6.14-5.81-9.82-11.74-9.36ZM27.95,57.27c-.66.2-.23,1.54.16,1.94.47.49,2.5,1.42,2.22.09-.18-.88-1.36-2.34-2.39-2.03Z" fill="#aec837"/>
        <path d="M15.03,46.15c5.93-.45,11.24,3.22,11.74,9.36.07.85-.19,1.25-.89.55-3.2-3.18-2.9-6.59-8.09-7.84-1.27-.31-2.59-.33-3.87-.58-3.31-.65-.32-1.38,1.11-1.49Z" fill="#fefefc"/>
        <path d="M27.95,57.27c1.03-.31,2.2,1.15,2.39,2.03.28,1.33-1.75.4-2.22-.09-.39-.4-.83-1.74-.16-1.94Z" fill="#fdfefa"/>
      </g>
    </g>
  </g>
  <g>
    <g>
      <path d="M175.63,31.73l-12.94,17.92c-2.66.65-5.57,1.7-8.07,2.82-2.83,1.26-5.5,2.81-8.08,4.5-2.91-1.26-5.77-3-7.89-5.39-2.69-3.03-3.24-7.23-7.73-8.6-4.95-1.51-9.31,1.88-12.92,4.69-.07.05-.09.13-.21.1l4.15-15.95,22.14-.07c.13.06,1.21,2.3,1.37,2.64,2.35,4.74,4.64,9.51,6.99,14.25.5,1.03,1.88,1.03,2.38,0l8.67-16.86.28-.07c3.96,0,7.91,0,11.87,0Z" fill="#d0d0d1"/>
      <path d="M185.6,32.21c.02.05.08.11.11.2,1.66,5.47,2.67,11.29,4.32,16.78v5.36c-2.35-2.58-5.55-4.2-8.9-5.11-2.69-.73-5.68-1.06-8.47-1.04l12.94-16.19Z" fill="#d0d0d1"/>
      <path d="M185.6,32.21l-12.94,16.19c-3.25.02-6.81.47-9.96,1.25l12.94-17.92c3.22,0,6.44,0,9.65,0,.35,0,.25.32.31.49Z" fill="#e7e8e7"/>
      <g>
        <path d="M157.72,28.75s.09.08.09.15l2.11,7.55c-1.77,3.54-3.63,7.04-5.45,10.56-.32-.85-.74-1.66-1.16-2.47-1.21-2.29-2.71-4.48-3.9-6.76-.51-.98-.74-1.34-.68-2.5.07-1.33.45-2.66.35-4.01,0-.12-.02-.24-.14-.31.63-2.63,1.2-5.29,1.94-7.89.61.11,1.22.05,1.83.07.13,0,.27.06.41.07,1.02.05,1.62-.31,2.22.69.78,1.3,1.75,3.43,2.39,4.84Z" fill="#afafae"/>
        <path d="M154.46,47.01c-.16.32-.6,1.82-1.07,1.24l-5.77-11.74c.35-1.86.86-3.71,1.3-5.55.12.07.13.19.14.31.11,1.35-.27,2.68-.35,4.01-.06,1.16.17,1.52.68,2.5,1.19,2.28,2.69,4.47,3.9,6.76.42.8.85,1.61,1.16,2.47Z" fill="#cfcecf"/>
        <path d="M156.54,20.17c-.13.22-.74,1.42-.9,1.45h-3.31c-.23-.7-.96-1.41-1.2-2.03-.23-.58-.17-1.39-.47-1.99.99-.01,3.19-.16,4.05,0,.14.03.43.3.66.38.17.06.64.1.69.14.12.08.3,1.79.48,2.05Z" fill="#b6926c"/>
        <path d="M150.87,23.08c.04-.14-.09-.4.17-.42h5.01s1.67,6.09,1.67,6.09c-.63-1.42-1.6-3.54-2.39-4.84-.6-1-1.19-.64-2.22-.69-.15,0-.28-.07-.41-.07-.61-.02-1.23.04-1.83-.07Z" fill="#c9cccd"/>
        <path d="M150.66,17.61c.3.6.24,1.4.47,1.99.24.62.97,1.33,1.2,2.01h3.31c-.07.13-.26.08-.38.09-1.39.02-2.78,0-4.17-.02-.19-.52-1.07-1.43-1.18-1.9-.06-.29-.06-1.67-.02-2,0-.08-.03-.14.07-.17.11-.04.53,0,.69,0Z" fill="#97715c"/>
        <path d="M149.97,17.61l6.85-.07v2.32s-.25.27-.28.31c-.18-.26-.36-1.96-.48-2.05-.05-.04-.52-.08-.69-.14-.23-.08-.52-.35-.66-.38-.85-.16-3.05-.02-4.05,0-.17,0-.58-.04-.69,0Z" fill="#8c705b"/>
      </g>
    </g>
    <g>
      <path d="M144.16,77.35l-27.21-18.1c-.4-.27-.56-.65-.6-1.13-.24-2.8.18-5.95,0-8.78,1.57-5.64,2.75-11.4,4.36-17.02.23-.81.31-1.54,1.34-1.63h22.13c.37.08.72.29.9.63l1.84,3.66,3.1-12.99c.02-.32-.99-1.41-1.08-1.79-.1-.43-.06-2.38-.02-2.89s.45-.74.94-.79c2.25-.23,4.89.15,7.18.02.34.06.73.38.8.73.09.44.06,2.05.02,2.55-.07.75-1,1.56-.96,2.05l3.65,13.13c.17.04.11-.03.15-.09.72-1.04,1.16-2.63,1.89-3.64.18-.24.53-.51.83-.55h21.93c.42-.03.76.24,1.04.5,1.64,5.99,3.14,12.04,4.67,18.06-.22,2.95.29,6.31,0,9.21-.03.28-.14.5-.31.73l-27.5,18.17.04,12.13.27.14h7.75c.84.14,1.22.56,1.28,1.41.07,1.01.1,2.89,0,3.88-.08.83-.63,1.2-1.41,1.28h-34.93c-.68-.1-1.21-.5-1.29-1.21-.09-.83-.1-3.26.02-4.06.04-.24.16-.53.33-.71.09-.1.55-.38.66-.38h8.09s.1-.1.1-.1v-12.38ZM149.97,17.61c-.1.03-.06.09-.07.17-.04.32-.05,1.71.02,2,.11.47.98,1.38,1.18,1.9,1.39.01,2.78.03,4.17.02.12,0,.31.04.38-.07.16-.04.77-1.23.9-1.45.03-.05.28-.26.28-.31v-2.32l-6.85.07ZM150.87,23.08c-.74,2.6-1.31,5.26-1.94,7.89-.44,1.84-.95,3.69-1.3,5.55l5.77,11.74c.47.57.91-.93,1.07-1.24,1.82-3.52,3.67-7.02,5.45-10.56l-2.11-7.55c0-.06-.07-.11-.09-.15l-1.67-6.08h-5.01c-.26,0-.13.27-.17.41ZM175.63,31.73c-3.96,0-7.91,0-11.87,0l-.28.07-8.67,16.86c-.49,1.03-1.88,1.03-2.38,0-2.35-4.74-4.64-9.51-6.99-14.25-.17-.33-1.24-2.57-1.37-2.64l-22.14.07-4.15,15.95c.12.03.14-.05.21-.1,3.61-2.81,7.97-6.19,12.92-4.69,4.49,1.37,5.04,5.57,7.73,8.6,2.12,2.39,4.98,4.13,7.89,5.39,2.58-1.7,5.26-3.24,8.08-4.5,2.5-1.12,5.41-2.17,8.07-2.82,3.15-.77,6.71-1.23,9.96-1.25,2.79-.01,5.78.31,8.47,1.04,3.34.91,6.55,2.53,8.9,5.11v-5.36c-1.65-5.49-2.67-11.31-4.32-16.78-.03-.09-.09-.15-.11-.2-.06-.17.04-.5-.31-.49-3.22,0-6.44,0-9.65,0ZM146.99,80.36c.63,1.22,1.24,2.45,1.87,3.67.3.58.55,1.21.83,1.8l-.9.48c-.37-.84-.79-1.67-1.21-2.49-.09-.17-.24-.33-.31-.48-.16-.32-.32-.65-.48-.97-.09-.18-.18-.37-.28-.55-.05-.09-.09-.18-.14-.28s-.09-.18-.14-.28c-.09-.18-.19-.37-.28-.55-.23-.47-.4-1.06-.76-1.45,0,.9,0,1.8,0,2.7,0,1.36,0,2.72,0,4.08,0,.46,0,.92,0,1.38,0,.3.07.67.07.9,0,.15-.06.35-.07.55,0,.27.03.57,0,.83-.02.15-.13.58-.21.69-.06.09-.65.46-.76.48-.04,0-.09,0-.14,0-2.42.25-5.29-.23-7.72,0-.13.01-.13,0-.23.07-.16.1-.13.13-.14.31-.07.83-.1,2.8,0,3.61,0,.06.01.11.04.17.02.04.07.05.1.07.08.05.12.1.23.07h34.74c.11.03.17-.05.23-.07.05-.02.13,0,.17-.06l.03-4.12c0-.17-.12-.13-.21-.17-.06-.03-.13-.11-.23-.07h-7.86c-.1-.02-.34-.09-.42-.13-.01,0-.26-.2-.28-.21s-.22-.28-.23-.29c-.04-.09-.11-.36-.12-.47-.03-.32,0-.7,0-1.04,0-.23,0-.46,0-.69,0-.21,0-.42,0-.62,0-.32,0-.65,0-.97,0-1.38-.01-2.77,0-4.15,0-.99.03-1.98.07-2.97-.19-.04-.12.05-.17.14-.28.47-.51,1-.8,1.45-.02.02-.06.04-.07.07,0,.02,0,.05,0,.07-.14.24-.23.49-.35.69-.05.09-.14.22-.21.35-.05.1-.14.22-.21.35-.14.25-.28.52-.42.76-.13.23-.28.46-.42.69-.45.79-.9,1.66-1.38,2.42-.05.07-.09.14-.14.21-.21-.13-.48-.23-.69-.35-.03-.01-.13-.07-.13-.08-.06-.13.43-.99.54-1.17,0,0,.05-.02.07-.07.01-.04,0-.09,0-.14.2-.11.81-1.32.98-1.61.06-.11.09-.34.13-.39.58-.82,1.07-1.78,1.59-2.7.59-1.04,1.17-2.09,1.78-3.11l23.47-15.49c-1.56.19-3.11.46-4.67.62-4.39.45-8.81.5-13.21.34-10.07-.35-25.93-2.64-31.68-12.04-.65-1.06-1.11-2.19-1.85-3.2-4.89-6.67-12.62-1.66-17.04,2.72v8.65s27.49,18.3,27.49,18.3c.77,1.19,1.43,2.5,2.08,3.77ZM147.75,57.53c4.12,1.5,8.42,2.48,12.77,3.03,6.94.88,14.48.93,21.43.14,1.72-.19,4.67-.52,6.24-1.1.61-.23,1.22-.79,1.8-1.11.06-.09.06-1.88.04-2.11-.08-.66-1.93-2.31-2.5-2.76-8.6-6.7-23.28-4.33-32.55-.19-2.12.95-5.33,2.52-7.13,3.94-.06.04-.13,0-.09.16Z" fill="#242120"/>
      <path d="M146.99,80.36c-.65-1.27-1.31-2.58-2.08-3.77l-27.49-18.3v-8.65c4.42-4.38,12.15-9.4,17.04-2.72.74,1.01,1.2,2.14,1.85,3.2,5.76,9.4,21.61,11.69,31.68,12.04,4.4.15,8.82.1,13.21-.34,1.56-.16,3.11-.43,4.67-.62l-23.47,15.49c-.61,1.03-1.19,2.08-1.78,3.11-.12-.06-.21-.05-.34-.04-1.09.09-1.35.9-2.49,1.01-.05,0-.19-.11-.36-.06-.05.02-.26.21-.33.27-.32.02-.69.45-.95.54-.27.1-2.34.34-2.62.3-.32-.05-.26-.26-.36-.28-.26-.07-.55.08-.75.07-.19,0-.31-.07-.63-.08-.17,0-.3-.11-.46,0-.15.1-.05.29-.43.29-.29,0-1.31-.09-1.56-.18-.28-.09-1.39-.88-1.75-1.09-.12-.07-.48-.31-.6-.2ZM118.49,50.13c.65.06,1.28-.15,1.88-.36,1.92-.68,4.01-2.13,5.93-2.58,1.68-.39,3.77.16,5.43-.03.45-.05.54-.43.2-.68-.6-.44-2.67-1.32-3.41-1.5-2.93-.68-6.66,1.63-8.79,3.53-.19.17-1.47,1.41-1.24,1.63ZM135.36,51.16c.33-.53-1.38-3.14-2.27-2.37-.52.44.33,1.42.7,1.72.21.17,1.37.97,1.58.65ZM169.41,69.57c-1.24.06-2.51.54-3.66,1-4.31,1.75-6.03,2.99-7.41,7.61-.13.45-.38,1.08.39.8,1.65-1.55,2.84-3.63,4.78-4.83,1.53-.95,3.16-1.67,4.55-2.85.54-.45,1.17-1.03,1.35-1.73Z" fill="#ec568a"/>
      <path d="M163.25,90.67s.13.11.23.07h7.86c.09.03.2,0,.21.17l-.03,4.12c-.04.07-.13.05-.17.06h-16.56c-.02-.43-.35-.32-.64-.54-.33.31-.52.12-.92.13l.14.41h-17.23s-.08-.02-.1-.07c-.03-.06-.03-.11-.04-.17-.1-.81-.07-2.77,0-3.61.02-.18-.02-.2.14-.31l7.96-.07s.1,0,.14,0c.22-.05.12.16.14.35.03.25.07.5.22.72.08.12.33.24.34.29.02.1-.2.19-.11.31.05.06.5.26.61.34.09.06.1.2.19.25.13.06.44-.01.49.14.09.29-.45.25-.41.52.34.15.55-.13.86-.14.11,0,.22.07.34.06.2,0,.48-.19.66.04.05.11-.11.13-.18.16-.31.13-.88.19-.99.56.23-.03.58-.03.78-.08.35-.1,1.19-.82,1.16.08.06.07.91-.22,1.07-.21.17,0,.28.13.42.14.19.02.39-.1.62-.07.18.02.27.16.48.15.16,0,.39-.12.52-.21.06.02.19,0,.28,0-.09.32.34.28.35,0,.34-.03.69-.17,1.04-.14-.06.2.43.26.54.26.31.01,1.5,0,1.7-.12.22-.13.71-.37.99-.4.18-.02.78.09.95.04.05-.01.33-.39.53-.45.14-.04.33.08.49.04.03-.03-.18-.33.05-.41.22-.07.92.1,1.24.06.16-.02.24-.1.36-.12.32-.07.5.12.54-.36.02-.16-.06-.32-.04-.49.38.04.7.17,1.03-.11.1-.08.18-.28.25-.3.07-.01.18.07.27.06.04,0,.44-.12.45-.14.16-.19-.34-.28-.28-.48.67.06.31-.45.69-.69.07.04.32.12.42.14ZM144.09,91.91c.02-.21-.17-.22-.35-.21-.02.21.17.22.35.21ZM142.98,93.02c.07-.07-.14-.28-.21-.21s.14.28.21.21ZM143.67,93.09v.14s.28,0,.28,0v-.14s-.28,0-.28,0ZM152.87,94.75c.18-.19-.44-.56-.55-.23-.14.42.51.27.55.23Z" fill="#d1d1d2"/>
      <path d="M146.99,80.36c.12-.11.48.13.6.2.36.21,1.47,1,1.75,1.09.26.08,1.27.17,1.56.18.38,0,.28-.19.43-.29.17-.11.3,0,.46,0,.32,0,.44.07.63.08.21,0,.49-.14.75-.07.09.02.04.23.36.28.28.04,2.34-.2,2.62-.3.26-.09.63-.52.95-.54-.77.71-.94,1.91-.97,2.91-.69.07-1.87.9-2.87.83-.47-.03-.86.02-1.24,0-.41-.03-1.6-.27-2.06-.36-.4-.08-.7-.29-1.09-.33-.63-1.22-1.24-2.45-1.87-3.67Z" fill="#e86994"/>
      <path d="M162.21,89.56c.01.11.07.37.12.47,0,.02.21.28.23.29-.2.24-.51.54-.77.72-.08.06-.63.43-.67.44-.13.04-.35-.02-.43.02-.03.02-.06.24-.18.34-.23.19-.69.34-.89.49-.12.09-.16.28-.3.32-.24.08-.62-.05-.87.03-.11.03-.3.24-.51.32-.15.05-.48.07-.5.09-.03.03.05.21-.04.28-.12.09-.53.05-.72.09-1.4.28-2.1.79-3.59.66-.35-.03-.7.11-1.04.14-.11,0-.24,0-.35,0-.08,0-.22.02-.28,0-.01,0-.04-.15-.24-.14s-.31.17-.54.13c-.18-.03-.33-.23-.51-.26-.27-.04-1.79-.02-1.9-.1-.19-.13.19-.52-.51-.59-.54-.05-.84-.02-1.36-.28-.07-.04-.07-.16-.17-.19-.09-.03-.23,0-.3-.04s-.06-.27-.16-.39c-.1-.12-.73-.45-.91-.61-.22-.19-.2-.5-.45-.56-.02-.18.09-.4-.14-.35.11-.02.7-.39.76-.48.6.45,1.17,1.16,1.8,1.55.97.59,1.08.55,2.16.75.27.05.47.29.78.32,1.07.12,2.17.13,3.24,0,.67-.08,1.72-.12,2.32-.3.17-.05.34-.23.59-.31.84-.26,1.5-.27,2.36-.68.91-.44,1.9-1.01,2.8-1.49.4-.21.75-.48,1.16-.67Z" fill="#d0cacc"/>
      <path d="M162.21,88.52c0,.33-.03.72,0,1.04-.41.19-.76.47-1.16.67-.9.47-1.89,1.05-2.8,1.49s-1.52.42-2.36.68c-.25.08-.42.26-.59.31-.61.19-1.66.22-2.32.3-1.07.13-2.17.12-3.24,0-.31-.04-.51-.28-.78-.32-1.08-.19-1.19-.15-2.16-.75-.64-.39-1.21-1.1-1.8-1.55.08-.11.19-.54.21-.69.32-.08.32.17.49.31,1.25.99,2.81,1.75,4.41,2.03.86.15,1.39-.03,2.19-.05.73-.03.82.05,1.54-.12s1.43-.18,2.16-.4c1.24-.37,2.47-1.01,3.67-1.52.81-.35,1.26-.67,1.99-1.13.18-.11.37-.24.58-.29Z" fill="#d1c2c8"/>
      <path d="M159.03,82.5s-.06.28-.13.39c-.17.3-.78,1.5-.98,1.61-2.07,1.19-4.28,2.1-6.74,1.8-.3-.04-1.32-.26-1.49-.48-.28-.59-.53-1.22-.83-1.8.39.04.69.25,1.09.33.46.09,1.65.34,2.06.36.39.02.78-.03,1.24,0,1,.07,2.18-.76,2.87-.83.13-.01.21.13.44,0,.05-.03.61-.67.67-.75.31.2.6-.25.88-.4.17-.09.75-.35.92-.23Z" fill="#e4769c"/>
      <path d="M161.24,80.84c.24-.05.46.42.54.6.11.22.11.72.42.65-.01,1.38,0,2.77,0,4.15-.17-.01-.18.11-.24.21-1.52,2.24-6.59,3.98-9.2,4.15-1.31.08-2.81.03-4.06-.36-1.16-.37-1.9-.89-2.68-1.82-.26-.31-.48-.84-.83-1,0-.46,0-.92,0-1.38.22-.03.17,0,.24.14.17.31.22.73.39,1.06,2.46,4.71,10.24,2.71,13.82.49,1.32-.82,2.21-1.89,2.08-3.52-.03-.44-.44-2.12-.62-2.5-.05-.1-.07-.2-.21-.17.11-.2.2-.45.35-.69Z" fill="#d6afbc"/>
      <path d="M147.27,83.33c.08.15.23.32.31.48.42.82.84,1.65,1.21,2.49l.9-.48c.16.22,1.19.45,1.49.48,2.47.3,4.67-.6,6.74-1.8,0,.04.01.1,0,.14l-.07.07c-.11.18-.61,1.03-.54,1.17,0,0,.1.06.13.08-.18.3-.59.44-.9.59-2.72,1.24-7.58,1.99-9.02-1.42-.21-.51-.39-1.27-.24-1.8Z" fill="#e185a4"/>
      <path d="M146.23,81.26c.05.09.09.19.14.28-.17-.04-.2.18-.23.29-.79,3.08-.07,6.31,3.3,7.19,1.42.37,3.05.29,4.49.04,2.28-.39,6.52-1.92,6.69-4.65.02-.31.06-.87.06-1.17s-.12-.71-.2-1.01c.07-.13.15-.25.21-.35.24.12.29.49.34.73.38,2.04.29,3.47-1.52,4.69-2.48,1.67-6.15,2.7-9.15,2.38-4.39-.47-5.75-4.45-4.35-8.28.06-.16,0-.18.23-.15Z" fill="#daa5b7"/>
      <path d="M145.95,80.71c.09.18.18.37.28.55-.23-.03-.17,0-.23.15-1.39,3.83-.04,7.81,4.35,8.28,3,.32,6.67-.71,9.15-2.38,1.81-1.22,1.89-2.65,1.52-4.69-.05-.25-.09-.62-.34-.73.07-.13.16-.25.21-.35.13-.03.16.07.21.17.18.38.59,2.06.62,2.5.13,1.63-.76,2.7-2.08,3.52-3.58,2.22-11.36,4.22-13.82-.49-.17-.33-.23-.75-.39-1.06-.07-.14-.03-.17-.24-.14,0-1.36,0-2.72,0-4.08.45-.16.32-1.08.76-1.25Z" fill="#d6a9b8"/>
      <path d="M146.37,81.54c.05.09.09.19.14.28-.14.32-.17.72-.21,1.07-.61,6.06,4.57,6.68,9.22,5.34,1.9-.55,4.02-1.71,4.52-3.78.09-.39.29-1.13.03-1.45.14-.24.28-.51.42-.76.08.3.2.71.2,1.01s-.04.85-.06,1.17c-.17,2.73-4.42,4.26-6.69,4.65-1.44.24-3.07.33-4.49-.04-3.36-.88-4.09-4.11-3.3-7.19.03-.11.06-.33.23-.29Z" fill="#dca0b4"/>
      <path d="M147.27,83.33c-.15.53.03,1.29.24,1.8,1.45,3.41,6.31,2.66,9.02,1.42.31-.14.72-.29.9-.59.21.11.48.21.69.35-.3.43-.95.79-1.45,1-1.51.64-4.37,1.2-5.98,1-2.13-.27-3.9-1.84-4.05-4.04-.04-.56-.07-1.4.14-1.9.16.32.32.65.48.97Z" fill="#df91ab"/>
      <path d="M162.21,87.83c0,.23,0,.46,0,.69-.21.05-.4.18-.58.29-.73.46-1.18.78-1.99,1.13-1.2.51-2.42,1.15-3.67,1.52-.73.22-1.44.23-2.16.4s-.82.09-1.54.12c-.8.03-1.34.21-2.19.05-1.6-.28-3.15-1.03-4.41-2.03-.17-.14-.17-.38-.49-.31.03-.26,0-.56,0-.83.4.07.61.55.94.83,1.36,1.19,3.22,1.65,4.98,1.73,3.05.15,6.55-.87,9.23-2.39.34-.19.56-.49.84-.68.25-.17.75-.36,1.03-.52Z" fill="#d4bdc5"/>
      <path d="M146.79,82.37c-.21.5-.18,1.34-.14,1.9.16,2.21,1.92,3.77,4.05,4.04,1.61.2,4.46-.36,5.98-1,.51-.22,1.16-.58,1.45-1,.05-.07.09-.13.14-.21.43-.11.78-.68.98-1.06s.42-.94.4-1.36c.13-.23.29-.46.42-.69.26.32.06,1.06-.03,1.45-.5,2.07-2.61,3.23-4.52,3.78-4.65,1.34-9.82.72-9.22-5.34.04-.35.06-.75.21-1.07.09.18.18.37.28.55Z" fill="#de99b0"/>
      <path d="M162.21,86.24c0,.32,0,.65,0,.97-.29-.04-.32.24-.49.38-3.06,2.51-7.71,3.64-11.58,3.43-1.49-.08-3.34-1.08-4.33-2.18-.14-.15-.24-.55-.55-.52,0-.23-.07-.6-.07-.9.36.17.57.7.83,1,.78.93,1.52,1.45,2.68,1.82,1.25.4,2.75.45,4.06.36,2.61-.17,7.68-1.91,9.2-4.15.07-.1.07-.22.24-.21Z" fill="#d5b5c0"/>
      <path d="M162.21,87.21c0,.21,0,.42,0,.62-.29.16-.78.36-1.03.52-.28.19-.51.49-.84.68-2.67,1.53-6.17,2.54-9.23,2.39-1.76-.08-3.62-.54-4.98-1.73-.32-.28-.53-.76-.94-.83,0-.2.07-.41.07-.55.31-.03.41.37.55.52.99,1.1,2.84,2.1,4.33,2.18,3.87.21,8.52-.92,11.58-3.43.17-.14.2-.42.49-.38Z" fill="#d5b9c3"/>
      <path d="M160.62,79.81c-.52.92-1.01,1.88-1.59,2.7-.17-.13-.75.14-.92.23-.28.15-.57.6-.88.4.49-.69.8-1.5.55-2.35,1.14-.11,1.41-.92,2.49-1.01.13-.01.22-.02.34.04Z" fill="#e86994"/>
      <path d="M162.83,90.53c-.38.24-.02.75-.69.69-.06.2.43.29.28.48-.02.02-.41.13-.45.14-.09.01-.2-.07-.27-.06-.08.02-.15.22-.25.3-.33.27-.66.15-1.03.11-.02.17.05.32.04.49-.04.48-.22.28-.54.36-.12.03-.2.11-.36.12-.32.04-1.02-.13-1.24-.06-.23.07-.01.38-.05.41-.16.04-.35-.08-.49-.04-.19.05-.48.43-.53.45-.17.05-.77-.06-.95-.04-.29.03-.78.27-.99.4-.2.12-1.39.13-1.7.12-.11,0-.59-.06-.54-.26,1.5.13,2.2-.38,3.59-.66.19-.04.61,0,.72-.09.09-.07.01-.25.04-.28.02-.02.35-.03.5-.09.21-.07.41-.28.51-.32.25-.07.63.05.87-.03.13-.04.18-.23.3-.32.2-.15.66-.3.89-.49.12-.1.15-.32.18-.34.07-.05.29.01.43-.02.04-.01.58-.38.67-.44.25-.18.57-.48.77-.72.01.01.26.2.28.21Z" fill="#cecdcd"/>
      <path d="M136.13,95.1h17.23s-.14-.41-.14-.41c.4,0,.59.18.92-.13.29.23.62.11.64.55h16.56c-.06.02-.13.1-.23.07h-34.74c-.11.02-.16-.02-.23-.07Z" fill="#cecdcd"/>
      <path d="M161.31,80.71c.28-.46.52-.99.8-1.45.05-.09-.01-.18.17-.14-.04.99-.06,1.98-.07,2.97-.31.07-.31-.43-.42-.65-.09-.17-.31-.65-.54-.6,0-.02,0-.05,0-.07.02-.02.05-.04.07-.07Z" fill="#d4bdc5"/>
      <path d="M145.95,80.71c-.44.17-.31,1.08-.76,1.25,0-.9,0-1.8,0-2.7.36.39.53.98.76,1.45Z" fill="#d5b5c0"/>
      <path d="M158.27,86.1c.48-.76.94-1.63,1.38-2.42.02.42-.21.98-.4,1.36s-.55.95-.98,1.06Z" fill="#df91ab"/>
      <path d="M144.09,90.88l-7.96.07c.11-.07.11-.06.23-.07,2.44-.23,5.3.26,7.72,0Z" fill="#cecdcd"/>
      <path d="M171.34,90.74h-7.86c-.1.05-.19-.06-.23-.07h7.86c.11-.04.17.04.23.07Z" fill="#cecdcd"/>
      <path d="M161.24,80.78s.05-.05.07-.07c-.02.03-.05.05-.07.07Z" fill="#d6afbc"/>
      <path d="M157.85,84.72l.07-.07c-.02.05-.06.06-.07.07Z" fill="#e4769c"/>
      <path d="M169.41,69.57c-.18.69-.81,1.27-1.35,1.73-1.4,1.18-3.02,1.91-4.55,2.85-1.94,1.2-3.14,3.28-4.78,4.83-.76.28-.52-.35-.39-.8,1.37-4.62,3.1-5.85,7.41-7.61,1.15-.47,2.42-.95,3.66-1Z" fill="#fffdfe"/>
      <path d="M118.49,50.13c-.23-.22,1.06-1.46,1.24-1.63,2.13-1.9,5.86-4.21,8.79-3.53.75.18,2.81,1.05,3.41,1.5.35.26.25.63-.2.68-1.67.19-3.76-.36-5.43.03-1.92.45-4.02,1.9-5.93,2.58-.61.22-1.23.42-1.88.36Z" fill="#fffdfe"/>
      <path d="M135.36,51.16c-.2.32-1.36-.48-1.58-.65-.37-.3-1.21-1.28-.7-1.72.89-.77,2.6,1.84,2.27,2.37Z" fill="#fffdfe"/>
      <path d="M157.78,80.78c.25.86-.07,1.66-.55,2.35-.06.08-.62.73-.67.75-.24.14-.31,0-.44,0,.03-.99.2-2.19.97-2.91.06-.06.28-.25.33-.27.18-.05.32.06.36.06Z" fill="#fffdfe"/>
      <g>
        <path d="M147.75,57.53c-.04-.16.03-.11.09-.16,1.8-1.42,5.01-2.99,7.13-3.94,9.27-4.14,23.96-6.51,32.55.19.57.45,2.42,2.1,2.5,2.76.03.23.02,2.02-.04,2.11-.57.32-1.19.88-1.8,1.11-1.56.58-4.52.9-6.24,1.1-6.95.79-14.49.74-21.43-.14-4.36-.55-8.66-1.53-12.77-3.03ZM172.09,50.43c-.29,0-.86.01-1.12.05-.41.06-.48.3-.14.55.69.5,4.73,1.1,5.85,1.35,2.67.59,5.94,1.31,8.3,2.7.25.15,1.37.86,1.39,1.1.04.4-1.42,1.91-1.31,2.33.07.25.34.19.52.13.42-.13,1.55-.79,1.91-1.06,1.19-.91,1.18-1.91.12-2.93-3.11-2.99-11.31-4.29-15.51-4.23ZM182.05,58.38c-.41.04-1.63.5-1.95.75-.14.11-.23.27-.11.43.18.23,1.57.21,1.9.18,1.56-.13,2.04-1.55.16-1.37Z" fill="#f498ba"/>
        <path d="M172.09,50.43c4.2-.06,12.4,1.24,15.51,4.23,1.06,1.02,1.08,2.01-.12,2.93-.36.28-1.49.93-1.91,1.06-.19.06-.46.12-.52-.13-.12-.43,1.35-1.94,1.31-2.33-.02-.24-1.14-.95-1.39-1.1-2.36-1.39-5.62-2.12-8.3-2.7-1.12-.25-5.16-.84-5.85-1.35-.34-.25-.27-.49.14-.55.26-.04.83-.05,1.12-.05Z" fill="#fff"/>
        <path d="M182.05,58.38c1.88-.18,1.41,1.23-.16,1.37-.33.03-1.72.05-1.9-.18-.12-.16-.04-.32.11-.43.32-.25,1.54-.71,1.95-.75Z" fill="#fffdfe"/>
      </g>
      <path d="M144.36,91.22c.25.06.23.36.45.56.18.16.81.5.91.61.1.12.09.34.16.39s.22.01.3.04c.1.04.09.16.17.19.53.26.82.22,1.36.28.71.07.33.46.51.59.12.08,1.63.07,1.9.1.17.03.33.23.51.26.23.04.34-.13.54-.13s.23.14.24.14c-.13.09-.36.21-.52.21-.21,0-.3-.13-.48-.15-.23-.03-.43.09-.62.07-.14-.01-.25-.14-.42-.14s-1.01.28-1.07.21c.03-.91-.8-.18-1.16-.08-.2.06-.55.05-.78.08.12-.38.68-.43.99-.56.07-.03.23-.05.18-.16-.18-.23-.47-.04-.66-.04-.12,0-.23-.07-.34-.06-.32,0-.53.29-.86.14-.03-.27.5-.23.41-.52-.05-.15-.36-.08-.49-.14-.09-.04-.1-.18-.19-.25-.11-.08-.56-.28-.61-.34-.1-.12.13-.21.11-.31,0-.04-.25-.17-.34-.29-.15-.21-.19-.47-.22-.72Z" fill="#cecdcd"/>
      <path d="M152.87,94.75s-.69.19-.55-.23c.11-.32.73.05.55.23Z" fill="#cecdcd"/>
      <path d="M152.04,94.27c0,.28-.44.32-.35,0,.11,0,.24,0,.35,0Z" fill="#cecdcd"/>
      <path d="M144.09,91.91c-.17.02-.36,0-.35-.21.17-.02.36,0,.35.21Z" fill="#cecdcd"/>
      <rect x="143.74" y="93.02" width=".14" height=".28" transform="translate(50.33 236.76) rotate(-89.87)" fill="#cecdcd"/>
      <path d="M142.98,93.02c-.07.07-.28-.14-.21-.21s.28.14.21.21Z" fill="#cecdcd"/>
    </g>
  </g>
  <g>
    <path d="M262.75,96.02c-9.53,0-19.07.03-28.6-.03-.38-.12-.71-.4-.83-.79-.15-5.7-.02-11.42-.06-17.13.01-.58.45-1.15,1.05-1.2h16.07c.73-.04-.06-.65-.29-.88-2.14-2.09-4.35-4.11-6.46-6.22-.41-.57-.24-1.35.35-1.7.16-.09.45-.21.63-.21h6.81s.07-.07.07-.07v-17.44c0-.4.6-1.05,1-1.05h3.06c-.33-.72-.96-1.31-1.18-2.08.1-1.36-.13-2.92,0-4.26.05-.52.43-.88.95-.91h11.86c.48,0,.87.31.99.77-.07,1.4.14,2.97.01,4.35-.06.63-.92,1.52-1.18,2.13h3.26c.5,0,1,.74,1,1.2v17.1s.07.07.07.07h6.47c.45,0,.97.46,1.07.89.16.65-.11.94-.5,1.39-1.95,2.19-4.19,4.16-6.15,6.34-.13.15-.57.54-.32.66l16.29.02c.61.05,1.06.55,1.1,1.15v16.71c-.01.54-.35.99-.86,1.15-8.23.09-16.48.04-24.72.05-.33,0-.65,0-.98,0ZM257.71,49.29c2.7.03,5.4-.02,8.1,0,.38-.6.76-1.2,1.11-1.81.07-.11.19-.23.24-.37v-4.04c-1.52,0-3.04,0-4.56,0-2.25,0-4.51-.04-6.76,0-.15,0-.29,0-.44,0v4.09l1.37,2.11c.31.05.62.02.93.02ZM252.52,63.79c0,.67,0,1.34,0,2.01,1.81-.5,3.79-.69,5.58,0,.47-1.91,1.37-3.65,2.84-4.97,1.57-1.41,3.87-2.37,5.93-2.77,1.09-.21,2.23-.28,3.33-.32.05-.03.04-.1.05-.15.1-.79,0-1.98,0-2.82,0-1.28.12-2.96,0-4.19-.02-.16-.03-.26-.22-.27-1.23,0-2.47,0-3.7,0-4.51,0-9.03,0-13.55,0-.18-.02-.28.08-.27.27.01,4.4,0,8.8,0,13.2ZM270.25,58.75c-4.08.06-8.75,1.45-10.54,5.45-.36.81-.55,1.69-.91,2.52-1.7,3.84-5.62,6.19-9.66,6.87-.02.08.04.1.07.15.58.76,1.61,1.41,2.23,2.18s.21,1.81-.76,1.94l-16.24.02s-.14.08-.14.1v16.95s.07.07.07.07h53.83s.07-.07.07-.07v-16.85s-.07-.07-.07-.07h-16.31c-.71,0-1.24-.91-1.03-1.57.13-.41,1.14-1.37,1.49-1.74,1.6-1.69,3.29-3.31,4.88-5.02.11-.12.57-.58.61-.66.15-.26.02-.31-.22-.32-2.08-.14-4.32.12-6.41,0-.35,0-.96-.58-.96-.9v-9.04ZM255.3,66.35c-.44.01-.89.08-1.32.15-.22.04-1.3.25-1.41.35-.1.09-.03.83-.05,1.03-.05.42-.49.93-.91,1h-6.95c-.15,0-.25.12-.21.27l3.72,3.59c3.49-.44,7.27-2.22,9.13-5.32.07-.11.34-.56.32-.65-.09-.31-1.98-.42-2.31-.41Z" fill="#222020"/>
    <path d="M263.73,96.02c-.28.08-.7.08-.98,0,.33,0,.65,0,.98,0Z" fill="#5ca185"/>
    <path d="M270.25,58.75v9.04c0,.33.61.89.96.9,2.1.12,4.34-.14,6.41,0,.24.02.37.06.22.32-.05.08-.5.54-.61.66-1.58,1.71-3.27,3.33-4.88,5.02-.35.37-1.36,1.33-1.49,1.74-.21.66.32,1.57,1.03,1.57h16.31s.07.07.07.07v16.85s-.07.07-.07.07h-53.83s-.07-.07-.07-.07v-16.95s.11-.09.14-.1l16.24-.02c.97-.13,1.38-1.18.76-1.94s-1.65-1.42-2.23-2.18c-.04-.05-.1-.06-.07-.15,4.04-.68,7.96-3.04,9.66-6.87.36-.82.55-1.7.91-2.52,1.79-4,6.46-5.4,10.54-5.45ZM259.29,69.22c.11.11.28.06.4,0,.62-.27,1.68-1.34,2.06-1.91,1.18-1.79,1.56-3.1,3.41-4.47.97-.72,2.09-1.08,3.02-1.73.11-.08.54-.35.43-.5-1.02-.39-2.33.06-3.28.5-2.81,1.29-4.84,4.23-5.85,7.08-.07.21-.36.87-.2,1.03ZM257.6,70.41c-.32.07-.68.46-.86.71-.78,1.06-.64,1.5.63.78.33-.19.68-.51.78-.89.11-.44-.07-.69-.55-.6ZM286.94,82.73c.13-.12.39-1.71.4-1.97.14-2.22-1.41-1.99-3.06-2.03-1.39-.03-2.87-.07-4.26.1-.99.12-2.69.57-.61,1.05,1.26.29,2.57.24,3.84.37l2.62.05c.02.2.07.4.12.59.12.42.36,1.31.54,1.67.08.16.23.35.4.18ZM235.45,79.28c-.31.03-.41,1.08-.43,1.33-.07,1.15.03,2.33.05,3.48.05,2.43.05,4.88.19,7.3.1,1.8.43,2.78,2.47,2.87.41.02,1.78-.05,2.13-.17.29-.1.25-.36.01-.51-.56-.37-1.67-.61-2.34-.95-.19-.1-.41-.17-.5-.38-.36-3.57.03-7.34-.63-10.88-.07-.37-.46-2.14-.97-2.09ZM286.79,86.26c.18-.17.38-1.26.36-1.53s-.24-.83-.56-.81c-.41.03-.45.9-.42,1.2.02.22.26,1.48.62,1.14ZM242.17,92.95c-1.58.16-1.42,1.33-.02,1.41.66.04,1.23-.18,1.79-.52.64-.38.36-.57-.2-.74-.5-.15-1.05-.21-1.58-.16Z" fill="#596cb3"/>
    <g>
      <path d="M270.25,54.78l-3.38,3.28c-2.06.4-4.36,1.36-5.93,2.77-1.47,1.33-2.37,3.06-2.84,4.97-1.79-.69-3.77-.5-5.58,0,0-.67,0-1.34,0-2.01l13.81-13.47c1.23,0,2.47,0,3.7,0,.2,0,.21.11.22.27.12,1.24,0,2.91,0,4.19Z" fill="#d0d0d1"/>
      <path d="M266.33,50.32l-13.81,13.47c-.01-4.4.01-8.8,0-13.2-.02-.19.09-.28.27-.27,4.52.01,9.03,0,13.55,0Z" fill="#b0b0b1"/>
      <g>
        <path d="M262.61,43.07c.01.13.11.2.21.25.7.42,3.06.29,3.27.5.1.1.16,1.49.2,1.76.07.44.2.9.35,1.32.07.18.14.44.28.58-.36.61-.73,1.22-1.11,1.81-2.7-.02-5.4.03-8.1,0-.13-.68-.36-1.33-.7-1.93-.11-.2-.28-.39-.39-.59-.46-.85-.33-1.81-.5-2.74-.06-.35-.18-.63-.28-.97,2.25-.04,4.51,0,6.76,0Z" fill="#b6926c"/>
        <path d="M255.85,43.07c.1.34.21.62.28.97.17.93.04,1.88.5,2.74.11.2.28.39.39.59.33.6.57,1.25.7,1.93-.31,0-.62.02-.93-.02l-1.37-2.11v-4.09c.15,0,.29,0,.44,0Z" fill="#99745e"/>
        <path d="M262.61,43.07c1.52,0,3.04,0,4.56,0v4.04c-.05.14-.18.25-.24.37-.14-.14-.21-.39-.28-.58-.15-.42-.28-.87-.35-1.32-.04-.27-.1-1.66-.2-1.76-.21-.21-2.57-.09-3.27-.5-.1-.06-.2-.13-.21-.25Z" fill="#99745e"/>
      </g>
      <path d="M270.25,54.78c0,.84.1,2.03,0,2.82,0,.05,0,.11-.05.15-1.11.04-2.25.11-3.33.32l3.38-3.28Z" fill="#afafaf"/>
    </g>
    <path d="M259.29,69.22c-.16-.16.12-.82.2-1.03,1.01-2.86,3.04-5.79,5.85-7.08.95-.44,2.26-.89,3.28-.5.11.16-.32.42-.43.5-.93.65-2.05,1.01-3.02,1.73-1.85,1.37-2.23,2.68-3.41,4.47-.38.57-1.44,1.64-2.06,1.91-.12.05-.29.1-.4,0Z" fill="#fdfeff"/>
    <path d="M257.6,70.41c.48-.1.66.15.55.6-.09.38-.45.7-.78.89-1.27.73-1.41.28-.63-.78.18-.25.54-.64.86-.71Z" fill="#fbfcfe"/>
    <g>
      <path d="M286.94,82.73c-.18.16-.32-.02-.4-.18-.18-.35-.41-1.24-.54-1.67-.06-.19-.11-.39-.12-.59l-2.62-.05c-1.28-.13-2.59-.08-3.84-.37-2.08-.48-.37-.93.61-1.05,1.39-.17,2.87-.13,4.26-.1,1.65.04,3.2-.19,3.06,2.03-.02.27-.28,1.85-.4,1.97Z" fill="#fdfeff"/>
      <path d="M286.79,86.26c-.36.35-.6-.92-.62-1.14-.03-.29.01-1.17.42-1.2.31-.02.53.55.56.81s-.18,1.36-.36,1.53Z" fill="#f9fbfd"/>
    </g>
    <g>
      <path d="M255.3,66.35c.33,0,2.22.1,2.31.41.03.09-.25.54-.32.65-1.86,3.1-5.64,4.88-9.13,5.32l-3.72-3.59c-.04-.15.06-.26.21-.26h6.95c.42-.08.86-.59.91-1.01.03-.2-.05-.94.05-1.03.12-.1,1.19-.31,1.41-.35.43-.07.89-.14,1.32-.15ZM247.37,70.55c.72-.09,1.5-.08,2.18-.34.37-.15,1.18-.63.42-.86-.58-.17-1.62-.13-2.23-.07-.33.03-1.41.16-1.62.34-.32.28-.19.73.07,1.01.14.15,1.13.8,1.29.79.43,0-.17-.82-.12-.87ZM247.95,71.34c-.47.1-.36.82.06.95.95.3.72-1.12-.06-.95Z" fill="#55c7ed"/>
      <path d="M247.37,70.55c-.06.05.55.86.12.87-.17,0-1.15-.64-1.29-.79-.26-.27-.39-.73-.07-1.01.21-.18,1.29-.31,1.62-.34.61-.06,1.66-.1,2.23.07.76.23-.04.71-.42.86-.68.27-1.46.26-2.18.34Z" fill="#fbfeff"/>
      <path d="M247.95,71.34c.78-.17,1.01,1.25.06.95-.42-.13-.53-.85-.06-.95Z" fill="#f8fcff"/>
    </g>
    <g>
      <path d="M235.45,79.28c.51-.05.9,1.72.97,2.09.66,3.54.27,7.31.63,10.88.09.21.31.29.5.38.67.34,1.77.57,2.34.95.23.15.27.41-.01.51-.35.12-1.72.19-2.13.17-2.04-.09-2.37-1.07-2.47-2.87-.14-2.42-.15-4.87-.19-7.3-.02-1.14-.12-2.33-.05-3.48.01-.26.11-1.31.43-1.33Z" fill="#fdfeff"/>
      <path d="M242.17,92.95c.52-.05,1.07.01,1.58.16.56.16.84.35.2.74-.56.33-1.13.55-1.79.52-1.41-.08-1.56-1.25.02-1.41Z" fill="#fbfcfe"/>
    </g>
  </g>
</svg>