<?xml version="1.0" encoding="UTF-8"?>
<svg id="Layer_1" data-name="Layer 1" xmlns="http://www.w3.org/2000/svg" width="129.63" height="143.45" viewBox="0 0 129.63 143.45">
  <g>
    <path d="M46.66,44.32c.2.25.67.08.97.12,2.32.32,4.27.85,6.45,1.7l.97.97c-.63.04-1.32-.05-1.95,0,.29-.38.39-.48-.04-.76-.73-.47-2.4-.74-3.07-.1-.64.61.64.9,1.04,1.1-.76.07-1.39.18-2.13.36-.2.05-.43.02-.54.25-1.54,0-3.08,0-4.62,0,.95-.65,4.78-1.3,5.36-2,.12-.14.14-.25.11-.43-.19-.02-.36-.12-.55-.13-.64-.02-1.97.17-2.66.26-2.64.34-5.37.99-7.86,1.93.23-.36.1-.19-.17-.26-.51-.12-.94-.18-1.44-.26-.15-.03-.59-.04-.58-.21,2.75-.75,5.63-1.09,8.4-1.76.67-.16,1.55-.31,2.07-.79.08,0,.16,0,.24,0Z" fill="#c1a780"/>
    <path d="M46.41,44.32c-.52.49-1.39.63-2.07.79-2.77.67-5.64,1.01-8.4,1.76,0,.17.44.18.58.21.5.09.93.15,1.44.26.27.06.4-.1.17.26-.25.1-.57.16-.73.36-2.51,0-5.03,0-7.54,0-.02-.17.27-.2.41-.26,5.68-2.55,9.75-3.88,16.14-3.39Z" fill="#8b7450"/>
    <path d="M38.14,47.61c2.49-.94,5.21-1.6,7.86-1.93.7-.09,2.03-.29,2.66-.26.19,0,.36.11.55.13.03.18,0,.29-.11.43-.58.7-4.41,1.35-5.36,2-2.11,0-4.22,0-6.33,0,.16-.21.48-.27.73-.36Z" fill="#fefefd"/>
    <path d="M54.08,46.15c1.14.45,2.24.97,3.37,1.44l.65.39c-3.24,0-6.49,0-9.73,0,.12-.22.34-.2.54-.25.74-.18,1.37-.29,2.13-.36.7-.07,1.38-.18,2.07-.24.62-.05,1.31.04,1.95,0l-.97-.97Z" fill="#8c744f"/>
    <path d="M47.63,44.45c-.3-.04-.77.13-.97-.12.34.03.67.08.97.12Z" fill="#8b7450"/>
    <path d="M53.1,47.12c-.69.06-1.37.18-2.07.24-.4-.2-1.68-.49-1.04-1.1.68-.64,2.34-.37,3.07.1.43.28.32.38.04.76Z" fill="#fefefd"/>
  </g>
  <g>
    <path d="M9.01,132.77c-3.66-.37-6.77-3.72-7-7.36V55.33c.3-3.82,3.17-6.91,6.99-7.36h18c3.9-1.59,7.64-3.71,11.87-4.38-3.66-8.25-7.6-16.48-12.79-23.88-2.34-3.33-5.32-7.09-8.43-9.69-.3-.25-1.88-1.51-2.09-1.57-.37-.1-.37.28-.58.47-1.82,1.63-4.97,1.29-6.12-.93-1.29-2.48-.02-5.9,2.95-6.13,3.27-.25,4.99,2.62,4.09,5.59.33.13.67.36.95.57,4.12,3.08,7.8,7.7,10.7,11.93,4.95,7.26,8.87,15.32,12.33,23.38.7,0,1.41-.06,2.11-.1,3.12-.19,5.64-.03,8.7.67.45.1,1.9.65,2.19.49,1.39-1.84,2.78-3.69,4.31-5.42,4.27-4.82,9.41-9.51,15.39-12.05-.75-3.18,1.57-5.9,4.87-5.05,3.47.89,3.71,6.25.55,7.61-1.95.84-3.95.17-5.11-1.56-7.85,3.58-14,10.17-19.04,17.01,2.49.82,4.76,2.18,7.23,3.05h59.5c3.76.4,6.66,3.49,7,7.23v70.32c-.05,3.23-3.76,7.24-7,7.24h-8.82l6.11,6.24c.31.98.05,1.82-.97,2.13l-10.75-.03c-3.15-2.63-6.04-5.57-9.12-8.28H32.55c-.27.36-.66.57-.98.85-2.45,2.2-4.9,4.89-7.42,6.94-.23.18-.47.35-.73.49l-10.65.05c-1.1-.23-1.5-1.43-.9-2.35l5.94-6.04h-8.82ZM46.41,44.32c-6.38-.5-10.46.84-16.14,3.39-.14.06-.42.09-.41.26,2.51,0,5.03,0,7.54,0,2.11,0,4.22,0,6.33,0,1.54,0,3.08,0,4.62,0,3.24,0,6.49,0,9.73,0l-.65-.39c-1.13-.46-2.23-.99-3.37-1.44-2.17-.85-4.12-1.38-6.45-1.7-.31-.04-.63-.09-.97-.12-.08,0-.16,0-.24,0ZM2.98,77.05c-.01,14.59-.13,29.21,0,43.8,0,.08,0,.16,0,.24.04,3.57-.39,6.79,2.76,9.23,2.3,1.78,4.73,1.34,7.46,1.36,35.78.24,71.57-.17,107.34-.01,3.48-.5,5.8-3.27,6.04-6.73,0-5.13-.01-10.27,0-15.4.02-17.1.23-34.24,0-51.34-.02-1.73.11-3.21-.55-4.87-.92-2.31-3.14-4.1-5.66-4.26-.12-.2-.47-.12-.67-.12-36.59-.35-73.2.26-109.79,0-3.32.06-6.19,2.41-6.78,5.69-.28,7.45-.14,14.95-.15,22.42ZM17.34,134.96c-.24-.01-.34.17-.49.3-1.08,1-3.18,2.91-4.01,4.02-.49.65-.17.86.54.92,3.02.23,6.33-.19,9.39,0,.14.05.24-.11.29-.13.56-.23,1.65-1.45,2.19-1.95,1.93-1.76,3.91-3.47,5.72-5.35-2.15,0-4.3,0-6.45,0-1.71,0-3.43-.02-5.15.02-.13.04-1.79,1.67-1.91,1.86-.09.13-.07.21-.11.31ZM101.4,135.32c.53.85,3.46,3.4,4.38,4.2.18.16.53.44.73.54.07.03.14.18.29.13,3.05-.19,6.36.23,9.39,0,.52-.04,1.05-.22.67-.8-1.35-1.38-2.77-2.71-4.14-4.07-.84-.83-1.6-1.77-2.52-2.53-1.76-.05-3.51-.02-5.27-.02-2.11,0-4.22,0-6.33,0,.32.54.91.87,1.34,1.27.45.42.88,1.05,1.46,1.28Z" fill="#252424"/>
    <path d="M120.38,49.07c2.52.16,4.74,1.95,5.66,4.26.66,1.66.53,3.13.55,4.87-.16.12-.17.39-.21.58-2.45,12.98-2.04,26.39-1.13,39.5.25,3.54.42,7.2,1.1,10.7.04.21.01.43.24.55,0,5.13,0,10.26,0,15.4-.24,3.46-2.56,6.23-6.04,6.73-35.78-.16-71.57.25-107.34.01-2.48-1.3-6.51-1.48-7.97-4.13-1.09-1.99-1.13-4.39-2-6.45-.05-.12.13-.31-.24-.24-.13-14.59-.01-29.2,0-43.8.56,0,.75-.65.91-1.1.9-2.54.76-5.9.91-8.57s.39-5.12.49-7.66-.31-4.95.88-7.27c.69-1.33,2.55-2.15,3.71-3.04l.02-.34h56.27c11.64,1.5,23.46,1.81,35.15.97,6.24-.7,12.72-1.37,19.04-.97ZM73.18,120.48c.16.31.66.35.97.43,3.48.84,7.08,1.43,10.65,1.64,3.19.19,8.22.56,10.21-2.56,1.75-2.76,1.16-9.45.92-12.7-.16-2.15-.21-5.28-1.19-7.2-.09-.18-.25-.58-.51-.53,0-12.24.04-24.51-.06-36.74-.43-1.07-1.15-1.61-2.31-1.7H12.77c-1.18.05-2.31.89-2.37,2.13v55.12c.06,1.24,1.19,2.08,2.37,2.13,20.13-.02,40.27.01,60.4,0ZM111.38,69.14c-.24,0-.49,0-.73,0v-7.54s-1.09,0-1.09,0v7.54h-5.11v1.09h5.11v3.41h-7.18v-7.79h-1.09v7.79h-2.8v.97h2.8v7.54h-2.37c-.26,0-.18.88-.18,1.09h2.55v7c0,.26,1.09.26,1.09,0v-7h7.18v3.28h-5.11v.97h5.11v7.54h.97s.12-7.42.12-7.42h1.34c-.22,1.19.6,1.52,1.21,2.25,1.26,1.5,2.65,4.06,5.02,2.95,1.05-.5,1.1-1.36.82-2.4.1,0,.2.02.3,0l.07-.11v-7.06h2.31c0-.21.07-1.09-.18-1.09h-2.13v-7.54h2.07v-.97h-2.07l-.12-7.79c-.02-.06-.06-.11-.12-.12.27-1.85-1.15-2.73-2.8-2.01-1.11.49-2.68,2.35-3.52,3.29-.55.61-1.34,1.31-1.47,2.12ZM118.77,112.53c0-4.84-3.92-8.76-8.76-8.76s-8.76,3.92-8.76,8.76,3.92,8.76,8.76,8.76,8.76-3.92,8.76-8.76Z" fill="#f1e6d3"/>
    <path d="M126.58,109.53c-.23-.12-.2-.34-.24-.55-.68-3.51-.85-7.17-1.1-10.7-.92-13.11-1.32-26.52,1.13-39.5.04-.19.05-.46.21-.58.23,17.1.02,34.24,0,51.34Z" fill="#bca27d"/>
    <path d="M120.38,49.07c-6.32-.39-12.79.27-19.04.97-11.69.83-23.51.53-35.15-.98H9.92s0-.12,0-.12c36.59.26,73.2-.35,109.79,0,.2,0,.55-.08.67.12Z" fill="#b6ab87"/>
    <path d="M9.92,48.95v.12l-.02.34c-1.16.89-3.03,1.71-3.71,3.04-1.2,2.31-.79,4.78-.88,7.27s-.34,5.12-.49,7.66c-.16,2.68-.02,6.04-.91,8.57-.16.45-.35,1.09-.91,1.1,0-7.47-.13-14.97.15-22.42.59-3.28,3.46-5.63,6.78-5.69Z" fill="#b8a07c"/>
    <path d="M3.23,121.09c.87,2.06.91,4.46,2,6.45,1.46,2.66,5.49,2.84,7.97,4.13-2.73-.02-5.16.42-7.46-1.36-3.15-2.44-2.72-5.65-2.76-9.23h.24Z" fill="#c1a67f"/>
    <path d="M2.98,120.85c.37-.07.19.13.24.24h-.24c0-.08,0-.16,0-.24Z" fill="#b8a07c"/>
    <path d="M94.22,99.56c.26-.06.42.35.51.53.98,1.92,1.03,5.05,1.19,7.2.24,3.25.83,9.94-.92,12.7-1.98,3.12-7.02,2.75-10.21,2.56-3.57-.21-7.17-.8-10.65-1.64-.31-.08-.81-.11-.97-.43,6.22,0,12.45,0,18.68,0,1.2-.05,2.13-.83,2.37-2.01,0-6.31,0-12.62,0-18.92Z" fill="#c1a782"/>
    <path d="M119.16,65.74c-.14-.03-.34.02-.49,0-.19-1.27-1.31-1.26-2.27-.75-1.01.53-1.45,1.42-2.16,2.21-.43.47-1,.91-1.4,1.39-.15.18-.29.27-.24.55-.4,0-.81,0-1.22,0,.13-.81.92-1.51,1.47-2.12.83-.94,2.41-2.81,3.52-3.29,1.65-.72,3.07.16,2.8,2.01Z" fill="#eadbc6"/>
    <g>
      <path d="M94.22,99.56c0,6.31,0,12.61,0,18.92-.24,1.18-1.17,1.96-2.37,2.01-6.23,0-12.45-.01-18.68,0-20.13.02-40.27-.02-60.4,0-1.18-.05-2.31-.89-2.37-2.13v-55.12c.06-1.24,1.19-2.08,2.37-2.13h79.08c1.16.09,1.89.64,2.31,1.7.1,12.23.07,24.5.06,36.74ZM87.99,67.71l1.39,3.53c.2.35.47.62.82.27.4-.4.69-3.59.6-4.25s-.63-1.53-1.17-1.88c-1.17-.75-3.81-.66-5.21-.75-4.56-.3-9.16-.46-13.75-.25l-2.61.37c-.04.21.1.31.25.42,1.78,1.39,9.49,1.83,11.98,2.01,2.35.18,4.72.17,7.06.36.13.01.57.09.64.15ZM21.11,73.28c.26-.26-.87-1.64-1.1-1.88-.67-.74-1.58-1.29-2.52-1.61-.49-.17-1.51-.64-1.37.27.05.35,1.47,1.56,1.84,1.82.43.3,2.09,1.21,2.54,1.36.2.07.4.07.61.05ZM89.44,74.16c-.74.04-1.18,1.08-1.18,1.73,0,.44.64,2.75.97,2.92.23.12.36.07.56-.06.37-.24.91-2.26.92-2.74,0-.67-.45-1.9-1.27-1.85ZM23.86,75.36c-.28.06-.22.45-.08.67s.92.94,1.16,1.15c.44.37,1,.73,1.48,1.08,16.39,11.86,33.89,22,51.78,31.43,2.88,1.52,6.4,3.55,9.37,4.74.24.1.94.43,1.05.03.12-.44-.78-1.07-1.1-1.32-2.87-2.24-6.31-4.43-9.37-6.45-13.91-9.16-28.2-17.82-42.85-25.76-2.93-1.59-6.4-3.67-9.41-4.95-.37-.16-1.74-.68-2.04-.61ZM21.08,116.44c.27-.27.05-.59-.15-.83-.68-.8-2.35-1.65-3.23-2.49-.29-.27-.5-.47-.58-.88-.22-1.25.02-3.24-.02-4.6-.12-3.93-.31-8-.87-11.9-.23-1.61-.58-3.77-1.2-5.25-.35-.84-.57.32-.68.68-1.03,3.63-.58,8.99-.66,12.84-.06,2.8-.46,5.71-.25,8.52s2.52,3.89,5.05,4.07c.43.03,2.37.07,2.59-.15ZM23.07,115.99c-.22.35.44.6.69.68,1.02.33,2.39.11,3.41-.17.51-.14,1.3-.52.36-.81-.73-.22-2.44-.29-3.19-.2-.19.02-1.21.4-1.27.49Z" fill="#221e1f"/>
      <path d="M23.86,75.36c.3-.06,1.67.46,2.04.61,3.01,1.28,6.48,3.36,9.41,4.95,14.65,7.94,28.94,16.6,42.85,25.76,3.06,2.01,6.5,4.21,9.37,6.45.32.25,1.22.87,1.1,1.32-.11.4-.81.07-1.05-.03-2.96-1.19-6.49-3.23-9.37-4.74-17.89-9.43-35.39-19.57-51.78-31.43-.48-.34-1.04-.71-1.48-1.08-.24-.21-1.02-.93-1.16-1.15s-.21-.61.08-.67Z" fill="#fbfcfd"/>
      <path d="M21.08,116.44c-.22.22-2.15.18-2.59.15-2.53-.18-4.85-1.27-5.05-4.07s.2-5.72.25-8.52c.08-3.85-.37-9.21.66-12.84.1-.36.33-1.51.68-.68.61,1.49.96,3.64,1.2,5.25.56,3.91.75,7.98.87,11.9.04,1.36-.2,3.35.02,4.6.07.42.29.61.58.88.88.83,2.55,1.68,3.23,2.49.2.23.42.55.15.83Z" fill="#fafcfc"/>
      <path d="M87.99,67.71c-.07-.06-.51-.14-.64-.15-2.34-.2-4.71-.19-7.06-.36-2.48-.19-10.19-.63-11.98-2.01-.15-.11-.29-.21-.25-.42l2.61-.37c4.58-.21,9.18-.05,13.75.25,1.41.09,4.04,0,5.21.75.54.35,1.08,1.24,1.17,1.88s-.2,3.84-.6,4.25c-.35.35-.62.08-.82-.27l-1.39-3.53Z" fill="#fafcfd"/>
      <path d="M89.44,74.16c.81-.05,1.27,1.18,1.27,1.85,0,.49-.54,2.5-.92,2.74-.2.13-.33.18-.56.06-.34-.18-.97-2.48-.97-2.92,0-.65.44-1.69,1.18-1.73Z" fill="#f8f9f9"/>
      <path d="M21.11,73.28c-.21.01-.41.01-.61-.05-.45-.14-2.1-1.06-2.54-1.36-.37-.25-1.79-1.47-1.84-1.82-.14-.92.88-.44,1.37-.27.94.33,1.85.88,2.52,1.61.23.25,1.36,1.62,1.1,1.88Z" fill="#f5f7f7"/>
      <path d="M23.07,115.99c.06-.09,1.08-.47,1.27-.49.76-.1,2.47-.03,3.19.2.93.28.14.67-.36.81-1.03.28-2.39.5-3.41.17-.25-.08-.91-.34-.69-.68Z" fill="#f5f7f7"/>
    </g>
    <g>
      <path d="M118.77,112.53c0,4.84-3.92,8.76-8.76,8.76s-8.76-3.92-8.76-8.76,3.92-8.76,8.76-8.76,8.76,3.92,8.76,8.76ZM104.93,106.73c-4.16,3.6-3.25,10.17,1.58,12.65,1.04.53,2.09.91,3.28.85l-.24-2.25c.12-1.17-.1-2.39-.13-3.52-.08-3.24.17-6.46.25-9.68-1.83.17-3.36.74-4.74,1.95ZM111.13,106.98c.78,3.47.78,7.98-.12,11.44-.01.04-.12.14-.16.26-.07.24-.54,1.48-.45,1.56,5.09-.25,8.48-5.19,6.97-10.07-.73-2.34-2.96-4.53-5.36-5.1-.49-.12-1.01-.11-1.49-.28-.07.09.53,1.86.61,2.19Z" fill="#272222"/>
      <path d="M104.93,106.73c1.39-1.2,2.91-1.78,4.74-1.95-.08,3.22-.33,6.44-.25,9.68.03,1.13.24,2.35.13,3.52l.24,2.25c-1.19.06-2.25-.32-3.28-.85-.09-1.12-.87-2.02-1.32-3s-1-2.57-1.1-3.65c-.18-2.01.68-4.03.84-6.01Z" fill="#c0a57e"/>
      <path d="M111.13,106.98c-.07-.33-.68-2.1-.61-2.19.48.17.99.16,1.49.28,2.4.57,4.64,2.76,5.36,5.1,1.51,4.88-1.88,9.83-6.97,10.07-.09-.08.38-1.32.45-1.56.03-.12.15-.22.16-.26.69-.27,1.22-1.44,1.48-2.11,1.03-2.56.74-6.72-.92-8.98-.12-.17-.16-.38-.44-.35Z" fill="#c0a57e"/>
      <path d="M106.51,119.39c-4.84-2.49-5.74-9.05-1.58-12.65-.16,1.98-1.02,4-.84,6.01.1,1.08.64,2.65,1.1,3.65s1.23,1.88,1.32,3Z" fill="#8c744f"/>
      <path d="M111.01,118.41c.9-3.45.9-7.96.12-11.44.28-.02.32.18.44.35,1.67,2.25,1.95,6.42.92,8.98-.27.66-.8,1.84-1.48,2.11Z" fill="#8c744f"/>
    </g>
    <g>
      <g>
        <path d="M24.52,132.77c-.07.33.16.23.36.3,1.14.38,2.19.38,3.35.31.3-.02.61.01.91,0-.78.74-1.62,1.42-2.31,2.25-.44.54-1.01,1.33-1.37,1.92-.11.19-.27.32-.22.57-.54.49-1.62,1.72-2.19,1.95h-5.89s-2.5-.85-2.5-.85c-.05-.18.04-.2.12-.3,1.15-1.51,1.81-2.12,2.56-3.95.04-.1.02-.17.11-.31.13-.19,1.79-1.82,1.91-1.86,1.71-.05,3.43-.02,5.15-.02ZM23.06,135.44c.14.4-.73,1.65-.06,1.71.29.03.66-.27.9-.44.87-.6,1.81-1.64.99-2.67-.73-.92-3.15-.72-4.17-.39-.41.13-.9.29-.59.76.46.7,2.13.94,2.93,1.03ZM19.25,136.93c-.95.16-3.15,1.59-.99,1.78.72.07,1.47-.04,2.06-.47,1.29-.96.05-1.5-1.07-1.31Z" fill="#c1a67f"/>
        <path d="M17.34,134.96c-.75,1.83-1.41,2.45-2.56,3.95-.08.1-.17.12-.12.3l2.5.85h5.89c-.05.03-.15.19-.29.13-3.06-.19-6.36.23-9.39,0-.71-.05-1.03-.27-.54-.92.83-1.1,2.93-3.01,4.01-4.02.15-.14.25-.31.49-.3Z" fill="#896f4d"/>
        <path d="M24.52,132.77c2.15,0,4.3,0,6.45,0-1.81,1.88-3.79,3.59-5.72,5.35-.05-.26.1-.39.22-.57.36-.59.93-1.38,1.37-1.92.69-.84,1.53-1.51,2.31-2.25-.3.01-.61-.02-.91,0-1.15.07-2.2.07-3.35-.31-.2-.07-.43.03-.36-.3Z" fill="#8c744f"/>
        <path d="M23.06,135.44c-.79-.09-2.46-.33-2.93-1.03-.31-.47.17-.63.59-.76,1.02-.33,3.44-.53,4.17.39.82,1.03-.12,2.07-.99,2.67-.24.17-.61.47-.9.44-.67-.06.2-1.31.06-1.71Z" fill="#fefefd"/>
        <path d="M19.25,136.93c1.12-.19,2.36.35,1.07,1.31-.59.44-1.34.54-2.06.47-2.17-.2.04-1.62.99-1.78Z" fill="#fbfcfd"/>
      </g>
      <g>
        <path d="M112.71,135.32c.26,1.59,1.56,2.72,2.55,3.89-.65.13-1.32.15-1.97.28s-1.42.49-1.99.57c-1.47.19-3.29-.13-4.8,0-.2-.11-.55-.39-.73-.54-.92-.79-3.85-3.35-4.38-4.2-.03-.06-.03-.22-.09-.33-.27-.43-.64-.9-.76-1.38h2.25c.26,0,1.47-.39,1.8-.52.19-.08.4-.03.33-.33,1.75,0,3.51-.02,5.27.02.92.76,1.67,1.7,2.52,2.53ZM106.73,132.92c-.75.06-1.64.34-2.22.82-.94.77-.73,1.46.48,1.58.84.09,2.02-.2,2.67-.12.57.07,1.7,1.03,2.47,1.19.21.04.43.08.59-.09.26-.37-.53-1.67-.8-2.01-.77-.97-1.95-1.47-3.19-1.37ZM106.84,136.32c-1.12.24-.36,1.75.28,2.22.31.23,1.37.73,1.7.5.56-.38-.67-3-1.99-2.72Z" fill="#c1a67f"/>
        <path d="M106.51,140.07c1.51-.13,3.33.18,4.8,0,.56-.07,1.35-.44,1.99-.57s1.32-.15,1.97-.28c-1-1.17-2.29-2.3-2.55-3.89,1.37,1.36,2.79,2.68,4.14,4.07.39.59-.15.76-.67.8-3.02.23-6.33-.19-9.39,0-.15.05-.23-.09-.29-.13Z" fill="#896f4d"/>
        <path d="M104.93,132.77c.06.3-.14.26-.33.33-.32.13-1.53.52-1.8.52h-2.25c.12.48.49.95.76,1.38.07.11.06.27.09.33-.58-.23-1-.86-1.46-1.28-.43-.4-1.02-.74-1.34-1.27,2.11,0,4.22,0,6.33,0Z" fill="#8c744f"/>
        <path d="M106.73,132.92c1.23-.1,2.41.4,3.19,1.37.27.34,1.06,1.64.8,2.01-.16.17-.38.13-.59.09-.77-.16-1.9-1.12-2.47-1.19-.65-.08-1.83.21-2.67.12-1.21-.12-1.42-.81-.48-1.58.59-.48,1.47-.76,2.22-.82Z" fill="#fefefd"/>
        <path d="M106.84,136.32c1.31-.28,2.55,2.34,1.99,2.72-.33.23-1.39-.27-1.7-.5-.65-.47-1.4-1.98-.28-2.22Z" fill="#fefefd"/>
      </g>
    </g>
    <g>
      <path d="M110.65,87.63l-.12,7.42h-.97v-7.54h-5.11v-.97h5.11v-3.28h-7.18v7c0,.26-1.09.26-1.09,0v-7h-2.55c0-.21-.07-1.09.18-1.09h2.37v-7.54h-2.8v-.97h2.8v-7.79h1.09v7.79h7.18v-3.41h-5.11v-1.09h5.11v-7.54h1.1s0,7.54,0,7.54c.24,0,.49,0,.73,0,.4,0,.81,0,1.22,0,.36,0,.73,0,1.09,0,.44,0,.89,0,1.34,0,.33,0,.43.09.61.12v.97s-4.99,0-4.99,0v3.41h7.66c0-1.13,0-2.27,0-3.41,0-.85,0-1.71,0-2.55,0-.61,0-1.22,0-1.83h.97s.12,7.79.12,7.79h2.07v.97h-2.07v7.54h2.13c.26,0,.18.88.18,1.09h-2.31v7.06h-1.1c0-.85,0-1.7,0-2.55,0-.69,0-1.38,0-2.07,0-.81,0-1.62,0-2.43h-7.66v3.28c.89,0,1.79,0,2.68,0,.77,0,1.54,0,2.31,0v.97s-4.91.01-4.91.01l-.07.11ZM109.55,74.62h-7.18v7.66h7.18v-3.41h-5.11v-1.09h5.11v-3.16ZM118.31,74.62h-7.6s-.18.17-.18.18v2.98h5.11v.97h-4.93s-.18.17-.18.18v3.16s.17.18.18.18h7.6v-7.66Z" fill="#292424"/>
      <path d="M112.96,87.63c0,.79.82,1.1,1.28,1.58.94.97,1.86,3.03,3.55,2.46.61-.2.99-.55.89-1.24.12-.01.24,0,.36,0,.28,1.04.23,1.91-.82,2.4-2.37,1.12-3.76-1.45-5.02-2.95-.62-.74-1.44-1.07-1.21-2.25.32,0,.65,0,.97,0Z" fill="#eadbc6"/>
      <path d="M118.31,87.76c0,.85,0,1.71,0,2.56h1.1s-.07.11-.07.11c-.1.03-.2,0-.3,0-.12,0-.25-.01-.36,0-.45.05-.56.3-.92.36-1.36.22-1.99-1.13-2.73-2-.32-.37-.84-.68-.97-1.16.48,0,1.49-.09,1.86.02.32.1.79.72,1.36.72.5,0,.55-.57,1.03-.62Z" fill="#cab69c"/>
      <path d="M118.67,65.74c.15.02.35-.03.49,0,.06.01.11.06.12.12h-.97c0,.61,0,1.22,0,1.82-.33.02-.45-.39-.69-.47-.77-.23-1.41.55-1.87,1-.28.27-.71.4-.72.92-.44,0-.89,0-1.34,0,.09-.62.72-.95,1.09-1.4.56-.68,1.5-2.4,2.48-2.36.36.01.94.28,1.41.36Z" fill="#cab69c"/>
      <path d="M118.31,85.69c0,.69,0,1.38,0,2.07-.48.05-.53.61-1.03.62-.57,0-1.04-.62-1.36-.72-.37-.11-1.39-.02-1.86-.02-.36,0-.73,0-1.09,0-.32,0-.65,0-.97,0h-1.34l.07-.11h4.91s0-.99,0-.99c-.77,0-1.54,0-2.31,0-.01-.51.9-.62,1.28-.62.74,0,1.7.58,2.3.5.49-.06.88-.69,1.41-.73Z" fill="#beab8c"/>
      <path d="M118.31,74.62v7.66h-7.6s-.18-.17-.18-.18v-3.16s.17-.18.18-.18h4.93v-.97h-5.11v-2.98s.17-.18.18-.18h7.6Z" fill="#eee3d0"/>
      <polygon points="109.55 74.62 109.55 77.78 104.44 77.78 104.44 78.87 109.55 78.87 109.55 82.28 102.37 82.28 102.37 74.62 109.55 74.62" fill="#c0a57d"/>
      <path d="M118.31,70.24c0,1.13,0,2.27,0,3.41h-7.66v-3.41h4.99s0-.97,0-.97c.64.1,1.19-1.01,2,.13.21.29.24.83.68.84Z" fill="#c2a680"/>
      <path d="M113.32,86.54c-.89,0-1.79,0-2.68,0v-3.28h7.66c0,.81,0,1.62,0,2.43-.52.04-.92.67-1.41.73-.61.08-1.56-.5-2.3-.5-.38,0-1.29.11-1.28.62Z" fill="#c0a67f"/>
      <path d="M118.67,65.74c-.47-.08-1.05-.35-1.41-.36-.98-.03-1.93,1.68-2.48,2.36-.37.45-1,.78-1.09,1.4-.36,0-.73,0-1.09,0-.05-.28.09-.37.24-.55.4-.48.98-.92,1.4-1.39.71-.79,1.16-1.68,2.16-2.21s2.09-.52,2.27.75Z" fill="#e2d0b9"/>
      <path d="M118.31,67.68c0,.85,0,1.71,0,2.55-.43-.02-.47-.55-.68-.84-.81-1.13-1.36-.03-2-.13-.18-.03-.28-.11-.61-.12,0-.53.44-.65.72-.92.46-.45,1.11-1.24,1.87-1,.24.07.36.49.69.47Z" fill="#ccb492"/>
      <path d="M114.05,87.63c.13.48.65.79.97,1.16.75.87,1.37,2.22,2.73,2,.36-.06.46-.31.92-.36.1.7-.27,1.04-.89,1.24-1.69.57-2.61-1.49-3.55-2.46-.46-.48-1.28-.79-1.28-1.58.36,0,.73,0,1.09,0Z" fill="#e2d0b9"/>
    </g>
  </g>
</svg>